<?xml version="1.0" encoding="utf-8"?>
<!-- Generator: Adobe Illustrator 24.2.0, SVG Export Plug-In . SVG Version: 6.00 Build 0)  -->
<svg version="1.1" id="Layer_1" xmlns="http://www.w3.org/2000/svg" xmlns:xlink="http://www.w3.org/1999/xlink" x="0px" y="0px"
	 viewBox="0 0 841.9 595.3" style="enable-background:new 0 0 841.9 595.3;" xml:space="preserve">
<style type="text/css">
	.st0{fill:#FCCE87;}
	.st1{fill:#C4C4C4;}
	.st2{fill:#3F3D55;}
	.st3{opacity:0.22;fill:#FFFFFF;}
	.st4{fill:#563131;}
	.st5{fill:#70403E;}
	.st6{fill:#E67817;}
	.st7{fill:#2C2858;}
	.st8{fill:#314C5F;}
	.st9{fill:#F3DAD1;}
	.st10{fill:#FFFFFF;}
	.st11{opacity:0.18;fill:#A3A2A2;}
	.st12{fill:#542E2E;}
	.st13{fill:#86B1F2;}
	.st14{fill:#FAE0B2;}
	.st15{fill:#B0173E;}
	.st16{fill:#466EB6;}
	.st17{fill:#E62552;}
	.st18{fill:#F3C8B9;}
	.st19{fill:#F3AE9C;}
	.st20{fill:#3F964F;}
	.st21{fill:#0E6A41;}
	.st22{fill:#DE6280;}
</style>
<g>
	<path class="st0" d="M31.1,508.6h761.5c41.2-65.6-23.8-127.5-63.9-159c-114.1-89.5-60.6-187.6-191-187.6
		c-134.6,0-147.4,192.1-325.6,154C31.1,277.2,31.1,508.6,31.1,508.6z"/>
	<g>
		<path class="st1" d="M690.4,443c-11.6-45.2,12.8-64,49.8-81.4c34.3-16.2-10.1-48.4,36.4-92c19.6-18.3-34-26.8-61-10
			c-20.1,12.6-0.1,40.6-37.9,53.9c-23.7,8.3-69.5,46.6-99.7,53.3c-36.7,8.2-29.4,105.1,12.3,134.3
			C629.4,528.4,702.5,490.1,690.4,443z"/>
		<g>
			<g>
				<path class="st0" d="M762.4,262.1c-18.3,0.9-35.1,12.8-42.9,29.2c-2,4.1-3.3,8.5-4,13c-0.8,5.8-0.6,11.6-1.8,17.3
					c-2.3,10.2-8.6,19-16,26.3c-7.8,7.8-17,14-25.7,20.7c-4.5,3.5-8.9,7.2-12.9,11.2c-4.1,4.1-7.6,8.7-11.3,13.2
					c-3,3.8-6.1,7.6-9.6,10.9c-2,1.9-4.2,3.6-6.3,5.2c-5.9,4.5-12.2,8.7-18.4,12.8c-12.4,8.2-25.1,16-38.1,23.2
					c-1,0.5-1.9,1.1-2.9,1.6c-1.3,0.7-0.2,2.8,1.2,2c12.2-6.4,24-13.8,35.6-21.3c6.6-4.3,13.2-8.6,19.6-13.2
					c5-3.6,9.9-7.3,14.1-11.9c4-4.3,7.5-9,11.3-13.6c3.6-4.4,7.4-8.5,11.7-12.2c8.4-7.5,17.9-13.7,26.6-20.9
					c7.8-6.5,15.1-14.1,19.7-23.3c2.3-4.6,3.8-9.5,4.5-14.6c0.7-5.6,0.5-11.3,1.8-16.8c4.2-17.7,19.4-32.2,37.2-35.9
					c2.2-0.5,4.4-0.7,6.7-0.8C764,264.4,764,262,762.4,262.1L762.4,262.1z"/>
			</g>
		</g>
		<g>
			<g>
				<path class="st0" d="M712.4,333.4c4.1-4.4,8.4-8.9,14-11.6c2.8-1.3,5.7-2.2,8.3-3.9c2.3-1.6,4.3-3.6,6-5.9
					c0.9-1.2-1.2-2.4-2-1.2c-1.7,2.4-3.8,4.3-6.3,5.8c-2.6,1.5-5.5,2.3-8.2,3.8c-5.2,2.8-9.3,7.1-13.3,11.4
					C709.7,332.8,711.4,334.5,712.4,333.4L712.4,333.4z"/>
			</g>
		</g>
		<g>
			<g>
				<path class="st0" d="M673.8,370.4c3.2-0.7,5.2-4.3,6.9-6.8c2-3,3.8-6.2,4.6-9.7c0.9-3.9,0.1-7.7,0.6-11.6
					c0.4-3.7,1.9-7.3,4.2-10.3c0.9-1.2-1.1-2.4-2-1.2c-2,2.7-3.5,5.9-4.2,9.3c-0.7,3.7,0,7.4-0.4,11.1c-0.4,3.4-1.9,6.6-3.6,9.5
					c-0.9,1.5-1.8,2.9-2.8,4.2c-1,1.4-2,2.9-3.8,3.3C671.7,368.4,672.3,370.7,673.8,370.4L673.8,370.4z"/>
			</g>
		</g>
	</g>
	<ellipse transform="matrix(0.866 -0.5 0.5 0.866 -139.9039 402.155)" class="st2" cx="680.5" cy="462.1" rx="83.5" ry="38.5"/>
	<g>
		<g>
			<path class="st0" d="M590.2,439.1c-0.6-8.5,0.7-17.1,3.8-25.1c3.1-7.8,8-14.6,13-21.3c2.8-3.8,5.6-7.7,8.1-11.8
				c0.8-1.3-1.3-2.5-2-1.2c-4.4,7.3-10,13.9-14.7,21.1c-4.8,7.2-8.2,15.2-9.7,23.7c-0.8,4.8-1.1,9.7-0.8,14.6
				C587.9,440.6,590.3,440.7,590.2,439.1L590.2,439.1z"/>
		</g>
	</g>
	<g>
		
			<ellipse transform="matrix(0.4161 -0.9093 0.9093 0.4161 68.8032 747.5121)" class="st2" cx="616.5" cy="320.2" rx="83.5" ry="38.5"/>
		<g>
			<g>
				<path class="st0" d="M647.3,249.7c-4.6,7.9-8.4,16.4-11.9,24.8c-4.3,10.1-8.3,20.4-12.2,30.7c-8.2,21.4-16.2,43-26.3,63.5
					c-4.5,9.2-9.5,18.5-16,26.5c-1,1.2,0.7,2.9,1.7,1.7c5.7-7,10.3-15,14.4-23.1c5-9.8,9.4-19.9,13.6-30.1
					c8.8-21.4,16.5-43.2,25.4-64.5c4-9.6,8.2-19.3,13.4-28.3C650.1,249.6,648.1,248.4,647.3,249.7L647.3,249.7z"/>
			</g>
		</g>
		<g>
			<g>
				<path class="st0" d="M628.3,297.1c-0.7-9.9-1.4-20.1,1.6-29.8c0.5-1.5-1.8-2.1-2.3-0.6c-3.1,9.9-2.4,20.3-1.7,30.4
					C626,298.6,628.4,298.6,628.3,297.1L628.3,297.1z"/>
			</g>
		</g>
		<g>
			<g>
				<path class="st0" d="M595.3,374.6c-0.5-6-2.3-11.9-3.8-17.7c-1.8-7-3.7-14-4.5-21.2c-0.3-2.8-0.6-5.9,0.2-8.7
					c0.4-1.5-1.8-2.1-2.3-0.6c-0.7,2.4-0.7,5.1-0.5,7.6c0.3,3.4,0.9,6.8,1.6,10.1c1.5,7.3,3.6,14.4,5.3,21.6
					c0.7,2.9,1.4,5.9,1.7,8.9C593,376.1,595.4,376.1,595.3,374.6L595.3,374.6z"/>
			</g>
		</g>
		<g>
			<g>
				<path class="st0" d="M653.3,301.8c-5.8,2-10.5,5.9-15.6,9.2c-5.5,3.5-11.8,5.8-18.3,6.6c-1.5,0.2-1.5,2.6,0,2.4
					c6.5-0.8,12.8-2.9,18.4-6.3c5.3-3.2,10.1-7.6,16.1-9.6C655.3,303.6,654.7,301.3,653.3,301.8L653.3,301.8z"/>
			</g>
		</g>
		<g>
			<g>
				<path class="st0" d="M623.6,368.4c-5.8,2-10.5,5.9-15.6,9.2c-5.5,3.5-11.8,5.8-18.3,6.6c-1.5,0.2-1.5,2.6,0,2.4
					c6.5-0.8,12.8-2.9,18.4-6.3c5.3-3.2,10.1-7.6,16.1-9.6C625.7,370.2,625.1,367.9,623.6,368.4L623.6,368.4z"/>
			</g>
		</g>
		<g>
			<g>
				<path class="st0" d="M609.9,341.6c-0.8-8.8-4.1-17.4-3.6-26.3c0.2-3.1,1.1-6.2,1.5-9.2c0.5-3.7,1-7.3,1.3-11
					c0.3-3.4,0.6-6.9,0.4-10.3c-0.1-1.5-2.5-1.5-2.4,0c0.2,3,0,6-0.3,8.9c-0.3,3.7-0.7,7.4-1.2,11.1c-0.4,3-1.2,6-1.6,9
					c-0.5,4.3,0.1,8.8,0.9,13.1c0.9,4.9,2.1,9.8,2.6,14.8C607.6,343.1,610,343.1,609.9,341.6L609.9,341.6z"/>
			</g>
		</g>
		<g>
			<g>
				<path class="st0" d="M636.1,346.1c-5.8,0.3-9.9,4.6-14.5,7.6c-5.3,3.4-11.5,5-17.8,4.5c-1.5-0.1-1.5,2.3,0,2.4
					c6.1,0.4,12.2-1,17.6-4c4.8-2.7,9-7.8,14.7-8.2C637.6,348.4,637.6,346,636.1,346.1L636.1,346.1z"/>
			</g>
		</g>
		<g>
			<g>
				<path class="st0" d="M652.4,267.1c-4.9,2.9-10.1,6-15.9,5.9c-1.5,0-1.5,2.3,0,2.4c6.3,0.1,11.9-3.1,17.1-6.3
					C654.9,268.4,653.8,266.3,652.4,267.1L652.4,267.1z"/>
			</g>
		</g>
	</g>
	<g>
		<g>
			<path class="st0" d="M745.1,423c-9,2.4-17.2,6.9-25.1,11.9c-8.4,5.3-16.6,10.9-25,16.3c-17.4,11.2-34.9,22.1-52.4,33
				c-9.2,5.7-18.5,11.6-28.8,15.4c-1.4,0.5-0.8,2.8,0.6,2.3c9-3.3,17.3-8.2,25.4-13.2c8.7-5.3,17.3-10.7,25.9-16.1
				c17.3-10.8,34.5-21.9,51.7-33.1c8.8-5.8,18-11.3,28.2-14.1C747.2,424.9,746.6,422.7,745.1,423L745.1,423z"/>
		</g>
	</g>
	<g>
		<g>
			<path class="st0" d="M714.5,438c-0.6-3.5,1.2-6.8,3.1-9.7c2.2-3.3,4.8-6.3,7.2-9.4c0.9-1.2-0.7-2.9-1.7-1.7
				c-2.7,3.4-5.6,6.8-8,10.5c-2.1,3.3-3.6,7-2.9,10.9C712.4,440.1,714.7,439.5,714.5,438L714.5,438z"/>
		</g>
	</g>
	<g>
		<g>
			<path class="st0" d="M694.1,454c8.3,0.1,16.6,0.2,24.9,0.3c3.8,0,7.7,0.3,11.5,0c3.1-0.2,6.2-0.9,8.5-3.1c1.1-1-0.5-2.7-1.7-1.7
				c-2.3,2.1-5.6,2.4-8.6,2.4c-3.7,0.1-7.5-0.1-11.2-0.1c-7.8-0.1-15.6-0.2-23.4-0.2C692.6,451.6,692.6,454,694.1,454L694.1,454z"/>
		</g>
	</g>
	<g>
		<g>
			<path class="st0" d="M673.1,465.8c-0.6-3.9,0.5-7.8,1.9-11.4c1.4-3.5,3-6.9,4.6-10.4c3.1-6.6,6.6-13.1,11.5-18.5
				c1-1.1-0.7-2.8-1.7-1.7c-5.2,5.8-8.9,12.7-12.2,19.8c-3.3,7.1-7.5,14.7-6.4,22.8C671.1,467.9,673.4,467.3,673.1,465.8
				L673.1,465.8z"/>
		</g>
	</g>
	<g>
		<g>
			<path class="st0" d="M655.8,479.8c9.4-1.7,18.6,2.5,27.8,3.3c9,0.8,18-0.9,26.2-4.7c1.4-0.6,0.2-2.7-1.2-2
				c-8.2,3.8-17.3,5.3-26.3,4.2c-9.1-1-17.9-4.8-27.1-3C653.7,477.8,654.3,480.1,655.8,479.8L655.8,479.8z"/>
		</g>
	</g>
	<g>
		<g>
			<path class="st0" d="M635.5,490.9c0.6-16.2,10-30.2,18.8-43.2c0.9-1.3-1.2-2.5-2-1.2c-9,13.4-18.4,27.7-19.1,44.4
				C633,492.4,635.4,492.4,635.5,490.9L635.5,490.9z"/>
		</g>
	</g>
	<g>
		<g>
			<path class="st0" d="M624,498.6c7.5,2.3,15,5.1,23,4.8c7.9-0.3,15.5-3,22.9-5.6c1.4-0.5,0.8-2.8-0.6-2.3
				c-7.2,2.5-14.5,5.1-22.2,5.5c-7.7,0.3-15.1-2.5-22.4-4.7C623.1,495.8,622.5,498.1,624,498.6L624,498.6z"/>
		</g>
	</g>
	<g>
		<path class="st1" d="M138,504.5c11.6-45.2-12.8-64-49.8-81.4c-34.3-16.2,10.1-48.4-36.4-92c-19.6-18.3,34-26.8,61-10
			c20.1,12.6,0.1,40.6,37.9,53.9c23.7,8.3,45.5,66.5,75.7,73.3c22.4,5,52.4,23.1,44.2,58.6L138,504.5z"/>
		<g>
			<g>
				<path class="st0" d="M65.9,325.9c18,0.9,34.6,13.2,41.6,29.7c1.8,4.3,2.9,8.8,3.3,13.4c0.5,5.7,0.5,11.4,2.1,16.9
					c2.7,9.6,8.8,17.9,15.8,24.9c7.7,7.7,16.7,13.8,25.2,20.5c4.4,3.4,8.7,6.9,12.6,10.8c4,4,7.5,8.4,11,12.8
					c3.2,4,6.5,8.1,10.2,11.7c1.9,1.9,4,3.5,6.1,5.2c5.8,4.6,11.9,8.8,18,12.9c12.3,8.2,24.8,16.1,37.7,23.3c1,0.6,2,1.1,3,1.7
					c1.3,0.7,2.5-1.3,1.2-2c-12.4-6.5-24.3-14.1-36-21.8c-6.5-4.3-12.9-8.6-19.2-13.3c-2.4-1.8-4.8-3.6-7-5.6
					c-3-2.6-5.6-5.6-8.2-8.6c-3.7-4.4-7.1-9-10.9-13.3c-3.7-4.2-7.8-8-12.1-11.6c-8.5-7-17.7-13.1-26-20.4
					c-7.5-6.7-14.4-14.7-18.1-24.2c-2-5.3-2.5-10.7-2.9-16.3c-0.3-5-0.9-9.8-2.5-14.6c-5.7-16.8-20.9-30.3-38.4-33.6
					c-2.2-0.4-4.4-0.7-6.6-0.8C64.4,323.5,64.4,325.9,65.9,325.9L65.9,325.9z"/>
			</g>
		</g>
		<g>
			<g>
				<path class="st0" d="M118.2,393.2c-4-4.2-8.1-8.6-13.3-11.4c-2.7-1.4-5.6-2.2-8.2-3.8c-2.5-1.5-4.6-3.5-6.3-5.8
					c-0.9-1.2-2.9-0.1-2,1.2c1.6,2.3,3.5,4.2,5.8,5.8c2.6,1.8,5.6,2.7,8.4,4.1c5.5,2.6,9.8,7.2,14,11.6
					C117.6,396,119.3,394.3,118.2,393.2L118.2,393.2z"/>
			</g>
		</g>
		<g>
			<g>
				<path class="st0" d="M155.8,429.6c-1.7-0.4-2.7-1.8-3.6-3.1c-1-1.4-2-2.8-2.9-4.2c-1.8-2.9-3.4-6.2-3.7-9.7
					c-0.4-3.6,0.3-7.2-0.4-10.9c-0.7-3.4-2.1-6.7-4.2-9.5c-0.9-1.2-3,0-2,1.2c2.2,3,3.7,6.5,4.2,10.3c0.5,3.9-0.4,7.8,0.6,11.6
					c0.9,3.5,2.6,6.7,4.6,9.7c1.7,2.5,3.7,6.1,6.9,6.8C156.7,432.2,157.3,429.9,155.8,429.6L155.8,429.6z"/>
			</g>
		</g>
		<g>
			<g>
				<path class="st0" d="M153.3,454.4c3.8-0.7,7.6,0.9,11,2.5c3.5,1.6,6.9,3.3,10.3,5c6.8,3.5,13.6,7.2,20.4,10.8
					c1.3,0.7,2.5-1.3,1.2-2c-7.2-3.9-14.4-7.8-21.7-11.5c-3.6-1.8-7.2-3.6-10.9-5.2c-3.5-1.5-7.1-2.6-10.9-1.9
					C151.2,452.4,151.8,454.7,153.3,454.4L153.3,454.4z"/>
			</g>
		</g>
	</g>
	<g>
		
			<ellipse transform="matrix(0.6147 -0.7887 0.7887 0.6147 -321.9688 244.2065)" class="st2" cx="89" cy="451.7" rx="38.5" ry="83.5"/>
		<g>
			<g>
				<path class="st0" d="M28.4,406.3c5.4,7.2,12.4,13,19.6,18.2c8.1,5.8,16.3,11.3,24.5,17.1c17.2,12.1,34.2,24.5,51.2,36.9
					c8.8,6.4,17.7,12.8,25,20.9c1,1.1,2.7-0.6,1.7-1.7c-6.5-7.1-14.1-12.9-21.8-18.6c-8.3-6.1-16.6-12.1-24.9-18.1
					c-16.7-12.1-33.6-24-50.6-35.8c-8.3-5.8-16.6-12-22.8-20.2C29.5,404,27.5,405.1,28.4,406.3L28.4,406.3z"/>
			</g>
		</g>
		<g>
			<g>
				<path class="st0" d="M53.9,429.2c-3.1,1.9-6.8,1.6-10.3,0.9c-3.9-0.8-7.7-2.1-11.5-3.2c-1.5-0.4-2.1,1.9-0.6,2.3
					c4.2,1.2,8.4,2.6,12.6,3.4c3.7,0.7,7.6,0.7,11-1.3C56.4,430.4,55.3,428.4,53.9,429.2L53.9,429.2z"/>
			</g>
		</g>
		<g>
			<g>
				<path class="st0" d="M76.4,442.2c-3.1-7.9-6.2-15.8-9.3-23.6c-1.3-3.4-2.6-6.9-4.1-10.3c-1.3-2.8-3.1-5.4-5.9-6.7
					c-1.4-0.7-2.6,1.4-1.2,2c2.7,1.3,4.2,3.9,5.4,6.5c1.5,3.4,2.8,6.9,4.1,10.4c2.9,7.4,5.8,14.8,8.7,22.2
					C74.7,444.2,76.9,443.6,76.4,442.2L76.4,442.2z"/>
			</g>
		</g>
		<g>
			<g>
				<path class="st0" d="M95.2,457c-6.3,3.7-14.3,2.6-21.2,2.3c-7.8-0.4-15.7-1.1-23.1-3.8c-1.4-0.5-2.1,1.8-0.6,2.3
					c7.8,2.8,16,3.5,24.2,3.9c7.3,0.3,15.4,1.2,22-2.6C97.8,458.3,96.6,456.3,95.2,457L95.2,457z"/>
			</g>
		</g>
		<g>
			<g>
				<path class="st0" d="M114.7,468.1c-3.9-6.1-4.6-13.6-5.9-20.6c-1.3-7.1-3.9-13.8-7.9-19.8c-2.2-3.3-4.8-6.4-7.8-9.1
					c-1.1-1-2.8,0.6-1.7,1.7c5.2,4.9,9.4,10.8,12.1,17.4c2.7,6.6,3.3,13.6,4.8,20.5c0.9,3.9,2.1,7.7,4.3,11.1
					C113.5,470.5,115.5,469.3,114.7,468.1L114.7,468.1z"/>
			</g>
		</g>
		<g>
			<g>
				<path class="st0" d="M132.7,482.5c-15.2,5.5-31.7,2.1-47-1.1c-1.5-0.3-2.1,2-0.6,2.3c15.7,3.3,32.7,6.7,48.3,1.1
					C134.7,484.3,134.1,482,132.7,482.5L132.7,482.5z"/>
			</g>
		</g>
		<g>
			<g>
				<path class="st0" d="M144,490.5c-0.8-8.2-1-16.5-4.6-24.1c-3.3-6.9-8.4-12.7-13.4-18.4c-1-1.1-2.7,0.5-1.7,1.7
					c4.8,5.4,9.7,11,12.9,17.5c3.6,7.2,3.7,15.3,4.5,23.2C141.8,492,144.1,492,144,490.5L144,490.5z"/>
			</g>
		</g>
	</g>
	<g>
		<g>
			<path class="st0" d="M184.3,458.9c-8.4-13-12.9-26.6-10.9-42.2c0.2-1.6-2.3-1.6-2.5,0c-2,16.1,2.7,30.1,11.3,43.5
				C183,461.5,185.2,460.3,184.3,458.9L184.3,458.9z"/>
		</g>
	</g>
	<g>
		<g>
			<path class="st0" d="M235.5,497.5c-12.8-13.4-26.2-28-27.7-47.4c-0.1-1.6-2.6-1.6-2.5,0c1.5,20.1,15.2,35.2,28.4,49.2
				C234.8,500.4,236.6,498.6,235.5,497.5L235.5,497.5z"/>
		</g>
	</g>
	<g>
		<g>
			<path class="st0" d="M159.9,433.3c-10.8-2.8-21.9-5.1-32.5-8.8c-5.5-1.9-10.7-4.5-15.8-7.3c-4.9-2.6-9.9-5.3-12.8-10.3
				c-0.8-1.4-3-0.1-2.1,1.3c5,8.5,16.4,13.2,25.1,16.8c11.9,5,24.9,7.5,37.4,10.7C160.7,436.1,161.4,433.7,159.9,433.3L159.9,433.3z
				"/>
		</g>
	</g>
	<g>
		<g>
			<path class="st0" d="M114.4,381.5c-0.5-4.7,0-9.2,1.4-13.7c1.1-3.3,2.3-6.3,2.3-9.8c0-7-3.7-13.4-7.2-19.2
				c-0.8-1.4-3-0.1-2.1,1.3c4,6.9,8.2,14.3,6.2,22.5c-1.6,6.7-3.9,11.9-3.1,19C112.1,383.1,114.6,383.1,114.4,381.5L114.4,381.5z"/>
		</g>
	</g>
	<g>
		<g>
			<polygon class="st3" points="216.1,246.3 201.2,352.1 448.9,483.1 514,287.5 317.4,195.1 			"/>
			<path class="st4" d="M219.2,506.5H93.9v0c0-12.4,10-22.4,22.4-22.4h80.5C209.1,484.1,219.2,494.1,219.2,506.5L219.2,506.5z"/>
			
				<rect x="134.2" y="297.3" transform="matrix(0.9907 -0.1362 0.1362 0.9907 -52.2084 22.5528)" class="st5" width="9" height="190.9"/>
			
				<rect x="162.3" y="148.2" transform="matrix(0.7779 0.6283 -0.6283 0.7779 190.1431 -50.6725)" class="st5" width="9" height="190.9"/>
			<path class="st4" d="M136.5,299.5c-0.9,6.1-6.5,10.3-12.6,9.5c-6.1-0.9-10.3-6.5-9.5-12.6c0.9-6.1,6.5-10.3,12.6-9.5
				C133.1,287.8,137.3,293.4,136.5,299.5z"/>
			<g>
				<path class="st5" d="M256.6,166c-2.3,11.6-13.5,19.1-25,16.8c-11.6-2.3-19.1-13.5-16.8-25c2.3-11.6,13.5-19.1,25-16.8
					C251.3,143.3,258.8,154.5,256.6,166z"/>
				<path class="st5" d="M317.4,195.1l-101.4,51.2c-1.3-2.6-2.5-5.2-3.5-7.9c-11.6-30.9-1.7-64.2,24.1-77.2
					c25.4-12.9,57.6-1.5,75.7,25.4C314.3,189.3,315.9,192.1,317.4,195.1z"/>
				<path class="st5" d="M317.4,195.1l-101.4,51.2c-1.3-2.6-2.5-5.2-3.5-7.9l99.8-51.8C314.3,189.3,315.9,192.1,317.4,195.1z"/>
			</g>
		</g>
		<g>
			<g>
				<path class="st6" d="M518,276.7c-12,0.1-43.2,5.2-43.2,5.2c-5.1,0.9-25.9,6.6-32.3,10.5c-13.7,8.3-79.5,53.2-100.7,67.7
					c-47-31.7-85.3-59.9-85.3-59.9l-13.1,18.3c0,0,40,68.9,84.3,92c9,2,58.9-20.8,94.6-41.7c-0.7,32.1,0.8,111.3-5.9,141l154.5-0.5
					c-4.8-11,21.7-149.5,20.9-171.4C593.6,284.3,528.7,276.6,518,276.7z"/>
				<g>
					<path class="st6" d="M232.2,271.5c-2.6-2.5-19-7.2-23.2-6.3c-4.9,1.1-18.4,9.6-21.3,11.3c-2.9,1.8-0.7,4.5,4,4.7
						c6.1-0.1,12-1.9,17-5.3c7,2.1,12.1,3.9,12.8,4.4c4.2,1.8,6.2,6.8,4.4,11c-1.2,2.8-3.8,4.7-6.8,5l-0.7,0
						c3,6.6,5.1,13.5,6.2,20.7c6.7,2,12,5.6,19.6,0.9l12.9-17.2C254.8,295.4,236.5,275.5,232.2,271.5z"/>
					<g>
						<path class="st7" d="M169.8,285.1l-2.4-0.4c-0.7-0.1-1.2-0.7-1.2-1.4l0,0c0-0.7,0.6-1.3,1.3-1.3l2.4-0.1
							c0.8,0,1.5,0.6,1.5,1.4l0,0.6C171.4,284.6,170.6,285.2,169.8,285.1z"/>
						<path class="st7" d="M289.8,291.4l-5.4,0c-1.5,0-2.7-1.2-2.7-2.7l0,0c0-1.5,1.2-2.7,2.7-2.7l5.4,0c1.5,0,2.7,1.2,2.7,2.7v0
							C292.5,290.2,291.3,291.4,289.8,291.4z"/>
						<path class="st7" d="M287,285.3l-0.1,3.7l-0.1,3.6c0,0.6-0.6,1.1-1.2,1.1l-85.7-4c-2.6-0.1-30.6-2.9-30.4-4.5l0.1-1.9l0.1-1.6
							c0-1.2,28.1-1.7,30.7-1.7l85.5,4.1c0.6-0.1,1.2,0.4,1.2,1C287,285.1,287,285.2,287,285.3z"/>
					</g>
					<path class="st6" d="M206.9,286.2c-2.7-1.5-7.1-2.8-10.1-2.1c-9.9,2.7,0.6,8.2,3.6,11.8c3,3.6,9.1,21.4,37.2,24.3
						c1.2,1.3-9-25.7-15.3-24.8C216,296.3,209.5,287.8,206.9,286.2z"/>
				</g>
				<g>
					<polygon class="st8" points="189.4,396.1 177.4,336.8 276.8,384.4 205.7,402.1 					"/>
					<polygon class="st9" points="193,391.3 181.9,338.9 187.2,335 274.1,377.6 					"/>
					<path class="st10" d="M191.4,393.4c3.8-6.1,17.4-14.4,35-12.8c17.6,1.7,78.3-10.1,82.3-12.5c5.6,4.8,108.1,91.9,108.1,91.9
						l-4.3,7.7L191.4,393.4z"/>
					<polygon class="st8" points="418.4,469.3 415.8,473.9 308.3,484 189.4,396.1 192,391.5 302.2,376.8 					"/>
					<polygon class="st8" points="413.7,472.5 303.5,487.2 187.2,394.7 297.4,380 					"/>
				</g>
				<path class="st11" d="M538.1,320.7c-9.5,16.7-58.1,112.1-66.7,128.9c-62.2,13.6-94.8,15.3-109.5,16.1l57.6,21.5l-1,11.9
					c24.8,2.5,54,2.6,78.1-5.7c0.2-0.1,0.3-0.3,0.4-0.6c13.9-5.4,76.6-99.4,89.8-134.4C608.6,300.8,556.1,288.9,538.1,320.7z"/>
				<path class="st6" d="M479.7,441.9c12,4.8,17.2,43.6,13.7,46.4c-53.3,18.3-132.2-4.2-132.2-4.2l-2.5-23.4
					C374.4,459.7,410,457.9,479.7,441.9z"/>
				<path class="st6" d="M583.6,353.6c-13.3,35.3-77.1,130.7-90.2,134.6L467,447.4c0,0,57.5-113.2,68-131.5
					C553,284.2,605.5,296.1,583.6,353.6z"/>
				<g>
					<g>
						<g>
							<g>
								<path class="st6" d="M310.9,478.1c8.3,1.1,32.7,2.4,50.4,5.9l-2.5-23.4c-13.1,0.7-31.5-23-57.4-26.9
									c-8.8-1.3-12.9-2.7-13.6-1.5c-0.8,1.1-3.5,8.9,9.2,11.4c16,3.1,4.3,15.2-27.5,0.5c-8-3.7-23.7-0.9-18.6,5.6
									C256.6,456.6,273.1,472.9,310.9,478.1z"/>
							</g>
						</g>
					</g>
				</g>
				<path class="st11" d="M535,315.5c0,0-58.1,112.1-66.7,128.9c-62.2,13.6-98.8,14.9-113.5,15.7c0,0,43.7,0.8,112.2-9
					c1.5-0.2,23.1,15.5,24.6,15c0,0-19.5-17.8-18.4-20.2c9.7-20.6,54.7-117.2,54.7-117.2L535,315.5z"/>
			</g>
		</g>
		<g>
			<g>
				<g>
					<g>
						<path class="st5" d="M773,492.4h-12.3c-2,0-3.6-1.6-3.6-3.6c0-2,1.6-3.6,3.6-3.6h8.8v-23.2h-8.8c-2,0-3.6-1.6-3.6-3.6
							c0-2,1.6-3.6,3.6-3.6H773c2,0,3.6,1.6,3.6,3.6v30.3C776.5,490.8,774.9,492.4,773,492.4z"/>
					</g>
					<path class="st5" d="M760.6,444.5V503c0,1.9-1.6,3.5-3.5,3.5h-39.3c-1.9,0-3.5-1.6-3.5-3.5v-58.5c0-1.9,1.6-3.5,3.5-3.5h39.3
						C759.1,441,760.6,442.5,760.6,444.5z"/>
				</g>
			</g>
			<path class="st10" d="M734.8,434.8c0,0-17.4-7.4-12-20.8c5.4-13.4,25-11.6,13.9-31.1c13.5,7.8,15.5,25.1,5,29.3
				C731.2,416.4,730.7,427.1,734.8,434.8z"/>
			<path class="st10" d="M751.2,434.8c0,0-12.4-5.3-8.6-14.8c3.8-9.5,17.8-8.3,9.9-22.1c9.6,5.5,11,17.8,3.6,20.9
				C748.6,421.7,748.2,429.3,751.2,434.8z"/>
			<path class="st12" d="M760.6,501.2v1.8c0,1.9-1.6,3.5-3.5,3.5h-39.3c-1.9,0-3.5-1.6-3.5-3.5v-1.8H760.6z"/>
		</g>
		<g>
			<path class="st8" d="M796.6,510.4H36c-1.3,0-2.3-0.8-2.3-1.8c0-1,1-1.8,2.3-1.8h760.6c1.3,0,2.3,0.8,2.3,1.8
				C798.9,509.6,797.9,510.4,796.6,510.4z"/>
		</g>
		<g>
			<path class="st13" d="M571.9,476.1h130.8c5,0,9,2.2,9,4.8v2.9c0,2.7-4.1,4.8-9,4.8H571.9l0,0c6-3.5,6.1-8.8,0.2-12.3L571.9,476.1
				z"/>
			<path class="st14" d="M648.5,487.1h54.9c3.8,0,6.8-2.2,6.8-4.8l0,0c0-2.7-3.1-4.8-6.8-4.8h-54.9
				C651.1,480.4,651.1,484.2,648.5,487.1z"/>
		</g>
		<g>
			<path class="st8" d="M709.9,488.5H576.9c-4.1,0-7.5,2.9-7.5,6.4v5.4c0,3.5,3.3,6.4,7.5,6.4h133.1l-0.1-0.1
				C704.2,501.6,704.2,493.6,709.9,488.5z"/>
			<path class="st14" d="M707.6,491.2h-71.1c-4.1,0-7.5,2.9-7.5,6.4v0c0,3.5,3.3,6.4,7.5,6.4h71.1C705,500.1,705,495.2,707.6,491.2z
				"/>
		</g>
		<g>
			<path class="st15" d="M573.2,448H704c5,0,9,2.2,9,4.8v2.9c0,2.7-4.1,4.8-9,4.8H573.2l0,0c6-3.5,6.1-8.8,0.2-12.3L573.2,448z"/>
			<path class="st14" d="M649.8,459h54.9c3.8,0,6.8-2.2,6.8-4.8l0,0c0-2.7-3.1-4.8-6.8-4.8h-54.9C652.4,452.3,652.4,456.1,649.8,459
				z"/>
		</g>
		<g>
			<path class="st5" d="M711.2,460.4H578.1c-4.1,0-7.5,2.9-7.5,6.4v5.4c0,3.5,3.3,6.4,7.5,6.4h133.1l-0.1-0.1
				C705.4,473.5,705.5,465.5,711.2,460.4z"/>
			<path class="st14" d="M708.8,463.1h-71.1c-4.1,0-7.5,2.9-7.5,6.4v0c0,3.5,3.3,6.4,7.5,6.4h71.1
				C706.2,472,706.2,467.1,708.8,463.1z"/>
		</g>
	</g>
	<circle class="st6" cx="494.7" cy="210" r="59.6"/>
	<g>
		<path class="st16" d="M438.4,125.8c7.9,1.8,24.8,11.6,42.3,15.8c10.3,2.4,15.2-1.8,25.2-5.2c47.2-16.1,39.5-1.2,45.3-2.9
			c0.2,4.2,0.5,40.5,0.8,47.7c0.3,6.7-2.7,11.1-9.1,13.2c-9.8,3.2-19.6,6.7-29.7,9.1c-25.7,6.2-44.3,0.8-67.8-5.3
			c-6.2-1.6-9.6-5.8-9.9-12.2C434.3,156.2,438.3,128.6,438.4,125.8z"/>
		<path class="st13" d="M573.2,166.7c4.5,9.8,6.2,11.4,1.3,12c-2.9,0.3-5.9,0.3-8.9,0.3c-2.1-0.1-2.7-1.2-2-3.2
			c1-2.9,2.1-5.9,3.2-8.8c-3.3-3.1-3.8-8.4-1.2-12.2c0.5-0.8,0.4,0.4-0.3-16.9c-21.8,7.4-37.1,12.7-63.7,21.7
			c-7.1,2.4-14.3,2.7-21.6,0.8c-25.1-6.3-50.3-12.7-75.4-19.1c-3.4-0.9-5.2-3.7-4.3-6.9c0.6-2.5,2.5-3.5,4.8-4.2
			c6.1-2,65.6-22.1,71.6-24.2c7.9-2.7,15.9-3.1,24-1c24.7,6.2,49.4,12.4,74.1,18.6c3.4,0.9,4.9,2.4,5.2,5c0.3,2.9-1.2,5.1-4.6,5.9
			c-2.5,0.6-3.1,1.7-2.9,4.2c1,11-0.4,14.2,2.1,17.2C576.3,158.2,575.4,164.2,573.2,166.7z"/>
	</g>
	<path class="st11" d="M351.1,404.1c0,0,39.2-16.2,71.2-35.4l1-17.3L351.1,404.1z"/>
	<polygon class="st11" points="346.8,356.6 353.9,365.2 341.8,360.1 	"/>
	<g>
		<path class="st0" d="M113.1,446c0-2-10.5-3.7-23.5-3.7c-13,0-23.5,1.7-23.5,3.7c0,2,10.5,3.7,23.5,3.7
			C102.6,449.7,113.1,448,113.1,446z"/>
		<g>
			<polygon class="st15" points="83.2,496.4 95.7,399.7 104.6,400.9 92.1,497.6 			"/>
			<path class="st17" d="M82.6,501.1l0.6-4.7l8.8,1.2l-0.6,4.7c-0.2,1.7-1.7,2.8-3.4,2.6l-2.8-0.4C83.6,504.3,82.4,502.8,82.6,501.1
				z"/>
			
				<rect x="85.8" y="490.6" transform="matrix(-0.1297 0.9916 -0.9916 -0.1297 590.2082 472.1674)" class="st18" width="4.2" height="8.9"/>
			<path class="st19" d="M83,496.3l0-0.2c0-0.1,0.2-0.2,0.3-0.2l8.8,1.1c0.1,0,0.2,0.2,0.2,0.3l0,0.2c0,0.1-0.2,0.2-0.3,0.2
				l-8.8-1.1C83.1,496.6,83,496.5,83,496.3z"/>
			<path class="st19" d="M83.3,494.3l0-0.2c0-0.1,0.2-0.2,0.3-0.2l8.8,1.1c0.1,0,0.2,0.2,0.2,0.3l0,0.2c0,0.1-0.2,0.2-0.3,0.2
				l-8.8-1.1C83.3,494.6,83.2,494.5,83.3,494.3z"/>
			<path class="st19" d="M83.6,492.2l0-0.2c0-0.1,0.2-0.2,0.3-0.2l8.8,1.1c0.1,0,0.2,0.2,0.2,0.3l0,0.2c0,0.1-0.2,0.2-0.3,0.2
				l-8.8-1.1C83.6,492.5,83.5,492.3,83.6,492.2z"/>
			<path class="st18" d="M100,401.5c2.4,0.3,4.5,0,4.6-0.6c0,0,0,0,0,0l0,0l0,0c0-0.1,0-0.1,0-0.2l-1.5-7.5l-1-5.3
				c0-0.2-0.3-0.2-0.4,0l-2.4,4.8l-3.4,6.9c0,0.1-0.1,0.1-0.1,0.2l0,0h0c0,0,0,0,0,0C95.7,400.4,97.6,401.2,100,401.5z"/>
			<path class="st17" d="M101.2,393.2c-0.8-0.1-1.4-0.3-1.9-0.5l2.4-4.8c0.1-0.2,0.3-0.1,0.4,0l1,5.3
				C102.5,393.3,101.9,393.3,101.2,393.2z"/>
		</g>
		<g>
			<polygon class="st20" points="86,412.1 92.1,488.6 83.2,489.3 77.2,412.8 			"/>
			<path class="st17" d="M85.6,407.3l0.4,4.7l-8.9,0.7l-0.4-4.7c-0.1-1.7,1.1-3.1,2.8-3.3l2.8-0.2C84,404.4,85.5,405.7,85.6,407.3z"
				/>
			
				<rect x="79.6" y="409.9" transform="matrix(-8.315437e-02 -0.9965 0.9965 -8.315437e-02 -324.3517 530.2408)" class="st18" width="4.3" height="8.9"/>
			<path class="st19" d="M86.2,412.1l0,0.2c0,0.1-0.1,0.3-0.2,0.3l-8.8,0.7c-0.1,0-0.3-0.1-0.3-0.2l0-0.2c0-0.1,0.1-0.3,0.2-0.3
				l8.8-0.7C86.1,411.8,86.2,411.9,86.2,412.1z"/>
			<path class="st19" d="M86.4,414.1l0,0.2c0,0.1-0.1,0.3-0.2,0.3l-8.8,0.7c-0.1,0-0.3-0.1-0.3-0.2l0-0.2c0-0.1,0.1-0.3,0.2-0.3
				l8.8-0.7C86.3,413.9,86.4,414,86.4,414.1z"/>
			<path class="st19" d="M86.6,416.3l0,0.2c0,0.1-0.1,0.3-0.2,0.3l-8.8,0.7c-0.1,0-0.3-0.1-0.3-0.2l0-0.2c0-0.1,0.1-0.3,0.2-0.3
				l8.8-0.7C86.5,416,86.6,416.1,86.6,416.3z"/>
			<path class="st18" d="M87.6,487.8c-2.5,0.2-4.4,0.9-4.3,1.6c0,0,0,0,0,0h0l0,0c0,0.1,0,0.1,0.1,0.2l3,7l2.2,5
				c0.1,0.2,0.3,0.1,0.4,0l1.3-5.2l1.9-7.4c0-0.1,0.1-0.1,0-0.2l0,0l0,0c0,0,0,0,0,0C92.1,487.9,90,487.5,87.6,487.8z"/>
			<path class="st17" d="M88.2,496.1c0.8-0.1,1.5,0,2,0.1l-1.3,5.2c0,0.2-0.3,0.2-0.4,0l-2.2-5C86.8,496.3,87.5,496.2,88.2,496.1z"
				/>
		</g>
		<g>
			<polygon class="st21" points="87.2,497 63.2,415.1 71.7,412.6 95.6,494.5 			"/>
			<path class="st17" d="M88.5,501.5l-1.3-4.5l8.5-2.5L97,499c0.5,1.6-0.4,3.3-2,3.7l-2.7,0.8C90.6,504,89,503.1,88.5,501.5z"/>
			
				<rect x="88.8" y="489.5" transform="matrix(0.2826 0.9592 -0.9592 0.2826 538.9916 267.1684)" class="st18" width="4.2" height="8.8"/>
			<path class="st19" d="M87,497l-0.1-0.2c0-0.1,0-0.3,0.2-0.3l8.4-2.5c0.1,0,0.3,0,0.3,0.2l0.1,0.2c0,0.1,0,0.3-0.2,0.3l-8.4,2.5
				C87.2,497.2,87,497.1,87,497z"/>
			<path class="st19" d="M86.4,495.1l-0.1-0.2c0-0.1,0-0.3,0.2-0.3l8.4-2.5c0.1,0,0.3,0,0.3,0.2l0.1,0.2c0,0.1,0,0.3-0.2,0.3
				l-8.4,2.5C86.6,495.3,86.4,495.2,86.4,495.1z"/>
			<path class="st19" d="M85.8,493l-0.1-0.2c0-0.1,0-0.3,0.2-0.3l8.4-2.5c0.1,0,0.3,0,0.3,0.2l0.1,0.2c0,0.1,0,0.3-0.2,0.3l-8.4,2.5
				C86,493.2,85.8,493.2,85.8,493z"/>
			<path class="st18" d="M67.8,415c2.3-0.7,4.1-1.8,3.9-2.4c0,0,0,0,0,0l0,0l0,0c0-0.1-0.1-0.1-0.1-0.2l-4.3-6.2l-3.1-4.4
				c-0.1-0.1-0.3-0.1-0.3,0.1l-0.2,5.3l-0.3,7.6c0,0.1,0,0.1,0,0.2l0,0l0,0c0,0,0,0,0,0C63.4,415.7,65.4,415.6,67.8,415z"/>
			<path class="st20" d="M65.5,407c-0.7,0.2-1.4,0.3-2,0.3l0.2-5.3c0-0.2,0.2-0.2,0.3-0.1l3.1,4.4C66.8,406.5,66.2,406.8,65.5,407z"
				/>
		</g>
		<g>
			<polygon class="st21" points="113.8,420.4 100.4,486.8 91.8,485 105.1,418.6 			"/>
			<path class="st17" d="M114.7,415.8l-1,4.6l-8.6-1.8l1-4.6c0.3-1.6,1.9-2.7,3.6-2.3l2.8,0.6C114,412.6,115.1,414.2,114.7,415.8z"
				/>
			
				<rect x="106.9" y="416.9" transform="matrix(0.2048 -0.9788 0.9788 0.2048 -325.6765 441.7923)" class="st18" width="4.2" height="8.8"/>
			<path class="st19" d="M113.9,420.6L113.9,420.6c0,0.2-0.2,0.3-0.4,0.3l-8.4-1.8c-0.2,0-0.3-0.2-0.3-0.4l0,0
				c0-0.2,0.2-0.3,0.4-0.3l8.4,1.8C113.9,420.2,114,420.4,113.9,420.6z"/>
			<path class="st19" d="M113.5,422.5L113.5,422.5c0,0.2-0.2,0.3-0.4,0.3l-8.4-1.8c-0.2,0-0.3-0.2-0.3-0.4l0,0
				c0-0.2,0.2-0.3,0.4-0.3l8.4,1.8C113.5,422.2,113.6,422.4,113.5,422.5z"/>
			<path class="st19" d="M113.1,424.5l0,0.2c0,0.1-0.2,0.2-0.3,0.2l-8.6-1.8c-0.1,0-0.2-0.2-0.2-0.3l0-0.2c0-0.1,0.2-0.2,0.3-0.2
				l8.6,1.8C113.1,424.2,113.1,424.4,113.1,424.5z"/>
			<path class="st18" d="M96.3,484.7c-2.4-0.5-4.4-0.4-4.6,0.3c0,0,0,0,0,0l0,0l0,0c0,0.1,0,0.1,0,0.2l0.9,7.5l0.6,5.3
				c0,0.2,0.3,0.2,0.4,0.1l2.7-4.6l3.9-6.5c0.1-0.1,0.1-0.1,0.1-0.2l0,0l0,0c0,0,0,0,0,0C100.6,486.1,98.7,485.2,96.3,484.7z"/>
			<path class="st20" d="M94.5,492.8c0.7,0.2,1.4,0.4,1.9,0.7l-2.7,4.6c-0.1,0.2-0.3,0.1-0.4-0.1l-0.6-5.3
				C93.2,492.6,93.9,492.7,94.5,492.8z"/>
		</g>
		<path class="st6" d="M113.1,446.1l-1.3,11.3l-0.6,5v0l-3.8,31.5l-0.6,4.9l-1,8.3H72.3l-0.8-8.4l-0.5-4.8l-3.2-31.3l-0.5-4.9
			l-1.2-11.5c0.4,2,10.7,3.6,23.5,3.6C102.3,449.7,112.7,448.1,113.1,446.1z"/>
		<path class="st22" d="M66.1,446l0,0.1C66.1,446,66.1,446,66.1,446z"/>
		<path class="st22" d="M113.1,446c0,0,0,0.1,0,0.1L113.1,446z"/>
		<path class="st0" d="M107.4,493.9l-0.6,4.9c-4.3,0.8-10.6,1.2-17.5,1.2c-7.2,0-13.6-0.5-17.9-1.3l-0.5-4.8
			c4.3,0.8,10.9,1.4,18.4,1.4C96.6,495.2,103.1,494.7,107.4,493.9z"/>
		<path class="st0" d="M111.8,457.4l-0.6,5v0c-3.5,1.4-11.9,2.3-21.8,2.3c-9.6,0-17.9-0.9-21.6-2.2l-0.5-4.9
			c3.3,1.4,11.9,2.4,22.1,2.4C99.9,460,108.8,458.9,111.8,457.4z"/>
	</g>
</g>
<g>
	<g>
		<path class="st0" d="M660.9,332.3c-6.5,12.9-12.8,25.9-18.9,39.1c-3,6.6-6,13.1-9,19.7c-2.2,4.9-4.2,9.8-6.6,14.6
			c-2.5,5.1-5.3,10.5-9.6,14.3c-1.1,1,0.5,2.7,1.7,1.7c3.8-3.3,6.5-8,8.8-12.4c2.4-4.6,4.5-9.5,6.6-14.3
			c5.8-13.2,11.8-26.2,18.1-39.2c3.6-7.5,7.2-14.9,11-22.3C663.6,332.2,661.6,331,660.9,332.3L660.9,332.3z"/>
	</g>
</g>
<g>
	<g>
		<path class="st0" d="M678.2,367.5c6.8-4.1,14.3-7.1,22.1-8.9c4-0.9,8.1-1.5,11.9-2.9c3.2-1.2,6.3-2.8,9-4.7c3.2-2.3,6-5,8.4-8.1
			c0.9-1.2-1.1-2.4-2-1.2c-4.2,5.4-9.9,9.6-16.4,11.9c-3.7,1.3-7.7,1.9-11.5,2.8c-3.8,0.8-7.5,2-11,3.4c-4,1.6-7.9,3.5-11.6,5.7
			C675.7,366.3,676.9,368.3,678.2,367.5L678.2,367.5z"/>
	</g>
</g>
<g>
	<g>
		<path class="st0" d="M587.8,441.9c10.6-4.8,22.2-7.5,33.8-7.9c5.6-0.2,11.5,0.8,17-0.8c4.4-1.2,8.1-3.9,11.7-6.7
			c4.1-3.2,8.2-6.6,13.1-8.3c1.4-0.5,0.8-2.8-0.6-2.3c-4.4,1.5-8.1,4.2-11.8,7c-3.6,2.8-7.3,5.9-11.7,7.5c-5.4,1.9-11.2,1-16.8,1.1
			c-5.8,0.2-11.6,0.9-17.3,2.1c-6.4,1.4-12.7,3.5-18.7,6.2C585.2,440.5,586.4,442.6,587.8,441.9L587.8,441.9z"/>
	</g>
</g>
<g>
	<g>
		<path class="st0" d="M646.8,397.9c7.3-4.6,15.7-7.3,24.3-7.7c4.1-0.2,8.2,0.7,11.7-1.9c1.7-1.3,3.3-2.8,4.8-4.3
			c1.8-1.7,3.6-3.3,5.4-5c1.1-1-0.5-2.7-1.7-1.7c-1.8,1.7-3.6,3.3-5.4,5c-1.6,1.4-3.1,3-4.8,4.2c-1.8,1.3-3.8,1.3-5.9,1.3
			c-2.1-0.1-4.2-0.1-6.3,0.1c-8.3,0.7-16.3,3.4-23.3,7.9C644.3,396.7,645.5,398.8,646.8,397.9L646.8,397.9z"/>
	</g>
</g>
</svg>
