<?xml version="1.0" encoding="utf-8"?>
<!-- Generator: Adobe Illustrator 24.2.0, SVG Export Plug-In . SVG Version: 6.00 Build 0)  -->
<svg version="1.1" id="Layer_1" xmlns="http://www.w3.org/2000/svg" xmlns:xlink="http://www.w3.org/1999/xlink" x="0px" y="0px"
	 viewBox="0 0 340 375" style="enable-background:new 0 0 340 375;" xml:space="preserve">
<g>
	<path d="M94.1,8.1c5.6,1.1,10.1,1.8,13.2,2.3l0.7,1.5c-0.3,1.8-1.3,2.7-3,2.4c-3.6-0.6-7.1-1.2-10.5-1.7L92,37.9l0,0.2l-0.1,1.4
		c1.3,0,3,0.2,5.1,0.5l5.4,0.8c1,0.1,1.6,1.1,1.6,2.9l-2.1,1.3l-6.4-0.9c-2.6-0.4-3.9-0.6-3.9-0.8l-0.3,2.3
		c-0.3,2-1.3,10.4-3.1,25.2l-0.3,2.2l0,1.3c-0.1,0.9-0.2,1.3-0.3,1.3l0,1l-0.3,2.4c-0.1,0.6-0.7,1-1.8,1.5l-1-0.1
		c-0.8-0.1-1.4-0.7-1.9-1.9L87.9,35l-0.6-2.2l0.3,0.9c1-11.1,1.9-19.4,2.6-24.9C91.5,8.1,92.7,7.9,94.1,8.1z"/>
	<path d="M127.7,12.4l0.5,0.1c2.4,1.5,4,4.5,4.9,9c2.2,12.6,2.9,28.4,2.1,47.4c0.4,6.2,0.2,11.7-0.4,16.5c-0.6,1-1.8,1.3-3.8,1.1
		c-0.6-1.7-0.8-7.7-0.5-17.9c-0.2-1.1-0.2-5.6-0.1-13.4l-0.5-0.1c-6.7-0.3-10.1-0.4-10.1-0.1l-1.1,8.2l-4.1,19
		c0.3,0.5,0.3,1,0.2,1.6c-0.1,0.6-0.8,1.2-2.1,1.7c-2.4-0.3-3.4-1.6-3.1-3.9c3.2-14.6,4.9-23.3,5.3-26.3c0.1-1.9,0.3-3.9,0.6-5.9
		c1.5-10.1,3.8-20.6,7-31.7C123.9,13.8,125.6,12.1,127.7,12.4z M127.9,17.9c-2.7,6.6-5,16.4-6.9,29.4c-0.1,0-0.4,1.3-0.8,4l0.1-0.8
		c3.5-0.5,7-0.5,10.3,0l-0.1,0.8c0.6-4.2-0.3-14.5-2.7-31C127.3,18.3,127.3,17.5,127.9,17.9z"/>
	<path d="M176.4,18.6l0.8,0.1c0.9,0.1,1.4,0.8,1.7,2.1l-14.2,55.4c-2,10.5-3.5,15.7-4.4,15.5l-0.4,0.1l-1-0.1
		c-1.5-0.2-2.1-4.7-1.8-13.4c-0.4-23.6,0.4-42.2,2.3-56l-0.2-2.8c0.1-0.6,0.8-1.2,2-1.7l0.8,0.1c2.1,0.3,2.4,6.2,0.8,17.8
		c-1,20.2-1.4,34.7-1.1,43.4l-2.3-0.3c0.3-2.2,4.8-19.7,13.3-52.4C173.8,21,175,18.4,176.4,18.6z"/>
	<path d="M201.7,22.4c4.7,0.7,7,10.9,6.6,30.7c-0.1,1.9-0.4,4.2-0.8,7l-0.1,0.8c-0.1,0.6-0.2,1.1-0.4,1.7c0.1,0.2,0.1,0.7-0.1,1.7
		l0,0.2c-0.1,1-0.3,1.5-0.4,1.7c0,0.6,0,0.9,0,1.1c-2.1,15-5.6,24-10.5,27.1c-1.9,0.4-3.2,0.6-3.9,0.5l-1.7-0.2
		c-5.5-2.2-8-9.5-7.6-21.9l0.6-8.7c2.8-19.8,7.3-33.3,13.4-40.4C198.7,22.6,200.3,22.2,201.7,22.4z M188.2,64.1
		c-1.1,7.8-1,14.7,0.2,20.8c1.2,3.7,2.3,5.6,3.3,5.7l0.2,0c2.1,0.3,3.7-1.2,4.9-4.5c2-3.3,3.8-10.9,5.5-22.7l0.6-4.2
		c1.1-8.1,1-17.7-0.4-28.6c-0.6-2.2-1.2-3.5-1.6-3.9c-0.8,0.2-1.4,0.6-1.7,1.2C194.2,35.6,190.5,47.6,188.2,64.1z"/>
	<path d="M225.9,20.3l1.7,0.2c0.3,0.6,1.4,1.2,3.3,1.8c2.9,1.6,5,4.2,6.4,7.5c1.6,6.2,2.2,10.8,1.8,13.7l-0.3,2.1
		c-1.3,9.4-4.5,15.6-9.5,18.5c5.1,2,7.2,9.8,6.4,23.5l-1.1,8c-0.2,1.2-0.3,3.1-0.5,5.7l-1.7,0.8l-1.6-0.2l-1.4-1.4
		c0.3-3.1,0.5-5.4,0.7-6.8l1.1-7.5c0.7-5.1-0.1-10.5-2.4-16.2c-1.6-2-3.1-3.2-4.4-3.3l1.2,0.2c-0.2,2.3-0.4,4.2-0.6,5.7l-1.1,8
		c-0.7,6.9-1.1,10.9-1.2,11.8l-0.1,0.6c-0.7,1-1.6,1.5-2.8,1.3c-0.7-0.1-1.4-0.7-2.2-2l0.5-1.7c0.5-5.9,1-9.8,1.2-11.7l1.6-11.5
		c-0.3,0-0.7-0.7-1-1.9l0.1-1c0.7-1,1.1-1.5,1.2-1.5c1.9-18.5,2.9-32.3,3-41.4L225.9,20.3z M228.8,25.8c-0.6,9.6-1.5,21.2-2.8,34.9
		c4.1-2,6.7-7,7.8-14.8l0.4-2.9c0.5-3.5-0.3-8.2-2.5-14.1c-1.7-2.1-3-3.1-3.8-3.3L228.8,25.8z"/>
	<path d="M260.1,31.3l0.8,0.1c1.8,0.3,2.2,4.4,1.1,12.5l-0.4,2.7c-0.4,2.8-1.8,9.8-4.2,21c-0.1,0.5-0.1,1,0,1.5
		c-1.2,7.3-2.1,13.2-2.7,17.5l-1.9,13.6c0,0.2,0,0.9,0.1,2.1c-0.5,1.7-1.4,2.4-2.5,2.3l-0.8-0.1c-1.4-0.2-1.8-2.5-1.2-7
		c3.4-24.2,6.2-40.9,8.3-49.9l0.8-5.8c0.5-3.2,0.7-6.2,0.6-8.8C258.2,32.4,258.9,31.8,260.1,31.3z"/>
	<path d="M298.3,39.6l1.1,1.8l-0.1,0.8c-0.2,1.3-2.7,1.6-7.4,0.9l-5.9-0.8c0.4,0.1,0.7,0,0.7-0.1l-0.9,9.5c-0.3,0.9-0.4,1.3-0.4,1.4
		c-1.7,21.3-3.2,36.4-4.5,45.4c0.1,0.3,0.1,0.6,0.1,1.1c-0.2,0.2-0.2,0.2-0.2,0.2l0.1,1.4c-0.6,1-1.4,1.5-2.2,1.4l-0.8-0.1
		c-0.6-0.1-1.2-0.7-1.9-1.8c0.1-0.5,0.2-1.3,0.5-2.3c0.4-3,1.9-18.1,4.5-45.4c0.6-4.4,1-8.3,1.3-11.6l0.4,0.3l-0.2,0l-7.4-0.4
		c-0.8-1.1-1.1-2.1-1-2.9c0.1-0.6,0.8-1.1,2.3-1.6c1.2,0.5,1.7,0.7,1.7,0.7c2.7,0.1,4.6,0.3,5.8,0.4l8.6,1.2
		C293.9,39.5,295.9,39.6,298.3,39.6z"/>
	<path d="M319.4,38.5l0.4,0.3c-1-0.1-1.5-0.3-1.4-0.5c6.1,1.4,9.1,2.7,8.9,3.9l-0.1,0.4c-0.6,1.2-1.5,1.8-2.7,1.6l-6-1.5
		c-0.3,0-1.2-0.1-2.7-0.2l-0.1,1.5c-0.3,2.3-1.2,11.2-2.8,26.8l0.2,0c1,0.1,1.9,0.2,2.6,0.2c3.2,0.7,5.8,1.2,7.7,1.5l1,1.8l-0.1,0.9
		c-0.2,1.1-1,1.6-2.4,1.4c-1.3-0.2-3.3-0.6-6-1.3c-1.9-0.1-3-0.2-3.5-0.3l0-0.2c-1.4,9.8-2.5,20.9-3.2,33.3c0.2,0,0.3,0.1,0.2,0.2
		c4.4,0.4,7.2,0.6,8.4,0.8c1,0.5,1.7,1.2,2,2.2l-0.1,0.4c-0.1,0.6-0.7,1.1-1.9,1.6c-5.6-0.6-8.9-1-10.1-1c-2.6-0.4-3.8-1.8-3.4-4.3
		c0.9-13.5,2-24.6,3.2-33.5l0.9-6.7c1-12.4,1.8-20.7,2.4-25c-0.1-2.2-0.2-3.5-0.1-4l1.8-1l2.8,0.4C316.4,38.4,317.7,38.5,319.4,38.5
		z"/>
</g>
<g>
	<path d="M100.9,104.7l1.6,0.2c3.2,1.1,4.7,2.5,4.4,4.5c-0.1,0.6-0.7,1.1-2,1.6l-1.9-0.3c-0.8-1.2-1.3-1.9-1.8-2
		c-2.9,0.6-4.4,1.2-4.5,1.9c-3.5,4.9-5.9,11.9-7.2,21l-0.5,3.6c-0.9,6.2-1.1,13.7-0.6,22.6c0.1,6.4,0.8,10.7,2.2,13.1
		c1.6,1.9,3.1,2.9,4.3,3.2c1.5,0.2,3.7-1,6.6-3.8l1.4,0.2c0.8,0.1,1.4,0.7,1.7,1.7l-0.1,0.6c-0.2,1.6-2.2,3.3-6,5
		c-1.7,0.4-3.1,0.6-4.4,0.4l-0.3,0c-2.4-0.6-4.6-2.2-6.8-4.7c-2.4-2.5-3.5-11-3.4-25.4c-0.3-3.1,0.1-8.2,1.1-15.2l0.2-1.3
		c2.3-14.4,6-23.1,11.2-26C98.4,104.9,100.1,104.6,100.9,104.7z"/>
	<path d="M138.7,103.5l1.3,0.2c1.1,0.8,1.6,1.5,1.5,2.3c-0.9,6.6-1.8,11.7-2.6,15.2l-2.6,21.6c0.2,0.5,0.3,1,0.2,1.5
		c-0.5,1-0.7,1.5-0.6,1.5c-0.6,5.8-1.9,16.9-4.1,33.2c-0.2,0.7-0.5,2.3-0.9,4.6l-1.6,0.8l-1.6-0.2l-1.4-1.5c0.3-1.8,0.5-3.1,0.8-4
		c2.5-19.1,3.9-30.2,4.1-33.3c-5.6-0.7-8.4-1-8.5-1c-0.1,2.2-0.3,4.5-0.6,7.1c-0.8,5.6-1.5,10.5-2.3,14.6c-0.2,2.4-0.8,7.2-1.8,14.4
		c-1.1,0.5-2,0.7-2.7,0.6c-0.8-0.1-1.4-0.8-1.9-2l0.3-2.1c0.8-5.7,1.3-9.5,1.4-11.5c0.6-3.4,1.3-7.6,2-12.5l0.4-3.1
		c0.5-6.9,1-11.6,1.4-14.3c2.6-15.5,4.2-25.3,4.8-29.5c-0.1-0.6,0-1.3,0.1-2.1l1.8-1l1.4,0.2c1.2,0.9,1.7,1.9,1.6,3
		c-0.4,2.6-2.1,13.1-5,31.3l-0.5,3.6l-0.3-0.8c0.3,0,3.3,0.3,9,1c0.5-4.4,0.9-7.7,1.2-9.9l1.4-9.6c0-0.2,0-0.5-0.2-0.8l0.4-0.6
		c1.1-6.5,1.9-11.8,2.4-15.7L138.7,103.5z"/>
	<path d="M163.9,112.7c4.7,0.7,7,10.9,6.6,30.7c-0.1,1.9-0.4,4.2-0.8,7l-0.1,0.8c-0.1,0.6-0.2,1.1-0.4,1.7c0.1,0.2,0.1,0.7-0.1,1.7
		l0,0.2c-0.1,1-0.3,1.5-0.4,1.7c0,0.6,0,0.9,0,1.1c-2.1,15-5.6,24-10.5,27.1c-1.9,0.4-3.2,0.6-3.9,0.5l-1.7-0.2
		c-5.5-2.2-8-9.5-7.6-21.9l0.6-8.7c2.8-19.8,7.3-33.3,13.4-40.4C160.9,112.9,162.5,112.5,163.9,112.7z M150.4,154.4
		c-1.1,7.8-1,14.7,0.2,20.8c1.2,3.7,2.3,5.6,3.3,5.7l0.2,0c2.1,0.3,3.7-1.2,4.9-4.5c2-3.3,3.8-10.9,5.5-22.7l0.6-4.2
		c1.1-8.1,1-17.7-0.4-28.6c-0.6-2.2-1.2-3.5-1.6-3.9c-0.8,0.2-1.4,0.6-1.7,1.2C156.4,125.9,152.7,138,150.4,154.4z"/>
	<path d="M191.2,117.2l0.8,0.1c1.8,0.3,2.2,4.4,1.1,12.5l-0.4,2.7c-0.4,2.8-1.8,9.8-4.2,21c-0.1,0.5-0.1,1,0,1.5
		c-1.2,7.3-2.1,13.2-2.7,17.5l-1.9,13.6c0,0.2,0,0.9,0.1,2.1c-0.5,1.7-1.4,2.4-2.5,2.3l-0.8-0.1c-1.4-0.2-1.8-2.5-1.2-7
		c3.4-24.2,6.2-40.9,8.3-49.9l0.8-5.8c0.5-3.2,0.7-6.2,0.6-8.8C189.3,118.3,189.9,117.7,191.2,117.2z"/>
	<path d="M220.3,121.5l1.6,0.2c3.2,1.1,4.7,2.5,4.4,4.5c-0.1,0.6-0.7,1.1-2,1.6l-1.9-0.3c-0.8-1.2-1.3-1.9-1.8-2
		c-2.9,0.6-4.4,1.2-4.5,1.9c-3.5,4.9-5.9,11.9-7.2,21l-0.5,3.6c-0.9,6.2-1.1,13.7-0.6,22.6c0.1,6.4,0.8,10.7,2.2,13.1
		c1.6,1.9,3.1,2.9,4.3,3.2c1.5,0.2,3.7-1,6.6-3.8l1.4,0.2c0.8,0.1,1.4,0.7,1.7,1.7l-0.1,0.6c-0.2,1.6-2.2,3.3-6,5
		c-1.7,0.4-3.1,0.6-4.4,0.4l-0.3,0c-2.4-0.6-4.6-2.2-6.8-4.7c-2.4-2.5-3.5-11-3.4-25.4c-0.3-3.1,0.1-8.2,1.1-15.2l0.2-1.3
		c2.3-14.4,6-23.1,11.2-26C217.8,121.7,219.5,121.4,220.3,121.5z"/>
	<path d="M251.5,124.6l0.4,0.3c-1-0.1-1.5-0.3-1.4-0.5c6.1,1.4,9.1,2.7,8.9,3.9l-0.1,0.4c-0.6,1.2-1.5,1.8-2.7,1.6l-6-1.5
		c-0.3,0-1.2-0.1-2.7-0.2l-0.1,1.5c-0.3,2.3-1.2,11.2-2.8,26.8l0.2,0c1,0.1,1.9,0.2,2.6,0.2c3.2,0.7,5.8,1.2,7.7,1.5l1,1.8l-0.1,0.9
		c-0.2,1.1-1,1.6-2.4,1.4c-1.3-0.2-3.3-0.6-6-1.3c-1.9-0.1-3-0.2-3.5-0.3l0-0.2c-1.4,9.8-2.5,20.9-3.2,33.3c0.2,0,0.3,0.1,0.2,0.2
		c4.4,0.4,7.2,0.6,8.4,0.8c1,0.5,1.7,1.2,2,2.2l-0.1,0.4c-0.1,0.6-0.7,1.1-1.9,1.6c-5.6-0.6-8.9-1-10.1-1c-2.6-0.4-3.8-1.8-3.4-4.3
		c0.9-13.5,2-24.6,3.2-33.5l0.9-6.7c1-12.4,1.8-20.7,2.4-25c-0.1-2.2-0.2-3.5-0.1-4l1.8-1l2.8,0.4
		C248.5,124.5,249.8,124.6,251.5,124.6z"/>
	<path d="M269.9,196.1c2.1,0.3,3,1.3,2.8,3c-0.7,2.3-2,3.3-4,3c-1.5-0.9-2.2-2-2-3.3C266.8,197.6,267.9,196.7,269.9,196.1z
		 M277,125.3c0.7,0.1,1.4,0.8,2,2l-0.4,1.2c0.5,15.8,0.1,28.1-1.1,36.8c-0.4,2.9-1.4,10.3-2.9,22.3l-1.6,0.8l-1.3-0.2
		c-0.8-0.3-1.3-1.1-1.7-2.2c1.3-10.2,2.3-17.7,3-22.5l0.2-2.8c0.2-0.2,0.3-0.4,0.3-0.6c0.5-3.9,0.7-14.8,0.5-32.7
		C274.1,125.7,275.1,125.1,277,125.3z"/>
</g>
<g>
	<g>
		<path d="M169.6,213.7c-0.7,12.7-4.5,25.1-10.5,36.3c-6.2,11.5-14.3,21.9-23.5,31.2c-9.4,9.5-19.7,18-30.6,25.8
			c-12.4,8.9-25.4,17.1-38.8,24.5c-13.3,7.3-27,13.9-41,19.7c-1.7,0.7-3.5,1.4-5.2,2.1c-1.1,0.4-1.9,1.5-1.6,2.8
			c0.3,1.1,1.6,2,2.8,1.6c14.5-5.7,28.7-12.2,42.4-19.5c13.7-7.3,26.9-15.4,39.7-24.3c11.4-8,22.5-16.6,32.5-26.3
			c9.7-9.4,18.4-19.9,25.2-31.5c6.7-11.4,11.2-24,12.7-37.2c0.2-1.7,0.3-3.3,0.4-5C174.3,210.8,169.8,210.8,169.6,213.7L169.6,213.7
			z"/>
	</g>
</g>
<g>
	<g>
		<path d="M19.7,332.4c1.1,10.4-1.7,20.9-7.9,29.4c-1.1,1.5,0.8,4,2.5,3.3c15.2-6.1,31.4-9.7,47.8-10.7c4.6-0.3,9.3-0.3,14-0.2
			c2.9,0.1,2.9-4.4,0-4.5c-16.7-0.6-33.5,1.6-49.6,6.3c-4.5,1.3-9,2.9-13.4,4.7c0.8,1.1,1.7,2.2,2.5,3.3c6.6-9,9.7-20.5,8.5-31.6
			c-0.1-1.2-0.9-2.3-2.3-2.3C20.8,330.2,19.5,331.2,19.7,332.4L19.7,332.4z"/>
	</g>
</g>
</svg>
