<?xml version="1.0" encoding="utf-8"?>
<!-- Generator: Adobe Illustrator 24.2.0, SVG Export Plug-In . SVG Version: 6.00 Build 0)  -->
<svg version="1.1" id="Layer_1" xmlns="http://www.w3.org/2000/svg" xmlns:xlink="http://www.w3.org/1999/xlink" x="0px" y="0px"
	 viewBox="0 0 498 635.2" style="enable-background:new 0 0 498 635.2;" xml:space="preserve">
<style type="text/css">
	.st0{fill:url(#SVGID_1_);}
	.st1{fill:url(#SVGID_2_);}
	.st2{fill:url(#SVGID_3_);}
	.st3{fill:url(#SVGID_4_);}
	.st4{fill:url(#SVGID_5_);}
	.st5{clip-path:url(#SVGID_7_);fill:url(#SVGID_8_);}
	.st6{clip-path:url(#SVGID_10_);fill:url(#SVGID_11_);}
	.st7{fill:url(#SVGID_12_);}
	.st8{fill:url(#SVGID_13_);}
	.st9{fill:url(#SVGID_14_);}
	.st10{fill:url(#SVGID_15_);}
	.st11{fill:url(#SVGID_16_);}
</style>
<linearGradient id="SVGID_1_" gradientUnits="userSpaceOnUse" x1="0" y1="347.3915" x2="456.3654" y2="347.3915">
	<stop  offset="1.093357e-02" style="stop-color:#FFC67F"/>
	<stop  offset="0.3781" style="stop-color:#FFCD8C"/>
	<stop  offset="1" style="stop-color:#FFDEAA"/>
</linearGradient>
<path class="st0" d="M1.6,100.7c52.6,23.4,116.5,40.1,181.4,29.4c145.6-24.2,210.4-61,251.8,3.1c43.5,67.3-2.3,94.5-0.6,175.9
	c2.4,113.9,56.2,195.5-13.3,249.2C284.7,663.6,183,525.9,0,499.1L1.6,100.7z"/>
<linearGradient id="SVGID_2_" gradientUnits="userSpaceOnUse" x1="379.591" y1="52.2461" x2="442.6524" y2="52.2461">
	<stop  offset="0" style="stop-color:#FFC67F"/>
	<stop  offset="0.3713" style="stop-color:#FFCD8C"/>
	<stop  offset="1" style="stop-color:#FFDEAA"/>
</linearGradient>
<circle class="st1" cx="411.1" cy="52.2" r="31.5"/>
<linearGradient id="SVGID_3_" gradientUnits="userSpaceOnUse" x1="419.1798" y1="82.04" x2="450.7105" y2="82.04">
	<stop  offset="0" style="stop-color:#FFC67F"/>
	<stop  offset="0.3713" style="stop-color:#FFCD8C"/>
	<stop  offset="1" style="stop-color:#FFDEAA"/>
</linearGradient>
<circle class="st2" cx="434.9" cy="82" r="15.8"/>
<linearGradient id="SVGID_4_" gradientUnits="userSpaceOnUse" x1="71.9654" y1="547.4781" x2="103.496" y2="547.4781">
	<stop  offset="0" style="stop-color:#FFC67F"/>
	<stop  offset="0.3713" style="stop-color:#FFCD8C"/>
	<stop  offset="1" style="stop-color:#FFDEAA"/>
</linearGradient>
<circle class="st3" cx="87.7" cy="547.5" r="15.8"/>
<linearGradient id="SVGID_5_" gradientUnits="userSpaceOnUse" x1="56.4508" y1="535.7217" x2="79.9634" y2="535.7217">
	<stop  offset="0" style="stop-color:#FFC67F"/>
	<stop  offset="0.3713" style="stop-color:#FFCD8C"/>
	<stop  offset="1" style="stop-color:#FFDEAA"/>
</linearGradient>
<circle class="st4" cx="68.2" cy="535.7" r="11.8"/>
<g>
	<defs>
		<path id="SVGID_6_" d="M530.7,540.3c0,35.3-170.2,94.9-205.5,94.9S110.9,551,110.9,515.8s62.9-68,98.2-68S530.7,505,530.7,540.3z"
			/>
	</defs>
	<clipPath id="SVGID_7_">
		<use xlink:href="#SVGID_6_"  style="overflow:visible;"/>
	</clipPath>
	<linearGradient id="SVGID_8_" gradientUnits="userSpaceOnUse" x1="108.0951" y1="441.399" x2="455.5428" y2="441.399">
		<stop  offset="0" style="stop-color:#FFC67F"/>
		<stop  offset="0.3713" style="stop-color:#FFCD8C"/>
		<stop  offset="1" style="stop-color:#FFDEAA"/>
	</linearGradient>
	<path class="st5" d="M170.3,299.8c-35.5,37.9-72.9,174.2-59.3,216c6.4,19.7,100.2,75.3,185.5,81.6c130.5,9.7,146.3-49.9,154.3-78.5
		c14-49.5-5.9-136.1-14.6-174.4c-8.4-36.7-44.2-44.5-102-51.4C291,288.1,195.3,273.1,170.3,299.8z"/>
</g>
<g>
	<defs>
		<path id="SVGID_9_" d="M434.8,133.2c91.3,133.8-40.8,145-76.1,145s-147.3,22.8-172.6-1.7c-58-56.2-12.3-147.5,23-147.5
			S379.6,52.2,434.8,133.2z"/>
	</defs>
	<clipPath id="SVGID_10_">
		<use xlink:href="#SVGID_9_"  style="overflow:visible;"/>
	</clipPath>
	<linearGradient id="SVGID_11_" gradientUnits="userSpaceOnUse" x1="108.0951" y1="122.998" x2="459.4827" y2="122.998">
		<stop  offset="0" style="stop-color:#FFC67F"/>
		<stop  offset="0.3713" style="stop-color:#FFCD8C"/>
		<stop  offset="1" style="stop-color:#FFDEAA"/>
	</linearGradient>
	<path class="st6" d="M170.3-19.1c-35.5,37.9-72.9,174.2-59.3,216c6.4,19.7,100.2,75.3,185.5,81.6c130.5,9.7,135.6-18.2,149.1-44.6
		c32.5-63.3-0.7-170-9.4-208.3c-8.4-36.7-44.2-44.5-102-51.4C291-30.8,195.3-45.8,170.3-19.1z"/>
</g>
<linearGradient id="SVGID_12_" gradientUnits="userSpaceOnUse" x1="0" y1="317.7386" x2="58.3266" y2="317.7386">
	<stop  offset="0" style="stop-color:#FFC67F"/>
	<stop  offset="0.3713" style="stop-color:#FFCD8C"/>
	<stop  offset="1" style="stop-color:#FFDEAA"/>
</linearGradient>
<path class="st7" d="M0.1,202.5c22.8-3.6,37.2-1.8,48.2,15.2c20.3,31.5-1.1,44.2-0.3,82.3c1.1,53.3,26.3,91.4-6.2,116.6
	C27.2,427.8,13.5,433.1,0,434.5L0.1,202.5z"/>
<linearGradient id="SVGID_13_" gradientUnits="userSpaceOnUse" x1="334.5056" y1="437.3783" x2="419.0591" y2="437.3783">
	<stop  offset="0" style="stop-color:#FFC67F"/>
	<stop  offset="0.3713" style="stop-color:#FFCD8C"/>
	<stop  offset="1" style="stop-color:#FFDEAA"/>
</linearGradient>
<circle class="st8" cx="376.8" cy="437.4" r="42.3"/>
<linearGradient id="SVGID_14_" gradientUnits="userSpaceOnUse" x1="332.0119" y1="395.1016" x2="362.3738" y2="395.1016">
	<stop  offset="0" style="stop-color:#FFC67F"/>
	<stop  offset="0.3713" style="stop-color:#FFCD8C"/>
	<stop  offset="1" style="stop-color:#FFDEAA"/>
</linearGradient>
<circle class="st9" cx="347.2" cy="395.1" r="15.2"/>
<linearGradient id="SVGID_15_" gradientUnits="userSpaceOnUse" x1="30.9355" y1="230.2161" x2="115.4889" y2="230.2161">
	<stop  offset="0" style="stop-color:#FFC67F"/>
	<stop  offset="0.3713" style="stop-color:#FFCD8C"/>
	<stop  offset="1" style="stop-color:#FFDEAA"/>
</linearGradient>
<circle class="st10" cx="73.2" cy="230.2" r="42.3"/>
<linearGradient id="SVGID_16_" gradientUnits="userSpaceOnUse" x1="28.4418" y1="187.9394" x2="58.8037" y2="187.9394">
	<stop  offset="0" style="stop-color:#FFC67F"/>
	<stop  offset="0.3713" style="stop-color:#FFCD8C"/>
	<stop  offset="1" style="stop-color:#FFDEAA"/>
</linearGradient>
<circle class="st11" cx="43.6" cy="187.9" r="15.2"/>
</svg>
