<?xml version="1.0" encoding="utf-8"?>
<!-- Generator: Adobe Illustrator 24.2.0, SVG Export Plug-In . SVG Version: 6.00 Build 0)  -->
<svg version="1.1" id="Layer_1" xmlns="http://www.w3.org/2000/svg" xmlns:xlink="http://www.w3.org/1999/xlink" x="0px" y="0px"
	 viewBox="0 0 595.3 841.9" style="enable-background:new 0 0 595.3 841.9;" xml:space="preserve">
<style type="text/css">
	.st0{fill:#FCCE87;}
	.st1{clip-path:url(#SVGID_2_);fill:url(#SVGID_3_);}
	.st2{clip-path:url(#SVGID_2_);fill:url(#SVGID_4_);}
	.st3{clip-path:url(#SVGID_2_);fill:url(#SVGID_5_);}
	.st4{clip-path:url(#SVGID_2_);fill:url(#SVGID_6_);}
	.st5{clip-path:url(#SVGID_2_);fill:url(#SVGID_7_);}
</style>
<circle class="st0" cx="59.2" cy="191.1" r="25.6"/>
<circle class="st0" cx="85.4" cy="194.1" r="12.8"/>
<path class="st0" d="M432.3,208c56.1,59.8,155.8,205.4,118.1,301.7c-20.3,51.8-190.2,205.4-237.3,196.1
	c-123.8-24.6-82.5-160.9-141.6-216.6S15,389.7,28.8,329.1C42,271.3,170.3,192.2,257.1,161.8C309.1,143.6,392.8,165.8,432.3,208z"/>
<g>
	<defs>
		<path id="SVGID_1_" d="M431.4,207c56.1,59.8,155.8,205.4,118.1,301.7c-20.3,51.8-190.2,205.4-237.3,196.1
			c-123.8-24.6-82.5-160.9-141.6-216.6S14.1,388.7,28,328.2c13.2-57.9,141.5-136.9,228.3-167.3C308.3,142.6,391.9,164.8,431.4,207z"
			/>
	</defs>
	<clipPath id="SVGID_2_">
		<use xlink:href="#SVGID_1_"  style="overflow:visible;"/>
	</clipPath>
	<linearGradient id="SVGID_3_" gradientUnits="userSpaceOnUse" x1="158.4698" y1="583.8868" x2="554.0894" y2="583.8868">
		<stop  offset="0" style="stop-color:#FFAF55"/>
		<stop  offset="1" style="stop-color:#FCCE87"/>
	</linearGradient>
	<path class="st1" d="M324.6,521.1c56.1,59.8,262.6-108.7,224.9-12.4c-20.3,51.8-190.2,205.4-237.3,196.1
		c-123.8-24.6-82.5-160.9-141.6-216.6S285.1,478.9,324.6,521.1z"/>
	<linearGradient id="SVGID_4_" gradientUnits="userSpaceOnUse" x1="139.8548" y1="384.4122" x2="234.496" y2="384.4122">
		<stop  offset="0" style="stop-color:#FFAF55"/>
		<stop  offset="1" style="stop-color:#FCCE87"/>
	</linearGradient>
	<circle class="st2" cx="187.2" cy="384.4" r="47.3"/>
	<linearGradient id="SVGID_5_" gradientUnits="userSpaceOnUse" x1="197.5873" y1="313.4313" x2="244.9079" y2="313.4313">
		<stop  offset="0" style="stop-color:#FFAF55"/>
		<stop  offset="1" style="stop-color:#FCCE87"/>
	</linearGradient>
	<circle class="st3" cx="221.2" cy="313.4" r="23.7"/>
	<linearGradient id="SVGID_6_" gradientUnits="userSpaceOnUse" x1="346.1162" y1="252.4775" x2="431.2894" y2="252.4775">
		<stop  offset="0" style="stop-color:#FFAF55"/>
		<stop  offset="1" style="stop-color:#FCCE87"/>
	</linearGradient>
	<circle class="st4" cx="388.7" cy="252.5" r="42.6"/>
	<linearGradient id="SVGID_7_" gradientUnits="userSpaceOnUse" x1="424.2327" y1="478.9772" x2="509.4059" y2="478.9772">
		<stop  offset="0" style="stop-color:#FFAF55"/>
		<stop  offset="1" style="stop-color:#FCCE87"/>
	</linearGradient>
	<circle class="st5" cx="466.8" cy="479" r="42.6"/>
</g>
</svg>
