<?xml version="1.0" encoding="utf-8"?>
<!-- Generator: Adobe Illustrator 24.2.0, SVG Export Plug-In . SVG Version: 6.00 Build 0)  -->
<svg version="1.1" id="Layer_1" xmlns="http://www.w3.org/2000/svg" xmlns:xlink="http://www.w3.org/1999/xlink" x="0px" y="0px"
	 viewBox="0 0 522.7 467.1" style="enable-background:new 0 0 522.7 467.1;" xml:space="preserve">
<style type="text/css">
	.st0{fill:#C1E2F8;}
	.st1{clip-path:url(#SVGID_2_);fill:url(#SVGID_3_);}
	.st2{fill:url(#SVGID_4_);}
	.st3{fill:url(#SVGID_5_);}
	.st4{fill:url(#SVGID_6_);}
	.st5{fill:url(#SVGID_7_);}
</style>
<circle class="st0" cx="102.4" cy="416" r="22.5"/>
<circle class="st0" cx="119.3" cy="437.2" r="11.2"/>
<path class="st0" d="M72,32.4C22.7,84.9,28.2,249.1,46.9,307c8.8,27.4,89.8,113.6,208.1,122.4c180.9,13.5,152.4-62,204.3-110.8
	s46.2-167.8,34-220.9c-11.6-50.8-114.1-65.1-194.2-74.6C239.4,16.1,106.7-4.7,72,32.4z"/>
<g>
	<defs>
		<path id="SVGID_1_" d="M571.5,367.1c0,48.9-236,131.6-285,131.6S29.3,343.1,29.3,294.2s47.4-55.4,96.3-55.4
			S571.5,318.1,571.5,367.1z"/>
	</defs>
	<clipPath id="SVGID_2_">
		<use xlink:href="#SVGID_1_"  style="overflow:visible;"/>
	</clipPath>
	<linearGradient id="SVGID_3_" gradientUnits="userSpaceOnUse" x1="33.2685" y1="222.2302" x2="501.4472" y2="222.2302">
		<stop  offset="0" style="stop-color:#D4F6FF"/>
		<stop  offset="1" style="stop-color:#C1E2F8"/>
	</linearGradient>
	<path class="st1" d="M71.8,33.6C22.6,86.1,28,250.3,46.8,308.3c8.8,27.4,89.8,113.6,208.1,122.4c180.9,13.5,152.4-62,204.3-110.8
		s46.2-167.8,34-220.9C481.6,48.1,379.1,33.8,299,24.4C239.3,17.3,106.5-3.5,71.8,33.6z"/>
</g>
<linearGradient id="SVGID_4_" gradientUnits="userSpaceOnUse" x1="367.1065" y1="266.7612" x2="484.3327" y2="266.7612">
	<stop  offset="0" style="stop-color:#D4F6FF"/>
	<stop  offset="1" style="stop-color:#C1E2F8"/>
</linearGradient>
<circle class="st2" cx="425.7" cy="266.8" r="58.6"/>
<linearGradient id="SVGID_5_" gradientUnits="userSpaceOnUse" x1="363.6492" y1="208.1481" x2="405.7433" y2="208.1481">
	<stop  offset="0" style="stop-color:#D4F6FF"/>
	<stop  offset="1" style="stop-color:#C1E2F8"/>
</linearGradient>
<circle class="st3" cx="384.7" cy="208.1" r="21"/>
<linearGradient id="SVGID_6_" gradientUnits="userSpaceOnUse" x1="87.8998" y1="89.9888" x2="108.9469" y2="89.9888">
	<stop  offset="0" style="stop-color:#D4F6FF"/>
	<stop  offset="1" style="stop-color:#C1E2F8"/>
</linearGradient>
<circle class="st4" cx="98.4" cy="90" r="10.5"/>
<linearGradient id="SVGID_7_" gradientUnits="userSpaceOnUse" x1="98.4234" y1="70.3172" x2="137.7666" y2="70.3172">
	<stop  offset="0" style="stop-color:#D4F6FF"/>
	<stop  offset="1" style="stop-color:#C1E2F8"/>
</linearGradient>
<circle class="st5" cx="118.1" cy="70.3" r="19.7"/>
</svg>
