<?xml version="1.0" encoding="utf-8"?>
<!-- Generator: Adobe Illustrator 24.2.0, SVG Export Plug-In . SVG Version: 6.00 Build 0)  -->
<svg version="1.1" id="Layer_1" xmlns="http://www.w3.org/2000/svg" xmlns:xlink="http://www.w3.org/1999/xlink" x="0px" y="0px"
	 viewBox="0 0 1542.8 2016.8" style="enable-background:new 0 0 1542.8 2016.8;" xml:space="preserve">
<style type="text/css">
	.st0{fill:#C4C4C4;}
	.st1{fill:#FFFFFF;}
	.st2{fill:#3F3D55;}
	.st3{fill:#446284;}
	.st4{fill:#C1E2F8;}
</style>
<g>
	<path class="st0" d="M778.9,1113.4c30.7-324.3,250.9-608.8,568.6-757.3C1294.6,771,1052.1,1155.2,778.9,1113.4z"/>
	<path class="st0" d="M1347.5,356.1c-217.6,240.7-299,590.1-568.6,757.3C1052.1,1155.2,1294.6,771,1347.5,356.1z"/>
	<g>
		<path class="st1" d="M1347.5,356.1c-12.1,14.3-24,28.7-35.6,43.4c-14.3,18-27.7,36.7-40.8,55.6c-27.1,39.1-52.3,79.4-76.6,120.4
			c-24.6,41.6-48.3,83.7-72.2,125.7c-24.2,42.4-48.5,84.7-74.5,126c-25.4,40.3-52,80-81.8,117.1c-14.9,18.5-30.3,36.5-46.4,54
			c-7.9,8.6-16.1,16.9-24.4,25.1c-8.3,8.2-16.9,16.3-25.8,23.9c-15.6,13.3-31.4,26.5-48.1,38.3c-8.3,5.9-16.6,11.8-25.2,17.2
			c-5.7,3.6-11.4,7.1-17,10.7c5.7-3.9,11.3-7.7,17-11.6c9-6.1,17.6-12.8,26.4-19.3c9.1-6.8,17.7-14.2,26.5-21.5
			c4.3-3.6,8.4-7.5,12.5-11.3c4.3-3.9,8.7-7.8,12.8-11.8c8.4-8.2,16.8-16.3,24.9-24.7c8.2-8.6,16.1-17.3,24-26.1
			c15.7-17.7,30.7-36.1,44.8-55.2c14.1-19.2,28.1-38.4,41.3-58.2c13.4-20.1,26.4-40.4,39.1-61c25.5-41.5,49.7-83.8,74-126
			c24-41.9,48.1-83.8,73.5-124.9c25-40.4,50.7-80.6,79.4-118.4c12.7-16.7,25.4-33.3,39-49.4C1324.9,381.2,1336.2,368.6,1347.5,356.1
			z"/>
		<path class="st1" d="M916.7,724.1c-2.1,43-4.1,86.2-1.3,129.2c0.8,11.6,1.3,23.1,2.2,34.7c0.9,11.6,2.1,23.2,3.3,34.8
			c2,20.2,4.9,40.5,8.4,60.5c-5.6-18.4-9-37.5-12-56.4c-3.8-23.3-5.9-46.8-7.2-70.4c-1.3-23.6-1.1-47.2,0.1-70.8
			c1.1-20.5,3.5-40.8,6.6-61.1C916.7,724.5,916.7,724.3,916.7,724.1z"/>
		<path class="st1" d="M1084.8,528.9c0,8.6-0.2,17.1,0,25.7c0.2,11.6,0.9,23.1,1.8,34.7c1.8,23.8,4.8,47.6,8.9,71.2
			c3.5,20.8,7.2,41.6,11.3,62.3c-6.7-19.4-11.6-39.3-15.7-59.4c-4.7-23.3-8.1-47.1-9.1-70.9c-0.5-11.9-0.8-23.9-0.1-35.9
			C1082.4,547.3,1083.4,538.1,1084.8,528.9z"/>
		<path class="st1" d="M874,1040.5c20.2,4.2,40.5,5.3,61.1,3.9c23.7-1.6,47.1-5.6,70.3-10.9c11.3-2.6,22.6-5.3,33.8-8.4
			c-17.5,8.4-36.6,13.9-55.4,18.1c-22.9,5.2-46.8,7.8-70.2,6C899.9,1048.2,886.8,1045.4,874,1040.5z"/>
		<path class="st1" d="M1017.5,867.2c8.6-0.1,17.2-0.3,25.8-0.6c11.4-0.4,22.7-2.2,33.9-3.9c23.2-4,46.4-9.4,68.5-17.6
			c10.2-3.8,20.5-7.5,30.4-12.1c7.8-3.6,15.4-7.5,23-11.6c-16.2,12.3-34.3,21.1-53.1,28.8c-5.4,1.9-10.8,4.1-16.3,5.8
			c-5.5,1.7-11,3.3-16.5,4.8c-11.3,3.1-23,5.3-34.6,6.7c-11.5,1.4-23,2.3-34.6,2.1C1035.1,869.3,1026.3,868.4,1017.5,867.2z"/>
		<path class="st1" d="M1208,547.3c9.1-1.8,18.3-3,27.3-5.6c10.8-3,21.3-6.5,31.5-11.2c19.5-8.8,38.2-19.7,55.1-32.8
			c-13.7,16.3-32.7,29.2-52.1,37.6c-10.4,4.5-21.1,7.9-32.2,10.1c-9.8,1.8-19.5,2.3-29.5,1.9C1208.1,547.3,1208,547.3,1208,547.3z"
			/>
	</g>
</g>
<g>
	<path class="st0" d="M634.3,1093.4c-227,29.3-456.2-77.4-607.3-272.2C319.6,793.2,620.6,899.7,634.3,1093.4z"/>
	<path class="st0" d="M27,821.3C225.8,933,477.8,934.6,634.3,1093.4C620.6,899.7,319.6,793.2,27,821.3z"/>
	<g>
		<path class="st1" d="M27,821.3c11.7,6,23.4,12,35.3,17.7c14.5,7,29.4,13.3,44.4,19.3c31,12.5,62.6,23.5,94.4,33.8
			c32.3,10.4,64.9,20.1,97.3,30c32.8,10,65.6,20.1,97.9,31.5c31.5,11.1,62.9,23.2,93,37.9c15,7.3,29.7,15.1,44.2,23.4
			c7.1,4.1,14.1,8.4,21,12.8c6.9,4.4,13.8,9.1,20.4,14c11.5,8.6,23,17.4,33.7,27c5.3,4.8,10.6,9.6,15.7,14.6c3.3,3.3,6.7,6.7,10,10
			c-3.5-3.3-7.1-6.6-10.6-9.8c-5.6-5.2-11.5-10.1-17.3-15.1c-6.1-5.2-12.5-9.9-18.8-14.8c-3.1-2.4-6.4-4.6-9.7-6.8
			c-3.3-2.4-6.7-4.7-10.1-7c-6.9-4.5-13.8-9-20.8-13.2c-7.1-4.3-14.3-8.4-21.6-12.4c-14.6-8-29.5-15.5-44.8-22.1
			c-15.3-6.7-30.7-13.3-46.3-19.3c-15.8-6.1-31.8-11.8-47.9-17.3c-32.4-11.1-65.1-21.1-97.9-31.1c-32.4-10-64.9-19.9-97-31
			c-31.5-10.9-63.1-22.3-93.5-36c-13.4-6.1-26.8-12.2-39.9-19C47.7,832.9,37.3,827.1,27,821.3z"/>
		<path class="st1" d="M346.1,1059.4c29.8-5.2,59.7-10.5,88.8-19.1c7.8-2.3,15.7-4.5,23.4-6.9c7.8-2.4,15.6-5,23.3-7.6
			c13.5-4.5,27-9.6,40.2-15.2c-11.7,6.7-24.3,12-36.8,17c-15.4,6.2-31.2,11.3-47.1,15.9c-16,4.6-32.2,8.1-48.5,10.9
			c-14.2,2.5-28.5,3.9-42.9,5C346.4,1059.4,346.2,1059.4,346.1,1059.4z"/>
		<path class="st1" d="M186.2,974.5c5.9-1.3,11.8-2.6,17.6-4c7.9-2,15.7-4.2,23.5-6.6c16-4.9,31.9-10.7,47.4-17.1
			c13.7-5.7,27.4-11.4,41-17.4c-12.2,7.6-25.1,14.1-38.3,20c-15.2,6.9-31,12.9-47.2,17.3c-8.1,2.2-16.3,4.2-24.6,5.6
			C199.2,973.3,192.7,974.1,186.2,974.5z"/>
		<path class="st1" d="M569.6,1039.6c-0.3-14.5-2.6-28.6-6.8-42.5c-4.8-16-11.2-31.4-18.4-46.5c-3.5-7.4-7.1-14.7-11-21.9
			c8.5,10.7,15.2,22.9,21,35.2c7.1,14.9,12.6,30.8,15,47.2C570.8,1020.6,570.9,1030.1,569.6,1039.6z"/>
		<path class="st1" d="M428.5,968.1c-1.4-5.9-2.8-11.7-4.4-17.6c-2.1-7.7-5-15.2-8-22.6c-6.4-15.2-13.6-30.3-22.7-44.2
			c-4.2-6.4-8.3-12.9-13-19c-3.7-4.8-7.6-9.4-11.5-14c11,9.2,19.8,20.2,28,31.9c2.2,3.4,4.5,6.8,6.5,10.3c2,3.5,4,7,5.9,10.6
			c3.9,7.2,7.2,14.9,10,22.6c2.7,7.7,5.1,15.4,6.8,23.4C427.3,955.7,428,961.9,428.5,968.1z"/>
		<path class="st1" d="M179.7,887.2c-2.6-6-4.9-12.1-8-17.8c-3.7-6.9-7.8-13.6-12.5-19.9c-9.1-12-19.4-23.1-31.1-32.7
			c13.3,6.9,25,17.9,33.9,29.9c4.7,6.4,8.7,13.2,11.9,20.5C176.6,873.7,178.4,880.3,179.7,887.2
			C179.7,887.2,179.7,887.2,179.7,887.2z"/>
	</g>
</g>
<g>
	<path class="st2" d="M883.3,1070.6c115.5-197.6,340.1-313.8,586.6-314.4C1313.3,1005,1045,1178.1,883.3,1070.6z"/>
	<path class="st2" d="M1469.9,756.2c-209.9,89-365.2,287.6-586.6,314.4C1045,1178.1,1313.3,1005,1469.9,756.2z"/>
	<g>
		<path class="st1" d="M1469.9,756.2c-11.9,5.6-23.8,11.2-35.6,17.1c-14.4,7.2-28.5,15.2-42.4,23.3c-28.9,16.9-56.8,35.1-84.4,54.1
			c-28,19.2-55.6,39-83.2,58.7c-27.9,19.9-56,39.6-84.8,58.2c-28.1,18.2-56.8,35.6-86.8,50.4c-15,7.4-30.1,14.3-45.6,20.7
			c-7.6,3.1-15.3,6-23,8.8c-7.7,2.8-15.6,5.4-23.5,7.6c-13.9,3.9-27.8,7.6-42,10.2c-7.1,1.3-14.1,2.6-21.2,3.5
			c-4.7,0.6-9.4,1.2-14,1.8c4.7-0.8,9.5-1.6,14.2-2.4c7.6-1.2,15-2.9,22.5-4.5c7.8-1.6,15.5-3.8,23.2-5.8c3.8-1,7.6-2.3,11.3-3.5
			c3.9-1.2,7.8-2.4,11.7-3.8c7.8-2.7,15.5-5.4,23.2-8.4c7.7-3,15.4-6.2,23-9.5c15.2-6.6,30.3-13.9,44.9-21.9
			c14.7-8,29.3-16.2,43.6-24.9c14.5-8.8,28.8-17.9,42.9-27.3c28.6-18.9,56.5-38.7,84.4-58.4c27.7-19.6,55.4-39.2,83.8-57.9
			c27.9-18.3,56.2-36.3,85.7-52c13-6.9,26.1-13.7,39.4-19.9C1448,765.5,1458.9,760.8,1469.9,756.2z"/>
		<path class="st1" d="M1086.4,863.2c-14.1,26.8-28.2,53.7-39.1,82c-2.9,7.6-6,15.1-8.9,22.8c-2.9,7.7-5.5,15.4-8.2,23.1
			c-4.7,13.5-8.9,27.2-12.5,41.1c1.9-13.4,5.4-26.5,9-39.5c4.5-16,10.1-31.6,16.2-47c6.1-15.4,13.3-30.4,21-45.1
			c6.7-12.8,14.3-25,22.3-37C1086.3,863.4,1086.3,863.3,1086.4,863.2z"/>
		<path class="st1" d="M1251.3,788.5c-2.5,5.5-5.2,10.9-7.6,16.4c-3.3,7.4-6.2,15-9.1,22.6c-5.9,15.7-11,31.8-15.4,48
			c-3.9,14.3-7.7,28.6-11.3,43.1c1.4-14.3,4.2-28.5,7.6-42.5c3.9-16.2,8.8-32.4,15.2-47.9c3.2-7.8,6.6-15.5,10.6-22.9
			C1244.3,799.5,1247.7,794,1251.3,788.5z"/>
		<path class="st1" d="M965.5,1052.2c11.6,8.6,24.3,15.4,37.8,20.6c15.6,6,31.7,10.4,48,13.9c8,1.7,16,3.3,24,4.6
			c-13.6,0.2-27.4-2-40.7-4.9c-16.1-3.5-32.1-8.8-46.5-16.9C979.8,1064.8,972.2,1059.1,965.5,1052.2z"/>
		<path class="st1" d="M1108.3,984.2c5.5,2.5,11,4.9,16.6,7.3c7.4,3.1,15.1,5.3,22.8,7.5c16,4.3,32.3,7.7,48.8,9
			c7.6,0.6,15.3,1.3,23,1.3c6.1,0,12.1-0.2,18.1-0.6c-14,3-28.1,3.3-42.4,2.7c-4-0.4-8.1-0.6-12.1-1.2c-4-0.6-8-1.1-12-1.8
			c-8.1-1.4-16.2-3.4-24-6c-7.7-2.5-15.4-5.4-22.7-8.9C1118.9,990.8,1113.5,987.6,1108.3,984.2z"/>
		<path class="st1" d="M1324.4,836.7c6.3,1.6,12.6,3.5,19,4.5c7.7,1.3,15.5,2.1,23.4,2.2c15.1,0.1,30.2-1.3,44.9-4.6
			c-13.6,6.3-29.4,8.9-44.4,8.5c-8-0.2-15.8-1.2-23.5-3.1C1337,842.5,1330.6,839.9,1324.4,836.7
			C1324.4,836.7,1324.4,836.7,1324.4,836.7z"/>
	</g>
</g>
<g>
	<path class="st2" d="M777.5,1086.5c115.6-513.8-289.4-713.5-468.9-847C129.1,106,116.1,0,116.1,0c-41,306.7-7,680.4,196.8,850.3
		c203.8,169.8,376.5,188.4,424.2,248.4C794.5,1070.9,777.5,1086.5,777.5,1086.5z"/>
	<g>
		<path class="st2" d="M308.6,239.5C132.7,108.8,116.7,4.3,116.1,0.1C160.3,341.4,328.5,522,515.5,676.4
			c151,124.7,225.9,316.8,254.6,407.7c4.5-1.6,7-2.1,8.4-2C890.8,571.6,487.5,372.6,308.6,239.5z"/>
		<path class="st3" d="M778.4,1082.1c-0.3,1.4-0.6,2.9-0.9,4.3C777.5,1086.5,782.1,1082.3,778.4,1082.1z"/>
	</g>
	<g>
		<path class="st1" d="M116.1,0.1c2.8,17.6,5.7,35.1,9,52.7c3.9,20.9,8.5,41.6,13.6,62.3c11.2,45.2,25.6,89.7,43.1,132.8
			c17.9,43.9,39.4,86.2,64,126.7c24.3,40.1,52,78.3,82.2,114.2c16.9,20,34.4,39.3,52.4,58.2c21.2,22.2,43.5,43.4,66.2,64
			c17.7,16.2,35.9,31.9,54.2,47.4c11,9.3,22.2,18.4,32.9,28c35.3,31.5,66.8,67.2,94.7,105.4c28,38.4,52.6,79.3,74,121.7
			c20.1,39.8,37.4,81.1,52.3,123.2c5.5,15.7,10.6,31.5,15.3,47.5c-11.3-33.1-23.8-65.9-37.9-97.9c-18.1-41-38.6-81.1-61.9-119.5
			c-24.8-40.7-52.6-79.5-84-115.4c-15.6-17.8-32.2-34.8-49.7-50.8c-10.6-9.7-21.6-18.8-32.6-27.9c-37.1-30.7-73.1-62.6-107.5-96.3
			c-13.3-13-26.3-26.4-38.8-40.1c-25.6-28-50.4-56.8-72.6-87.6c-27.9-38.8-53.3-79.2-74.9-121.9c-20.8-41.2-38.2-84.1-52.4-128
			c-13.8-42.5-24.1-86.2-31.9-130.2C121.9,45.8,118.9,23,116.1,0.1z"/>
		<path class="st1" d="M104.1,326.8c7,5.3,13.9,10.7,21,15.8c9.2,6.6,18.9,12.5,28.5,18.4c10.1,6.2,20.7,11.8,31.2,17.2
			c10.6,5.4,21.2,10.6,32,15.7c16.5,7.7,33.2,14.9,50,21.9c-19.8-4.9-39.1-12-57.9-20c-21.7-9.2-42.8-20.4-62.4-33.5
			c-8.6-5.7-16.9-11.9-24.8-18.6C115.5,338.3,109.7,332.6,104.1,326.8z"/>
		<path class="st1" d="M176.6,658.9c8.7,2.1,17.4,4.3,26.1,6.5c11,2.8,22.1,4.9,33.2,7.3c11.4,2.5,23,4.3,34.5,6.3
			c11.7,2.1,23.6,3.7,35.4,5.2c24,3,48,5.4,72.1,6.9c23.7,1.5,47.5,2.8,71.3,2.7c27.8,0.2,55.5-0.1,83.2-1.8
			c-43.4,5.9-87.4,6.8-131.1,5.6c-47.9-1.3-95.9-6.7-142.8-16.4c-15.1-3.1-30.1-6.8-45-10.8C201,667.1,188.8,662.9,176.6,658.9z"/>
		<path class="st1" d="M500.6,975.7c19.3,3.9,38.5,7.9,58,11c18.5,2.9,37.1,5.6,55.8,7c41.2,3.2,82.5,5,123.8,1.8
			c-19,4-38.8,5.3-58.1,5.8c-21.9,0.5-43.7-0.2-65.5-2.1c-18.5-1.6-37-4.4-55.3-8.1c-11.2-2.2-22.3-4.8-33.3-7.7
			c-8.5-2.3-16.8-5.1-25.2-7.7C500.7,975.7,500.6,975.7,500.6,975.7z"/>
		<path class="st1" d="M712.3,602c2.2,20.2,4,40.4,4.8,60.7c0.9,23.9,0.3,47.9-1.3,71.8c-3.2,46.1-10.6,92.5-25.4,136.4
			c-1.7,4.9-3.4,9.8-5.5,14.6c6-19.5,10.5-39.6,14-59.7c4-23.5,7.4-47,9.7-70.7c4.4-46.2,5.4-92.7,4.1-139.1
			C712.5,611.3,712.4,606.7,712.3,602z"/>
	</g>
</g>
<path class="st4" d="M1260.5,1230.5H280.4c-48.1,0-87-39-87-87v0c0-48.1,39-87,87-87h980.1c48.1,0,87,39,87,87v0
	C1347.5,1191.5,1308.6,1230.5,1260.5,1230.5z"/>
<path class="st4" d="M1091.5,2007.3H449.4c-137.7,0-178.7-776.8-178.7-776.8h999.6C1270.2,1230.5,1233.6,2007.3,1091.5,2007.3z"/>
</svg>
