<?xml version="1.0" encoding="utf-8"?>
<!-- Generator: Adobe Illustrator 24.2.0, SVG Export Plug-In . SVG Version: 6.00 Build 0)  -->
<svg version="1.1" id="Layer_1" xmlns="http://www.w3.org/2000/svg" xmlns:xlink="http://www.w3.org/1999/xlink" x="0px" y="0px"
	 viewBox="0 0 1542.8 2651.6" style="enable-background:new 0 0 1542.8 2651.6;" xml:space="preserve">
<style type="text/css">
	.st0{fill:#07085B;}
	.st1{fill:#E67817;}
	.st2{fill:#466EB6;}
	.st3{fill:#86B1F2;}
</style>
<path class="st0" d="M61.9,2628.4c1.7,0.7,3.4,1,5.1,1c5.7,0,11.1-3.5,13.3-9.2l41.3-108.1h423.2l-37.4,97.8
	c-2.8,7.4,0.8,15.7,8.2,18.6c1.7,0.7,3.4,1,5.1,1c5.7,0,11.1-3.5,13.3-9.2l970.1-2539c2.8-7.4-0.8-15.7-8.2-18.6
	c-7.3-2.8-15.6,0.8-18.4,8.3l-77.1,201.8H977.3l73.2-191.4c2.8-7.4-0.8-15.7-8.2-18.6c-7.4-2.8-15.6,0.8-18.4,8.3l-970.1,2539
	C50.9,2617.2,54.5,2625.5,61.9,2628.4z M708,2085.2H284.7l67.8-177.4h423.3L708,2085.2z M784.9,1883.8H361.7l67.8-177.4h423.2
	L784.9,1883.8z M861.9,1682.4H438.6l67.8-177.4h423.3L861.9,1682.4z M1015.8,1279.6H592.5l67.8-177.4h423.3L1015.8,1279.6z
	 M1092.7,1078.2H669.5l67.8-177.4h423.3L1092.7,1078.2z M1169.7,876.8H746.4l67.8-177.4h423.2L1169.7,876.8z M1006.6,1303.6
	L938.8,1481H515.6l67.8-177.4H1006.6z M891.2,498h423.3l-67.8,177.4H823.4L891.2,498z M631,2286.6H207.8l67.8-177.4h423.2
	L631,2286.6z M1391.4,296.6L1323.6,474H900.4l67.8-177.4H1391.4z M130.8,2488l67.8-177.4h423.2L554,2488H130.8z"/>
<g>
	<path class="st1" d="M812.8,767c0,0,160.5,511.9,102.7,511.9c-50,0-149.2-404.2-191.5-404.2c-42.3,0-43.3,404.2-89.5,404.2
		c-50,0-41.2-511.9-41.2-511.9s-4.3-206.6-37.9-269.4c-29.8-55.7-125.8-46.2-148.5-207.9c-7.8-55.6,32-219.1,84.6-192.5
		c45.6,23.1-7.8,134.6-4.8,184.8c2.6,43,18.5,80.3,58.6,115.5c17.2,15.1,187.5-6.9,239.7,7.7c96.2,26.9,300.7,283.7,246.9,283.7
		c-21.4,0-222.4-164.4-222.4-164.4L812.8,767z"/>
</g>
<circle class="st1" cx="674.7" cy="287.2" r="94.7"/>
<g>
	<path class="st2" d="M585.2,153.4c12.5,2.8,39.4,18.4,67.2,25c16.3,3.9,24.1-2.9,40-8.3c75-25.6,62.8-1.9,72-4.5
		c0.3,6.7,0.8,64.3,1.3,75.8c0.4,10.6-4.3,17.7-14.5,21c-15.6,5-31.2,10.7-47.1,14.5c-40.9,9.8-70.4,1.2-107.8-8.4
		c-9.9-2.6-15.2-9.2-15.7-19.4C578.7,201.7,585.1,157.9,585.2,153.4z"/>
	<path class="st3" d="M799.3,218.4c7.1,15.6,9.8,18.1,2,19c-4.7,0.5-9.4,0.5-14.1,0.4c-3.3-0.1-4.3-1.9-3.2-5.1
		c1.6-4.7,3.4-9.3,5-13.9c-5.2-4.9-6-13.3-1.9-19.3c0.8-1.2,0.7,0.6-0.4-26.9c-34.6,11.7-58.9,20.1-101.2,34.4
		c-11.3,3.8-22.8,4.3-34.3,1.3c-39.9-10.1-79.9-20.2-119.8-30.3c-5.4-1.4-8.2-5.9-6.9-11c1-3.9,4-5.6,7.6-6.7
		c9.6-3.2,104.1-35.2,113.7-38.5c12.6-4.3,25.2-4.9,38.1-1.7c39.2,9.9,78.5,19.7,117.8,29.6c5.4,1.4,7.8,3.8,8.2,8
		c0.4,4.6-1.9,8.1-7.3,9.4c-3.9,0.9-4.9,2.8-4.6,6.6c1.6,17.4-0.6,22.5,3.3,27.3C804.4,204.9,802.9,214.5,799.3,218.4z"/>
</g>
</svg>
