<?xml version="1.0" encoding="utf-8"?>
<!-- Generator: Adobe Illustrator 24.2.0, SVG Export Plug-In . SVG Version: 6.00 Build 0)  -->
<svg version="1.1" id="Layer_1" xmlns="http://www.w3.org/2000/svg" xmlns:xlink="http://www.w3.org/1999/xlink" x="0px" y="0px"
	 viewBox="0 0 2160 1696" style="enable-background:new 0 0 2160 1696;" xml:space="preserve">
<style type="text/css">
	.st0{fill:#E67817;}
	.st1{fill:#FBD2B2;}
	.st2{fill:#466EB6;}
	.st3{fill:#86B1F2;}
	.st4{opacity:0.31;}
	.st5{fill:#455A64;}
</style>
<g>
	<path class="st0" d="M753,525.9c0,0,133.3,425.2,85.3,425.2c-41.6,0-123.9-335.7-159.1-335.7S643.3,951.1,605,951.1
		c-41.6,0-34.2-425.2-34.2-425.2s-0.8-239.3-49.4-112.7c-39.6,103.2-19.8,123.4-61.7,57.5c-19.2-30.2-24.1-158.2,59.6-197.7
		c17.2-8.1,194.4-47.3,237.8-35.2c79.9,22.4,179.3,226.5,134.5,226.5c-17.8,0-141.4-140-141.4-140L753,525.9z"/>
</g>
<path class="st1" d="M657.3,342.9c332.5-74.3,1057.6-152.3,1300.4,86.8c130.8,128.8,267.5,818.1,127.9,937.2
	c-366.9,313.1-738.4,8.5-1063.4,97.1c-325,88.6-697.1,301.1-872.4,178.5C-17.7,1525.2,5.4,1055.9,99.5,770.4
	C156,599.2,423,395.3,657.3,342.9z"/>
<circle class="st0" cx="621.5" cy="156.7" r="78.6"/>
<g>
	<path class="st2" d="M547.2,45.6c10.4,2.4,32.7,15.3,55.8,20.8c13.5,3.2,20.1-2.4,33.2-6.9c62.3-21.3,52.2-1.6,59.8-3.8
		c0.2,5.6,0.7,53.4,1.1,63c0.3,8.8-3.6,14.7-12,17.4c-13,4.2-25.9,8.9-39.1,12c-34,8.2-58.5,1-89.5-7c-8.2-2.1-12.7-7.6-13-16.1
		C541.9,85.7,547.2,49.4,547.2,45.6z"/>
	<path class="st3" d="M725.1,99.6c5.9,13,8.1,15.1,1.7,15.8c-3.9,0.4-7.8,0.5-11.7,0.3c-2.8-0.1-3.6-1.5-2.6-4.2
		c1.3-3.9,2.8-7.7,4.2-11.5c-4.3-4.1-5-11-1.6-16.1c0.7-1,0.6,0.5-0.3-22.3c-28.7,9.7-49,16.7-84,28.6c-9.4,3.2-18.9,3.5-28.5,1.1
		c-33.2-8.4-66.3-16.8-99.5-25.2c-4.5-1.1-6.8-4.9-5.7-9.1c0.8-3.3,3.4-4.6,6.3-5.6c8-2.7,86.5-29.2,94.4-32
		c10.4-3.6,20.9-4.1,31.6-1.4c32.6,8.2,65.2,16.4,97.8,24.6c4.5,1.1,6.5,3.2,6.8,6.7c0.3,3.8-1.6,6.7-6.1,7.8
		c-3.2,0.8-4.1,2.3-3.8,5.5c1.4,14.5-0.5,18.7,2.8,22.7C729.3,88.3,728.1,96.3,725.1,99.6z"/>
</g>
<path class="st0" d="M448,435.2c-7.1-2.7,0-30.3,0-30.3l172.3-52.5C620.3,352.4,519.3,462.4,448,435.2z"/>
<path class="st0" d="M919.9,509.5c-21.3,9-185.1-201.5-185.1-201.5h105.1C839.9,307.9,954.4,494.8,919.9,509.5z"/>
<g class="st4">
	<path class="st5" d="M645.8,345.6c-6.7-3.8-13.6-7.2-20.6-10.3c-3.5-1.6-7.1-3-10.7-4.2c-3.6-1.2-7.3-2.3-11.1-2.5
		c-0.9,0-1.9,0-2.8,0.1l-1.4,0.3l-1.4,0.3c-1.8,0.5-3.6,1.1-5.4,1.8c-3.5,1.4-7,3.1-10.4,4.9c-6.8,3.6-13.3,7.6-19.7,11.8
		c-12.9,8.3-25.3,17.4-37.5,26.6c-6.1,4.6-12.2,9.3-18.3,14c-6.1,4.7-12.1,9.5-18,14.3c5.8-5,11.7-9.9,17.6-14.8
		c6-4.9,12-9.6,18-14.3c12.2-9.4,24.6-18.5,37.4-26.9c6.4-4.2,13-8.2,19.8-11.8c3.4-1.8,6.9-3.5,10.5-4.9c1.8-0.7,3.6-1.3,5.5-1.8
		l1.4-0.3l1.4-0.3c1-0.1,2-0.1,3-0.1c3.9,0.3,7.7,1.4,11.3,2.7c3.6,1.3,7.2,2.8,10.7,4.4C632.4,338,639.2,341.7,645.8,345.6z"/>
</g>
<g class="st4">
	<path class="st5" d="M522.8,341.8c-1,3.1-1.5,6.3-2.1,9.4c-0.5,3.2-1,6.4-1.4,9.5c-0.4,3.2-0.8,6.4-1.2,9.6
		c-0.4,3.2-0.8,6.4-1.2,9.6c-0.2-6.5,0.3-12.9,1.1-19.4c0.4-3.2,1-6.4,1.7-9.6C520.5,347.9,521.4,344.7,522.8,341.8z"/>
</g>
<g class="st4">
	<path class="st5" d="M620.3,352.4c-5.6,6.2-11.5,12.1-17.6,17.9c-6.1,5.8-12.3,11.3-18.7,16.7c-12.8,10.8-26.3,20.7-40.7,29.4
		c-7.2,4.3-14.6,8.3-22.2,11.7c-7.6,3.4-15.5,6.4-23.7,8.5c-8.1,2.1-16.5,3.3-24.9,3.3c-8.4-0.1-16.8-1.6-24.6-4.6
		c7.9,2.8,16.2,4.1,24.6,4c8.3-0.1,16.6-1.4,24.6-3.6c16.1-4.4,31.2-11.7,45.5-20.3c14.3-8.6,27.8-18.5,40.7-29.1
		c6.5-5.3,12.8-10.8,18.9-16.4C608.4,364.2,614.5,358.4,620.3,352.4z"/>
</g>
<g class="st4">
	<path class="st5" d="M757,335.3c-1.4-1.5-2.7-3-4-4.5c-1.3-1.6-2.5-3.1-3.7-4.7c-2.5-3.2-4.7-6.5-6.9-9.9c-2.1-3.4-4.1-6.9-6-10.4
		c-0.9-1.8-1.8-3.6-2.6-5.4c-0.8-1.8-1.6-3.7-2.2-5.6c0.9,1.8,1.8,3.6,2.8,5.3c0.9,1.8,1.9,3.5,2.9,5.2c2,3.4,4,6.9,6.2,10.2
		c2.1,3.4,4.3,6.7,6.6,10C752.3,328.8,754.7,332,757,335.3z"/>
</g>
</svg>
