<?xml version="1.0" encoding="utf-8"?>
<!-- Generator: Adobe Illustrator 24.2.0, SVG Export Plug-In . SVG Version: 6.00 Build 0)  -->
<svg version="1.1" id="Layer_1" xmlns="http://www.w3.org/2000/svg" xmlns:xlink="http://www.w3.org/1999/xlink" x="0px" y="0px"
	 viewBox="0 0 1150.8 537.9" style="enable-background:new 0 0 1150.8 537.9;" xml:space="preserve">
<style type="text/css">
	.st0{opacity:0.14;fill:url(#SVGID_1_);}
	.st1{fill:url(#SVGID_2_);}
	.st2{fill:url(#SVGID_3_);}
	.st3{fill:url(#SVGID_4_);}
	.st4{fill:url(#SVGID_5_);}
	.st5{fill:url(#SVGID_6_);}
	.st6{fill:url(#SVGID_7_);}
	.st7{fill:url(#SVGID_8_);}
	.st8{opacity:0.18;fill:#C0C0C0;}
	.st9{fill:url(#SVGID_9_);}
	.st10{fill:url(#SVGID_10_);}
	.st11{fill:url(#SVGID_11_);}
	.st12{fill:url(#SVGID_12_);}
	.st13{fill:url(#SVGID_13_);}
	.st14{fill:#FFFFFF;}
	.st15{fill:#D6E7EE;}
	.st16{fill:url(#SVGID_14_);}
	.st17{fill:url(#SVGID_15_);}
	.st18{fill:url(#SVGID_16_);}
	.st19{fill:url(#SVGID_17_);}
	.st20{fill:url(#SVGID_18_);}
	.st21{fill:url(#SVGID_19_);}
	.st22{fill:url(#SVGID_20_);}
	.st23{fill:url(#SVGID_21_);}
	.st24{fill:url(#SVGID_22_);}
	.st25{fill:#6A8C9E;}
	.st26{fill:none;stroke:url(#SVGID_23_);stroke-width:2.2362;stroke-miterlimit:10;}
	.st27{fill:url(#SVGID_24_);}
	.st28{fill:url(#SVGID_25_);}
	.st29{fill:url(#SVGID_26_);}
	.st30{fill:url(#SVGID_27_);}
	.st31{fill:#FF7A2D;}
	.st32{fill:url(#SVGID_28_);}
	.st33{fill:#BCD2DC;}
	.st34{fill:none;stroke:#9DB6C6;stroke-width:2.9747;stroke-linecap:round;stroke-miterlimit:10;}
	.st35{fill:url(#SVGID_29_);}
	.st36{fill:url(#SVGID_30_);}
	.st37{fill:url(#SVGID_31_);}
	.st38{fill:url(#SVGID_32_);}
	.st39{fill:url(#SVGID_33_);}
	.st40{fill:url(#SVGID_34_);}
	.st41{fill:#9DB6C6;}
	.st42{fill:url(#SVGID_35_);}
	.st43{fill:url(#SVGID_36_);}
	.st44{fill:url(#SVGID_37_);}
	.st45{fill:url(#SVGID_38_);}
	.st46{fill:url(#SVGID_39_);}
	.st47{fill:url(#SVGID_40_);}
	.st48{fill:url(#SVGID_41_);}
	.st49{fill:url(#SVGID_42_);}
	.st50{fill:url(#SVGID_43_);}
	.st51{fill:url(#SVGID_44_);}
	.st52{fill:url(#SVGID_45_);}
	.st53{fill:url(#SVGID_46_);}
	.st54{fill:url(#SVGID_47_);}
	.st55{fill:#F9A858;}
	.st56{fill:#EAE5D8;}
	.st57{opacity:0.29;}
	.st58{fill:#56538D;}
	.st59{fill:url(#SVGID_48_);}
	.st60{fill:url(#SVGID_49_);}
	.st61{fill:#E23452;}
	.st62{fill:url(#SVGID_50_);}
	.st63{fill:#F6F9FA;}
	.st64{fill:#00B7FF;}
	.st65{fill:#72D2FF;}
	.st66{fill:#0098D5;}
	.st67{fill:#F1E1D0;}
	.st68{fill:url(#SVGID_51_);}
	.st69{fill:url(#SVGID_52_);}
	.st70{fill:url(#SVGID_53_);}
	.st71{fill:url(#SVGID_54_);}
	.st72{fill:#FFD050;}
	.st73{fill:#F87431;}
	.st74{fill:url(#SVGID_55_);}
	.st75{fill:#FF678A;}
	.st76{fill:#EB517A;}
	.st77{fill:#D7E8EF;}
	.st78{fill:url(#SVGID_56_);}
	.st79{fill:url(#SVGID_57_);}
	.st80{fill:url(#SVGID_58_);}
	.st81{fill:url(#SVGID_59_);}
	.st82{fill:url(#SVGID_60_);}
	.st83{fill:url(#SVGID_61_);}
	.st84{fill:url(#SVGID_62_);}
	.st85{fill:url(#SVGID_63_);}
	.st86{fill:url(#SVGID_64_);}
	.st87{fill:url(#SVGID_65_);}
	.st88{fill:url(#SVGID_66_);}
	.st89{fill:url(#SVGID_67_);}
	.st90{fill:none;stroke:url(#SVGID_68_);stroke-width:0.8198;stroke-linecap:round;stroke-miterlimit:10;}
	.st91{fill:none;stroke:url(#SVGID_69_);stroke-width:0.8198;stroke-linecap:round;stroke-miterlimit:10;}
	.st92{fill:none;stroke:url(#SVGID_70_);stroke-width:0.8198;stroke-linecap:round;stroke-miterlimit:10;}
	.st93{fill:none;stroke:url(#SVGID_71_);stroke-width:0.8198;stroke-linecap:round;stroke-miterlimit:10;}
	.st94{fill:none;stroke:url(#SVGID_72_);stroke-width:0.8198;stroke-linecap:round;stroke-miterlimit:10;}
	.st95{fill:#6B0E29;}
	.st96{opacity:0.4;fill:#EDF3F5;}
	.st97{opacity:0.2;fill:#EDF3F5;}
	.st98{fill:#B0173E;}
	.st99{fill:#30ACFF;}
	.st100{fill:url(#SVGID_73_);}
	.st101{fill:#FF9A06;}
	.st102{fill:#86B1F2;}
	.st103{fill:#466EB6;}
	.st104{fill:#FFA845;}
	.st105{fill:#FFB02B;}
</style>
<linearGradient id="SVGID_1_" gradientUnits="userSpaceOnUse" x1="-113.0985" y1="983.3504" x2="644.9523" y2="225.2995">
	<stop  offset="0" style="stop-color:#EDF3F5"/>
	<stop  offset="0.153" style="stop-color:#E0EBF6"/>
	<stop  offset="0.4327" style="stop-color:#BFD5F9"/>
	<stop  offset="0.495" style="stop-color:#B7D0FA"/>
	<stop  offset="1" style="stop-color:#EDF3F5"/>
</linearGradient>
<path class="st0" d="M1150.2,291.5l-1.1,173.4c-44.5,68.5-585.6,64.5-620.6,29.5c-47.4-47.4-107.8,13.4-162.1-9.7
	c-44.3-18.8-168.3-104-168.3-104L-0.7,433.8L1.7,124c0,0,225.1,31.3,252.3,24.3c40.2-10.3,110.1-3.2,150.6-11.4
	c56.9-11.6,170.9-49.4,229.5-68.4c40.5-13.2,515.5-41.9,515.5-41.9L1150.2,291.5z"/>
<g>
	
		<linearGradient id="SVGID_2_" gradientUnits="userSpaceOnUse" x1="884.2776" y1="877.6971" x2="1216.7894" y2="426.8587" gradientTransform="matrix(0.6369 -0.7709 0.7709 0.6369 -510.8915 952.6064)">
		<stop  offset="0" style="stop-color:#FCCE87"/>
		<stop  offset="0.438" style="stop-color:#FDD494"/>
		<stop  offset="1" style="stop-color:#FFDEAA"/>
	</linearGradient>
	<path class="st1" d="M-0.4,409l1.3-211.6c0,0,283.3-68.2,361.8-70.9c124.9-4.4,152.3,21.6,262.6,1.2
		c116.1-21.5,125.9-39.6,229.8-73.5c131.4-43,294.6-38.8,294.6-38.8v327.3c-24.3,2.7,11.9,113.6-36.5,155.3
		c-103.1,88.7-195.6-43.2-390.6-47.4c-254.8-5.5-228.9,38.7-431-12.7L-0.4,409z"/>
	<linearGradient id="SVGID_3_" gradientUnits="userSpaceOnUse" x1="187.6895" y1="740.4499" x2="486.7748" y2="222.4189">
		<stop  offset="0" style="stop-color:#FFC67F"/>
		<stop  offset="0.3713" style="stop-color:#FFCD8C"/>
		<stop  offset="1" style="stop-color:#FFDEAA"/>
	</linearGradient>
	<path class="st2" d="M325.9,424.8c191.2-29.7,477.3,135.7,558.7,81c0,0,23.7-387.8-17.7-382.9c-146.2,17.5-178.5-66.3-323.6-59.1
		C499,66,232.6,109.6,194.5,119.3C111.1,140.6,0.9,91.6,0.9,91.6c1.9,5.7,0.9,15.2-1.3,27.3l1.1,178.2c2,4.3,4.3,8.5,6.8,12.6
		C54.7,387.7,200.8,444.2,325.9,424.8z"/>
	<linearGradient id="SVGID_4_" gradientUnits="userSpaceOnUse" x1="249.7436" y1="643.7236" x2="698.6843" y2="194.7829">
		<stop  offset="0" style="stop-color:#FFC67F"/>
		<stop  offset="0.3713" style="stop-color:#FFCD8C"/>
		<stop  offset="1" style="stop-color:#FFDEAA"/>
	</linearGradient>
	<path class="st3" d="M619,479.3c152.9,43.6,353.5,37.7,434.9-17c0,0,25.5-345.7-15.9-340.7c-146.2,17.5-416.4-18.8-485-1.6
		c-73.3,18.3-191.7-34.3-212-33.9c-86.4,2-193.3,36.7-193.3,36.7C164.6,174.4,365.4,407.1,619,479.3z"/>
	<linearGradient id="SVGID_5_" gradientUnits="userSpaceOnUse" x1="569.1209" y1="670.8192" x2="835.4967" y2="209.4428">
		<stop  offset="0" style="stop-color:#FFC67F"/>
		<stop  offset="0.3713" style="stop-color:#FFCD8C"/>
		<stop  offset="1" style="stop-color:#FFDEAA"/>
	</linearGradient>
	<path class="st4" d="M783.6,503.8c119.3,34,267.7,37.9,365.8,12l1.5-409.7c-106.1-4.2-146.7-67.6-273.7-61.3
		c-44.2,2.2-223.5,84.4-259.6,100.6c-76,34-247.5,20.5-247.5,20.5C386.8,217.4,529.9,431.5,783.6,503.8z"/>
	<linearGradient id="SVGID_6_" gradientUnits="userSpaceOnUse" x1="635.3989" y1="545.0887" x2="838.0776" y2="194.0389">
		<stop  offset="0" style="stop-color:#FFC67F"/>
		<stop  offset="0.3713" style="stop-color:#FFCD8C"/>
		<stop  offset="1" style="stop-color:#FFDEAA"/>
	</linearGradient>
	<path class="st5" d="M783,410.8c110.8,31.6,256.3,27.4,315.4-12.3c0,0,17.2-281.2-12.8-277.7c-106,12.7-169.9-66.9-275.2-61.6
		c-32.1,1.6-121.6,80-147.8,91.7c-55.1,24.6-180.8,4.9-180.8,4.9C493.9,193.2,599.1,358.4,783,410.8z"/>
	<linearGradient id="SVGID_7_" gradientUnits="userSpaceOnUse" x1="995.8135" y1="-173.2015" x2="814.6423" y2="140.5961">
		<stop  offset="0" style="stop-color:#FFC67F"/>
		<stop  offset="0.3713" style="stop-color:#FFCD8C"/>
		<stop  offset="1" style="stop-color:#FFDEAA"/>
	</linearGradient>
	<path class="st6" d="M1000.7,275.5c136.8,6.5,150.2-169.4,150.2-169.4C1132.6,70.2,990.1,36.9,960,40.5
		c-64.2,7.7-149.4-0.9-199.7,15.1c-55.5,17.7-74.7,60.2-120.9,69.1c-80.6,15.5-157.7-2.6-157.7-2.6c4.6,14,98.1,101.8,201.6,105.2
		C787.4,230.7,926.1,272,1000.7,275.5z"/>
	<linearGradient id="SVGID_8_" gradientUnits="userSpaceOnUse" x1="870.3329" y1="288.6528" x2="998.8791" y2="66.0042">
		<stop  offset="0" style="stop-color:#FFC67F"/>
		<stop  offset="0.3713" style="stop-color:#FFCD8C"/>
		<stop  offset="1" style="stop-color:#FFDEAA"/>
	</linearGradient>
	<path class="st7" d="M936.9,148.4c50.4,14.1,162-4.8,212.7-1.1V15.3C864.9,26.6,781.9,99.5,781.9,99.5
		C794,136.8,899.8,138,936.9,148.4z"/>
	<ellipse class="st8" cx="230.9" cy="398.5" rx="28.4" ry="2.5"/>
</g>
<g>
	<g>
		<linearGradient id="SVGID_9_" gradientUnits="userSpaceOnUse" x1="740.7788" y1="428.9706" x2="725.5613" y2="513.8307">
			<stop  offset="0" style="stop-color:#F9CE5C"/>
			<stop  offset="1" style="stop-color:#FF7257"/>
		</linearGradient>
		<path class="st9" d="M777.1,416.5c-0.3-0.1-0.7-0.1-1,0c-0.2,0.1-0.4,0.2-0.6,0.3l-4.7,3.8L727.1,453l-54.4-2.2l-6-0.5
			c-0.2,0-0.4,0-0.7,0.1c-0.3,0.1-0.6,0.3-0.8,0.6c-0.4,0.5-0.5,1.1-0.3,1.6l22.9,74.3c0.2,0.7,0.8,1.2,1.6,1.2l59.5,2.9
			c0.7,0,1.4-0.1,2.1-0.3c0.7-0.2,1.3-0.5,1.9-1l47.6-35.9c0.6-0.4,0.8-1.2,0.6-1.9l-22.9-74.3C778.1,417.1,777.6,416.7,777.1,416.5
			z"/>
		<linearGradient id="SVGID_10_" gradientUnits="userSpaceOnUse" x1="770.1946" y1="454.6092" x2="799.4985" y2="454.6092">
			<stop  offset="0" style="stop-color:#EDF3F5"/>
			<stop  offset="0.153" style="stop-color:#E0EBF6"/>
			<stop  offset="0.4327" style="stop-color:#BFD5F9"/>
			<stop  offset="0.495" style="stop-color:#B7D0FA"/>
			<stop  offset="1" style="stop-color:#EDF3F5"/>
		</linearGradient>
		<polygon class="st10" points="770.2,416.5 793.4,492 799.5,492.7 776.6,418.4 		"/>
		<linearGradient id="SVGID_11_" gradientUnits="userSpaceOnUse" x1="744.5001" y1="491.9964" x2="744.5001" y2="529.485">
			<stop  offset="0" style="stop-color:#BADEF1"/>
			<stop  offset="0.999" style="stop-color:#8DB6FD"/>
		</linearGradient>
		<path class="st11" d="M799.5,492.7l-45.1,34l-2.5,1.9c-0.8,0.6-1.9,0.9-2.9,0.9l-3.1-0.2l-56.4-2.8l4.6-4l53.5,2.2
			c0.5,0,1,0,1.5-0.2c0.5-0.1,0.9-0.4,1.3-0.7l43-31.9L799.5,492.7z"/>
		<linearGradient id="SVGID_12_" gradientUnits="userSpaceOnUse" x1="750.7546" y1="529.3795" x2="749.6805" y2="526.9625">
			<stop  offset="0" style="stop-color:#F9CE5C"/>
			<stop  offset="1" style="stop-color:#FF7257"/>
		</linearGradient>
		<path class="st12" d="M754.4,526.7l-2.5,1.9c-0.8,0.6-1.9,0.9-2.9,0.9l-3.1-0.2c0.1-1.9,1.3-3.7,3.3-4.3
			C751.2,524.4,753.2,525.2,754.4,526.7z"/>
		<linearGradient id="SVGID_13_" gradientUnits="userSpaceOnUse" x1="666.6505" y1="486.7874" x2="694.1223" y2="486.7874">
			<stop  offset="0" style="stop-color:#EDF3F5"/>
			<stop  offset="0.153" style="stop-color:#E0EBF6"/>
			<stop  offset="0.4327" style="stop-color:#BFD5F9"/>
			<stop  offset="0.495" style="stop-color:#B7D0FA"/>
			<stop  offset="1" style="stop-color:#EDF3F5"/>
		</linearGradient>
		<polygon class="st13" points="670.9,447 666.7,452.2 689.5,526.6 694.1,522.5 		"/>
		<path class="st14" d="M749.1,524.5c0.5-0.1,0.9-0.4,1.3-0.7l43-31.9l-23.2-75.5l-44.3,32.8L749.1,524.5L749.1,524.5z"/>
		<path class="st15" d="M780.3,479.2l-32.3,24c-0.2,0.2-0.3,0.5-0.1,0.7c0.2,0.2,0.5,0.3,0.7,0.1l32.3-24c0.2-0.2,0.3-0.5,0.1-0.7
			C780.8,479,780.5,479,780.3,479.2z M778.7,473.9l-32.3,24c-0.2,0.2-0.3,0.5-0.1,0.7c0.2,0.2,0.5,0.3,0.7,0.1l32.3-24
			c0.2-0.2,0.3-0.5,0.1-0.7C779.2,473.8,778.9,473.8,778.7,473.9z M777.1,468.7l-32.3,24c-0.2,0.2-0.3,0.5-0.1,0.7
			c0.2,0.2,0.5,0.3,0.7,0.1l32.3-24c0.2-0.2,0.3-0.5,0.1-0.7C777.6,468.6,777.3,468.5,777.1,468.7z M781.9,484.4l-32.3,24
			c-0.2,0.2-0.3,0.5-0.1,0.7c0.2,0.2,0.5,0.3,0.7,0.1l32.3-24c0.2-0.2,0.3-0.5,0.1-0.7C782.4,484.3,782.1,484.2,781.9,484.4z
			 M732.5,451.7l32.3-24c0.2-0.2,0.3-0.5,0.1-0.7c-0.2-0.2-0.5-0.3-0.7-0.1l-32.3,24c-0.2,0.2-0.3,0.5-0.1,0.7
			C731.9,451.8,732.3,451.9,732.5,451.7z M783.5,489.6l-32.3,24c-0.2,0.2-0.3,0.5-0.1,0.7c0.2,0.2,0.5,0.3,0.7,0.1l32.3-24
			c0.2-0.2,0.3-0.5,0.1-0.7C784,489.5,783.7,489.4,783.5,489.6z M767.4,437.4l-32.3,24c-0.2,0.2-0.3,0.5-0.1,0.7
			c0.2,0.2,0.5,0.3,0.7,0.1l32.3-24c0.2-0.2,0.3-0.5,0.1-0.7C768,437.2,767.6,437.2,767.4,437.4z M769,442.6l-32.3,24
			c-0.2,0.2-0.3,0.5-0.1,0.7c0.2,0.2,0.5,0.3,0.7,0.1l32.3-24c0.2-0.2,0.3-0.5,0.1-0.7C769.6,442.5,769.2,442.4,769,442.6z
			 M765.8,432.1l-32.3,24c-0.2,0.2-0.3,0.5-0.1,0.7c0.2,0.2,0.5,0.3,0.7,0.1l32.3-24c0.2-0.2,0.3-0.5,0.1-0.7
			C766.4,432,766,432,765.8,432.1z M770.6,447.8l-32.3,24c-0.2,0.2-0.3,0.5-0.1,0.7c0.2,0.2,0.5,0.3,0.7,0.1l32.3-24
			c0.2-0.2,0.3-0.5,0.1-0.7C771.2,447.7,770.9,447.6,770.6,447.8z M772.2,453l-32.3,24c-0.2,0.2-0.3,0.5-0.1,0.7
			c0.2,0.2,0.5,0.3,0.7,0.1l32.3-24c0.2-0.2,0.3-0.5,0.1-0.7C772.8,452.9,772.5,452.9,772.2,453z M775.4,463.5l-32.3,24
			c-0.2,0.2-0.3,0.5-0.1,0.7c0.2,0.2,0.5,0.3,0.7,0.1l32.3-24c0.2-0.2,0.3-0.5,0.1-0.7C776,463.4,775.7,463.3,775.4,463.5z
			 M773.8,458.3l-32.3,24c-0.2,0.2-0.3,0.5-0.1,0.7c0.2,0.2,0.5,0.3,0.7,0.1l32.3-24c0.2-0.2,0.3-0.5,0.1-0.7
			S774.1,458.1,773.8,458.3z"/>
		<path class="st14" d="M749.1,524.5c-0.5,0.1-1,0.2-1.5,0.2l-53.5-2.2L670.9,447l55,2.3L749.1,524.5L749.1,524.5z"/>
		<path class="st15" d="M697.2,505c0,0.3,0.2,0.5,0.5,0.5l40.2,1.7c0.3,0,0.5-0.2,0.5-0.5c0-0.3-0.2-0.5-0.5-0.5l-40.2-1.7
			C697.5,504.5,697.3,504.7,697.2,505z M695.6,499.8c0,0.3,0.2,0.5,0.5,0.5l40.2,1.7c0.3,0,0.5-0.2,0.5-0.5c0-0.3-0.2-0.5-0.5-0.5
			l-40.2-1.7C695.9,499.3,695.6,499.5,695.6,499.8z M694,494.6c0,0.3,0.2,0.5,0.5,0.5l40.2,1.7c0.3,0,0.5-0.2,0.5-0.5
			c0-0.3-0.2-0.5-0.5-0.5l-40.2-1.7C694.3,494.1,694,494.3,694,494.6z M698.9,510.3c0,0.3,0.2,0.5,0.5,0.5l40.2,1.7
			c0.3,0,0.5-0.2,0.5-0.5c0-0.3-0.2-0.5-0.5-0.5l-40.2-1.7C699.1,509.7,698.9,510,698.9,510.3z M722.4,454.5c0-0.3-0.2-0.5-0.5-0.5
			l-40.2-1.7c-0.3,0-0.5,0.2-0.5,0.5c0,0.3,0.2,0.5,0.5,0.5l40.2,1.7C722.2,455,722.4,454.8,722.4,454.5z M700.5,515.5
			c0,0.3,0.2,0.5,0.5,0.5l40.2,1.7c0.3,0,0.5-0.2,0.5-0.5c0-0.3-0.2-0.5-0.5-0.5L701,515C700.7,515,700.5,515.2,700.5,515.5z
			 M684.4,463.2c0,0.3,0.2,0.5,0.5,0.5l40.2,1.7c0.3,0,0.5-0.2,0.5-0.5c0-0.3-0.2-0.5-0.5-0.5l-40.2-1.7
			C684.6,462.7,684.4,462.9,684.4,463.2z M686,468.4c0,0.3,0.2,0.5,0.5,0.5l40.2,1.7c0.3,0,0.5-0.2,0.5-0.5c0-0.3-0.2-0.5-0.5-0.5
			l-40.2-1.7C686.2,467.9,686,468.2,686,468.4z M682.8,458c0,0.3,0.2,0.5,0.5,0.5l40.2,1.7c0.3,0,0.5-0.2,0.5-0.5
			c0-0.3-0.2-0.5-0.5-0.5l-40.2-1.7C683,457.5,682.8,457.7,682.8,458z M687.6,473.7c0,0.3,0.2,0.5,0.5,0.5l40.2,1.7
			c0.3,0,0.5-0.2,0.5-0.5c0-0.3-0.2-0.5-0.5-0.5l-40.2-1.7C687.9,473.2,687.6,473.4,687.6,473.7z M689.2,478.9
			c0,0.3,0.2,0.5,0.5,0.5l40.2,1.7c0.3,0,0.5-0.2,0.5-0.5c0-0.3-0.2-0.5-0.5-0.5l-40.2-1.7C689.5,478.4,689.2,478.6,689.2,478.9z
			 M692.4,489.4c0,0.3,0.2,0.5,0.5,0.5l40.2,1.7c0.3,0,0.5-0.2,0.5-0.5c0-0.3-0.2-0.5-0.5-0.5l-40.2-1.7
			C692.7,488.8,692.4,489.1,692.4,489.4z M690.8,484.1c0,0.3,0.2,0.5,0.5,0.5l40.2,1.7c0.3,0,0.5-0.2,0.5-0.5c0-0.3-0.2-0.5-0.5-0.5
			l-40.2-1.7C691.1,483.6,690.8,483.8,690.8,484.1z"/>
	</g>
	<linearGradient id="SVGID_14_" gradientUnits="userSpaceOnUse" x1="726.6002" y1="485.8546" x2="756.1138" y2="485.8546">
		<stop  offset="0" style="stop-color:#FB697D"/>
		<stop  offset="1" style="stop-color:#DB2276"/>
	</linearGradient>
	<polygon class="st16" points="726.6,448 751.6,526.9 752.9,522.2 756.1,523.5 731,444.8 	"/>
</g>
<g>
	<g>
		<g id="XMLID_75_">
			<g>
				<g>
					<g>
						<g>
							<linearGradient id="SVGID_15_" gradientUnits="userSpaceOnUse" x1="505.7288" y1="88.3004" x2="530.9427" y2="88.3004">
								<stop  offset="0" style="stop-color:#FB697D"/>
								<stop  offset="1" style="stop-color:#DB2276"/>
							</linearGradient>
							<path class="st17" d="M530.9,90.6l-7.5,1.4l-10.1,1.9l-7.5,1.4c-1.1-6.1,2.9-12,9-13.1l2.8-0.5c3.1-0.6,6.1,0.2,8.4,1.8
								C528.6,85,530.4,87.5,530.9,90.6z"/>
						</g>
						<g>
							<linearGradient id="SVGID_16_" gradientUnits="userSpaceOnUse" x1="513.3948" y1="96.9883" x2="524.9683" y2="96.9883">
								<stop  offset="0" style="stop-color:#FB697D"/>
								<stop  offset="1" style="stop-color:#9A1176"/>
							</linearGradient>
							<path class="st18" d="M523.5,92l1.5,8.1c-1.7,0.1-3.4,0.2-5.1,0.6c-1.7,0.3-3.4,0.7-5,1.3l-1.5-8.1L523.5,92z"/>
						</g>
					</g>
					<g>
						<g>
							<linearGradient id="SVGID_17_" gradientUnits="userSpaceOnUse" x1="544.3169" y1="98.7103" x2="567.0883" y2="98.7103">
								<stop  offset="0" style="stop-color:#FB697D"/>
								<stop  offset="1" style="stop-color:#DB2276"/>
							</linearGradient>
							<path class="st19" d="M544.3,93.6l6.2,4.4l8.3,6l6.2,4.4c3.6-5,2.5-12.1-2.6-15.7l-2.3-1.7c-2.5-1.8-5.5-2.4-8.4-2
								C548.8,89.5,546.1,91.1,544.3,93.6z"/>
						</g>
						<g>
							<linearGradient id="SVGID_18_" gradientUnits="userSpaceOnUse" x1="545.6431" y1="104.4113" x2="558.7928" y2="104.4113">
								<stop  offset="0" style="stop-color:#FB697D"/>
								<stop  offset="1" style="stop-color:#9A1176"/>
							</linearGradient>
							<path class="st20" d="M550.5,98.1l-4.8,6.7c1.5,0.8,3,1.7,4.4,2.7c1.4,1,2.7,2.1,3.9,3.3l4.8-6.7L550.5,98.1z"/>
						</g>
					</g>
				</g>
				<g>
					<linearGradient id="SVGID_19_" gradientUnits="userSpaceOnUse" x1="535.7125" y1="168.0742" x2="550.9122" y2="168.0742">
						<stop  offset="0" style="stop-color:#FB697D"/>
						<stop  offset="1" style="stop-color:#DB2276"/>
					</linearGradient>
					<path class="st21" d="M550.8,169c0.6,3.9-2,7.5-5.8,8.1c-0.9,0.2-1.8,0.1-2.7-0.1c-2.7-0.6-4.9-2.8-5.4-5.8l-1.1-6.9
						c4.9-0.9,9.4-2.8,13.5-5.6L550.8,169z"/>
				</g>
				<g>
					<linearGradient id="SVGID_20_" gradientUnits="userSpaceOnUse" x1="511.4801" y1="98.8364" x2="546.9555" y2="160.2816">
						<stop  offset="0" style="stop-color:#FB697D"/>
						<stop  offset="1" style="stop-color:#DB2276"/>
					</linearGradient>
					<path class="st22" d="M542,96.5c16.2,6.2,25.8,23.6,21.8,41c-2.1,9.1-7.5,16.6-14.6,21.4c-4,2.7-8.6,4.7-13.5,5.6
						c-4.6,0.9-9.5,0.8-14.4-0.3c-4.9-1.1-9.3-3.2-13.1-6c-4-2.9-7.3-6.6-9.7-10.8c-4.3-7.5-6-16.6-3.9-25.7
						c4-17.4,20.1-28.9,37.4-27.5c1.7,0.1,3.4,0.4,5.1,0.8C538.8,95.4,540.4,95.9,542,96.5z"/>
				</g>
				<g>
					<linearGradient id="SVGID_21_" gradientUnits="userSpaceOnUse" x1="491.3578" y1="157.1211" x2="508.2349" y2="157.1211">
						<stop  offset="0" style="stop-color:#FB697D"/>
						<stop  offset="1" style="stop-color:#DB2276"/>
					</linearGradient>
					<path class="st23" d="M508.2,158.2l-4,5.7c-2.2,3.2-6.6,4-9.9,1.7c-2.4-1.7-3.5-4.7-2.9-7.4c0.2-0.9,0.6-1.7,1.1-2.5l5.9-8.4
						C500.9,151.6,504.2,155.3,508.2,158.2z"/>
				</g>
			</g>
		</g>
		<g>
			<linearGradient id="SVGID_22_" gradientUnits="userSpaceOnUse" x1="508.6364" y1="108.9792" x2="549.7979" y2="150.1407">
				<stop  offset="0" style="stop-color:#B7D0FA"/>
				<stop  offset="1.436859e-02" style="stop-color:#B9D1FA"/>
				<stop  offset="0.2187" style="stop-color:#D0E0F8"/>
				<stop  offset="0.4378" style="stop-color:#E0EBF6"/>
				<stop  offset="0.6822" style="stop-color:#EAF1F5"/>
				<stop  offset="1" style="stop-color:#EDF3F5"/>
			</linearGradient>
			<circle class="st24" cx="529.2" cy="129.6" r="29.1"/>
			<g>
				<path class="st25" d="M529.2,102.7c2,0,4,0.2,6,0.7c7,1.6,13,5.8,16.8,11.9s5,13.3,3.4,20.3c-2.8,12.3-13.6,20.9-26.2,20.9
					c-2,0-4-0.2-6-0.7c-14.4-3.3-23.5-17.7-20.2-32.2C505.8,111.3,516.6,102.7,529.2,102.7 M529.2,100.5c-13.3,0-25.3,9.1-28.3,22.6
					c-3.6,15.7,6.2,31.3,21.9,34.8c2.2,0.5,4.4,0.7,6.5,0.7c13.3,0,25.3-9.1,28.3-22.6c3.6-15.7-6.2-31.3-21.9-34.8
					C533.5,100.7,531.3,100.5,529.2,100.5L529.2,100.5z"/>
			</g>
			<linearGradient id="SVGID_23_" gradientUnits="userSpaceOnUse" x1="503.0459" y1="144.6699" x2="555.3884" y2="114.45">
				<stop  offset="0" style="stop-color:#FB697D"/>
				<stop  offset="1" style="stop-color:#9A1176"/>
			</linearGradient>
			
				<ellipse transform="matrix(0.2234 -0.9747 0.9747 0.2234 284.7171 616.4648)" class="st26" cx="529.2" cy="129.6" rx="29.1" ry="29.1"/>
		</g>
		<g>
			
				<rect x="530.7" y="106.9" transform="matrix(0.2224 -0.975 0.975 0.2224 310.633 604.4761)" class="st15" width="7.1" height="1.2"/>
		</g>
		<g>
			
				<rect x="520.7" y="151" transform="matrix(0.2224 -0.975 0.975 0.2224 259.79 628.9443)" class="st15" width="7.1" height="1.2"/>
		</g>
		<g>
			
				<rect x="506.6" y="121" transform="matrix(0.2224 -0.975 0.975 0.2224 272.9616 591.3004)" class="st15" width="1.2" height="7.1"/>
		</g>
		<g>
			
				<rect x="550.6" y="131.1" transform="matrix(0.2224 -0.975 0.975 0.2224 297.4518 642.1176)" class="st15" width="1.2" height="7.1"/>
		</g>
		<g>
			
				<rect x="516.6" y="106.9" transform="matrix(0.8467 -0.5321 0.5321 0.8467 20.5424 292.12)" class="st15" width="1.2" height="7.1"/>
		</g>
		<g>
			
				<rect x="540.6" y="145.2" transform="matrix(0.8467 -0.5321 0.5321 0.8467 3.8552 310.7928)" class="st15" width="1.2" height="7.1"/>
		</g>
		<g>
			
				<rect x="506.5" y="141" transform="matrix(0.8466 -0.5322 0.5322 0.8466 2.8713 293.1517)" class="st15" width="7.1" height="1.2"/>
		</g>
		<g>
			
				<rect x="544.8" y="116.9" transform="matrix(0.8467 -0.5321 0.5321 0.8467 21.5371 309.798)" class="st15" width="7.1" height="1.2"/>
		</g>
		<g>
			<linearGradient id="SVGID_24_" gradientUnits="userSpaceOnUse" x1="527.9003" y1="126.3257" x2="536.476" y2="126.3257">
				<stop  offset="0" style="stop-color:#FB697D"/>
				<stop  offset="1" style="stop-color:#DB2276"/>
			</linearGradient>
			<polygon class="st27" points="534.4,140.1 527.9,129.8 531.8,112.5 534.2,113.1 530.5,129.3 536.5,138.8 			"/>
		</g>
		<g>
			<linearGradient id="SVGID_25_" gradientUnits="userSpaceOnUse" x1="526.3094" y1="129.5596" x2="532.121" y2="129.5596">
				<stop  offset="0" style="stop-color:#FB697D"/>
				<stop  offset="1" style="stop-color:#DB2276"/>
			</linearGradient>
			<path class="st28" d="M532,130.2c-0.4,1.6-1.9,2.5-3.5,2.2c-1.6-0.4-2.5-1.9-2.2-3.5c0.4-1.6,1.9-2.5,3.5-2.2
				C531.4,127.1,532.4,128.6,532,130.2z"/>
		</g>
	</g>
</g>
<g>
	<g>
		<g>
			
				<linearGradient id="SVGID_26_" gradientUnits="userSpaceOnUse" x1="-7599.481" y1="-7607.4048" x2="-7556.0635" y2="-7532.2031" gradientTransform="matrix(0.4327 -0.354 0.354 0.4327 6991.209 962.8651)">
				<stop  offset="0" style="stop-color:#7A62FF"/>
				<stop  offset="0.4183" style="stop-color:#7C3CFF"/>
				<stop  offset="1" style="stop-color:#8000FF"/>
			</linearGradient>
			<path class="st29" d="M1053.2,384l-10.5,8.6l-29.2-35.7c-1.3-1.6-1-3.9,0.5-5.1l4.8-4c1.6-1.3,3.9-1,5.1,0.5L1053.2,384z"/>
			
				<linearGradient id="SVGID_27_" gradientUnits="userSpaceOnUse" x1="-7686.8384" y1="-7607.4014" x2="-7643.4209" y2="-7532.2002" gradientTransform="matrix(0.4327 -0.354 0.354 0.4327 6991.209 962.8651)">
				<stop  offset="0" style="stop-color:#7A62FF"/>
				<stop  offset="0.4183" style="stop-color:#7C3CFF"/>
				<stop  offset="1" style="stop-color:#8000FF"/>
			</linearGradient>
			<path class="st30" d="M1015.4,415l-10.5,8.6l-29.2-35.7c-1.3-1.6-1-3.9,0.5-5.1l4.8-4c1.6-1.3,3.9-1,5.1,0.5L1015.4,415z"/>
		</g>
		<g>
			<path class="st31" d="M1014.9,364.5l-1.7,1.4l-4.7-5.8c-1.5-1.8-4.2-2.1-6-0.6l-11.4,9.3c-1.8,1.5-2.1,4.2-0.6,6l4.7,5.8
				l-1.7,1.4l-4.7-5.8c-2.3-2.8-1.9-6.9,0.9-9.2l11.4-9.3c2.8-2.3,6.9-1.9,9.2,0.9L1014.9,364.5z"/>
		</g>
		
			<linearGradient id="SVGID_28_" gradientUnits="userSpaceOnUse" x1="-7668.4858" y1="-7603.1294" x2="-7575.7456" y2="-7442.499" gradientTransform="matrix(0.4327 -0.354 0.354 0.4327 6991.209 962.8651)">
			<stop  offset="0" style="stop-color:#6D88FF"/>
			<stop  offset="0.2543" style="stop-color:#7879FF"/>
			<stop  offset="0.7446" style="stop-color:#9450FF"/>
			<stop  offset="1" style="stop-color:#A539FF"/>
		</linearGradient>
		<path class="st32" d="M1039.9,360.1l40,48.9c2.9,3.5,2.4,8.8-1.2,11.7l-43.1,35.2c-3.5,2.9-8.8,2.4-11.7-1.2l-40-48.9
			c-6.1-7.5-5-18.5,2.5-24.6l28.8-23.6C1022.8,351.5,1033.8,352.6,1039.9,360.1z"/>
		<path class="st33" d="M1036.7,372.1L996.5,405c-0.9,0.8-1.1,2.1-0.3,3.1l8.8,10.8c0.8,0.9,2.1,1.1,3.1,0.3l40.2-32.9
			c0.9-0.8,1.1-2.1,0.3-3.1l-8.8-10.8C1039,371.5,1037.6,371.4,1036.7,372.1z"/>
		<path class="st34" d="M1004.3,424.1l-17.1-20.9c-4.7-5.7-3.8-14.2,1.9-18.9l28.8-23.6c5.7-4.7,14.2-3.8,18.9,1.9l17.1,20.9"/>
		
			<linearGradient id="SVGID_29_" gradientUnits="userSpaceOnUse" x1="-7641.3125" y1="-7522.3384" x2="-7600.7207" y2="-7452.0317" gradientTransform="matrix(0.4327 -0.354 0.354 0.4327 6991.209 962.8651)">
			<stop  offset="0" style="stop-color:#F9CE5C"/>
			<stop  offset="1" style="stop-color:#FF7257"/>
		</linearGradient>
		<path class="st35" d="M1058.8,397.5l10.4,12.8c1.4,1.8,1.2,4.3-0.6,5.8l-35.5,29c-1.8,1.4-4.3,1.2-5.8-0.6l-10.4-12.8
			c-0.9-1.1-1.2-2.6-0.7-3.9c0.2-0.7,0.7-1.3,1.3-1.8l35.5-29c0.6-0.5,1.3-0.8,2-0.9C1056.5,395.9,1057.9,396.4,1058.8,397.5z"/>
		<path class="st31" d="M1058.8,397.5l3.5,4.2c-0.1,0.5-0.4,1-0.9,1.3l-39.5,32.3c-0.4,0.4-1,0.6-1.5,0.6l-3.5-4.2
			c-0.9-1.1-1.2-2.6-0.7-3.9l38.8-31.7C1056.5,395.9,1057.9,396.4,1058.8,397.5z"/>
		
			<linearGradient id="SVGID_30_" gradientUnits="userSpaceOnUse" x1="-7636.5" y1="-7532.4629" x2="-7604.8989" y2="-7477.728" gradientTransform="matrix(0.4327 -0.354 0.354 0.4327 6991.209 962.8651)">
			<stop  offset="0" style="stop-color:#F9CE5C"/>
			<stop  offset="1" style="stop-color:#FF8E59"/>
		</linearGradient>
		<path class="st36" d="M1059.9,401.3l-39.5,32.3c-1.1,0.9-2.8,0.8-3.7-0.4l-4.3-5.3l43.5-35.6l4.3,5.3
			C1061.2,398.7,1061.1,400.3,1059.9,401.3z"/>
		
			<linearGradient id="SVGID_31_" gradientUnits="userSpaceOnUse" x1="-7661.4961" y1="-7580.3467" x2="-7634.0664" y2="-7532.8369" gradientTransform="matrix(0.4327 -0.354 0.354 0.4327 6991.209 962.8651)">
			<stop  offset="0" style="stop-color:#F9CE5C"/>
			<stop  offset="1" style="stop-color:#FF7257"/>
		</linearGradient>
		<path class="st37" d="M1010.6,385.9l11.4,13.9c1.1,1.3,0.9,3.3-0.4,4.3l-13.9,11.4c-1.3,1.1-3.3,0.9-4.3-0.4L992,401.1
			c-0.7-0.8-0.9-2-0.5-2.9c0.2-0.5,0.5-1,1-1.4l13.9-11.4c0.5-0.4,1-0.6,1.6-0.7C1008.9,384.6,1009.9,385,1010.6,385.9z"/>
		<path class="st31" d="M1010.6,385.9l3.9,4.8c-0.1,0.6-0.5,1.2-1,1.7l-15.8,12.9c-0.5,0.4-1.2,0.7-1.8,0.7l-3.9-4.8
			c-0.7-0.8-0.9-2-0.5-2.9l16.4-13.4C1008.9,384.6,1009.9,385,1010.6,385.9z"/>
		
			<linearGradient id="SVGID_32_" gradientUnits="userSpaceOnUse" x1="-7607.9673" y1="-7580.3462" x2="-7580.5386" y2="-7532.8379" gradientTransform="matrix(0.4327 -0.354 0.354 0.4327 6991.209 962.8651)">
			<stop  offset="0" style="stop-color:#F9CE5C"/>
			<stop  offset="1" style="stop-color:#FF7257"/>
		</linearGradient>
		<path class="st38" d="M1033.8,366.9l11.4,13.9c1.1,1.3,0.9,3.3-0.4,4.3l-13.9,11.4c-1.3,1.1-3.3,0.9-4.3-0.4l-11.4-13.9
			c-0.7-0.8-0.9-2-0.5-2.9c0.2-0.5,0.5-1,1-1.4l13.9-11.4c0.5-0.4,1-0.6,1.6-0.7C1032,365.7,1033.1,366.1,1033.8,366.9z"/>
		<path class="st31" d="M1033.8,366.9l3.9,4.8c-0.1,0.6-0.5,1.2-1,1.7l-15.8,12.9c-0.5,0.4-1.2,0.7-1.8,0.7l-3.9-4.8
			c-0.7-0.8-0.9-2-0.5-2.9l16.4-13.4C1032,365.7,1033.1,366.1,1033.8,366.9z"/>
		
			<linearGradient id="SVGID_33_" gradientUnits="userSpaceOnUse" x1="-7656.4878" y1="-7589.8062" x2="-7638.3701" y2="-7558.4248" gradientTransform="matrix(0.4327 -0.354 0.354 0.4327 6991.209 962.8651)">
			<stop  offset="0" style="stop-color:#F9CE5C"/>
			<stop  offset="1" style="stop-color:#FF8E59"/>
		</linearGradient>
		<path class="st39" d="M1012.1,390.6l-15.8,12.9c-1.3,1-3.1,0.8-4.2-0.4l-4.1-5l20.4-16.7l4.1,5
			C1013.6,387.7,1013.4,389.6,1012.1,390.6z"/>
		
			<linearGradient id="SVGID_34_" gradientUnits="userSpaceOnUse" x1="-7602.959" y1="-7589.8081" x2="-7584.8413" y2="-7558.4268" gradientTransform="matrix(0.4327 -0.354 0.354 0.4327 6991.209 962.8651)">
			<stop  offset="0" style="stop-color:#F9CE5C"/>
			<stop  offset="1" style="stop-color:#FF8E59"/>
		</linearGradient>
		<path class="st40" d="M1035.3,371.7l-15.8,12.9c-1.3,1-3.1,0.8-4.2-0.4l-4.1-5l20.4-16.7l4.1,5
			C1036.7,368.8,1036.6,370.6,1035.3,371.7z"/>
		<path class="st41" d="M1038.7,412.6c0.7,0.8,0.5,2-0.3,2.6c-0.8,0.7-2,0.5-2.6-0.3c-0.7-0.8-0.5-2,0.3-2.6
			C1036.8,411.7,1038,411.8,1038.7,412.6z"/>
		<path class="st31" d="M1066.2,388.4l13.4,16.4c0.6,0.7,0.5,1.8-0.2,2.4l-0.5,0.4l-15.6-19.1l0.5-0.4
			C1064.5,387.5,1065.6,387.6,1066.2,388.4z"/>
		
			<linearGradient id="SVGID_35_" gradientUnits="userSpaceOnUse" x1="-7569.5088" y1="-7504.645" x2="-7549.1182" y2="-7469.3271" gradientTransform="matrix(0.4327 -0.354 0.354 0.4327 6991.209 962.8651)">
			<stop  offset="0" style="stop-color:#F9CE5C"/>
			<stop  offset="1" style="stop-color:#FF7257"/>
		</linearGradient>
		<path class="st42" d="M1063.3,388.6l15.6,19.1l-1.8,1.5c-0.7,0.6-1.8,0.5-2.4-0.2l-13.4-16.4c-0.6-0.7-0.5-1.8,0.2-2.4
			L1063.3,388.6z"/>
		<path class="st31" d="M1007.4,434.3l15.6,19.1l-0.5,0.4c-0.7,0.6-1.8,0.5-2.4-0.2l-13.4-16.4c-0.6-0.7-0.5-1.8,0.2-2.4
			L1007.4,434.3z"/>
		
			<linearGradient id="SVGID_36_" gradientUnits="userSpaceOnUse" x1="-7692.9053" y1="-7505.0552" x2="-7672.5156" y2="-7469.7393" gradientTransform="matrix(0.4327 -0.354 0.354 0.4327 6991.209 962.8651)">
			<stop  offset="0" style="stop-color:#F9CE5C"/>
			<stop  offset="1" style="stop-color:#FF7257"/>
		</linearGradient>
		<path class="st43" d="M1011.6,433.1l13.4,16.4c0.6,0.7,0.5,1.8-0.2,2.4l-1.8,1.5l-15.6-19.1l1.8-1.5
			C1009.9,432.2,1011,432.3,1011.6,433.1z"/>
		<path class="st41" d="M1026.5,374.1c0.7,0.8,0.5,2-0.3,2.6c-0.8,0.7-2,0.5-2.6-0.3c-0.7-0.8-0.5-2,0.3-2.6
			C1024.7,373.2,1025.9,373.3,1026.5,374.1z"/>
		<path class="st41" d="M1003.3,393.1c0.7,0.8,0.5,2-0.3,2.6c-0.8,0.7-2,0.5-2.6-0.3c-0.7-0.8-0.5-2,0.3-2.6
			C1001.5,392.1,1002.7,392.3,1003.3,393.1z"/>
	</g>
</g>
<g>
	<g>
		<g>
			
				<linearGradient id="SVGID_37_" gradientUnits="userSpaceOnUse" x1="-8156.812" y1="-7822.8818" x2="-8146.5625" y2="-7822.8818" gradientTransform="matrix(0.9268 0.3755 -0.3755 0.9268 4823.8672 10403.0049)">
				<stop  offset="0" style="stop-color:#FB697D"/>
				<stop  offset="1" style="stop-color:#A82276"/>
			</linearGradient>
			<path class="st44" d="M217.1,59.7c0,0-21.2,43.9-28.4,62.1l4.7,1.9l0,0l4.8,1.9c7.4-18.1,22.8-64.4,22.8-64.4s-0.4-0.9-1.7-1.4
				C218,59.3,217.1,59.7,217.1,59.7z"/>
			
				<linearGradient id="SVGID_38_" gradientUnits="userSpaceOnUse" x1="-8156.8091" y1="-7773.7666" x2="-8146.5654" y2="-7773.7666" gradientTransform="matrix(0.9268 0.3755 -0.3755 0.9268 4823.8672 10403.0049)">
				<stop  offset="0" style="stop-color:#F9CE5C"/>
				<stop  offset="1" style="stop-color:#FF7257"/>
			</linearGradient>
			<path class="st45" d="M193.4,123.7l-4.7-1.9c-0.7,1.8-1.3,3.4-1.7,4.6c-4.5,13.5-7.2,23.3-7.2,23.3l2.7,1.1l2.7,1.1l0-0.1
				c0,0,4.9-8.9,11.1-21.8c0.6-1.2,1.2-2.7,2-4.5L193.4,123.7L193.4,123.7z"/>
			
				<linearGradient id="SVGID_39_" gradientUnits="userSpaceOnUse" x1="-8156.2935" y1="-7751.4609" x2="-8147.0796" y2="-7751.4609" gradientTransform="matrix(0.9268 0.3755 -0.3755 0.9268 4823.8672 10403.0049)">
				<stop  offset="0" style="stop-color:#445DEE"/>
				<stop  offset="0.327" style="stop-color:#4333EE"/>
				<stop  offset="1" style="stop-color:#4C0089"/>
			</linearGradient>
			<path class="st46" d="M179.7,149.8c0,0-7,2.9-3.1,15.3c11.4-6.1,8.4-13.1,8.4-13.1l-2.7-1.1L179.7,149.8z"/>
		</g>
	</g>
</g>
<g>
	<linearGradient id="SVGID_40_" gradientUnits="userSpaceOnUse" x1="228.6569" y1="107.2152" x2="292.8938" y2="107.2152">
		<stop  offset="0" style="stop-color:#BADEF1"/>
		<stop  offset="0.999" style="stop-color:#8DB6FD"/>
	</linearGradient>
	<path class="st47" d="M275.9,78.3c-13.9-5.1-28.6,3.2-36.3,11.4c-10.1,10.8-15.3,28.3-6.5,41.5c4.2,6.2,11.6,8.9,18.1,4.2
		c0.9-0.7,1.6-1.4,2.2-2.2c1.2-1.6,2.1-3.5,3.3-5.3c1.8-2.7,4.2-5,6.9-6.8c3.2-2.1,6.8-3.5,10.6-4.1c3.5-0.5,6.8,0.1,10.2-1.3
		c3.5-1.5,6-4.7,7.3-8.2C296.2,94.5,288,82.7,275.9,78.3z M254.5,116.7c-2.4,0-4.3-1.9-4.3-4.3c0-2.4,1.9-4.3,4.3-4.3
		c2.4,0,4.3,1.9,4.3,4.3C258.8,114.7,256.8,116.7,254.5,116.7z"/>
	<linearGradient id="SVGID_41_" gradientUnits="userSpaceOnUse" x1="227.0971" y1="105.568" x2="291.334" y2="105.568">
		<stop  offset="0" style="stop-color:#EDF3F5"/>
		<stop  offset="0.4283" style="stop-color:#E0EBF6"/>
		<stop  offset="1" style="stop-color:#C9DDF8"/>
	</linearGradient>
	<path class="st48" d="M274.4,76.6c-13.9-5.1-28.6,3.2-36.3,11.4c-10.1,10.8-15.3,28.3-6.5,41.5c4.2,6.2,11.6,8.9,18.1,4.2
		c0.9-0.7,1.6-1.4,2.2-2.2c1.2-1.6,2.1-3.5,3.3-5.3c1.8-2.7,4.2-5,6.9-6.8c3.2-2.1,6.8-3.5,10.6-4.1c3.5-0.5,6.8,0.1,10.2-1.3
		c3.5-1.5,6-4.7,7.3-8.2C294.7,92.9,286.4,81,274.4,76.6z M252.9,115c-2.4,0-4.3-1.9-4.3-4.3c0-2.4,1.9-4.3,4.3-4.3s4.3,1.9,4.3,4.3
		C257.2,113.1,255.3,115,252.9,115z"/>
	<linearGradient id="SVGID_42_" gradientUnits="userSpaceOnUse" x1="235.6509" y1="126.0671" x2="247.9206" y2="126.0671">
		<stop  offset="0" style="stop-color:#BADEF1"/>
		<stop  offset="0.999" style="stop-color:#8DB6FD"/>
	</linearGradient>
	<path class="st49" d="M247.6,124.1c1.1,3.2-0.6,6.7-3.8,7.8s-6.7-0.6-7.8-3.8c-1.1-3.2,0.6-6.7,3.8-7.8
		C243,119.2,246.5,120.9,247.6,124.1z"/>
	<linearGradient id="SVGID_43_" gradientUnits="userSpaceOnUse" x1="230.7601" y1="110.6829" x2="243.0297" y2="110.6829">
		<stop  offset="0" style="stop-color:#00C7FF"/>
		<stop  offset="0.1879" style="stop-color:#00C2FF"/>
		<stop  offset="0.4089" style="stop-color:#00B4FF"/>
		<stop  offset="0.6465" style="stop-color:#009CFF"/>
		<stop  offset="0.8943" style="stop-color:#007BFF"/>
		<stop  offset="1" style="stop-color:#006BFF"/>
	</linearGradient>
	<path class="st50" d="M242.7,108.7c1.1,3.2-0.6,6.7-3.8,7.8c-3.2,1.1-6.7-0.6-7.8-3.8c-1.1-3.2,0.6-6.7,3.8-7.8
		C238.1,103.8,241.6,105.5,242.7,108.7z"/>
	<linearGradient id="SVGID_44_" gradientUnits="userSpaceOnUse" x1="239.1294" y1="94.7799" x2="251.399" y2="94.7799">
		<stop  offset="0" style="stop-color:#A177F2"/>
		<stop  offset="0.2349" style="stop-color:#A16AF4"/>
		<stop  offset="0.6638" style="stop-color:#A349FA"/>
		<stop  offset="1" style="stop-color:#A42BFF"/>
	</linearGradient>
	<path class="st51" d="M251.1,92.8c1.1,3.2-0.6,6.7-3.8,7.8c-3.2,1.1-6.7-0.6-7.8-3.8c-1.1-3.2,0.6-6.7,3.8-7.8
		C246.4,87.9,249.9,89.6,251.1,92.8z"/>
	<linearGradient id="SVGID_45_" gradientUnits="userSpaceOnUse" x1="253.8018" y1="85.6958" x2="266.0715" y2="85.6958">
		<stop  offset="0" style="stop-color:#F9CE5C"/>
		<stop  offset="1" style="stop-color:#FF7257"/>
	</linearGradient>
	<path class="st52" d="M265.7,83.7c1.1,3.2-0.6,6.7-3.8,7.8c-3.2,1.1-6.7-0.6-7.8-3.8c-1.1-3.2,0.6-6.7,3.8-7.8
		C261.1,78.8,264.6,80.5,265.7,83.7z"/>
	<linearGradient id="SVGID_46_" gradientUnits="userSpaceOnUse" x1="269.0091" y1="88.3327" x2="281.2787" y2="88.3327">
		<stop  offset="0" style="stop-color:#FB697D"/>
		<stop  offset="1" style="stop-color:#DB2276"/>
	</linearGradient>
	<path class="st53" d="M280.9,86.3c1.1,3.2-0.6,6.7-3.8,7.8c-3.2,1.1-6.7-0.6-7.8-3.8c-1.1-3.2,0.6-6.7,3.8-7.8
		C276.3,81.4,279.8,83.1,280.9,86.3z"/>
	<linearGradient id="SVGID_47_" gradientUnits="userSpaceOnUse" x1="275.4468" y1="101.9198" x2="287.7164" y2="101.9198">
		<stop  offset="0" style="stop-color:#445DEE"/>
		<stop  offset="0.327" style="stop-color:#4333EE"/>
		<stop  offset="1" style="stop-color:#4C0089"/>
	</linearGradient>
	<path class="st54" d="M287.4,99.9c1.1,3.2-0.6,6.7-3.8,7.8c-3.2,1.1-6.7-0.6-7.8-3.8c-1.1-3.2,0.6-6.7,3.8-7.8
		C282.8,95,286.3,96.7,287.4,99.9z"/>
</g>
<g>
	<polygon class="st55" points="506.4,386.4 465.7,386.4 465.7,427.1 495.7,427.1 506.4,416.4 	"/>
	<rect x="474.8" y="395.4" class="st15" width="21.7" height="2.5"/>
	<rect x="474.8" y="400.7" class="st15" width="21.7" height="2.5"/>
	<rect x="474.8" y="408.6" class="st15" width="14.6" height="2.5"/>
	
		<rect x="480.7" y="377.6" transform="matrix(0.9961 -8.814172e-02 8.814172e-02 0.9961 -31.9962 44.1538)" class="st56" width="6.6" height="13.5"/>
</g>
<g class="st57">
	<path class="st58" d="M382.4,280.4L382.4,280.4c0,4.2-3.4,7.6-7.6,7.6c4.2,0,7.6,3.4,7.6,7.6l0,0c0-4.2,3.4-7.6,7.6-7.6
		C385.8,288,382.4,284.6,382.4,280.4z"/>
	<path class="st58" d="M308.6,292.4L308.6,292.4c0,4.2-3.4,7.6-7.6,7.6c4.2,0,7.6,3.4,7.6,7.6l0,0c0-4.2,3.4-7.6,7.6-7.6
		C312,300,308.6,296.6,308.6,292.4z"/>
	<path class="st58" d="M234.2,201.5L234.2,201.5c0,4.2-3.4,7.6-7.6,7.6c4.2,0,7.6,3.4,7.6,7.6l0,0c0-4.2,3.4-7.6,7.6-7.6
		C237.6,209.1,234.2,205.7,234.2,201.5z"/>
	<path class="st58" d="M418.3,405.8L418.3,405.8c0,2-1.6,3.7-3.7,3.7c2,0,3.7,1.6,3.7,3.7l0,0c0-2,1.6-3.7,3.7-3.7
		C419.9,409.5,418.3,407.8,418.3,405.8z"/>
	<path class="st58" d="M428.8,284.6L428.8,284.6c0,2-1.6,3.7-3.7,3.7c2,0,3.7,1.6,3.7,3.7h0c0-2,1.6-3.7,3.7-3.7
		C430.4,288.3,428.8,286.7,428.8,284.6z"/>
	<path class="st58" d="M234.2,349.3L234.2,349.3c0,2-1.6,3.7-3.7,3.7c2,0,3.7,1.6,3.7,3.7l0,0c0-2,1.6-3.7,3.7-3.7
		C235.8,353,234.2,351.3,234.2,349.3z"/>
	<path class="st58" d="M501,203.3L501,203.3c0,2-1.6,3.7-3.7,3.7c2,0,3.7,1.6,3.7,3.7l0,0c0-2,1.6-3.7,3.7-3.7
		C502.6,207,501,205.3,501,203.3z"/>
	<path class="st58" d="M262.2,317.5L262.2,317.5c0,2-1.6,3.7-3.7,3.7c2,0,3.7,1.6,3.7,3.7h0c0-2,1.6-3.7,3.7-3.7
		C263.9,321.1,262.2,319.5,262.2,317.5z"/>
	<path class="st58" d="M222.8,248.8L222.8,248.8c0,2-1.6,3.7-3.7,3.7c2,0,3.7,1.6,3.7,3.7l0,0c0-2,1.6-3.7,3.7-3.7
		C224.5,252.5,222.8,250.9,222.8,248.8z"/>
	<path class="st58" d="M376.1,457L376.1,457c0,3.6-2.9,6.4-6.4,6.4c3.6,0,6.4,2.9,6.4,6.4l0,0c0-3.6,2.9-6.4,6.4-6.4
		C378.9,463.5,376.1,460.6,376.1,457z"/>
	<path class="st58" d="M338.4,356.3L338.4,356.3c0,4.2-3.4,7.6-7.6,7.6c4.2,0,7.6,3.4,7.6,7.6l0,0c0-4.2,3.4-7.6,7.6-7.6
		C341.8,363.9,338.4,360.5,338.4,356.3z"/>
	<path class="st58" d="M500,389.1L500,389.1c0,4.2-3.4,7.6-7.6,7.6c4.2,0,7.6,3.4,7.6,7.6h0c0-4.2,3.4-7.6,7.6-7.6
		C503.4,396.7,500,393.3,500,389.1z"/>
	<g>
		<g>
			<g>
				<path class="st58" d="M398,252.7c-0.3,0-0.6-0.2-0.6-0.6v-5.3c0-0.3,0.2-0.6,0.6-0.6c0.3,0,0.6,0.2,0.6,0.6v5.3
					C398.5,252.5,398.3,252.7,398,252.7z"/>
			</g>
			<g>
				<path class="st58" d="M398,262.2c-0.3,0-0.6-0.2-0.6-0.6v-5.3c0-0.3,0.2-0.6,0.6-0.6c0.3,0,0.6,0.2,0.6,0.6v5.3
					C398.5,261.9,398.3,262.2,398,262.2z"/>
			</g>
		</g>
		<g>
			<g>
				<path class="st58" d="M395.9,254.8h-5.3c-0.3,0-0.6-0.2-0.6-0.6c0-0.3,0.2-0.6,0.6-0.6h5.3c0.3,0,0.6,0.2,0.6,0.6
					C396.5,254.6,396.2,254.8,395.9,254.8z"/>
			</g>
			<g>
				<path class="st58" d="M405.4,254.8h-5.3c-0.3,0-0.6-0.2-0.6-0.6c0-0.3,0.2-0.6,0.6-0.6h5.3c0.3,0,0.6,0.2,0.6,0.6
					C405.9,254.6,405.7,254.8,405.4,254.8z"/>
			</g>
		</g>
		<g>
			<g>
				<path class="st58" d="M392.8,260c-0.1,0-0.3-0.1-0.4-0.2c-0.2-0.2-0.2-0.6,0-0.8l3.7-3.7c0.2-0.2,0.6-0.2,0.8,0
					c0.2,0.2,0.2,0.6,0,0.8l-3.7,3.7C393,260,392.9,260,392.8,260z"/>
			</g>
			<g>
				<path class="st58" d="M399.5,253.3c-0.1,0-0.3-0.1-0.4-0.2c-0.2-0.2-0.2-0.6,0-0.8l3.7-3.7c0.2-0.2,0.6-0.2,0.8,0
					c0.2,0.2,0.2,0.6,0,0.8l-3.7,3.7C399.7,253.3,399.6,253.3,399.5,253.3z"/>
			</g>
		</g>
		<g>
			<g>
				<path class="st58" d="M403.2,260c-0.1,0-0.3-0.1-0.4-0.2l-3.7-3.7c-0.2-0.2-0.2-0.6,0-0.8c0.2-0.2,0.6-0.2,0.8,0l3.7,3.7
					c0.2,0.2,0.2,0.6,0,0.8C403.5,260,403.3,260,403.2,260z"/>
			</g>
			<g>
				<path class="st58" d="M396.5,253.3c-0.1,0-0.3-0.1-0.4-0.2l-3.7-3.7c-0.2-0.2-0.2-0.6,0-0.8c0.2-0.2,0.6-0.2,0.8,0l3.7,3.7
					c0.2,0.2,0.2,0.6,0,0.8C396.8,253.3,396.7,253.3,396.5,253.3z"/>
			</g>
		</g>
	</g>
	<g>
		<g>
			<g>
				<path class="st58" d="M518.3,449.4c-0.3,0-0.6-0.2-0.6-0.6v-5.3c0-0.3,0.2-0.6,0.6-0.6s0.6,0.2,0.6,0.6v5.3
					C518.9,449.1,518.6,449.4,518.3,449.4z"/>
			</g>
			<g>
				<path class="st58" d="M518.3,458.8c-0.3,0-0.6-0.2-0.6-0.6V453c0-0.3,0.2-0.6,0.6-0.6s0.6,0.2,0.6,0.6v5.3
					C518.9,458.6,518.6,458.8,518.3,458.8z"/>
			</g>
		</g>
		<g>
			<g>
				<path class="st58" d="M516.3,451.4H511c-0.3,0-0.6-0.2-0.6-0.6c0-0.3,0.2-0.6,0.6-0.6h5.3c0.3,0,0.6,0.2,0.6,0.6
					C516.8,451.2,516.6,451.4,516.3,451.4z"/>
			</g>
			<g>
				<path class="st58" d="M525.7,451.4h-5.3c-0.3,0-0.6-0.2-0.6-0.6c0-0.3,0.2-0.6,0.6-0.6h5.3c0.3,0,0.6,0.2,0.6,0.6
					C526.3,451.2,526,451.4,525.7,451.4z"/>
			</g>
		</g>
		<g>
			<g>
				<path class="st58" d="M513.1,456.7c-0.1,0-0.3-0.1-0.4-0.2c-0.2-0.2-0.2-0.6,0-0.8l3.7-3.7c0.2-0.2,0.6-0.2,0.8,0
					c0.2,0.2,0.2,0.6,0,0.8l-3.7,3.7C513.4,456.6,513.3,456.7,513.1,456.7z"/>
			</g>
			<g>
				<path class="st58" d="M519.8,450c-0.1,0-0.3-0.1-0.4-0.2c-0.2-0.2-0.2-0.6,0-0.8l3.7-3.7c0.2-0.2,0.6-0.2,0.8,0
					c0.2,0.2,0.2,0.6,0,0.8l-3.7,3.7C520.1,449.9,520,450,519.8,450z"/>
			</g>
		</g>
		<g>
			<g>
				<path class="st58" d="M523.6,456.7c-0.1,0-0.3-0.1-0.4-0.2l-3.7-3.7c-0.2-0.2-0.2-0.6,0-0.8c0.2-0.2,0.6-0.2,0.8,0l3.7,3.7
					c0.2,0.2,0.2,0.6,0,0.8C523.8,456.6,523.7,456.7,523.6,456.7z"/>
			</g>
			<g>
				<path class="st58" d="M516.9,450c-0.1,0-0.3-0.1-0.4-0.2l-3.7-3.7c-0.2-0.2-0.2-0.6,0-0.8c0.2-0.2,0.6-0.2,0.8,0l3.7,3.7
					c0.2,0.2,0.2,0.6,0,0.8C517.1,449.9,517,450,516.9,450z"/>
			</g>
		</g>
	</g>
	<g>
		<g>
			<g>
				<path class="st58" d="M285.9,373.1c-0.2,0-0.4-0.2-0.4-0.4v-4.3c0-0.2,0.2-0.4,0.4-0.4s0.4,0.2,0.4,0.4v4.3
					C286.3,372.9,286.1,373.1,285.9,373.1z"/>
			</g>
			<g>
				<path class="st58" d="M285.9,380.8c-0.2,0-0.4-0.2-0.4-0.4v-4.3c0-0.2,0.2-0.4,0.4-0.4s0.4,0.2,0.4,0.4v4.3
					C286.3,380.6,286.1,380.8,285.9,380.8z"/>
			</g>
		</g>
		<g>
			<g>
				<path class="st58" d="M284.2,374.8h-4.3c-0.2,0-0.4-0.2-0.4-0.4s0.2-0.4,0.4-0.4h4.3c0.2,0,0.4,0.2,0.4,0.4
					S284.4,374.8,284.2,374.8z"/>
			</g>
			<g>
				<path class="st58" d="M291.8,374.8h-4.3c-0.2,0-0.4-0.2-0.4-0.4s0.2-0.4,0.4-0.4h4.3c0.2,0,0.4,0.2,0.4,0.4
					S292.1,374.8,291.8,374.8z"/>
			</g>
		</g>
		<g>
			<g>
				<path class="st58" d="M281.7,379c-0.1,0-0.2,0-0.3-0.1c-0.2-0.2-0.2-0.5,0-0.6l3-3c0.2-0.2,0.5-0.2,0.6,0c0.2,0.2,0.2,0.5,0,0.6
					l-3,3C281.9,379,281.8,379,281.7,379z"/>
			</g>
			<g>
				<path class="st58" d="M287.1,373.6c-0.1,0-0.2,0-0.3-0.1c-0.2-0.2-0.2-0.5,0-0.6l3-3c0.2-0.2,0.5-0.2,0.6,0
					c0.2,0.2,0.2,0.5,0,0.6l-3,3C287.3,373.6,287.2,373.6,287.1,373.6z"/>
			</g>
		</g>
		<g>
			<g>
				<path class="st58" d="M290.1,379c-0.1,0-0.2,0-0.3-0.1l-3-3c-0.2-0.2-0.2-0.5,0-0.6c0.2-0.2,0.5-0.2,0.6,0l3,3
					c0.2,0.2,0.2,0.5,0,0.6C290.3,379,290.2,379,290.1,379z"/>
			</g>
			<g>
				<path class="st58" d="M284.7,373.6c-0.1,0-0.2,0-0.3-0.1l-3-3c-0.2-0.2-0.2-0.5,0-0.6c0.2-0.2,0.5-0.2,0.6,0l3,3
					c0.2,0.2,0.2,0.5,0,0.6C284.9,373.6,284.8,373.6,284.7,373.6z"/>
			</g>
		</g>
	</g>
	<g>
		<g>
			<g>
				<path class="st58" d="M374.8,414.6c-0.2,0-0.4-0.2-0.4-0.4v-4.3c0-0.2,0.2-0.4,0.4-0.4c0.2,0,0.4,0.2,0.4,0.4v4.3
					C375.2,414.4,375,414.6,374.8,414.6z"/>
			</g>
			<g>
				<path class="st58" d="M374.8,422.3c-0.2,0-0.4-0.2-0.4-0.4v-4.3c0-0.2,0.2-0.4,0.4-0.4c0.2,0,0.4,0.2,0.4,0.4v4.3
					C375.2,422.1,375,422.3,374.8,422.3z"/>
			</g>
		</g>
		<g>
			<g>
				<path class="st58" d="M373.1,416.3h-4.3c-0.2,0-0.4-0.2-0.4-0.4s0.2-0.4,0.4-0.4h4.3c0.2,0,0.4,0.2,0.4,0.4
					S373.3,416.3,373.1,416.3z"/>
			</g>
			<g>
				<path class="st58" d="M380.7,416.3h-4.3c-0.2,0-0.4-0.2-0.4-0.4s0.2-0.4,0.4-0.4h4.3c0.2,0,0.4,0.2,0.4,0.4
					S380.9,416.3,380.7,416.3z"/>
			</g>
		</g>
		<g>
			<g>
				<path class="st58" d="M370.6,420.5c-0.1,0-0.2,0-0.3-0.1c-0.2-0.2-0.2-0.5,0-0.6l3-3c0.2-0.2,0.5-0.2,0.6,0
					c0.2,0.2,0.2,0.5,0,0.6l-3,3C370.8,420.5,370.7,420.5,370.6,420.5z"/>
			</g>
			<g>
				<path class="st58" d="M376,415.1c-0.1,0-0.2,0-0.3-0.1c-0.2-0.2-0.2-0.5,0-0.6l3-3c0.2-0.2,0.5-0.2,0.6,0c0.2,0.2,0.2,0.5,0,0.6
					l-3,3C376.2,415.1,376.1,415.1,376,415.1z"/>
			</g>
		</g>
		<g>
			<g>
				<path class="st58" d="M379,420.5c-0.1,0-0.2,0-0.3-0.1l-3-3c-0.2-0.2-0.2-0.5,0-0.6c0.2-0.2,0.5-0.2,0.6,0l3,3
					c0.2,0.2,0.2,0.5,0,0.6C379.2,420.5,379.1,420.5,379,420.5z"/>
			</g>
			<g>
				<path class="st58" d="M373.6,415.1c-0.1,0-0.2,0-0.3-0.1l-3-3c-0.2-0.2-0.2-0.5,0-0.6c0.2-0.2,0.5-0.2,0.6,0l3,3
					c0.2,0.2,0.2,0.5,0,0.6C373.8,415.1,373.7,415.1,373.6,415.1z"/>
			</g>
		</g>
	</g>
</g>
<g class="st57">
	<path class="st58" d="M153.6,236.7L153.6,236.7c0,4.2-3.4,7.6-7.6,7.6c4.2,0,7.6,3.4,7.6,7.6l0,0c0-4.2,3.4-7.6,7.6-7.6
		C157,244.3,153.6,240.9,153.6,236.7z"/>
	<path class="st58" d="M79.8,248.7L79.8,248.7c0,4.2-3.4,7.6-7.6,7.6c4.2,0,7.6,3.4,7.6,7.6l0,0c0-4.2,3.4-7.6,7.6-7.6
		C83.2,256.3,79.8,252.9,79.8,248.7z"/>
	<path class="st58" d="M189.5,362.1L189.5,362.1c0,2-1.6,3.7-3.7,3.7c2,0,3.7,1.6,3.7,3.7l0,0c0-2,1.6-3.7,3.7-3.7
		C191.2,365.8,189.5,364.1,189.5,362.1z"/>
	<path class="st58" d="M200,240.9L200,240.9c0,2-1.6,3.7-3.7,3.7c2,0,3.7,1.6,3.7,3.7h0c0-2,1.6-3.7,3.7-3.7
		C201.6,244.6,200,242.9,200,240.9z"/>
	<path class="st58" d="M5.4,305.6L5.4,305.6c0,2-1.6,3.7-3.7,3.7c2,0,3.7,1.6,3.7,3.7l0,0c0-2,1.6-3.7,3.7-3.7
		C7.1,309.3,5.4,307.6,5.4,305.6z"/>
	<path class="st58" d="M33.5,273.7L33.5,273.7c0,2-1.6,3.7-3.7,3.7c2,0,3.7,1.6,3.7,3.7h0c0-2,1.6-3.7,3.7-3.7
		C35.1,277.4,33.5,275.8,33.5,273.7z"/>
	<path class="st58" d="M109.6,312.6L109.6,312.6c0,4.2-3.4,7.6-7.6,7.6c4.2,0,7.6,3.4,7.6,7.6l0,0c0-4.2,3.4-7.6,7.6-7.6
		C113,320.2,109.6,316.8,109.6,312.6z"/>
	<g>
		<g>
			<g>
				<path class="st58" d="M169.2,209c-0.3,0-0.6-0.2-0.6-0.6v-5.3c0-0.3,0.2-0.6,0.6-0.6c0.3,0,0.6,0.2,0.6,0.6v5.3
					C169.8,208.8,169.5,209,169.2,209z"/>
			</g>
			<g>
				<path class="st58" d="M169.2,218.5c-0.3,0-0.6-0.2-0.6-0.6v-5.3c0-0.3,0.2-0.6,0.6-0.6c0.3,0,0.6,0.2,0.6,0.6v5.3
					C169.8,218.2,169.5,218.5,169.2,218.5z"/>
			</g>
		</g>
		<g>
			<g>
				<path class="st58" d="M167.1,211.1h-5.3c-0.3,0-0.6-0.2-0.6-0.6c0-0.3,0.2-0.6,0.6-0.6h5.3c0.3,0,0.6,0.2,0.6,0.6
					C167.7,210.9,167.5,211.1,167.1,211.1z"/>
			</g>
			<g>
				<path class="st58" d="M176.6,211.1h-5.3c-0.3,0-0.6-0.2-0.6-0.6c0-0.3,0.2-0.6,0.6-0.6h5.3c0.3,0,0.6,0.2,0.6,0.6
					C177.2,210.9,176.9,211.1,176.6,211.1z"/>
			</g>
		</g>
		<g>
			<g>
				<path class="st58" d="M164,216.3c-0.1,0-0.3-0.1-0.4-0.2c-0.2-0.2-0.2-0.6,0-0.8l3.7-3.7c0.2-0.2,0.6-0.2,0.8,0
					c0.2,0.2,0.2,0.6,0,0.8l-3.7,3.7C164.3,216.3,164.2,216.3,164,216.3z"/>
			</g>
			<g>
				<path class="st58" d="M170.7,209.6c-0.1,0-0.3-0.1-0.4-0.2c-0.2-0.2-0.2-0.6,0-0.8l3.7-3.7c0.2-0.2,0.6-0.2,0.8,0
					c0.2,0.2,0.2,0.6,0,0.8l-3.7,3.7C171,209.6,170.8,209.6,170.7,209.6z"/>
			</g>
		</g>
		<g>
			<g>
				<path class="st58" d="M174.4,216.3c-0.1,0-0.3-0.1-0.4-0.2l-3.7-3.7c-0.2-0.2-0.2-0.6,0-0.8c0.2-0.2,0.6-0.2,0.8,0l3.7,3.7
					c0.2,0.2,0.2,0.6,0,0.8C174.7,216.3,174.6,216.3,174.4,216.3z"/>
			</g>
			<g>
				<path class="st58" d="M167.8,209.6c-0.1,0-0.3-0.1-0.4-0.2l-3.7-3.7c-0.2-0.2-0.2-0.6,0-0.8c0.2-0.2,0.6-0.2,0.8,0l3.7,3.7
					c0.2,0.2,0.2,0.6,0,0.8C168,209.6,167.9,209.6,167.8,209.6z"/>
			</g>
		</g>
	</g>
	<g>
		<g>
			<g>
				<path class="st58" d="M57.1,329.4c-0.2,0-0.4-0.2-0.4-0.4v-4.3c0-0.2,0.2-0.4,0.4-0.4c0.2,0,0.4,0.2,0.4,0.4v4.3
					C57.6,329.2,57.4,329.4,57.1,329.4z"/>
			</g>
			<g>
				<path class="st58" d="M57.1,337.1c-0.2,0-0.4-0.2-0.4-0.4v-4.3c0-0.2,0.2-0.4,0.4-0.4c0.2,0,0.4,0.2,0.4,0.4v4.3
					C57.6,336.8,57.4,337.1,57.1,337.1z"/>
			</g>
		</g>
		<g>
			<g>
				<path class="st58" d="M55.4,331.1h-4.3c-0.2,0-0.4-0.2-0.4-0.4s0.2-0.4,0.4-0.4h4.3c0.2,0,0.4,0.2,0.4,0.4
					S55.7,331.1,55.4,331.1z"/>
			</g>
			<g>
				<path class="st58" d="M63.1,331.1h-4.3c-0.2,0-0.4-0.2-0.4-0.4s0.2-0.4,0.4-0.4h4.3c0.2,0,0.4,0.2,0.4,0.4
					S63.3,331.1,63.1,331.1z"/>
			</g>
		</g>
		<g>
			<g>
				<path class="st58" d="M52.9,335.3c-0.1,0-0.2,0-0.3-0.1c-0.2-0.2-0.2-0.5,0-0.6l3-3c0.2-0.2,0.5-0.2,0.6,0
					c0.2,0.2,0.2,0.5,0,0.6l-3,3C53.2,335.3,53,335.3,52.9,335.3z"/>
			</g>
			<g>
				<path class="st58" d="M58.3,329.9c-0.1,0-0.2,0-0.3-0.1c-0.2-0.2-0.2-0.5,0-0.6l3-3c0.2-0.2,0.5-0.2,0.6,0
					c0.2,0.2,0.2,0.5,0,0.6l-3,3C58.5,329.9,58.4,329.9,58.3,329.9z"/>
			</g>
		</g>
		<g>
			<g>
				<path class="st58" d="M61.3,335.3c-0.1,0-0.2,0-0.3-0.1l-3-3c-0.2-0.2-0.2-0.5,0-0.6c0.2-0.2,0.5-0.2,0.6,0l3,3
					c0.2,0.2,0.2,0.5,0,0.6C61.5,335.3,61.4,335.3,61.3,335.3z"/>
			</g>
			<g>
				<path class="st58" d="M55.9,329.9c-0.1,0-0.2,0-0.3-0.1l-3-3c-0.2-0.2-0.2-0.5,0-0.6c0.2-0.2,0.5-0.2,0.6,0l3,3
					c0.2,0.2,0.2,0.5,0,0.6C56.2,329.9,56.1,329.9,55.9,329.9z"/>
			</g>
		</g>
	</g>
	<g>
		<g>
			<g>
				<path class="st58" d="M146,370.9c-0.2,0-0.4-0.2-0.4-0.4v-4.3c0-0.2,0.2-0.4,0.4-0.4s0.4,0.2,0.4,0.4v4.3
					C146.5,370.7,146.3,370.9,146,370.9z"/>
			</g>
			<g>
				<path class="st58" d="M146,378.5c-0.2,0-0.4-0.2-0.4-0.4v-4.3c0-0.2,0.2-0.4,0.4-0.4s0.4,0.2,0.4,0.4v4.3
					C146.5,378.3,146.3,378.5,146,378.5z"/>
			</g>
		</g>
		<g>
			<g>
				<path class="st58" d="M144.3,372.6h-4.3c-0.2,0-0.4-0.2-0.4-0.4c0-0.2,0.2-0.4,0.4-0.4h4.3c0.2,0,0.4,0.2,0.4,0.4
					C144.8,372.4,144.6,372.6,144.3,372.6z"/>
			</g>
			<g>
				<path class="st58" d="M151.9,372.6h-4.3c-0.2,0-0.4-0.2-0.4-0.4c0-0.2,0.2-0.4,0.4-0.4h4.3c0.2,0,0.4,0.2,0.4,0.4
					C152.4,372.4,152.2,372.6,151.9,372.6z"/>
			</g>
		</g>
		<g>
			<g>
				<path class="st58" d="M141.8,376.8c-0.1,0-0.2,0-0.3-0.1c-0.2-0.2-0.2-0.5,0-0.6l3-3c0.2-0.2,0.5-0.2,0.6,0
					c0.2,0.2,0.2,0.5,0,0.6l-3,3C142,376.8,141.9,376.8,141.8,376.8z"/>
			</g>
			<g>
				<path class="st58" d="M147.2,371.4c-0.1,0-0.2,0-0.3-0.1c-0.2-0.2-0.2-0.5,0-0.6l3-3c0.2-0.2,0.5-0.2,0.6,0
					c0.2,0.2,0.2,0.5,0,0.6l-3,3C147.4,371.4,147.3,371.4,147.2,371.4z"/>
			</g>
		</g>
		<g>
			<g>
				<path class="st58" d="M150.2,376.8c-0.1,0-0.2,0-0.3-0.1l-3-3c-0.2-0.2-0.2-0.5,0-0.6c0.2-0.2,0.5-0.2,0.6,0l3,3
					c0.2,0.2,0.2,0.5,0,0.6C150.4,376.8,150.3,376.8,150.2,376.8z"/>
			</g>
			<g>
				<path class="st58" d="M144.8,371.4c-0.1,0-0.2,0-0.3-0.1l-3-3c-0.2-0.2-0.2-0.5,0-0.6c0.2-0.2,0.5-0.2,0.6,0l3,3
					c0.2,0.2,0.2,0.5,0,0.6C145.1,371.4,144.9,371.4,144.8,371.4z"/>
			</g>
		</g>
	</g>
</g>
<g class="st57">
	<path class="st58" d="M662.2,257.1L662.2,257.1c0,4.2-3.4,7.6-7.6,7.6c4.2,0,7.6,3.4,7.6,7.6l0,0c0-4.2,3.4-7.6,7.6-7.6
		C665.6,264.7,662.2,261.3,662.2,257.1z"/>
	<path class="st58" d="M588.4,269.1L588.4,269.1c0,4.2-3.4,7.6-7.6,7.6c4.2,0,7.6,3.4,7.6,7.6l0,0c0-4.2,3.4-7.6,7.6-7.6
		C591.8,276.7,588.4,273.3,588.4,269.1z"/>
	<path class="st58" d="M514,178.1L514,178.1c0,4.2-3.4,7.6-7.6,7.6c4.2,0,7.6,3.4,7.6,7.6l0,0c0-4.2,3.4-7.6,7.6-7.6
		C517.4,185.7,514,182.3,514,178.1z"/>
	<path class="st58" d="M698.1,382.5L698.1,382.5c0,2-1.6,3.7-3.7,3.7c2,0,3.7,1.6,3.7,3.7l0,0c0-2,1.6-3.7,3.7-3.7
		C699.7,386.1,698.1,384.5,698.1,382.5z"/>
	<path class="st58" d="M708.5,261.3L708.5,261.3c0,2-1.6,3.7-3.7,3.7c2,0,3.7,1.6,3.7,3.7h0c0-2,1.6-3.7,3.7-3.7
		C710.2,264.9,708.5,263.3,708.5,261.3z"/>
	<path class="st58" d="M514,326L514,326c0,2-1.6,3.7-3.7,3.7c2,0,3.7,1.6,3.7,3.7l0,0c0-2,1.6-3.7,3.7-3.7
		C515.6,329.6,514,328,514,326z"/>
	<path class="st58" d="M780.8,179.9L780.8,179.9c0,2-1.6,3.7-3.7,3.7c2,0,3.7,1.6,3.7,3.7l0,0c0-2,1.6-3.7,3.7-3.7
		C782.4,183.6,780.8,182,780.8,179.9z"/>
	<path class="st58" d="M542,294.1L542,294.1c0,2-1.6,3.7-3.7,3.7c2,0,3.7,1.6,3.7,3.7h0c0-2,1.6-3.7,3.7-3.7
		C543.7,297.8,542,296.1,542,294.1z"/>
	<path class="st58" d="M502.6,225.5L502.6,225.5c0,2-1.6,3.7-3.7,3.7c2,0,3.7,1.6,3.7,3.7l0,0c0-2,1.6-3.7,3.7-3.7
		C504.3,229.2,502.6,227.5,502.6,225.5z"/>
	<path class="st58" d="M655.9,433.7L655.9,433.7c0,3.6-2.9,6.4-6.4,6.4c3.6,0,6.4,2.9,6.4,6.4l0,0c0-3.6,2.9-6.4,6.4-6.4
		C658.7,440.1,655.9,437.2,655.9,433.7z"/>
	<path class="st58" d="M618.2,333L618.2,333c0,4.2-3.4,7.6-7.6,7.6c4.2,0,7.6,3.4,7.6,7.6l0,0c0-4.2,3.4-7.6,7.6-7.6
		C621.6,340.6,618.2,337.2,618.2,333z"/>
	<path class="st58" d="M779.8,365.7L779.8,365.7c0,4.2-3.4,7.6-7.6,7.6c4.2,0,7.6,3.4,7.6,7.6h0c0-4.2,3.4-7.6,7.6-7.6
		C783.2,373.3,779.8,369.9,779.8,365.7z"/>
	<g>
		<g>
			<g>
				<path class="st58" d="M677.8,229.4c-0.3,0-0.6-0.2-0.6-0.6v-5.3c0-0.3,0.2-0.6,0.6-0.6c0.3,0,0.6,0.2,0.6,0.6v5.3
					C678.3,229.1,678.1,229.4,677.8,229.4z"/>
			</g>
			<g>
				<path class="st58" d="M677.8,238.8c-0.3,0-0.6-0.2-0.6-0.6V233c0-0.3,0.2-0.6,0.6-0.6c0.3,0,0.6,0.2,0.6,0.6v5.3
					C678.3,238.6,678.1,238.8,677.8,238.8z"/>
			</g>
		</g>
		<g>
			<g>
				<path class="st58" d="M675.7,231.5h-5.3c-0.3,0-0.6-0.2-0.6-0.6c0-0.3,0.2-0.6,0.6-0.6h5.3c0.3,0,0.6,0.2,0.6,0.6
					C676.3,231.2,676,231.5,675.7,231.5z"/>
			</g>
			<g>
				<path class="st58" d="M685.2,231.5h-5.3c-0.3,0-0.6-0.2-0.6-0.6c0-0.3,0.2-0.6,0.6-0.6h5.3c0.3,0,0.6,0.2,0.6,0.6
					C685.7,231.2,685.5,231.5,685.2,231.5z"/>
			</g>
		</g>
		<g>
			<g>
				<path class="st58" d="M672.6,236.7c-0.1,0-0.3-0.1-0.4-0.2c-0.2-0.2-0.2-0.6,0-0.8l3.7-3.7c0.2-0.2,0.6-0.2,0.8,0
					c0.2,0.2,0.2,0.6,0,0.8l-3.7,3.7C672.8,236.6,672.7,236.7,672.6,236.7z"/>
			</g>
			<g>
				<path class="st58" d="M679.3,230c-0.1,0-0.3-0.1-0.4-0.2c-0.2-0.2-0.2-0.6,0-0.8l3.7-3.7c0.2-0.2,0.6-0.2,0.8,0
					c0.2,0.2,0.2,0.6,0,0.8l-3.7,3.7C679.5,229.9,679.4,230,679.3,230z"/>
			</g>
		</g>
		<g>
			<g>
				<path class="st58" d="M683,236.7c-0.1,0-0.3-0.1-0.4-0.2l-3.7-3.7c-0.2-0.2-0.2-0.6,0-0.8c0.2-0.2,0.6-0.2,0.8,0l3.7,3.7
					c0.2,0.2,0.2,0.6,0,0.8C683.3,236.6,683.1,236.7,683,236.7z"/>
			</g>
			<g>
				<path class="st58" d="M676.3,230c-0.1,0-0.3-0.1-0.4-0.2l-3.7-3.7c-0.2-0.2-0.2-0.6,0-0.8c0.2-0.2,0.6-0.2,0.8,0l3.7,3.7
					c0.2,0.2,0.2,0.6,0,0.8C676.6,229.9,676.4,230,676.3,230z"/>
			</g>
		</g>
	</g>
	<g>
		<g>
			<g>
				<path class="st58" d="M798.1,426c-0.3,0-0.6-0.2-0.6-0.6v-5.3c0-0.3,0.2-0.6,0.6-0.6c0.3,0,0.6,0.2,0.6,0.6v5.3
					C798.7,425.8,798.4,426,798.1,426z"/>
			</g>
			<g>
				<path class="st58" d="M798.1,435.5c-0.3,0-0.6-0.2-0.6-0.6v-5.3c0-0.3,0.2-0.6,0.6-0.6c0.3,0,0.6,0.2,0.6,0.6v5.3
					C798.7,435.2,798.4,435.5,798.1,435.5z"/>
			</g>
		</g>
		<g>
			<g>
				<path class="st58" d="M796.1,428.1h-5.3c-0.3,0-0.6-0.2-0.6-0.6c0-0.3,0.2-0.6,0.6-0.6h5.3c0.3,0,0.6,0.2,0.6,0.6
					C796.6,427.8,796.4,428.1,796.1,428.1z"/>
			</g>
			<g>
				<path class="st58" d="M805.5,428.1h-5.3c-0.3,0-0.6-0.2-0.6-0.6c0-0.3,0.2-0.6,0.6-0.6h5.3c0.3,0,0.6,0.2,0.6,0.6
					C806.1,427.8,805.8,428.1,805.5,428.1z"/>
			</g>
		</g>
		<g>
			<g>
				<path class="st58" d="M792.9,433.3c-0.1,0-0.3-0.1-0.4-0.2c-0.2-0.2-0.2-0.6,0-0.8l3.7-3.7c0.2-0.2,0.6-0.2,0.8,0
					c0.2,0.2,0.2,0.6,0,0.8l-3.7,3.7C793.2,433.3,793.1,433.3,792.9,433.3z"/>
			</g>
			<g>
				<path class="st58" d="M799.6,426.6c-0.1,0-0.3-0.1-0.4-0.2c-0.2-0.2-0.2-0.6,0-0.8l3.7-3.7c0.2-0.2,0.6-0.2,0.8,0
					c0.2,0.2,0.2,0.6,0,0.8l-3.7,3.7C799.9,426.6,799.7,426.6,799.6,426.6z"/>
			</g>
		</g>
		<g>
			<g>
				<path class="st58" d="M803.4,433.3c-0.1,0-0.3-0.1-0.4-0.2l-3.7-3.7c-0.2-0.2-0.2-0.6,0-0.8c0.2-0.2,0.6-0.2,0.8,0l3.7,3.7
					c0.2,0.2,0.2,0.6,0,0.8C803.6,433.3,803.5,433.3,803.4,433.3z"/>
			</g>
			<g>
				<path class="st58" d="M796.7,426.6c-0.1,0-0.3-0.1-0.4-0.2l-3.7-3.7c-0.2-0.2-0.2-0.6,0-0.8c0.2-0.2,0.6-0.2,0.8,0l3.7,3.7
					c0.2,0.2,0.2,0.6,0,0.8C796.9,426.6,796.8,426.6,796.7,426.6z"/>
			</g>
		</g>
	</g>
	<g>
		<g>
			<g>
				<path class="st58" d="M565.7,349.8c-0.2,0-0.4-0.2-0.4-0.4v-4.3c0-0.2,0.2-0.4,0.4-0.4s0.4,0.2,0.4,0.4v4.3
					C566.1,349.6,565.9,349.8,565.7,349.8z"/>
			</g>
			<g>
				<path class="st58" d="M565.7,357.4c-0.2,0-0.4-0.2-0.4-0.4v-4.3c0-0.2,0.2-0.4,0.4-0.4s0.4,0.2,0.4,0.4v4.3
					C566.1,357.2,565.9,357.4,565.7,357.4z"/>
			</g>
		</g>
		<g>
			<g>
				<path class="st58" d="M564,351.5h-4.3c-0.2,0-0.4-0.2-0.4-0.4s0.2-0.4,0.4-0.4h4.3c0.2,0,0.4,0.2,0.4,0.4S564.2,351.5,564,351.5
					z"/>
			</g>
			<g>
				<path class="st58" d="M571.6,351.5h-4.3c-0.2,0-0.4-0.2-0.4-0.4s0.2-0.4,0.4-0.4h4.3c0.2,0,0.4,0.2,0.4,0.4
					S571.9,351.5,571.6,351.5z"/>
			</g>
		</g>
		<g>
			<g>
				<path class="st58" d="M561.5,355.7c-0.1,0-0.2,0-0.3-0.1c-0.2-0.2-0.2-0.5,0-0.6l3-3c0.2-0.2,0.5-0.2,0.6,0
					c0.2,0.2,0.2,0.5,0,0.6l-3,3C561.7,355.6,561.6,355.7,561.5,355.7z"/>
			</g>
			<g>
				<path class="st58" d="M566.9,350.3c-0.1,0-0.2,0-0.3-0.1c-0.2-0.2-0.2-0.5,0-0.6l3-3c0.2-0.2,0.5-0.2,0.6,0
					c0.2,0.2,0.2,0.5,0,0.6l-3,3C567.1,350.2,567,350.3,566.9,350.3z"/>
			</g>
		</g>
		<g>
			<g>
				<path class="st58" d="M569.9,355.7c-0.1,0-0.2,0-0.3-0.1l-3-3c-0.2-0.2-0.2-0.5,0-0.6c0.2-0.2,0.5-0.2,0.6,0l3,3
					c0.2,0.2,0.2,0.5,0,0.6C570.1,355.6,570,355.7,569.9,355.7z"/>
			</g>
			<g>
				<path class="st58" d="M564.5,350.3c-0.1,0-0.2,0-0.3-0.1l-3-3c-0.2-0.2-0.2-0.5,0-0.6c0.2-0.2,0.5-0.2,0.6,0l3,3
					c0.2,0.2,0.2,0.5,0,0.6C564.7,350.2,564.6,350.3,564.5,350.3z"/>
			</g>
		</g>
	</g>
	<g>
		<g>
			<g>
				<path class="st58" d="M654.6,391.3c-0.2,0-0.4-0.2-0.4-0.4v-4.3c0-0.2,0.2-0.4,0.4-0.4s0.4,0.2,0.4,0.4v4.3
					C655,391.1,654.8,391.3,654.6,391.3z"/>
			</g>
			<g>
				<path class="st58" d="M654.6,398.9c-0.2,0-0.4-0.2-0.4-0.4v-4.3c0-0.2,0.2-0.4,0.4-0.4s0.4,0.2,0.4,0.4v4.3
					C655,398.7,654.8,398.9,654.6,398.9z"/>
			</g>
		</g>
		<g>
			<g>
				<path class="st58" d="M652.9,393h-4.3c-0.2,0-0.4-0.2-0.4-0.4s0.2-0.4,0.4-0.4h4.3c0.2,0,0.4,0.2,0.4,0.4S653.1,393,652.9,393z"
					/>
			</g>
			<g>
				<path class="st58" d="M660.5,393h-4.3c-0.2,0-0.4-0.2-0.4-0.4s0.2-0.4,0.4-0.4h4.3c0.2,0,0.4,0.2,0.4,0.4S660.7,393,660.5,393z"
					/>
			</g>
		</g>
		<g>
			<g>
				<path class="st58" d="M650.4,397.2c-0.1,0-0.2,0-0.3-0.1c-0.2-0.2-0.2-0.5,0-0.6l3-3c0.2-0.2,0.5-0.2,0.6,0
					c0.2,0.2,0.2,0.5,0,0.6l-3,3C650.6,397.1,650.5,397.2,650.4,397.2z"/>
			</g>
			<g>
				<path class="st58" d="M655.7,391.8c-0.1,0-0.2,0-0.3-0.1c-0.2-0.2-0.2-0.5,0-0.6l3-3c0.2-0.2,0.5-0.2,0.6,0
					c0.2,0.2,0.2,0.5,0,0.6l-3,3C656,391.7,655.9,391.8,655.7,391.8z"/>
			</g>
		</g>
		<g>
			<g>
				<path class="st58" d="M658.8,397.2c-0.1,0-0.2,0-0.3-0.1l-3-3c-0.2-0.2-0.2-0.5,0-0.6c0.2-0.2,0.5-0.2,0.6,0l3,3
					c0.2,0.2,0.2,0.5,0,0.6C659,397.1,658.9,397.2,658.8,397.2z"/>
			</g>
			<g>
				<path class="st58" d="M653.4,391.8c-0.1,0-0.2,0-0.3-0.1l-3-3c-0.2-0.2-0.2-0.5,0-0.6c0.2-0.2,0.5-0.2,0.6,0l3,3
					c0.2,0.2,0.2,0.5,0,0.6C653.6,391.7,653.5,391.8,653.4,391.8z"/>
			</g>
		</g>
	</g>
</g>
<g class="st57">
	<path class="st58" d="M958.9,453.6L958.9,453.6c0,2-1.6,3.7-3.7,3.7c2,0,3.7,1.6,3.7,3.7l0,0c0-2,1.6-3.7,3.7-3.7
		C960.5,457.3,958.9,455.7,958.9,453.6z"/>
	<path class="st58" d="M969.4,332.4L969.4,332.4c0,2-1.6,3.7-3.7,3.7c2,0,3.7,1.6,3.7,3.7h0c0-2,1.6-3.7,3.7-3.7
		C971,336.1,969.4,334.5,969.4,332.4z"/>
	<path class="st58" d="M916.7,504.9L916.7,504.9c0,3.6-2.9,6.4-6.4,6.4c3.6,0,6.4,2.9,6.4,6.4l0,0c0-3.6,2.9-6.4,6.4-6.4
		C919.6,511.3,916.7,508.4,916.7,504.9z"/>
	<path class="st58" d="M879,404.1L879,404.1c0,4.2-3.4,7.6-7.6,7.6c4.2,0,7.6,3.4,7.6,7.6l0,0c0-4.2,3.4-7.6,7.6-7.6
		C882.4,411.7,879,408.3,879,404.1z"/>
	<path class="st58" d="M1040.6,436.9L1040.6,436.9c0,4.2-3.4,7.6-7.6,7.6c4.2,0,7.6,3.4,7.6,7.6l0,0c0-4.2,3.4-7.6,7.6-7.6
		C1044,444.5,1040.6,441.1,1040.6,436.9z"/>
	<g>
		<g>
			<g>
				<path class="st58" d="M1058.9,497.2c-0.3,0-0.6-0.2-0.6-0.6v-5.3c0-0.3,0.2-0.6,0.6-0.6c0.3,0,0.6,0.2,0.6,0.6v5.3
					C1059.5,496.9,1059.3,497.2,1058.9,497.2z"/>
			</g>
			<g>
				<path class="st58" d="M1058.9,506.6c-0.3,0-0.6-0.2-0.6-0.6v-5.3c0-0.3,0.2-0.6,0.6-0.6c0.3,0,0.6,0.2,0.6,0.6v5.3
					C1059.5,506.4,1059.3,506.6,1058.9,506.6z"/>
			</g>
		</g>
		<g>
			<g>
				<path class="st58" d="M1056.9,499.3h-5.3c-0.3,0-0.6-0.2-0.6-0.6c0-0.3,0.2-0.6,0.6-0.6h5.3c0.3,0,0.6,0.2,0.6,0.6
					C1057.4,499,1057.2,499.3,1056.9,499.3z"/>
			</g>
			<g>
				<path class="st58" d="M1066.3,499.3h-5.3c-0.3,0-0.6-0.2-0.6-0.6c0-0.3,0.2-0.6,0.6-0.6h5.3c0.3,0,0.6,0.2,0.6,0.6
					C1066.9,499,1066.6,499.3,1066.3,499.3z"/>
			</g>
		</g>
		<g>
			<g>
				<path class="st58" d="M1053.7,504.5c-0.1,0-0.3-0.1-0.4-0.2c-0.2-0.2-0.2-0.6,0-0.8l3.7-3.7c0.2-0.2,0.6-0.2,0.8,0
					c0.2,0.2,0.2,0.6,0,0.8l-3.7,3.7C1054,504.4,1053.9,504.5,1053.7,504.5z"/>
			</g>
			<g>
				<path class="st58" d="M1060.4,497.8c-0.1,0-0.3-0.1-0.4-0.2c-0.2-0.2-0.2-0.6,0-0.8l3.7-3.7c0.2-0.2,0.6-0.2,0.8,0
					c0.2,0.2,0.2,0.6,0,0.8l-3.7,3.7C1060.7,497.7,1060.6,497.8,1060.4,497.8z"/>
			</g>
		</g>
		<g>
			<g>
				<path class="st58" d="M1064.2,504.5c-0.1,0-0.3-0.1-0.4-0.2l-3.7-3.7c-0.2-0.2-0.2-0.6,0-0.8c0.2-0.2,0.6-0.2,0.8,0l3.7,3.7
					c0.2,0.2,0.2,0.6,0,0.8C1064.5,504.4,1064.3,504.5,1064.2,504.5z"/>
			</g>
			<g>
				<path class="st58" d="M1057.5,497.8c-0.1,0-0.3-0.1-0.4-0.2l-3.7-3.7c-0.2-0.2-0.2-0.6,0-0.8c0.2-0.2,0.6-0.2,0.8,0l3.7,3.7
					c0.2,0.2,0.2,0.6,0,0.8C1057.8,497.7,1057.6,497.8,1057.5,497.8z"/>
			</g>
		</g>
	</g>
	<g>
		<g>
			<g>
				<path class="st58" d="M915.4,462.5c-0.2,0-0.4-0.2-0.4-0.4v-4.3c0-0.2,0.2-0.4,0.4-0.4s0.4,0.2,0.4,0.4v4.3
					C915.8,462.3,915.6,462.5,915.4,462.5z"/>
			</g>
			<g>
				<path class="st58" d="M915.4,470.1c-0.2,0-0.4-0.2-0.4-0.4v-4.3c0-0.2,0.2-0.4,0.4-0.4s0.4,0.2,0.4,0.4v4.3
					C915.8,469.9,915.6,470.1,915.4,470.1z"/>
			</g>
		</g>
		<g>
			<g>
				<path class="st58" d="M913.7,464.1h-4.3c-0.2,0-0.4-0.2-0.4-0.4s0.2-0.4,0.4-0.4h4.3c0.2,0,0.4,0.2,0.4,0.4
					S913.9,464.1,913.7,464.1z"/>
			</g>
			<g>
				<path class="st58" d="M921.3,464.1h-4.3c-0.2,0-0.4-0.2-0.4-0.4s0.2-0.4,0.4-0.4h4.3c0.2,0,0.4,0.2,0.4,0.4
					S921.6,464.1,921.3,464.1z"/>
			</g>
		</g>
		<g>
			<g>
				<path class="st58" d="M911.2,468.3c-0.1,0-0.2,0-0.3-0.1c-0.2-0.2-0.2-0.5,0-0.6l3-3c0.2-0.2,0.5-0.2,0.6,0
					c0.2,0.2,0.2,0.5,0,0.6l-3,3C911.4,468.3,911.3,468.3,911.2,468.3z"/>
			</g>
			<g>
				<path class="st58" d="M916.6,463c-0.1,0-0.2,0-0.3-0.1c-0.2-0.2-0.2-0.5,0-0.6l3-3c0.2-0.2,0.5-0.2,0.6,0c0.2,0.2,0.2,0.5,0,0.6
					l-3,3C916.8,462.9,916.7,463,916.6,463z"/>
			</g>
		</g>
		<g>
			<g>
				<path class="st58" d="M919.6,468.3c-0.1,0-0.2,0-0.3-0.1l-3-3c-0.2-0.2-0.2-0.5,0-0.6c0.2-0.2,0.5-0.2,0.6,0l3,3
					c0.2,0.2,0.2,0.5,0,0.6C919.8,468.3,919.7,468.3,919.6,468.3z"/>
			</g>
			<g>
				<path class="st58" d="M914.2,463c-0.1,0-0.2,0-0.3-0.1l-3-3c-0.2-0.2-0.2-0.5,0-0.6c0.2-0.2,0.5-0.2,0.6,0l3,3
					c0.2,0.2,0.2,0.5,0,0.6C914.4,462.9,914.3,463,914.2,463z"/>
			</g>
		</g>
	</g>
</g>
<g class="st57">
	<path class="st58" d="M913.1,297.2L913.1,297.2c0,2-1.6,3.7-3.7,3.7c2,0,3.7,1.6,3.7,3.7l0,0c0-2,1.6-3.7,3.7-3.7
		C914.8,300.9,913.1,299.2,913.1,297.2z"/>
	<path class="st58" d="M870.9,348.4L870.9,348.4c0,3.6-2.9,6.4-6.4,6.4c3.6,0,6.4,2.9,6.4,6.4l0,0c0-3.6,2.9-6.4,6.4-6.4
		C873.8,354.8,870.9,352,870.9,348.4z"/>
	<path class="st58" d="M833.2,247.7L833.2,247.7c0,4.2-3.4,7.6-7.6,7.6c4.2,0,7.6,3.4,7.6,7.6l0,0c0-4.2,3.4-7.6,7.6-7.6
		C836.6,255.3,833.2,251.9,833.2,247.7z"/>
	<path class="st58" d="M994.9,280.4L994.9,280.4c0,4.2-3.4,7.6-7.6,7.6c4.2,0,7.6,3.4,7.6,7.6h0c0-4.2,3.4-7.6,7.6-7.6
		C998.3,288,994.9,284.6,994.9,280.4z"/>
	<g>
		<g>
			<g>
				<path class="st58" d="M1013.2,340.7c-0.3,0-0.6-0.2-0.6-0.6v-5.3c0-0.3,0.2-0.6,0.6-0.6c0.3,0,0.6,0.2,0.6,0.6v5.3
					C1013.7,340.5,1013.5,340.7,1013.2,340.7z"/>
			</g>
			<g>
				<path class="st58" d="M1013.2,350.2c-0.3,0-0.6-0.2-0.6-0.6v-5.3c0-0.3,0.2-0.6,0.6-0.6c0.3,0,0.6,0.2,0.6,0.6v5.3
					C1013.7,349.9,1013.5,350.2,1013.2,350.2z"/>
			</g>
		</g>
		<g>
			<g>
				<path class="st58" d="M1011.1,342.8h-5.3c-0.3,0-0.6-0.2-0.6-0.6c0-0.3,0.2-0.6,0.6-0.6h5.3c0.3,0,0.6,0.2,0.6,0.6
					C1011.7,342.6,1011.4,342.8,1011.1,342.8z"/>
			</g>
			<g>
				<path class="st58" d="M1020.6,342.8h-5.3c-0.3,0-0.6-0.2-0.6-0.6c0-0.3,0.2-0.6,0.6-0.6h5.3c0.3,0,0.6,0.2,0.6,0.6
					C1021.1,342.6,1020.9,342.8,1020.6,342.8z"/>
			</g>
		</g>
		<g>
			<g>
				<path class="st58" d="M1008,348c-0.1,0-0.3-0.1-0.4-0.2c-0.2-0.2-0.2-0.6,0-0.8l3.7-3.7c0.2-0.2,0.6-0.2,0.8,0
					c0.2,0.2,0.2,0.6,0,0.8l-3.7,3.7C1008.3,348,1008.1,348,1008,348z"/>
			</g>
			<g>
				<path class="st58" d="M1014.7,341.3c-0.1,0-0.3-0.1-0.4-0.2c-0.2-0.2-0.2-0.6,0-0.8l3.7-3.7c0.2-0.2,0.6-0.2,0.8,0
					c0.2,0.2,0.2,0.6,0,0.8l-3.7,3.7C1014.9,341.3,1014.8,341.3,1014.7,341.3z"/>
			</g>
		</g>
		<g>
			<g>
				<path class="st58" d="M1018.4,348c-0.1,0-0.3-0.1-0.4-0.2l-3.7-3.7c-0.2-0.2-0.2-0.6,0-0.8c0.2-0.2,0.6-0.2,0.8,0l3.7,3.7
					c0.2,0.2,0.2,0.6,0,0.8C1018.7,348,1018.6,348,1018.4,348z"/>
			</g>
			<g>
				<path class="st58" d="M1011.7,341.3c-0.1,0-0.3-0.1-0.4-0.2l-3.7-3.7c-0.2-0.2-0.2-0.6,0-0.8c0.2-0.2,0.6-0.2,0.8,0l3.7,3.7
					c0.2,0.2,0.2,0.6,0,0.8C1012,341.3,1011.9,341.3,1011.7,341.3z"/>
			</g>
		</g>
	</g>
	<g>
		<g>
			<g>
				<path class="st58" d="M869.6,306c-0.2,0-0.4-0.2-0.4-0.4v-4.3c0-0.2,0.2-0.4,0.4-0.4s0.4,0.2,0.4,0.4v4.3
					C870.1,305.8,869.9,306,869.6,306z"/>
			</g>
			<g>
				<path class="st58" d="M869.6,313.6c-0.2,0-0.4-0.2-0.4-0.4v-4.3c0-0.2,0.2-0.4,0.4-0.4s0.4,0.2,0.4,0.4v4.3
					C870.1,313.4,869.9,313.6,869.6,313.6z"/>
			</g>
		</g>
		<g>
			<g>
				<path class="st58" d="M867.9,307.7h-4.3c-0.2,0-0.4-0.2-0.4-0.4s0.2-0.4,0.4-0.4h4.3c0.2,0,0.4,0.2,0.4,0.4
					S868.2,307.7,867.9,307.7z"/>
			</g>
			<g>
				<path class="st58" d="M875.6,307.7h-4.3c-0.2,0-0.4-0.2-0.4-0.4s0.2-0.4,0.4-0.4h4.3c0.2,0,0.4,0.2,0.4,0.4
					S875.8,307.7,875.6,307.7z"/>
			</g>
		</g>
		<g>
			<g>
				<path class="st58" d="M865.4,311.9c-0.1,0-0.2,0-0.3-0.1c-0.2-0.2-0.2-0.5,0-0.6l3-3c0.2-0.2,0.5-0.2,0.6,0
					c0.2,0.2,0.2,0.5,0,0.6l-3,3C865.7,311.8,865.5,311.9,865.4,311.9z"/>
			</g>
			<g>
				<path class="st58" d="M870.8,306.5c-0.1,0-0.2,0-0.3-0.1c-0.2-0.2-0.2-0.5,0-0.6l3-3c0.2-0.2,0.5-0.2,0.6,0
					c0.2,0.2,0.2,0.5,0,0.6l-3,3C871,306.5,870.9,306.5,870.8,306.5z"/>
			</g>
		</g>
		<g>
			<g>
				<path class="st58" d="M873.8,311.9c-0.1,0-0.2,0-0.3-0.1l-3-3c-0.2-0.2-0.2-0.5,0-0.6c0.2-0.2,0.5-0.2,0.6,0l3,3
					c0.2,0.2,0.2,0.5,0,0.6C874,311.8,873.9,311.9,873.8,311.9z"/>
			</g>
			<g>
				<path class="st58" d="M868.4,306.5c-0.1,0-0.2,0-0.3-0.1l-3-3c-0.2-0.2-0.2-0.5,0-0.6c0.2-0.2,0.5-0.2,0.6,0l3,3
					c0.2,0.2,0.2,0.5,0,0.6C868.7,306.5,868.6,306.5,868.4,306.5z"/>
			</g>
		</g>
	</g>
</g>
<g class="st57">
	<path class="st58" d="M1004.8,132L1004.8,132c0,4.2-3.4,7.6-7.6,7.6c4.2,0,7.6,3.4,7.6,7.6l0,0c0-4.2,3.4-7.6,7.6-7.6
		C1008.2,139.6,1004.8,136.2,1004.8,132z"/>
	<path class="st58" d="M931,144L931,144c0,4.2-3.4,7.6-7.6,7.6c4.2,0,7.6,3.4,7.6,7.6l0,0c0-4.2,3.4-7.6,7.6-7.6
		C934.4,151.6,931,148.2,931,144z"/>
	<path class="st58" d="M856.6,53.1L856.6,53.1c0,4.2-3.4,7.6-7.6,7.6c4.2,0,7.6,3.4,7.6,7.6l0,0c0-4.2,3.4-7.6,7.6-7.6
		C860,60.7,856.6,57.3,856.6,53.1z"/>
	<path class="st58" d="M1040.7,257.4L1040.7,257.4c0,2-1.6,3.7-3.7,3.7c2,0,3.7,1.6,3.7,3.7l0,0c0-2,1.6-3.7,3.7-3.7
		C1042.4,261.1,1040.7,259.4,1040.7,257.4z"/>
	<path class="st58" d="M1051.2,136.2L1051.2,136.2c0,2-1.6,3.7-3.7,3.7c2,0,3.7,1.6,3.7,3.7l0,0c0-2,1.6-3.7,3.7-3.7
		C1052.8,139.9,1051.2,138.3,1051.2,136.2z"/>
	<path class="st58" d="M1123.4,54.9L1123.4,54.9c0,2-1.6,3.7-3.7,3.7c2,0,3.7,1.6,3.7,3.7l0,0c0-2,1.6-3.7,3.7-3.7
		C1125,58.6,1123.4,56.9,1123.4,54.9z"/>
	<path class="st58" d="M845.2,100.4L845.2,100.4c0,2-1.6,3.7-3.7,3.7c2,0,3.7,1.6,3.7,3.7l0,0c0-2,1.6-3.7,3.7-3.7
		C846.9,104.1,845.2,102.5,845.2,100.4z"/>
	<path class="st58" d="M998.5,308.6L998.5,308.6c0,3.6-2.9,6.4-6.4,6.4c3.6,0,6.4,2.9,6.4,6.4l0,0c0-3.6,2.9-6.4,6.4-6.4
		C1001.4,315.1,998.5,312.2,998.5,308.6z"/>
	<path class="st58" d="M960.8,207.9L960.8,207.9c0,4.2-3.4,7.6-7.6,7.6c4.2,0,7.6,3.4,7.6,7.6l0,0c0-4.2,3.4-7.6,7.6-7.6
		C964.2,215.5,960.8,212.1,960.8,207.9z"/>
	<path class="st58" d="M1122.4,240.7L1122.4,240.7c0,4.2-3.4,7.6-7.6,7.6c4.2,0,7.6,3.4,7.6,7.6l0,0c0-4.2,3.4-7.6,7.6-7.6
		C1125.8,248.3,1122.4,244.9,1122.4,240.7z"/>
	<g>
		<g>
			<g>
				<path class="st58" d="M1020.4,104.3c-0.3,0-0.6-0.2-0.6-0.6v-5.3c0-0.3,0.2-0.6,0.6-0.6s0.6,0.2,0.6,0.6v5.3
					C1021,104.1,1020.7,104.3,1020.4,104.3z"/>
			</g>
			<g>
				<path class="st58" d="M1020.4,113.8c-0.3,0-0.6-0.2-0.6-0.6v-5.3c0-0.3,0.2-0.6,0.6-0.6s0.6,0.2,0.6,0.6v5.3
					C1021,113.6,1020.7,113.8,1020.4,113.8z"/>
			</g>
		</g>
		<g>
			<g>
				<path class="st58" d="M1018.3,106.4h-5.3c-0.3,0-0.6-0.2-0.6-0.6c0-0.3,0.2-0.6,0.6-0.6h5.3c0.3,0,0.6,0.2,0.6,0.6
					C1018.9,106.2,1018.6,106.4,1018.3,106.4z"/>
			</g>
			<g>
				<path class="st58" d="M1027.8,106.4h-5.3c-0.3,0-0.6-0.2-0.6-0.6c0-0.3,0.2-0.6,0.6-0.6h5.3c0.3,0,0.6,0.2,0.6,0.6
					C1028.3,106.2,1028.1,106.4,1027.8,106.4z"/>
			</g>
		</g>
		<g>
			<g>
				<path class="st58" d="M1015.2,111.6c-0.1,0-0.3-0.1-0.4-0.2c-0.2-0.2-0.2-0.6,0-0.8l3.7-3.7c0.2-0.2,0.6-0.2,0.8,0
					c0.2,0.2,0.2,0.6,0,0.8l-3.7,3.7C1015.5,111.6,1015.3,111.6,1015.2,111.6z"/>
			</g>
			<g>
				<path class="st58" d="M1021.9,104.9c-0.1,0-0.3-0.1-0.4-0.2c-0.2-0.2-0.2-0.6,0-0.8l3.7-3.7c0.2-0.2,0.6-0.2,0.8,0
					c0.2,0.2,0.2,0.6,0,0.8l-3.7,3.7C1022.2,104.9,1022,104.9,1021.9,104.9z"/>
			</g>
		</g>
		<g>
			<g>
				<path class="st58" d="M1025.6,111.6c-0.1,0-0.3-0.1-0.4-0.2l-3.7-3.7c-0.2-0.2-0.2-0.6,0-0.8c0.2-0.2,0.6-0.2,0.8,0l3.7,3.7
					c0.2,0.2,0.2,0.6,0,0.8C1025.9,111.6,1025.8,111.6,1025.6,111.6z"/>
			</g>
			<g>
				<path class="st58" d="M1018.9,104.9c-0.1,0-0.3-0.1-0.4-0.2l-3.7-3.7c-0.2-0.2-0.2-0.6,0-0.8c0.2-0.2,0.6-0.2,0.8,0l3.7,3.7
					c0.2,0.2,0.2,0.6,0,0.8C1019.2,104.9,1019.1,104.9,1018.9,104.9z"/>
			</g>
		</g>
	</g>
	<g>
		<g>
			<g>
				<path class="st58" d="M1140.8,301c-0.3,0-0.6-0.2-0.6-0.6v-5.3c0-0.3,0.2-0.6,0.6-0.6c0.3,0,0.6,0.2,0.6,0.6v5.3
					C1141.3,300.7,1141.1,301,1140.8,301z"/>
			</g>
			<g>
				<path class="st58" d="M1140.8,310.4c-0.3,0-0.6-0.2-0.6-0.6v-5.3c0-0.3,0.2-0.6,0.6-0.6c0.3,0,0.6,0.2,0.6,0.6v5.3
					C1141.3,310.2,1141.1,310.4,1140.8,310.4z"/>
			</g>
		</g>
		<g>
			<g>
				<path class="st58" d="M1138.7,303h-5.3c-0.3,0-0.6-0.2-0.6-0.6c0-0.3,0.2-0.6,0.6-0.6h5.3c0.3,0,0.6,0.2,0.6,0.6
					C1139.2,302.8,1139,303,1138.7,303z"/>
			</g>
			<g>
				<path class="st58" d="M1148.1,303h-5.3c-0.3,0-0.6-0.2-0.6-0.6c0-0.3,0.2-0.6,0.6-0.6h5.3c0.3,0,0.6,0.2,0.6,0.6
					C1148.7,302.8,1148.4,303,1148.1,303z"/>
			</g>
		</g>
		<g>
			<g>
				<path class="st58" d="M1135.5,308.3c-0.1,0-0.3-0.1-0.4-0.2c-0.2-0.2-0.2-0.6,0-0.8l3.7-3.7c0.2-0.2,0.6-0.2,0.8,0
					c0.2,0.2,0.2,0.6,0,0.8l-3.7,3.7C1135.8,308.2,1135.7,308.3,1135.5,308.3z"/>
			</g>
			<g>
				<path class="st58" d="M1142.2,301.6c-0.1,0-0.3-0.1-0.4-0.2c-0.2-0.2-0.2-0.6,0-0.8l3.7-3.7c0.2-0.2,0.6-0.2,0.8,0
					c0.2,0.2,0.2,0.6,0,0.8l-3.7,3.7C1142.5,301.5,1142.4,301.6,1142.2,301.6z"/>
			</g>
		</g>
		<g>
			<g>
				<path class="st58" d="M1146,308.3c-0.1,0-0.3-0.1-0.4-0.2l-3.7-3.7c-0.2-0.2-0.2-0.6,0-0.8s0.6-0.2,0.8,0l3.7,3.7
					c0.2,0.2,0.2,0.6,0,0.8C1146.3,308.2,1146.1,308.3,1146,308.3z"/>
			</g>
			<g>
				<path class="st58" d="M1139.3,301.6c-0.1,0-0.3-0.1-0.4-0.2l-3.7-3.7c-0.2-0.2-0.2-0.6,0-0.8c0.2-0.2,0.6-0.2,0.8,0l3.7,3.7
					c0.2,0.2,0.2,0.6,0,0.8C1139.6,301.5,1139.4,301.6,1139.3,301.6z"/>
			</g>
		</g>
	</g>
	<g>
		<g>
			<g>
				<path class="st58" d="M997.2,266.3c-0.2,0-0.4-0.2-0.4-0.4v-4.3c0-0.2,0.2-0.4,0.4-0.4s0.4,0.2,0.4,0.4v4.3
					C997.6,266.1,997.4,266.3,997.2,266.3z"/>
			</g>
			<g>
				<path class="st58" d="M997.2,273.9c-0.2,0-0.4-0.2-0.4-0.4v-4.3c0-0.2,0.2-0.4,0.4-0.4s0.4,0.2,0.4,0.4v4.3
					C997.6,273.7,997.4,273.9,997.2,273.9z"/>
			</g>
		</g>
		<g>
			<g>
				<path class="st58" d="M995.5,267.9h-4.3c-0.2,0-0.4-0.2-0.4-0.4s0.2-0.4,0.4-0.4h4.3c0.2,0,0.4,0.2,0.4,0.4
					S995.8,267.9,995.5,267.9z"/>
			</g>
			<g>
				<path class="st58" d="M1003.1,267.9h-4.3c-0.2,0-0.4-0.2-0.4-0.4s0.2-0.4,0.4-0.4h4.3c0.2,0,0.4,0.2,0.4,0.4
					S1003.4,267.9,1003.1,267.9z"/>
			</g>
		</g>
		<g>
			<g>
				<path class="st58" d="M993,272.1c-0.1,0-0.2,0-0.3-0.1c-0.2-0.2-0.2-0.5,0-0.6l3-3c0.2-0.2,0.5-0.2,0.6,0c0.2,0.2,0.2,0.5,0,0.6
					l-3,3C993.2,272.1,993.1,272.1,993,272.1z"/>
			</g>
			<g>
				<path class="st58" d="M998.4,266.7c-0.1,0-0.2,0-0.3-0.1c-0.2-0.2-0.2-0.5,0-0.6l3-3c0.2-0.2,0.5-0.2,0.6,0
					c0.2,0.2,0.2,0.5,0,0.6l-3,3C998.6,266.7,998.5,266.7,998.4,266.7z"/>
			</g>
		</g>
		<g>
			<g>
				<path class="st58" d="M1001.4,272.1c-0.1,0-0.2,0-0.3-0.1l-3-3c-0.2-0.2-0.2-0.5,0-0.6c0.2-0.2,0.5-0.2,0.6,0l3,3
					c0.2,0.2,0.2,0.5,0,0.6C1001.6,272.1,1001.5,272.1,1001.4,272.1z"/>
			</g>
			<g>
				<path class="st58" d="M996,266.7c-0.1,0-0.2,0-0.3-0.1l-3-3c-0.2-0.2-0.2-0.5,0-0.6c0.2-0.2,0.5-0.2,0.6,0l3,3
					c0.2,0.2,0.2,0.5,0,0.6C996.2,266.7,996.1,266.7,996,266.7z"/>
			</g>
		</g>
	</g>
</g>
<g class="st57">
	<path class="st58" d="M769.4,75.3L769.4,75.3c0,4.2-3.4,7.6-7.6,7.6c4.2,0,7.6,3.4,7.6,7.6l0,0c0-4.2,3.4-7.6,7.6-7.6
		C772.8,82.9,769.4,79.5,769.4,75.3z"/>
	<path class="st58" d="M695.6,87.3L695.6,87.3c0,4.2-3.4,7.6-7.6,7.6c4.2,0,7.6,3.4,7.6,7.6l0,0c0-4.2,3.4-7.6,7.6-7.6
		C699,94.9,695.6,91.5,695.6,87.3z"/>
	<path class="st58" d="M805.3,200.7L805.3,200.7c0,2-1.6,3.7-3.7,3.7c2,0,3.7,1.6,3.7,3.7l0,0c0-2,1.6-3.7,3.7-3.7
		C807,204.4,805.3,202.7,805.3,200.7z"/>
	<path class="st58" d="M815.8,79.5L815.8,79.5c0,2-1.6,3.7-3.7,3.7c2,0,3.7,1.6,3.7,3.7h0c0-2,1.6-3.7,3.7-3.7
		C817.4,83.2,815.8,81.5,815.8,79.5z"/>
	<path class="st58" d="M621.2,144.2L621.2,144.2c0,2-1.6,3.7-3.7,3.7c2,0,3.7,1.6,3.7,3.7l0,0c0-2,1.6-3.7,3.7-3.7
		C622.9,147.9,621.2,146.2,621.2,144.2z"/>
	<path class="st58" d="M649.2,112.3L649.2,112.3c0,2-1.6,3.7-3.7,3.7c2,0,3.7,1.6,3.7,3.7h0c0-2,1.6-3.7,3.7-3.7
		C650.9,116,649.2,114.4,649.2,112.3z"/>
	<path class="st58" d="M763.1,251.9L763.1,251.9c0,3.6-2.9,6.4-6.4,6.4c3.6,0,6.4,2.9,6.4,6.4l0,0c0-3.6,2.9-6.4,6.4-6.4
		C766,258.4,763.1,255.5,763.1,251.9z"/>
	<path class="st58" d="M725.4,151.2L725.4,151.2c0,4.2-3.4,7.6-7.6,7.6c4.2,0,7.6,3.4,7.6,7.6l0,0c0-4.2,3.4-7.6,7.6-7.6
		C728.8,158.8,725.4,155.4,725.4,151.2z"/>
	<path class="st58" d="M887.1,183.9L887.1,183.9c0,4.2-3.4,7.6-7.6,7.6c4.2,0,7.6,3.4,7.6,7.6h0c0-4.2,3.4-7.6,7.6-7.6
		C890.5,191.5,887.1,188.1,887.1,183.9z"/>
	<g>
		<g>
			<g>
				<path class="st58" d="M905.4,244.2c-0.3,0-0.6-0.2-0.6-0.6v-5.3c0-0.3,0.2-0.6,0.6-0.6s0.6,0.2,0.6,0.6v5.3
					C905.9,244,905.7,244.2,905.4,244.2z"/>
			</g>
			<g>
				<path class="st58" d="M905.4,253.7c-0.3,0-0.6-0.2-0.6-0.6v-5.3c0-0.3,0.2-0.6,0.6-0.6s0.6,0.2,0.6,0.6v5.3
					C905.9,253.5,905.7,253.7,905.4,253.7z"/>
			</g>
		</g>
		<g>
			<g>
				<path class="st58" d="M903.3,246.3H898c-0.3,0-0.6-0.2-0.6-0.6c0-0.3,0.2-0.6,0.6-0.6h5.3c0.3,0,0.6,0.2,0.6,0.6
					C903.9,246.1,903.6,246.3,903.3,246.3z"/>
			</g>
			<g>
				<path class="st58" d="M912.8,246.3h-5.3c-0.3,0-0.6-0.2-0.6-0.6c0-0.3,0.2-0.6,0.6-0.6h5.3c0.3,0,0.6,0.2,0.6,0.6
					C913.3,246.1,913.1,246.3,912.8,246.3z"/>
			</g>
		</g>
		<g>
			<g>
				<path class="st58" d="M900.2,251.5c-0.1,0-0.3-0.1-0.4-0.2c-0.2-0.2-0.2-0.6,0-0.8l3.7-3.7c0.2-0.2,0.6-0.2,0.8,0
					c0.2,0.2,0.2,0.6,0,0.8l-3.7,3.7C900.4,251.5,900.3,251.5,900.2,251.5z"/>
			</g>
			<g>
				<path class="st58" d="M906.9,244.9c-0.1,0-0.3-0.1-0.4-0.2c-0.2-0.2-0.2-0.6,0-0.8l3.7-3.7c0.2-0.2,0.6-0.2,0.8,0
					c0.2,0.2,0.2,0.6,0,0.8l-3.7,3.7C907.1,244.8,907,244.9,906.9,244.9z"/>
			</g>
		</g>
		<g>
			<g>
				<path class="st58" d="M910.6,251.5c-0.1,0-0.3-0.1-0.4-0.2l-3.7-3.7c-0.2-0.2-0.2-0.6,0-0.8c0.2-0.2,0.6-0.2,0.8,0l3.7,3.7
					c0.2,0.2,0.2,0.6,0,0.8C910.9,251.5,910.7,251.5,910.6,251.5z"/>
			</g>
			<g>
				<path class="st58" d="M903.9,244.9c-0.1,0-0.3-0.1-0.4-0.2l-3.7-3.7c-0.2-0.2-0.2-0.6,0-0.8c0.2-0.2,0.6-0.2,0.8,0l3.7,3.7
					c0.2,0.2,0.2,0.6,0,0.8C904.2,244.8,904.1,244.9,903.9,244.9z"/>
			</g>
		</g>
	</g>
	<g>
		<g>
			<g>
				<path class="st58" d="M672.9,168c-0.2,0-0.4-0.2-0.4-0.4v-4.3c0-0.2,0.2-0.4,0.4-0.4c0.2,0,0.4,0.2,0.4,0.4v4.3
					C673.4,167.8,673.2,168,672.9,168z"/>
			</g>
			<g>
				<path class="st58" d="M672.9,175.6c-0.2,0-0.4-0.2-0.4-0.4v-4.3c0-0.2,0.2-0.4,0.4-0.4c0.2,0,0.4,0.2,0.4,0.4v4.3
					C673.4,175.4,673.2,175.6,672.9,175.6z"/>
			</g>
		</g>
		<g>
			<g>
				<path class="st58" d="M671.2,169.7H667c-0.2,0-0.4-0.2-0.4-0.4s0.2-0.4,0.4-0.4h4.3c0.2,0,0.4,0.2,0.4,0.4
					S671.5,169.7,671.2,169.7z"/>
			</g>
			<g>
				<path class="st58" d="M678.9,169.7h-4.3c-0.2,0-0.4-0.2-0.4-0.4s0.2-0.4,0.4-0.4h4.3c0.2,0,0.4,0.2,0.4,0.4
					S679.1,169.7,678.9,169.7z"/>
			</g>
		</g>
		<g>
			<g>
				<path class="st58" d="M668.7,173.9c-0.1,0-0.2,0-0.3-0.1c-0.2-0.2-0.2-0.5,0-0.6l3-3c0.2-0.2,0.5-0.2,0.6,0
					c0.2,0.2,0.2,0.5,0,0.6l-3,3C669,173.9,668.8,173.9,668.7,173.9z"/>
			</g>
			<g>
				<path class="st58" d="M674.1,168.5c-0.1,0-0.2,0-0.3-0.1c-0.2-0.2-0.2-0.5,0-0.6l3-3c0.2-0.2,0.5-0.2,0.6,0
					c0.2,0.2,0.2,0.5,0,0.6l-3,3C674.3,168.5,674.2,168.5,674.1,168.5z"/>
			</g>
		</g>
		<g>
			<g>
				<path class="st58" d="M677.1,173.9c-0.1,0-0.2,0-0.3-0.1l-3-3c-0.2-0.2-0.2-0.5,0-0.6c0.2-0.2,0.5-0.2,0.6,0l3,3
					c0.2,0.2,0.2,0.5,0,0.6C677.3,173.9,677.2,173.9,677.1,173.9z"/>
			</g>
			<g>
				<path class="st58" d="M671.7,168.5c-0.1,0-0.2,0-0.3-0.1l-3-3c-0.2-0.2-0.2-0.5,0-0.6c0.2-0.2,0.5-0.2,0.6,0l3,3
					c0.2,0.2,0.2,0.5,0,0.6C672,168.5,671.8,168.5,671.7,168.5z"/>
			</g>
		</g>
	</g>
	<g>
		<g>
			<g>
				<path class="st58" d="M761.8,209.5c-0.2,0-0.4-0.2-0.4-0.4v-4.3c0-0.2,0.2-0.4,0.4-0.4s0.4,0.2,0.4,0.4v4.3
					C762.3,209.3,762.1,209.5,761.8,209.5z"/>
			</g>
			<g>
				<path class="st58" d="M761.8,217.1c-0.2,0-0.4-0.2-0.4-0.4v-4.3c0-0.2,0.2-0.4,0.4-0.4s0.4,0.2,0.4,0.4v4.3
					C762.3,216.9,762.1,217.1,761.8,217.1z"/>
			</g>
		</g>
		<g>
			<g>
				<path class="st58" d="M760.1,211.2h-4.3c-0.2,0-0.4-0.2-0.4-0.4s0.2-0.4,0.4-0.4h4.3c0.2,0,0.4,0.2,0.4,0.4
					S760.4,211.2,760.1,211.2z"/>
			</g>
			<g>
				<path class="st58" d="M767.7,211.2h-4.3c-0.2,0-0.4-0.2-0.4-0.4s0.2-0.4,0.4-0.4h4.3c0.2,0,0.4,0.2,0.4,0.4
					S768,211.2,767.7,211.2z"/>
			</g>
		</g>
		<g>
			<g>
				<path class="st58" d="M757.6,215.4c-0.1,0-0.2,0-0.3-0.1c-0.2-0.2-0.2-0.5,0-0.6l3-3c0.2-0.2,0.5-0.2,0.6,0
					c0.2,0.2,0.2,0.5,0,0.6l-3,3C757.8,215.4,757.7,215.4,757.6,215.4z"/>
			</g>
			<g>
				<path class="st58" d="M763,210c-0.1,0-0.2,0-0.3-0.1c-0.2-0.2-0.2-0.5,0-0.6l3-3c0.2-0.2,0.5-0.2,0.6,0c0.2,0.2,0.2,0.5,0,0.6
					l-3,3C763.2,210,763.1,210,763,210z"/>
			</g>
		</g>
		<g>
			<g>
				<path class="st58" d="M766,215.4c-0.1,0-0.2,0-0.3-0.1l-3-3c-0.2-0.2-0.2-0.5,0-0.6c0.2-0.2,0.5-0.2,0.6,0l3,3
					c0.2,0.2,0.2,0.5,0,0.6C766.2,215.4,766.1,215.4,766,215.4z"/>
			</g>
			<g>
				<path class="st58" d="M760.6,210c-0.1,0-0.2,0-0.3-0.1l-3-3c-0.2-0.2-0.2-0.5,0-0.6c0.2-0.2,0.5-0.2,0.6,0l3,3
					c0.2,0.2,0.2,0.5,0,0.6C760.9,210,760.7,210,760.6,210z"/>
			</g>
		</g>
	</g>
</g>
<g>
	<g>
		<linearGradient id="SVGID_48_" gradientUnits="userSpaceOnUse" x1="312.7484" y1="417.5133" x2="319.385" y2="417.5133">
			<stop  offset="0" style="stop-color:#445DEE"/>
			<stop  offset="0.327" style="stop-color:#4333EE"/>
			<stop  offset="1" style="stop-color:#4C0089"/>
		</linearGradient>
		<path class="st59" d="M315.3,427.4c-0.3,0-0.6-0.2-0.7-0.5c-5.5-11.9,3.5-19,3.5-19c0.4-0.3,0.9-0.2,1.1,0.2
			c0.3,0.4,0.2,0.9-0.2,1.1c-0.3,0.3-8,6.4-3.1,17.1c0.2,0.4,0,0.9-0.4,1.1C315.5,427.3,315.4,427.4,315.3,427.4z"/>
	</g>
	<linearGradient id="SVGID_49_" gradientUnits="userSpaceOnUse" x1="300.6808" y1="416.1679" x2="312.5138" y2="416.1679">
		<stop  offset="0" style="stop-color:#00DAFF"/>
		<stop  offset="0.1438" style="stop-color:#0BCDFE"/>
		<stop  offset="0.4077" style="stop-color:#29ACFB"/>
		<stop  offset="0.7593" style="stop-color:#5877F6"/>
		<stop  offset="1" style="stop-color:#7C4EF3"/>
	</linearGradient>
	<path class="st60" d="M312.5,418.3L312.5,418.3c-4.5,2.1-9.8,0.1-11.8-4.3l0,0l0,0C305.1,411.9,310.4,413.9,312.5,418.3
		L312.5,418.3z"/>
	<path class="st61" d="M324,416.7c-3.3,0.5-6.2,2.7-8.1,5.9c-0.8,1.3-2.4,2-3.9,1.8c-3.7-0.6-7.2,0.2-9.8,2.4
		c-5.5,4.7-4.6,14.2,2,21.2c6.6,7,16.3,9,21.8,4.3l0,0c0.6-0.5,1.3-0.8,2-0.9l0,0c7.1-1.2,11.9-9.8,10.8-19.4
		C337.7,422.4,331.1,415.6,324,416.7z"/>
	<linearGradient id="SVGID_50_" gradientUnits="userSpaceOnUse" x1="302.2331" y1="431.7932" x2="306.7612" y2="439.6361">
		<stop  offset="0" style="stop-color:#4333EE"/>
		<stop  offset="1" style="stop-color:#140D5B"/>
	</linearGradient>
	<path class="st62" d="M307.8,435.2c0.4,2.6-0.7,4.9-2.5,5.1c-1.8,0.3-3.6-1.5-4-4.1c-0.4-2.6,0.7-4.9,2.5-5.1
		C305.6,430.8,307.4,432.6,307.8,435.2z"/>
</g>
<g>
	<path class="st63" d="M88.1,138.6c-1.5-2.3-4.6-2.9-6.9-1.4l-59.2,39.2c-2.3,1.5-2.9,4.6-1.4,6.9l9.5,14.4L97.6,153L88.1,138.6z"/>
	<path class="st15" d="M30,197.7l1.5,2.2c1.5,2.3,4.6,2.9,6.9,1.4l59.2-39.2c2.3-1.5,2.9-4.6,1.4-6.9l-1.5-2.2L30,197.7z"/>
	
		<rect x="29.8" y="152.9" transform="matrix(0.8342 -0.5514 0.5514 0.8342 -81.5986 58.8579)" class="st64" width="54.6" height="24.5"/>
	
		<rect x="42.1" y="158.4" transform="matrix(0.8342 -0.5514 0.5514 0.8342 -81.599 58.8583)" class="st65" width="30" height="13.4"/>
	
		<rect x="39.3" y="174.5" transform="matrix(0.8342 -0.5514 0.5514 0.8342 -87.9262 66.4519)" class="st66" width="54.6" height="9.9"/>
</g>
<g>
	<path class="st67" d="M889.7,99.7c0.6,2.7,3.2,4.4,5.9,3.9l4.8-1l12.2-2.6l84.7-18l10.7-6.5l-0.8-3.7l-12.5-1.6l-84.7,18l-12.3,2.6
		l-4.8,1c-2.7,0.6-4.4,3.2-3.9,5.9L889.7,99.7z"/>
	
		<linearGradient id="SVGID_51_" gradientUnits="userSpaceOnUse" x1="878.933" y1="286.5414" x2="881.1553" y2="297.2825" gradientTransform="matrix(0.9997 -2.457149e-02 2.457149e-02 0.9997 7.5031 -172.0918)">
		<stop  offset="0" style="stop-color:#FB697D"/>
		<stop  offset="1" style="stop-color:#DB2276"/>
	</linearGradient>
	<path class="st68" d="M895.6,103.5c-2.7,0.6-5.4-1.1-5.9-3.9l-0.5-2c-0.6-2.7,1.2-5.4,3.9-5.9l4.8-1l0.4,1.8l0.6,2.8l0.6,2.8
		l0.6,2.8l0.4,1.6L895.6,103.5z"/>
	
		<linearGradient id="SVGID_52_" gradientUnits="userSpaceOnUse" x1="885.5693" y1="294.5148" x2="898.1895" y2="294.5148" gradientTransform="matrix(0.9997 -2.457149e-02 2.457149e-02 0.9997 7.5031 -172.0918)">
		<stop  offset="0" style="stop-color:#F9CE5C"/>
		<stop  offset="1" style="stop-color:#FF7257"/>
	</linearGradient>
	<polygon class="st69" points="912.6,99.9 900.4,102.5 900.1,100.9 912.3,98.3 	"/>
	
		<linearGradient id="SVGID_53_" gradientUnits="userSpaceOnUse" x1="884.5219" y1="289.4552" x2="897.3516" y2="289.4552" gradientTransform="matrix(0.9997 -2.457149e-02 2.457149e-02 0.9997 7.5031 -172.0918)">
		<stop  offset="0" style="stop-color:#F9CE5C"/>
		<stop  offset="1" style="stop-color:#FF7257"/>
	</linearGradient>
	<polygon class="st70" points="899.5,98.1 898.9,95.3 911.1,92.7 911.4,94 911.7,95.5 	"/>
	
		<linearGradient id="SVGID_54_" gradientUnits="userSpaceOnUse" x1="883.6443" y1="284.3038" x2="896.2744" y2="284.3038" gradientTransform="matrix(0.9997 -2.457149e-02 2.457149e-02 0.9997 7.5031 -172.0918)">
		<stop  offset="0" style="stop-color:#F9CE5C"/>
		<stop  offset="1" style="stop-color:#FF7257"/>
	</linearGradient>
	<polygon class="st71" points="898.3,92.4 897.9,90.7 910.1,88.1 910.5,89.8 	"/>
	
		<rect x="898.4" y="91.1" transform="matrix(0.9781 -0.2081 0.2081 0.9781 0.5404 190.2432)" class="st72" width="12.5" height="2.9"/>
	<polygon class="st72" points="900.1,100.9 899.5,98.1 911.7,95.5 912.3,98.3 	"/>
	<polygon class="st73" points="912.6,99.9 912.3,98.3 911.7,95.5 911.4,94 996.1,76 997.3,81.9 	"/>
	<polygon class="st73" points="911.4,94 911.1,92.7 910.5,89.8 910.1,88.1 994.8,70.1 996.1,76 	"/>
	<polygon class="st73" points="1012.8,72.4 1008.1,75.4 1007.3,71.7 	"/>
	
		<linearGradient id="SVGID_55_" gradientUnits="userSpaceOnUse" x1="986.897" y1="267.0744" x2="988.7489" y2="274.8526" gradientTransform="matrix(0.9997 -2.457149e-02 2.457149e-02 0.9997 7.5031 -172.0918)">
		<stop  offset="0" style="stop-color:#EDF3F5"/>
		<stop  offset="0.1931" style="stop-color:#EFF0E8"/>
		<stop  offset="0.5472" style="stop-color:#F6E8C7"/>
		<stop  offset="1" style="stop-color:#FFDB94"/>
	</linearGradient>
	<polygon class="st74" points="997.3,81.9 996.1,76 994.8,70.1 1007.3,71.7 1008.1,75.4 	"/>
</g>
<g>
	<g>
		<polygon class="st75" points="568.3,454.2 560.3,449.4 567.3,441.5 572,444.3 		"/>
		<path class="st76" d="M568.3,454.2l-8-4.8c-2.9,0.1-6.3,1.1-8.2,3.6l16.9,10.1C570.3,460.3,569.6,456.8,568.3,454.2z"/>
		<path class="st76" d="M567.3,441.5l4.7,2.8c1.7-0.1,3.7-0.7,4.8-2.1l-9.9-5.9C566.1,437.9,566.5,440,567.3,441.5z"/>
		<polygon class="st77" points="545.3,483.5 559.5,457.5 561.5,458.7 		"/>
	</g>
</g>
<g>
	<g>
		
			<linearGradient id="SVGID_56_" gradientUnits="userSpaceOnUse" x1="8374.582" y1="-7846.9727" x2="8377.2861" y2="-7846.9727" gradientTransform="matrix(2.185 -1.0761 1.0761 2.185 -9452.1787 26272.0547)">
			<stop  offset="0" style="stop-color:#30ACFF"/>
			<stop  offset="0.2291" style="stop-color:#2CA7FF"/>
			<stop  offset="0.4985" style="stop-color:#2299FF"/>
			<stop  offset="0.787" style="stop-color:#1081FF"/>
			<stop  offset="1" style="stop-color:#006BFF"/>
		</linearGradient>
		<polygon class="st78" points="409.7,114.9 403.8,117.8 401.8,110.6 405.2,108.9 		"/>
		
			<linearGradient id="SVGID_57_" gradientUnits="userSpaceOnUse" x1="8373.085" y1="-7844.4189" x2="8378.7822" y2="-7844.4189" gradientTransform="matrix(2.185 -1.0761 1.0761 2.185 -9452.1787 26272.0547)">
			<stop  offset="0" style="stop-color:#30ACFF"/>
			<stop  offset="0.2291" style="stop-color:#2CA7FF"/>
			<stop  offset="0.4985" style="stop-color:#2299FF"/>
			<stop  offset="0.787" style="stop-color:#1081FF"/>
			<stop  offset="1" style="stop-color:#006BFF"/>
		</linearGradient>
		<path class="st79" d="M409.7,114.9l-5.9,2.9c-1.1,1.8-1.8,4.2-1,6.2l12.4-6.1C414.1,116.1,411.7,115.1,409.7,114.9z"/>
		
			<linearGradient id="SVGID_58_" gradientUnits="userSpaceOnUse" x1="8374.2656" y1="-7849.0903" x2="8377.6025" y2="-7849.0903" gradientTransform="matrix(2.185 -1.0761 1.0761 2.185 -9452.1787 26272.0547)">
			<stop  offset="0" style="stop-color:#30ACFF"/>
			<stop  offset="0.2291" style="stop-color:#2CA7FF"/>
			<stop  offset="0.4985" style="stop-color:#2299FF"/>
			<stop  offset="0.787" style="stop-color:#1081FF"/>
			<stop  offset="1" style="stop-color:#006BFF"/>
		</linearGradient>
		<path class="st80" d="M401.8,110.6l3.5-1.7c0.6-1,1-2.4,0.6-3.6l-7.3,3.6C399.2,110,400.6,110.5,401.8,110.6z"/>
		<polygon class="st77" points="418.2,139.7 408.3,121.3 409.7,120.6 		"/>
	</g>
</g>
<g>
	<g>
		
			<linearGradient id="SVGID_59_" gradientUnits="userSpaceOnUse" x1="8029.8452" y1="-8409.0254" x2="8032.5498" y2="-8409.0254" gradientTransform="matrix(-1.0261 2.209 -2.209 -1.0261 -9947.7041 -26229.4473)">
			<stop  offset="0" style="stop-color:#F9CE5C"/>
			<stop  offset="1" style="stop-color:#FF7257"/>
		</linearGradient>
		<polygon class="st81" points="382.3,141.4 385.1,135.4 391.2,139.8 389.5,143.3 		"/>
		
			<linearGradient id="SVGID_60_" gradientUnits="userSpaceOnUse" x1="8028.3486" y1="-8406.4717" x2="8034.0459" y2="-8406.4717" gradientTransform="matrix(-1.0261 2.209 -2.209 -1.0261 -9947.7041 -26229.4473)">
			<stop  offset="0" style="stop-color:#F9CE5C"/>
			<stop  offset="1" style="stop-color:#FF7257"/>
		</linearGradient>
		<path class="st82" d="M382.3,141.4l2.8-6c-0.3-2-1.3-4.4-3.1-5.5l-5.8,12.6C378.2,143.3,380.6,142.5,382.3,141.4z"/>
		
			<linearGradient id="SVGID_61_" gradientUnits="userSpaceOnUse" x1="8029.5293" y1="-8411.1426" x2="8032.8657" y2="-8411.1426" gradientTransform="matrix(-1.0261 2.209 -2.209 -1.0261 -9947.7041 -26229.4473)">
			<stop  offset="0" style="stop-color:#F9CE5C"/>
			<stop  offset="1" style="stop-color:#FF7257"/>
		</linearGradient>
		<path class="st83" d="M391.2,139.8l-1.6,3.5c0.2,1.2,0.7,2.6,1.8,3.2l3.4-7.4C393.6,138.7,392.2,139.1,391.2,139.8z"/>
		<polygon class="st77" points="360.1,127.5 379.4,135.5 378.7,137 		"/>
	</g>
</g>
<g>
	<g>
		
			<linearGradient id="SVGID_62_" gradientUnits="userSpaceOnUse" x1="8511.5605" y1="-7605.252" x2="8514.2656" y2="-7605.252" gradientTransform="matrix(2.185 -1.0761 1.0761 2.185 -9452.1787 26272.0547)">
			<stop  offset="0" style="stop-color:#30ACFF"/>
			<stop  offset="0.2291" style="stop-color:#2CA7FF"/>
			<stop  offset="0.4985" style="stop-color:#2299FF"/>
			<stop  offset="0.787" style="stop-color:#1081FF"/>
			<stop  offset="1" style="stop-color:#006BFF"/>
		</linearGradient>
		<polygon class="st84" points="969.1,495.7 963.2,498.6 961.2,491.4 964.6,489.7 		"/>
		
			<linearGradient id="SVGID_63_" gradientUnits="userSpaceOnUse" x1="8510.0645" y1="-7602.6982" x2="8515.7617" y2="-7602.6982" gradientTransform="matrix(2.185 -1.0761 1.0761 2.185 -9452.1787 26272.0547)">
			<stop  offset="0" style="stop-color:#30ACFF"/>
			<stop  offset="0.2291" style="stop-color:#2CA7FF"/>
			<stop  offset="0.4985" style="stop-color:#2299FF"/>
			<stop  offset="0.787" style="stop-color:#1081FF"/>
			<stop  offset="1" style="stop-color:#006BFF"/>
		</linearGradient>
		<path class="st85" d="M969.1,495.7l-5.9,2.9c-1.1,1.8-1.8,4.2-1,6.2l12.4-6.1C973.5,496.8,971.1,495.9,969.1,495.7z"/>
		
			<linearGradient id="SVGID_64_" gradientUnits="userSpaceOnUse" x1="8511.2451" y1="-7607.3696" x2="8514.582" y2="-7607.3696" gradientTransform="matrix(2.185 -1.0761 1.0761 2.185 -9452.1787 26272.0547)">
			<stop  offset="0" style="stop-color:#30ACFF"/>
			<stop  offset="0.2291" style="stop-color:#2CA7FF"/>
			<stop  offset="0.4985" style="stop-color:#2299FF"/>
			<stop  offset="0.787" style="stop-color:#1081FF"/>
			<stop  offset="1" style="stop-color:#006BFF"/>
		</linearGradient>
		<path class="st86" d="M961.2,491.4l3.5-1.7c0.6-1,1-2.4,0.6-3.6l-7.3,3.6C958.6,490.7,960,491.3,961.2,491.4z"/>
		<polygon class="st77" points="977.6,520.4 967.7,502.1 969.1,501.3 		"/>
	</g>
</g>
<g>
	<g>
		
			<linearGradient id="SVGID_65_" gradientUnits="userSpaceOnUse" x1="8074.8638" y1="-8683.1797" x2="8077.5684" y2="-8683.1797" gradientTransform="matrix(-1.0261 2.209 -2.209 -1.0261 -9947.7041 -26229.4473)">
			<stop  offset="0" style="stop-color:#F9CE5C"/>
			<stop  offset="1" style="stop-color:#FF7257"/>
		</linearGradient>
		<polygon class="st87" points="941.7,522.2 944.5,516.2 950.6,520.5 948.9,524 		"/>
		
			<linearGradient id="SVGID_66_" gradientUnits="userSpaceOnUse" x1="8073.3672" y1="-8680.626" x2="8079.0645" y2="-8680.626" gradientTransform="matrix(-1.0261 2.209 -2.209 -1.0261 -9947.7041 -26229.4473)">
			<stop  offset="0" style="stop-color:#F9CE5C"/>
			<stop  offset="1" style="stop-color:#FF7257"/>
		</linearGradient>
		<path class="st88" d="M941.7,522.2l2.8-6c-0.3-2-1.3-4.4-3.1-5.5l-5.8,12.6C937.6,524,940,523.3,941.7,522.2z"/>
		
			<linearGradient id="SVGID_67_" gradientUnits="userSpaceOnUse" x1="8074.5479" y1="-8685.2979" x2="8077.8843" y2="-8685.2979" gradientTransform="matrix(-1.0261 2.209 -2.209 -1.0261 -9947.7041 -26229.4473)">
			<stop  offset="0" style="stop-color:#F9CE5C"/>
			<stop  offset="1" style="stop-color:#FF7257"/>
		</linearGradient>
		<path class="st89" d="M950.6,520.5l-1.6,3.5c0.2,1.2,0.7,2.6,1.8,3.2l3.4-7.4C953,519.4,951.6,519.9,950.6,520.5z"/>
		<polygon class="st77" points="919.6,508.2 938.8,516.3 938.1,517.8 		"/>
	</g>
</g>
<g>
	<g>
		
			<linearGradient id="SVGID_68_" gradientUnits="userSpaceOnUse" x1="8093.5542" y1="-8009.1045" x2="8101.5298" y2="-8009.1045" gradientTransform="matrix(2.520000e-02 -1.5097 1.5097 2.520000e-02 11998.2031 12679.5967)">
			<stop  offset="0" style="stop-color:#FB697D"/>
			<stop  offset="1" style="stop-color:#DB2276"/>
		</linearGradient>
		<path class="st90" d="M108.9,249.3l5.7,0.1c2,0,3.5,1.7,3.5,3.6l0,0c0,2-1.7,3.5-3.6,3.5l-14.6-0.2c-2.5,0-4.4-2.1-4.4-4.6l0,0
			c0-2.5,2.1-4.4,4.6-4.4l21.1,0.4c3,0,5.4,2.5,5.3,5.5v0c0,3-2.5,5.4-5.5,5.3l-20-0.3"/>
	</g>
</g>
<g>
	<g>
		
			<linearGradient id="SVGID_69_" gradientUnits="userSpaceOnUse" x1="7984.062" y1="-8247.6172" x2="7989.6943" y2="-8247.6172" gradientTransform="matrix(-1.1464 -1.4408 1.4408 -1.1464 21126.8809 2296.9321)">
			<stop  offset="0" style="stop-color:#30ACFF"/>
			<stop  offset="0.2291" style="stop-color:#2CA7FF"/>
			<stop  offset="0.4985" style="stop-color:#2299FF"/>
			<stop  offset="0.787" style="stop-color:#1081FF"/>
			<stop  offset="1" style="stop-color:#006BFF"/>
		</linearGradient>
		<path class="st91" d="M84.4,243.3l3.7-2.9c1.3-1,3.1-0.8,4.1,0.5h0c1,1.3,0.8,3.1-0.5,4.1l-9.4,7.5c-1.6,1.3-3.9,1-5.2-0.6l0,0
			c-1.3-1.6-1-3.9,0.6-5.2l13.5-10.8c1.9-1.5,4.7-1.2,6.2,0.7l0,0c1.5,1.9,1.2,4.7-0.7,6.2L84,253"/>
	</g>
</g>
<g>
	<g>
		
			<linearGradient id="SVGID_70_" gradientUnits="userSpaceOnUse" x1="8063.3721" y1="-7359.187" x2="8071.3472" y2="-7359.187" gradientTransform="matrix(2.520000e-02 -1.5097 1.5097 2.520000e-02 11998.2031 12679.5967)">
			<stop  offset="0" style="stop-color:#FB697D"/>
			<stop  offset="1" style="stop-color:#DB2276"/>
		</linearGradient>
		<path class="st92" d="M1089.3,311.3l5.7,0.1c2,0,3.5,1.7,3.5,3.6l0,0c0,2-1.7,3.5-3.6,3.5l-14.6-0.2c-2.5,0-4.4-2.1-4.4-4.6l0,0
			c0-2.5,2.1-4.4,4.6-4.4l21.1,0.4c3,0,5.4,2.5,5.3,5.5v0c0,3-2.5,5.4-5.5,5.3l-20-0.3"/>
	</g>
</g>
<g>
	<g>
		
			<linearGradient id="SVGID_71_" gradientUnits="userSpaceOnUse" x1="7626.1997" y1="-7851.8877" x2="7631.832" y2="-7851.8877" gradientTransform="matrix(-1.1464 -1.4408 1.4408 -1.1464 21126.8809 2296.9321)">
			<stop  offset="0" style="stop-color:#30ACFF"/>
			<stop  offset="0.2291" style="stop-color:#2CA7FF"/>
			<stop  offset="0.4985" style="stop-color:#2299FF"/>
			<stop  offset="0.787" style="stop-color:#1081FF"/>
			<stop  offset="1" style="stop-color:#006BFF"/>
		</linearGradient>
		<path class="st93" d="M1064.8,305.2l3.7-2.9c1.3-1,3.1-0.8,4.1,0.5h0c1,1.3,0.8,3.1-0.5,4.1l-9.4,7.5c-1.6,1.3-3.9,1-5.2-0.6l0,0
			c-1.3-1.6-1-3.9,0.6-5.2l13.5-10.8c1.9-1.5,4.7-1.2,6.2,0.7l0,0c1.5,1.9,1.2,4.7-0.7,6.2l-12.8,10.2"/>
	</g>
</g>
<g>
	<g>
		
			<linearGradient id="SVGID_72_" gradientUnits="userSpaceOnUse" x1="8181.2471" y1="-8062.5234" x2="8186.8789" y2="-8062.5234" gradientTransform="matrix(0.6728 -1.7139 1.7139 0.6728 8389.6504 19725.4785)">
			<stop  offset="0" style="stop-color:#F9CE5C"/>
			<stop  offset="1" style="stop-color:#FF7257"/>
		</linearGradient>
		<path class="st94" d="M77,271l4.4,1.7c1.5,0.6,2.2,2.3,1.6,3.8l0,0c-0.6,1.5-2.3,2.2-3.8,1.6l-11.2-4.4c-1.9-0.7-2.8-2.9-2.1-4.8
			l0,0c0.7-1.9,2.9-2.8,4.8-2.1l16.1,6.3c2.3,0.9,3.4,3.5,2.5,5.7l0,0c-0.9,2.3-3.5,3.4-5.7,2.5l-15.3-6"/>
	</g>
</g>
<g>
	<g>
		<g>
			
				<rect x="725.7" y="74.9" transform="matrix(0.6248 -0.7808 0.7808 0.6248 201.5593 603.4922)" class="st95" width="6" height="34.3"/>
		</g>
		
			<ellipse transform="matrix(0.4542 -0.8909 0.8909 0.4542 321.4663 653.7462)" class="st96" cx="694.3" cy="64.5" rx="25" ry="25"/>
		
			<ellipse transform="matrix(0.999 -4.456271e-02 4.456271e-02 0.999 -2.3644 30.3902)" class="st97" cx="680.4" cy="68.2" rx="7.7" ry="7.7"/>
		
			<rect x="748.3" y="94.5" transform="matrix(0.6248 -0.7808 0.7808 0.6248 195.5216 629.7217)" class="st98" width="9.2" height="33.8"/>
		<path class="st95" d="M763.3,125.6l9.7,7.8c2,1.6,4.9,1.3,6.5-0.7c1.6-2,1.3-4.9-0.7-6.5l-9.7-7.8L763.3,125.6z"/>
		<path class="st98" d="M670.9,45.8c-10.3,12.9-8.2,31.7,4.7,42c12.9,10.3,31.7,8.2,42-4.7c10.3-12.9,8.2-31.7-4.7-42
			C700.1,30.8,681.2,32.9,670.9,45.8z M714.8,80.9c-9.1,11.3-25.6,13.2-36.9,4.1c-11.3-9.1-13.2-25.6-4.1-36.9
			c9.1-11.3,25.6-13.2,36.9-4.1C722,53.1,723.8,69.6,714.8,80.9z"/>
	</g>
</g>
<g>
	<g>
		<path class="st99" d="M1039.5,114c-3.3-1.8-7.3-0.6-9.1,2.7l-41.3,76l66.8,36.3l38.1-70.1l3.2-5.9l3.2-5.9L1039.5,114z"/>
		<path class="st15" d="M1038.8,113.6c-3.1-1.2-6.7,0-8.3,3l-41.3,76v0c-1.6,3-0.7,6.7,2,8.7L1038.8,113.6z"/>
		<path class="st99" d="M1052.7,234.9l-60.9-33.1c-3.3-1.8-4.5-5.9-2.7-9.1l0,0c1.8-3.3,5.9-4.5,9.1-2.7l60.9,33.1L1052.7,234.9z"/>
		
			<linearGradient id="SVGID_73_" gradientUnits="userSpaceOnUse" x1="-7515.2354" y1="-7995.3081" x2="-7496.021" y2="-8028.5884" gradientTransform="matrix(1.0136 0.5523 -0.5523 1.0136 4207.2407 12477.7539)">
			<stop  offset="0" style="stop-color:#EDF3F5"/>
			<stop  offset="0.153" style="stop-color:#E0EBF6"/>
			<stop  offset="0.4327" style="stop-color:#BFD5F9"/>
			<stop  offset="0.495" style="stop-color:#B7D0FA"/>
			<stop  offset="1" style="stop-color:#EDF3F5"/>
		</linearGradient>
		<path class="st100" d="M992.6,200.4c-2.5-1.4-3.4-4.5-2.1-7c1.4-2.5,4.5-3.4,7-2.1l60.9,33.1l-4.9,9.1L992.6,200.4z"/>
		
			<rect x="1038.8" y="139.1" transform="matrix(0.8787 0.4774 -0.4774 0.8787 200.3349 -487.5104)" class="st15" width="41.2" height="22.7"/>
		
			<rect x="1042.4" y="164.7" transform="matrix(0.4774 -0.8787 0.8787 0.4774 386.5407 1010.7961)" class="st15" width="1.3" height="31.5"/>
		
			<rect x="1040.2" y="168.7" transform="matrix(0.4774 -0.8787 0.8787 0.4774 381.8457 1010.9742)" class="st15" width="1.3" height="31.5"/>
		
			<rect x="1038" y="172.7" transform="matrix(0.4774 -0.8787 0.8787 0.4774 377.1519 1011.1535)" class="st15" width="1.3" height="31.5"/>
		
			<rect x="1035.8" y="176.8" transform="matrix(0.4774 -0.8787 0.8787 0.4774 372.4557 1011.3306)" class="st15" width="1.3" height="31.5"/>
	</g>
</g>
<g>
	<g>
		<g>
			<path class="st101" d="M172.8,438.9c-0.1,0.1-0.2,0.2-0.3,0.4c-0.1,0.1-0.2,0.1-0.3,0.2c-0.2,0.2-0.4,0.3-0.7,0.5
				c-0.1,0.1-0.2,0.1-0.3,0.2c-0.2,0.1-0.5,0.2-0.7,0.4c-0.1,0-0.2,0.1-0.3,0.1c-0.1,0-0.3,0.1-0.4,0.1c-0.1,0-0.3,0.1-0.4,0.1
				c-0.1,0-0.2,0.1-0.3,0.1c-0.3,0.1-0.5,0.1-0.8,0.2c-0.1,0-0.2,0-0.3,0c-0.3,0-0.6,0.1-0.8,0c-0.1,0-0.2,0-0.3,0
				c-0.2,0-0.3,0-0.5-0.1l-0.8-7.5l3.3-1.1L172.8,438.9z"/>
			<g>
				<path class="st101" d="M166.6,433.2l1.7,7.9c-0.1,0-0.2,0-0.3,0l-1.7-7.8L166.6,433.2z"/>
				<path class="st101" d="M167.1,433l2.3,7.8c-0.1,0-0.2,0.1-0.3,0.1l-2.3-7.8L167.1,433z"/>
				<path class="st101" d="M166.1,433.4l1.1,7.8c-0.1,0-0.2,0-0.3,0l-1.1-7.7L166.1,433.4z"/>
				<path class="st101" d="M170.5,440.4c-0.1,0-0.2,0.1-0.3,0.1l-2.9-7.6l0.3-0.1L170.5,440.4z"/>
				<path class="st101" d="M171.5,439.9c-0.1,0.1-0.2,0.1-0.3,0.2l-3.5-7.3l0.3-0.1L171.5,439.9z"/>
				<path class="st101" d="M172.5,439.2c-0.1,0.1-0.2,0.1-0.3,0.2l-3.9-6.8l0.3-0.1L172.5,439.2z"/>
			</g>
			<path class="st102" d="M79.6,410.3L91,443.6c1.9,5.6,24.2,7.9,47.8-0.2c23.7-8.1,39.8-23.6,37.9-29.2l-11.4-33.3L79.6,410.3z"/>
			<polygon class="st33" points="90.1,406.6 80.8,413.8 85.5,427.6 133.3,427.2 171.2,398.2 166.5,384.4 154.7,384.5 			"/>
			<polygon class="st102" points="115.2,374.4 58.9,417.3 129.7,416.8 186,373.8 			"/>
			<polygon class="st103" points="186.8,376.3 186,373.8 129.7,416.8 58.9,417.3 59.7,419.8 130.8,420.1 			"/>
			<path class="st101" d="M168.8,432.4c0.1,0.3-0.5,0.9-1.4,1.2c-0.9,0.3-1.7,0.3-1.8,0c-0.1-0.3,0.5-0.9,1.4-1.2
				C167.9,432.1,168.7,432.1,168.8,432.4z"/>
			
				<rect x="164.6" y="428" transform="matrix(0.9461 -0.3238 0.3238 0.9461 -130.4606 77.0676)" class="st101" width="3.5" height="5.2"/>
			<path class="st104" d="M167.2,427.6c0.1,0.3-0.5,0.9-1.4,1.2c-0.9,0.3-1.7,0.3-1.8,0c-0.1-0.3,0.5-0.9,1.4-1.2
				C166.2,427.2,167,427.2,167.2,427.6z"/>
			<g>
				<path class="st105" d="M165.7,428.5c0.4-0.2,0.7-0.6,0.5-1.1l-10.1-29.6c-0.1-0.4-0.5-0.7-0.9-0.7l-32.7-2.4
					c-0.5,0-0.9,0.3-0.9,0.8c0,0.5,0.3,0.9,0.8,0.9l32.2,2.4l10,29.2C164.7,428.4,165.2,428.7,165.7,428.5z"/>
			</g>
			<path class="st103" d="M128,393.7c0.5,1.6-1.5,3.7-4.6,4.7c-3.1,1.1-6,0.6-6.6-0.9c-0.5-1.6,1.5-3.7,4.6-4.7
				C124.5,391.7,127.5,392.1,128,393.7z"/>
		</g>
	</g>
</g>
</svg>
