<?xml version="1.0" encoding="utf-8"?>
<!-- Generator: Adobe Illustrator 24.2.0, SVG Export Plug-In . SVG Version: 6.00 Build 0)  -->
<svg version="1.1" id="Layer_1" xmlns="http://www.w3.org/2000/svg" xmlns:xlink="http://www.w3.org/1999/xlink" x="0px" y="0px"
	 viewBox="0 0 2160 1842.2" style="enable-background:new 0 0 2160 1842.2;" xml:space="preserve">
<style type="text/css">
	.st0{fill:#C4C4C4;}
	.st1{fill:#FCCE87;}
	.st2{fill:#3F3D55;}
	.st3{fill:#B0173E;}
	.st4{fill:#FAE0B2;}
	.st5{fill:#314C5F;}
	.st6{fill:#70403E;}
	.st7{fill:#86B1F2;}
	.st8{fill:#E67817;}
	.st9{opacity:0.3;}
	.st10{fill:#263238;}
	.st11{opacity:0.33;}
	.st12{opacity:0.17;}
	.st13{opacity:0.34;}
	.st14{fill:#455A64;}
	.st15{fill:#EBEBEB;}
	.st16{opacity:0.31;}
	.st17{fill:#466EB6;}
	.st18{fill:#F7CC7F;}
</style>
<g>
	<path class="st0" d="M1859.2,1606.5c-36.3-141.2,40.1-200,155.6-254.4c107.3-50.6-31.7-151.5,113.8-287.8
		c61.2-57.3-106.4-83.8-190.7-31.2c-62.9,39.3-0.4,127.1-118.5,168.4c-74.1,25.9-217.4,145.6-311.7,166.7
		c-114.7,25.7-92,328.6,38.5,419.8C1668.4,1873.4,1896.9,1753.6,1859.2,1606.5z"/>
	<g>
		<g>
			<path class="st1" d="M2084.4,1040.8c-28.5,1.3-56.2,11.3-79.6,27.6c-23.2,16.2-42.5,38.3-54.6,64c-6.1,12.9-10.4,26.5-12.5,40.6
				c-2.7,18.5-1.7,37.5-6.1,55.8c-7.5,31.3-27,58-49.5,80.3c-24.7,24.5-53.7,44.1-81,65.5c-14,11-27.7,22.4-40.1,35.2
				c-12.8,13.1-24,27.7-35.5,41.9c-9.3,11.6-18.8,23.3-29.7,33.4c-6.2,5.7-12.8,11-19.5,16.1c-18.7,14.3-38.2,27.5-57.9,40.4
				c-21.5,14.1-43.4,27.8-65.4,41.2c-17.6,10.7-35.3,21.2-53.3,31.1c-3,1.7-6.1,3.3-9.1,4.9c-4.2,2.2-0.5,8.6,3.7,6.4
				c16.1-8.5,31.8-17.7,47.4-27c21.5-12.8,42.8-26,63.9-39.5c20.7-13.3,41.2-26.8,61.1-41.2c15.6-11.2,31-22.8,44.1-37
				c12.4-13.5,23.5-28.1,35.1-42.3c11.4-13.9,23.5-26.9,36.9-38.8c26.6-23.5,56.4-43.1,83.6-65.9c24.4-20.5,47.2-44.4,61.5-73.2
				c7.3-14.7,11.9-30.3,13.7-46.7c1.9-17.5,1.6-35.2,6-52.4c6.9-27.2,22.2-51.9,42.5-71.2c20.4-19.4,46-33.4,73.7-39.1
				c6.8-1.4,13.6-2.2,20.6-2.5C2089.1,1048,2089.1,1040.5,2084.4,1040.8L2084.4,1040.8z"/>
		</g>
	</g>
	<g>
		<g>
			<path class="st1" d="M1928,1263.7c9.8-10.4,19.9-21.1,31.4-29c6-4.2,12.5-7.4,19.2-10.1c7.1-2.9,14.1-5.9,20.3-10.4
				c6.7-4.8,12.5-10.7,17.2-17.4c1.1-1.6,0.3-4.1-1.3-5.1c-1.8-1.1-3.9-0.3-5.1,1.3c-3.5,5-8.7,10.4-13.6,14
				c-5.8,4.4-12.3,7.4-18.9,10.1c-7.1,2.8-13.8,6-20.2,10.2c-6.1,4.1-11.7,8.7-17.1,13.7c-6,5.6-11.6,11.5-17.2,17.5
				c-1.4,1.5-1.4,3.8,0,5.2C1924.2,1265,1926.7,1265.1,1928,1263.7L1928,1263.7z"/>
		</g>
	</g>
	<g>
		<g>
			<path class="st1" d="M1807.2,1379.4c4.2-0.8,7.8-3.5,10.7-6.6c2.9-3.3,5.5-7,8-10.5c5.1-7.2,9.8-14.7,13.3-22.9
				c3.6-8.6,5.8-17.5,5.8-26.8c0-5-0.5-10-0.4-15c0-2.1,0.2-4.2,0.4-6.3c0.2-1.6,0.6-3.9,1-5.9c2.1-9.6,6.1-18.2,12-26.1
				c1.2-1.6,0.3-4.1-1.3-5.1c-1.9-1.1-3.9-0.3-5.1,1.3c-5.3,7-9.2,14.9-11.6,23.3c-2.6,8.8-3.1,17.8-2.7,27
				c0.2,4.7,0.4,9.4-0.2,14.1c-0.1,0.8-0.1,0.5,0,0.3c0,0.3-0.1,0.6-0.1,0.8c-0.1,0.5-0.2,1-0.3,1.5c-0.2,1-0.4,2.1-0.7,3.1
				c-0.5,2.1-1.1,4.2-1.9,6.3c-1.4,3.9-3,7.4-5,11.2c-2.1,3.9-4.4,7.6-6.8,11.3c-1.4,2-2.8,4-4.2,6c-0.7,0.9-1.3,1.9-2,2.8
				c-0.4,0.5-0.7,1-1.1,1.5c-0.1,0.2-0.2,0.3-0.3,0.5c-0.7,1,0.2-0.2-0.2,0.3c-1.4,1.7-2.8,3.3-4.5,4.8c-0.5,0.4,0.4-0.3-0.1,0.1
				c-0.2,0.2-0.5,0.4-0.8,0.5c-0.4,0.3-0.8,0.5-1.3,0.7c-0.2,0.1-0.4,0.2-0.7,0.3c0.4-0.2,0,0-0.1,0c-0.6,0.2-1.2,0.3-1.8,0.5
				c-2,0.4-3.1,2.8-2.6,4.6C1803.3,1378.9,1805.3,1379.8,1807.2,1379.4L1807.2,1379.4z"/>
		</g>
	</g>
</g>
<g>
	<g>
		<path class="st1" d="M1545.7,1594.3c-1.9-26.7,2.2-53.2,11.9-78.2c9.5-24.3,25.3-45.8,40.7-66.9c8.8-12,17.5-24,25.2-36.7
			c1-1.7,0.4-4.1-1.3-5.1c-1.7-1-4-0.4-5.1,1.3c-13.7,22.8-30.9,43.2-45.6,65.4c-7.4,11.2-14,22.9-19.2,35.4
			c-5.2,12.4-9.1,25.4-11.5,38.7c-2.7,15.2-3.7,30.7-2.6,46.1c0.1,2,1.6,3.7,3.7,3.7C1543.9,1598,1545.9,1596.3,1545.7,1594.3
			L1545.7,1594.3z"/>
	</g>
</g>
<g>
	
		<ellipse transform="matrix(0.4161 -0.9093 0.9093 0.4161 -160.9976 2194.0667)" class="st2" cx="1628" cy="1222.4" rx="261.1" ry="120.4"/>
	<g>
		<g>
			<path class="st1" d="M1724.5,1002.1c-14.3,24.7-26,50.9-37.1,77.2c-13.6,32-26.1,64.5-38.6,97c-13.2,34.4-26.3,68.8-40.1,102.9
				c-13,32.3-26.6,64.3-42,95.6c-12.9,26.2-26.9,52.1-44.5,75.5c-1.8,2.4-3.5,4.5-5.4,6.9c-1.3,1.5-1.5,3.7,0,5.2
				c1.3,1.3,4,1.6,5.2,0c18.1-22.2,32.4-47.3,45.4-72.7c15.7-30.7,29.4-62.4,42.6-94.2c14-34.1,27.3-68.6,40.5-103
				c12.7-32.9,25.3-65.9,38.8-98.5c11.2-27.1,23-54.2,37.1-80c1.5-2.7,3-5.4,4.6-8.1C1733.2,1001.7,1726.8,998,1724.5,1002.1
				L1724.5,1002.1z"/>
		</g>
	</g>
	<g>
		<g>
			<path class="st1" d="M1664.9,1150.1c-1.8-24.2-3.6-49.1,0.2-73c1.1-6.8,2.6-13.5,4.7-20.1c0.6-1.9-0.7-4-2.6-4.6
				c-2-0.5-4,0.7-4.6,2.6c-7.5,23.9-7.9,49.2-6.6,74c0.4,7,0.9,14,1.4,21.1c0.1,2,1.6,3.7,3.7,3.7
				C1663.1,1153.8,1665.1,1152.1,1664.9,1150.1L1664.9,1150.1z"/>
		</g>
	</g>
	<g>
		<g>
			<path class="st1" d="M1561.7,1392.5c-0.6-8.4-2.5-16.6-4.3-24.8c-2.5-10.6-5.2-21.2-7.9-31.8c-2.9-11.4-5.8-22.9-8.4-34.4
				c-1.2-5.6-2.4-11.1-3.4-16.7c-0.5-2.6-0.9-5.3-1.3-7.9c-0.1-0.6-0.2-1.2-0.3-1.8c0-0.3-0.1-0.6-0.1-1c0-0.1-0.1-0.6,0-0.1
				c0.1,0.6,0-0.3,0-0.3c-0.2-1.2-0.3-2.4-0.4-3.7c-0.5-4.5-0.8-9.1-0.8-13.6c0-2,0.1-3.9,0.3-5.9c0-0.4,0.1-0.9,0.1-1.3
				c0.1-0.8-0.1,0.7,0,0.1c0-0.2,0.1-0.4,0.1-0.7c0.1-0.9,0.3-1.7,0.5-2.5c0.2-0.8,0.4-1.5,0.6-2.3c0.6-1.9-0.7-4-2.6-4.6
				c-2-0.5-4,0.7-4.6,2.6c-2.4,7.7-2.1,16.3-1.5,24.2c0.9,10.8,2.9,21.5,5.1,32.2c2.5,11.6,5.3,23.2,8.3,34.7
				c2.8,10.8,5.6,21.6,8.2,32.5c1.1,4.6,2.2,9.3,3.1,13.9c0.4,2,0.8,4.1,1.1,6.1c0.2,0.9,0.3,1.9,0.4,2.8c0.1,0.4-0.1,0.9,0-0.1
				c0,0.2,0.1,0.4,0.1,0.6c0.1,0.4,0.1,0.9,0.2,1.3c0.1,0.8,0.2,1.6,0.2,2.5c0.1,2,1.6,3.7,3.7,3.7
				C1559.8,1396.2,1561.8,1394.5,1561.7,1392.5L1561.7,1392.5z"/>
		</g>
	</g>
	<g>
		<g>
			<path class="st1" d="M1743,1165c-14.6,4.8-27,13.9-39.4,22.5c-6.3,4.4-12.7,8.6-19.5,12.2c-6.9,3.7-13.7,6.5-21.2,8.9
				c-8.3,2.7-17.3,4.7-25.7,5.7c-2,0.2-3.7,1.5-3.7,3.7c0,1.8,1.7,3.9,3.7,3.7c16.2-1.9,31.9-6.5,46.6-13.7
				c13.9-6.8,25.9-16.3,38.8-24.7c7.1-4.6,14.5-8.7,22.3-11.3c1.9-0.6,3.1-2.6,2.6-4.6C1747.1,1165.8,1744.9,1164.4,1743,1165
				L1743,1165z"/>
		</g>
	</g>
	<g>
		<g>
			<path class="st1" d="M1650.4,1373c-14.6,4.8-27,13.9-39.4,22.5c-6.3,4.4-12.7,8.6-19.5,12.2c-6.9,3.7-13.7,6.5-21.2,8.9
				c-8.3,2.7-17.3,4.7-25.7,5.7c-2,0.2-3.7,1.5-3.7,3.7c0,1.8,1.7,3.9,3.7,3.7c16.2-1.9,31.9-6.5,46.6-13.7
				c13.9-6.8,25.9-16.3,38.8-24.7c7.1-4.6,14.5-8.7,22.3-11.3c1.9-0.6,3.1-2.6,2.6-4.6C1654.4,1373.7,1652.3,1372.4,1650.4,1373
				L1650.4,1373z"/>
		</g>
	</g>
	<g>
		<g>
			<path class="st1" d="M1607.3,1289.3c-1.2-13.8-4.4-27.4-7-41c-0.7-3.5-1.3-7.1-1.9-10.6c-0.3-1.8-0.6-3.6-0.8-5.4
				c-0.1-0.5-0.1-0.9-0.2-1.4c0,0-0.1-0.6,0-0.3c0,0.3,0-0.3,0-0.3c-0.1-0.9-0.2-1.8-0.3-2.8c-0.8-6.7-1.2-13.5-0.9-20.3
				c0.1-1.6,0.2-3.2,0.4-4.8c0-0.2,0-0.3,0.1-0.5c0.1-0.6-0.1,0.5,0-0.1c0-0.3,0.1-0.7,0.2-1c0.1-0.8,0.3-1.6,0.4-2.4
				c0.4-2,0.9-4,1.3-6c0.9-4.5,1.6-9,2.3-13.5c1.8-11.7,3.1-23.5,4.2-35.3c0.9-9.8,1.7-19.8,1.4-29.6c0-0.8-0.1-1.7-0.1-2.5
				c-0.1-2-1.6-3.7-3.7-3.7c-1.9,0-3.9,1.7-3.7,3.7c0.7,9.3-0.1,18.7-0.9,27.9c-0.5,5.9-1.1,11.8-1.7,17.6c-0.3,3-0.7,5.9-1.1,8.9
				c-0.2,1.4-0.4,2.8-0.5,4.1c0.1-0.9,0,0.2-0.1,0.4c0,0.3-0.1,0.6-0.1,0.9c-0.1,0.7-0.2,1.4-0.3,2.1c-0.7,4.9-1.4,9.7-2.4,14.5
				c-0.9,4.8-2.1,9.5-2.7,14.4c-1.6,13.9,0.5,28.1,3,41.8c1.3,7.1,2.7,14.2,4.1,21.2c0.7,3.4,1.3,6.8,1.9,10.3
				c0.3,1.6,0.5,3.2,0.8,4.8c0.1,0.8,0.2,1.6,0.3,2.3c0,0.2,0.2,1.3,0.1,0.6c0.1,0.4,0.1,0.8,0.2,1.2c0.2,1.5,0.4,3.1,0.5,4.6
				c0.2,2,1.6,3.7,3.7,3.7C1605.5,1293,1607.5,1291.3,1607.3,1289.3L1607.3,1289.3z"/>
		</g>
	</g>
	<g>
		<g>
			<path class="st1" d="M1689.4,1303.4c-14.4,0.7-25.9,9.7-37,18c-5.8,4.3-11.8,8.3-18.4,11.5c-6.4,3.1-13.6,5.5-20.9,7
				c-4.1,0.9-7.6,1.3-11.8,1.6c-4.3,0.3-8.6,0.3-12.9,0c-2-0.1-3.7,1.8-3.7,3.7c0,2.1,1.7,3.6,3.7,3.7c15.4,1.1,31-1.7,45.2-7.7
				c6.8-2.9,13.1-6.6,19.1-10.9c5.6-4,11-8.4,16.9-12.1c1.6-1,3.2-2,4.8-2.8c0.8-0.4,1.7-0.9,2.6-1.3c0.4-0.2,0.8-0.4,1.2-0.5
				c0.4-0.2,0.1,0,0,0c0.2-0.1,0.5-0.2,0.7-0.3c1.8-0.7,3.6-1.3,5.4-1.7c0.9-0.2,1.7-0.4,2.6-0.5c-0.1,0-0.5,0.1,0,0
				c0.3,0,0.6-0.1,1-0.1c0.5,0,1-0.1,1.5-0.1c2-0.1,3.7-1.6,3.7-3.7C1693.1,1305.2,1691.4,1303.3,1689.4,1303.4L1689.4,1303.4z"/>
		</g>
	</g>
	<g>
		<g>
			<path class="st1" d="M1740.4,1056.4c-7.8,4.7-15.9,9.5-24.2,13c-8.2,3.5-16.8,5.7-25.6,5.5c-2,0-3.7,1.7-3.7,3.7
				c0,2,1.7,3.7,3.7,3.7c15.2,0.3,29.5-5.9,42.6-13.2c3.7-2.1,7.3-4.2,10.9-6.4c1.7-1,2.3-3.3,1.3-5.1
				C1744.5,1056,1742.2,1055.4,1740.4,1056.4L1740.4,1056.4z"/>
		</g>
	</g>
</g>
<g>
	
		<ellipse transform="matrix(0.7247 -0.689 0.689 0.7247 -605.71 1724.3279)" class="st2" cx="1855.3" cy="1620.3" rx="261.1" ry="120.4"/>
	<g>
		<g>
			<path class="st1" d="M2026.5,1452.1c-10.5,8.2-20.5,17-30.3,26c-11.2,10.3-22.1,21-32.9,31.8c-11.9,12-23.6,24.1-35.2,36.4
				c-12.3,13-24.5,26.1-36.7,39.2c-12.5,13.4-25,26.9-37.5,40.3c-12.6,13.5-25.3,26.9-38.1,40.2c-12.5,13-25,25.8-37.9,38.4
				c-12.1,11.9-24.3,23.5-36.9,34.8c-11.6,10.4-23.4,20.5-35.7,30.1c-10.4,8-21.8,16.2-33.4,23.1c-2.6,1.6-5.2,3.1-7.8,4.5
				c-4.2,2.3-0.4,8.7,3.7,6.4c11.6-6.4,22.6-13.8,33.2-21.6c12.3-9.1,24.2-18.8,35.7-28.8c12.6-10.9,24.8-22.3,36.8-33.9
				c12.8-12.3,25.3-24.9,37.7-37.7c12.8-13.2,25.5-26.5,38.1-39.9c12.7-13.5,25.2-27,37.8-40.6c12.3-13.3,24.6-26.5,37-39.7
				c11.8-12.5,23.6-25,35.6-37.2c11.1-11.3,22.3-22.5,33.8-33.4c10.1-9.5,20.3-18.8,31-27.6c2.3-1.9,4.7-3.8,7.1-5.7
				c1.6-1.2,1.3-3.9,0-5.2C2030.2,1450.5,2028.1,1450.8,2026.5,1452.1L2026.5,1452.1z"/>
		</g>
	</g>
	<g>
		<g>
			<path class="st1" d="M1916.7,1566.5c7.4-23.3,14.8-46.4,27.3-67.4c3.5-5.8,7.4-11.5,11.5-16.5c1.3-1.5,1.5-3.7,0-5.2
				c-1.3-1.3-4-1.6-5.2,0c-16.1,19.6-26,43.2-34.1,67.1c-2.3,6.6-4.4,13.3-6.5,20c-0.6,1.9,0.7,4,2.6,4.6
				C1914.1,1569.7,1916,1568.4,1916.7,1566.5L1916.7,1566.5z"/>
		</g>
	</g>
	<g>
		<g>
			<path class="st1" d="M1730.6,1753c2.4-7.7,3.7-15.8,5-23.8c1.7-11,3.1-22,4.5-33.1c0.2-1.5,0.4-2.9,0.6-4.4
				c0.1-0.7,0.2-1.5,0.3-2.2c0-0.3,0.1-0.6,0.1-0.9c0-0.3,0.2-1.4,0.1-0.6c0.4-2.9,0.8-5.9,1.2-8.8c0.8-5.8,1.7-11.7,2.7-17.5
				c1.8-10.7,3.8-21.5,6.7-31.9c1.2-4.4,2.6-8.7,4.3-12.9c0.1-0.2,0.2-0.5,0.3-0.7c0.2-0.4-0.2,0.4-0.2,0.4c0-0.1,0.1-0.3,0.2-0.4
				c0.2-0.5,0.4-0.9,0.6-1.4c0.4-0.9,0.8-1.7,1.3-2.6c0.8-1.6,1.7-3.1,2.7-4.5c0.2-0.3,0.5-0.7,0.7-1c0.4-0.5-0.1,0-0.2,0.2
				c0.1-0.2,0.3-0.4,0.4-0.5c1.3-1.5,1.5-3.7,0-5.2c-1.3-1.3-4-1.6-5.2,0c-5.3,6.5-8.3,14.6-10.8,22.5c-3.1,10.2-5.2,20.6-7.1,31.1
				c-2.1,11.9-3.7,24-5.3,36c-0.8,5.8-1.5,11.6-2.3,17.3c-0.1,0.6-0.2,1.3-0.3,1.9c0,0.3-0.1,0.7-0.1,1c0,0.1-0.1,0.6,0,0.1
				c0.1-0.6,0,0.3-0.1,0.4c-0.2,1.3-0.4,2.7-0.6,4c-0.4,2.6-0.7,5.2-1.1,7.8c-1.3,8.5-2.6,17.2-4.9,25.5c-0.2,0.8-0.4,1.5-0.7,2.3
				c-0.6,1.9,0.7,4,2.6,4.6C1728,1756.2,1730,1754.9,1730.6,1753L1730.6,1753z"/>
		</g>
	</g>
	<g>
		<g>
			<path class="st1" d="M1983,1609.8c-15.7-1-31,3.2-46.1,6.6c-7.4,1.7-14.8,3.1-22.2,3.8c-7.7,0.7-15.4,0.8-23.1,0.2
				c-8.5-0.6-16.8-2.1-25.1-4.3c-1.9-0.5-4,0.6-4.6,2.6c-0.5,1.9,0.6,4,2.6,4.6c15.2,4.1,31.2,5.7,46.9,4.6c8-0.5,15.9-1.8,23.8-3.5
				c7.5-1.6,14.9-3.5,22.5-5c8.4-1.6,16.7-2.7,25.3-2.1c2,0.1,3.7-1.8,3.7-3.7C1986.8,1611.4,1985.1,1610,1983,1609.8L1983,1609.8z"
				/>
		</g>
	</g>
	<g>
		<g>
			<path class="st1" d="M1819.6,1768.4c-15.7-1-31,3.2-46.1,6.6c-7.4,1.7-14.8,3.1-22.2,3.8c-7.7,0.7-15.4,0.8-23.1,0.2
				c-8.5-0.6-16.8-2.1-25.1-4.3c-1.9-0.5-4,0.6-4.6,2.6c-0.5,1.9,0.6,4,2.6,4.6c15.2,4.1,31.2,5.7,46.9,4.6c8-0.5,15.9-1.8,23.8-3.5
				c7.5-1.6,14.9-3.5,22.5-5c8.4-1.6,16.7-2.7,25.3-2.1c2,0.1,3.7-1.8,3.7-3.7C1823.3,1770,1821.6,1768.5,1819.6,1768.4
				L1819.6,1768.4z"/>
		</g>
	</g>
	<g>
		<g>
			<path class="st1" d="M1811.4,1674.3c3.8-12.6,5.8-25.6,8.3-38.5c1.3-6.9,2.8-13.7,4.5-20.5c0.8-3.2,1.8-6.5,2.8-9.7
				c0.5-1.6,1.1-3.1,1.6-4.7c0.3-0.7,0.5-1.4,0.8-2.1c0.1-0.4,0.3-0.8,0.5-1.1c0.1-0.2,0.1-0.3,0.2-0.5c0.2-0.5-0.2,0.5,0-0.1
				c2.2-5.1,5-9.8,8.2-14.4c2.5-3.7,4.9-7.6,7.2-11.4c6.1-10.2,11.8-20.7,17.2-31.3c4.8-9.3,9.5-18.8,13.1-28.7
				c0.3-0.8,0.6-1.6,0.8-2.5c0.6-1.9-0.7-4-2.6-4.6c-2-0.5-3.9,0.7-4.6,2.6c-0.6,1.8-1.2,3.5-1.9,5.3c-0.2,0.5-0.4,0.9-0.6,1.4
				c-0.1,0.3-0.2,0.5-0.3,0.8c0,0.1-0.1,0.2-0.1,0.3c-0.2,0.5,0.3-0.7,0.1-0.2c-0.5,1.1-1,2.2-1.5,3.3c-2.3,5.1-4.7,10.1-7.2,15.1
				c-5.4,10.7-11.1,21.3-17.1,31.6c-2.4,4.2-4.9,8.3-7.6,12.4c-2.7,4.2-5.6,8.2-7.8,12.8c-6,12.3-9.2,25.7-11.9,39.1
				c-2.7,13.1-4.7,26.3-8.1,39.2c-0.4,1.4-0.8,2.9-1.2,4.3c-0.6,1.9,0.7,4,2.6,4.6C1808.8,1677.4,1810.8,1676.2,1811.4,1674.3
				L1811.4,1674.3z"/>
		</g>
	</g>
	<g>
		<g>
			<path class="st1" d="M1881.8,1718.2c-14.4-5-29.5,0.2-43.7,3.8c-7,1.8-13.4,2.9-20.5,3.2c-7,0.3-13.9-0.2-20.4-1.5
				c-7.8-1.5-15.4-4-22.4-7.4c-1.8-0.9-4-0.5-5.1,1.3c-1,1.6-0.5,4.2,1.3,5.1c13.3,6.5,27.9,9.9,42.6,10c7.2,0,14.5-0.8,21.5-2.3
				c7.3-1.6,14.4-3.9,21.7-5.4c7.6-1.6,15.4-2.1,22.8,0.5c1.9,0.7,4-0.7,4.6-2.6C1884.9,1720.7,1883.6,1718.9,1881.8,1718.2
				L1881.8,1718.2z"/>
		</g>
	</g>
	<g>
		<g>
			<path class="st1" d="M2021.1,1508.2c-9,1.4-17.6,2.8-26.8,2.9c-8.8,0.2-17.5-0.8-25.4-4.1c-1.8-0.8-4-0.6-5.1,1.3
				c-0.9,1.6-0.5,4.3,1.3,5.1c14.2,6,29.7,5.8,44.8,3.9c4.4-0.6,8.8-1.2,13.2-1.9c2-0.3,3.1-2.8,2.6-4.6
				C2025,1508.7,2023,1507.9,2021.1,1508.2L2021.1,1508.2z"/>
		</g>
	</g>
</g>
<g>
	<path class="st3" d="M122.2,1452.7h1557.7c59.5,0,107.7,25.6,107.7,57.3v34.1c0,31.6-48.2,57.3-107.7,57.3H122.2l0,0
		c71.3-41.4,72.5-104.7,2.9-146.8L122.2,1452.7z"/>
	<path class="st4" d="M1034.7,1584.2H1688c45,0,81.5-25.6,81.5-57.3l0,0c0-31.6-36.5-57.3-81.5-57.3h-653.4
		C1065.2,1504.8,1065.1,1549.2,1034.7,1584.2z"/>
</g>
<g>
	<path class="st5" d="M1765.5,1601H181.3c-49.2,0-89.1,34.1-89.1,76.2v64.1c0,42.1,39.9,76.3,89.1,76.3h1584.2l-0.8-0.7
		C1696.9,1756.5,1697.2,1661,1765.5,1601z"/>
	<path class="st4" d="M1737.4,1633H890.6c-49.2,0-89.1,34.1-89.1,76.2v0c0,42.1,39.9,76.2,89.1,76.2h846.9
		C1706.3,1738.3,1706.3,1680.2,1737.4,1633z"/>
</g>
<g>
	<path class="st6" d="M276.8,1169.9h1242.9c47.5,0,86,20.5,86,45.7v27.2c0,25.2-38.5,45.7-86,45.7H276.8l0,0
		c56.9-33,57.8-83.5,2.3-117.2L276.8,1169.9z"/>
	<path class="st4" d="M1004.8,1274.9h521.3c35.9,0,65-20.5,65-45.7l0,0c0-25.2-29.1-45.7-65-45.7h-521.3
		C1029.2,1211.5,1029.1,1246.9,1004.8,1274.9z"/>
</g>
<g>
	<path class="st7" d="M1587.9,1288.2h-1264c-39.3,0-71.1,27.2-71.1,60.8v51.2c0,33.6,31.8,60.8,71.1,60.8h1264l-0.7-0.6
		C1533.2,1412.3,1533.5,1336.1,1587.9,1288.2z"/>
	<path class="st4" d="M1565.6,1313.8H889.8c-39.3,0-71.1,27.2-71.1,60.8v0c0,33.6,31.8,60.8,71.1,60.8h675.7
		C1540.7,1397.8,1540.7,1351.4,1565.6,1313.8z"/>
</g>
<g>
	<g>
		<g>
			<g>
				<g>
					<path class="st8" d="M1054,864.2l83.8-93.9l0.8,114.1l-25.2,73.2l250.8,43.5l10.6-197.9l18.1-152c2.2-18.6-8.4-36.4-25.9-43.3
						c0,0-68.6-13.5-87.1-15.3c-24.6-2.4-79.1,6-79.1,6l-39.1,14.9c-16.4,6.2-31,16.4-42.6,29.6l-117.7,134.6"/>
				</g>
			</g>
			<g class="st9">
				<g>
					<g>
						<path class="st10" d="M1136.4,879.6c-0.6,0-0.7-39.5-0.3-88.3c0.4-48.8,1.2-88.3,1.8-88.3c0.6,0,0.7,39.5,0.3,88.3
							C1137.7,840.1,1136.9,879.6,1136.4,879.6z"/>
					</g>
				</g>
			</g>
		</g>
		<g>
			<path class="st8" d="M1145.5,908.6l151.5-61c12.2-4.9,20.6-16.3,21.6-29.5l11.1-145.3c0,0-1.3-61.8,37.3-64.8l22,8.6
				c28.4,15.1,35.4,56.4,31.5,88.3c-5.5,45.3-7.8,109.5-13.9,148.8c-5,32.2-23.5,60.5-54.9,68.8L1165,962.9L1145.5,908.6z"/>
		</g>
		<g class="st11">
			<g>
				<path class="st10" d="M1327.6,695c-0.1,0-0.2,1.1-0.5,3.3c-0.2,2.4-0.6,5.6-1,9.6c-0.8,8.5-1.9,20.5-3.2,35.2
					c-1.3,14.9-2.8,32.6-4.5,52.3c-0.4,4.9-0.8,10-1.3,15.1c-0.5,5.2-0.8,10.4-1.9,15.5c-1.1,5.1-3.6,9.9-7.5,13.6
					c-3.9,3.7-8.8,6.4-14,8.7c-41.8,18.1-80.3,33-108.2,43.5c-13.9,5.1-25.2,9.3-33.2,12.2c-3.8,1.4-6.8,2.5-9,3.3
					c-2.1,0.8-3.1,1.2-3.1,1.3c0,0.1,1.1-0.2,3.2-0.9c2.3-0.7,5.3-1.7,9.2-3c7.9-2.6,19.4-6.6,33.4-11.6
					c28.1-10.1,66.7-24.8,108.6-43c5.2-2.4,10.3-5.1,14.5-9.1c4.2-3.9,7-9.3,8.1-14.6c1.2-5.4,1.5-10.7,1.9-15.8
					c0.4-5.2,0.8-10.2,1.2-15.1c1.5-19.7,2.9-37.4,4.1-52.3c1.1-14.8,1.9-26.8,2.6-35.3c0.2-4,0.4-7.2,0.6-9.6
					C1327.6,696.2,1327.7,695,1327.6,695z"/>
			</g>
		</g>
		<g class="st11">
			<g>
				<path class="st10" d="M1414.4,774c-0.1,0-0.2,0.7-0.3,2c-0.1,1.5-0.3,3.4-0.5,5.6c-0.5,5.2-1.1,12.1-1.8,20.6
					c-0.8,8.7-1.9,19-3.4,30.5c-1.6,11.4-3.4,24-6.8,36.8c-1.6,6.5-3.9,12.4-7.4,17.5c-3.5,5.2-7.3,9.8-11.3,13.9
					c-8,8.2-16.6,14.2-24.2,18.2c-15.5,8.1-26.8,8.2-26.6,8.7c0,0.1,0.7,0.1,2,0c1.3-0.1,3.2-0.2,5.6-0.7c4.8-0.9,11.8-2.7,19.7-6.7
					c7.9-3.9,16.7-9.9,24.9-18.2c4.1-4.1,8.1-8.8,11.6-14.1c3.6-5.3,6.1-11.7,7.7-18.1c3.5-13,5.3-25.6,6.7-37.1
					c1.4-11.5,2.3-21.9,3-30.6c0.6-8.7,1-15.8,1.2-20.7c0-2.3,0.1-4.1,0.1-5.6C1414.5,774.7,1414.5,774,1414.4,774z"/>
			</g>
		</g>
		<g class="st11">
			<g>
				<path class="st10" d="M1349.6,875.6c0.2-0.1-0.4-3.3-2.8-8.1c-2.3-4.8-6.5-10.9-12.7-16.2c-6.2-5.3-13-8.5-18-10
					c-5.1-1.5-8.4-1.7-8.4-1.5c-0.1,0.3,3.1,1,7.9,2.8c4.8,1.8,11.2,5.1,17.2,10.2c6,5.1,10.2,10.9,12.8,15.4
					C1348.2,872.7,1349.3,875.8,1349.6,875.6z"/>
			</g>
		</g>
		<g class="st12">
			<g>
				<path d="M1189.1,891.3c16.2-9.2,32.1-16.2,49-23.9c16.9-7.7,33.5-17.6,44.6-32.5c20.9-28.2,18.5-68.9,39.9-96.7
					c-1.4,18.7-2.8,37.4-4.2,56.1c-1.3,17.1,1.3,34.1-9.7,45.7c-9.3,9.8-27.4,17.3-40.3,21.6
					C1242.7,870.1,1214.9,882.8,1189.1,891.3"/>
			</g>
		</g>
	</g>
	<g>
		<g>
			<g>
				<path class="st8" d="M925.8,1104.8c0,0-126.8,35.1-131.9,36.9c-7.6,2.7-6.4,30.7,5.5,30.2c5.6-0.2,97.4,3.4,109,2.7
					c11.6-0.7,46.6-14.5,46.6-14.5L925.8,1104.8z"/>
			</g>
		</g>
	</g>
	<g>
		<g>
			<g>
				<path class="st8" d="M1060.4,1069.8c0,0,120,78.6,124.3,81.8c6.5,4.9-0.9,28.1-12.1,24.1c-5.3-1.9-106-29.9-116.8-34.1
					c-10.8-4.2-40-28-40-28L1060.4,1069.8z"/>
			</g>
		</g>
	</g>
	<g>
		<g>
			<g>
				<path class="st8" d="M811.1,878.2c0,0-36,12.9-36.1,53.2c-0.3,77.3,156.2,162.5,156.2,162.5l208.2-138l13.1-5.3
					C1152.4,950.7,871.3,845.1,811.1,878.2z"/>
			</g>
		</g>
		<g class="st13">
			<g>
				<g>
					<path class="st14" d="M1033.9,1025.7c-0.1,0.1-2-1.2-5.4-3.7c-3.4-2.5-8.3-6.1-14.2-10.8c-11.9-9.2-28.1-22.3-45.6-37.3
						c-17.4-15-32.8-29.1-43.7-39.4c-5.5-5.2-9.8-9.5-12.8-12.5c-3-3-4.6-4.7-4.5-4.8c0.1-0.1,1.9,1.4,5,4.2
						c3.4,3.1,7.9,7.1,13.2,12c11.2,10.1,26.7,24,44.1,38.9c17.4,15,33.5,28.2,45.1,37.7c5.6,4.6,10.3,8.4,13.8,11.3
						C1032.2,1024,1034,1025.6,1033.9,1025.7z"/>
				</g>
			</g>
		</g>
		<g class="st13">
			<g>
				<g>
					<path class="st14" d="M869.8,907.1c-0.1-0.5,9.2-1.4,20.1,1.8c10.9,3.2,18.2,9,17.8,9.4c-0.3,0.6-7.9-4.3-18.4-7.3
						C878.8,907.8,869.8,907.8,869.8,907.1z"/>
				</g>
			</g>
		</g>
		<g class="st13">
			<g>
				<g>
					<path class="st14" d="M887.8,894.9c0.2-0.5,6.9,2.4,12.3,9.3c5.5,6.8,7,13.9,6.5,14c-0.6,0.2-2.9-6.3-8.1-12.7
						C893.3,899.1,887.4,895.5,887.8,894.9z"/>
				</g>
			</g>
		</g>
	</g>
	<g>
		<g>
			<polygon class="st14" points="859,751.9 933.1,940 1252.5,945.2 1258.4,927.9 1146.5,923.8 1092.7,757 			"/>
		</g>
		<g>
			<path class="st15" d="M1008.1,833.3c-4.1-2.8-11.7-1.7-15.4,1.6c-3.7,3.3-4.9,9-3,13.6c1.9,4.6,6.6,7.8,11.5,8.1
				c5.3,0.3,10.7-3,12.2-8.1C1014.9,843.5,1013.3,836,1008.1,833.3"/>
		</g>
	</g>
	<g>
		<g>
			<g>
				<path class="st8" d="M911.4,1103.3c0,0,294.2-193,306.3-197c12-4,41.2-23.1,70.3-15.1c29.1,8,55.2,34.1,68.3,72.3
					c7.5,21.8,11,59,12.6,86.9c2,33.3-8.3,66.6-30.2,91.9c-9.9,11.5-22.2,21.5-36.7,26c-3.1,1-6.2,1.8-9.5,2.5
					c-55.6,12.1-112.8-12.9-144-60.5l-6.9-10.4c0,0-192.5,70.7-195.5,69.7L911.4,1103.3z"/>
			</g>
		</g>
		<g class="st16">
			<g>
				<g>
					<path class="st14" d="M910.9,1104.8c1-0.7,2.2-1.4,3.3-2c87.3-55.7,165.3-105.5,221.8-141.6c28.3-18.2,51.2-32.9,67.1-43.1
						c7.8-5.1,13.9-9,18.1-11.8c2-1.3,3.5-2.4,4.7-3.1c0.6-0.4,38.1-24.8,79.1-1.3c32.1,18.4,56.9,84.7,56.9,84.7
						s-21.3-97.4-99.1-97.4c-14.7,0-39.8,15.5-41.9,16.7c-4.3,2.7-10.4,6.5-18.3,11.4c-15.9,10.1-38.9,24.6-67.4,42.5
						c-57,36.2-136.1,86.4-224.4,142.5l-0.8,0.5l0.5,0.9C910.6,1104.1,910.8,1104.5,910.9,1104.8z"/>
					<path class="st14" d="M1273.7,1050.8c-1.2,0.4-2.8,1-4.9,1.7c-4.4,1.6-10.7,3.9-18.8,6.8c-16.4,6-40.1,14.7-69.5,25.5
						c-29.6,10.8-64.9,23.6-104.4,38c-39.4,14.2-83,29.8-129.5,45.5c-0.5-0.9-1-1.9-1.5-2.8c-0.6,0.3-1.4,0.4-2,0.7
						c0.7,1.3,1.4,2.6,2,3.9l0.4,0.8l0.9-0.3c46.8-15.9,90.7-31.7,130.3-46c39.6-14.4,74.8-27.5,104.3-38.4
						c29.3-11.1,53-19.9,69.3-26.1c8-3.1,14.3-5.5,18.7-7.2c2.1-0.8,3.7-1.5,4.8-1.9c1.1-0.4,1.6-0.7,1.6-0.7
						S1274.8,1050.4,1273.7,1050.8z"/>
				</g>
			</g>
		</g>
	</g>
</g>
<circle class="st8" cx="1255.7" cy="489" r="92.3"/>
<g>
	<path class="st17" d="M1168.5,358.5c12.2,2.8,38.4,18,65.6,24.4c15.9,3.8,23.6-2.8,39-8.1c73.2-25,61.3-1.8,70.2-4.4
		c0.3,6.6,0.8,62.8,1.2,74c0.4,10.3-4.2,17.3-14.1,20.5c-15.3,4.9-30.4,10.4-46,14.1c-39.9,9.6-68.7,1.2-105.1-8.2
		c-9.7-2.5-14.9-8.9-15.3-18.9C1162.2,405.6,1168.4,362.9,1168.5,358.5z"/>
	<path class="st7" d="M1377.3,421.9c7,15.2,9.6,17.7,2,18.5c-4.6,0.5-9.2,0.5-13.8,0.4c-3.2-0.1-4.2-1.8-3.1-4.9
		c1.6-4.6,3.3-9.1,4.9-13.6c-5.1-4.8-5.8-12.9-1.9-18.9c0.8-1.2,0.7,0.6-0.4-26.2c-33.7,11.4-57.5,19.6-98.7,33.6
		c-11,3.7-22.2,4.2-33.5,1.3c-39-9.8-77.9-19.7-116.9-29.5c-5.3-1.3-8-5.7-6.7-10.7c1-3.8,3.9-5.4,7.4-6.6
		c9.4-3.2,101.6-34.3,110.9-37.5c12.3-4.2,24.6-4.8,37.2-1.6c38.3,9.7,76.6,19.2,114.9,28.9c5.3,1.3,7.7,3.7,8,7.8
		c0.4,4.5-1.9,7.9-7.1,9.1c-3.8,0.9-4.8,2.7-4.5,6.5c1.6,17-0.6,22,3.2,26.6C1382.3,408.7,1380.9,418.1,1377.3,421.9z"/>
</g>
<g>
	<path class="st18" d="M1564.3,140.3c-67.6-23.5-133.2,40.4-103.1,100.6c5.4,10.8,6.1,23.1,2.4,34.5l-12.6,39.2
		c-3.5,10.8,2.7,22.2,14.3,26.3l25.6,8.9c11.6,4,24.6-0.7,29.9-10.9c19.5-37.1,23.7-52.1,46.4-61.1
		C1633.9,251.3,1632,163.8,1564.3,140.3z"/>
	<g>
		<path class="st4" d="M1474.6,293.4c15.4-32.4,30.3-67.4,34.2-77.5c-36.5-17-1.3-43.8,6.2-21.3c2.1,6.4,0.9,12.9-1.4,19.5
			c12.4,5.3,25.8,8.3,39.4,9c4.2-7.8,7.1-13.9,12.4-17.4c8.1-5.4,19.4-2,19,7.2c-0.2,3.5-2.1,7-5,9.2c-6.2,4.7-15.9,4.9-24.1,4.7
			c-13.6,25.1-26.6,50.7-38.7,76.4l-3.6-1.4c11.9-25.2,24.7-50.5,38-75.2c-13.4-0.8-26.6-3.9-38.8-9c-5,12.9-19.7,46.9-34.2,77.4
			L1474.6,293.4z M1496.6,199.8c1.2,4.7,5.6,8.9,13.4,12.7c2-5.9,3-11.5,1.2-16.9C1507.2,183.5,1494.6,191.8,1496.6,199.8z
			 M1567.7,208.4c-4.5,3-7.1,8.5-10.4,14.7c6.7,0.1,14.7-0.1,19.7-3.9c3.5-2.7,5-8.2,1.8-11.1
			C1578.4,207.9,1570.9,206.3,1567.7,208.4z"/>
	</g>
	<path class="st6" d="M1464,274.4c-0.1,0.3-0.2,0.7-0.3,1l-12.6,39.2c-3.5,10.8,2.7,22.2,14.3,26.3l25.6,8.9
		c11.6,4,24.6-0.7,29.9-10.9c8.7-16.5,14.3-28.6,19.9-37.8L1464,274.4z"/>
	<g>
		<path class="st4" d="M1535,90.4l1.2-40.4c0.1-3.9,3.7-7,8-6.9c4.3,0.1,7.7,3.4,7.6,7.3l-1.2,40.4c-0.1,3.9-3.7,7-8,6.9
			C1538.3,97.6,1534.9,94.3,1535,90.4z"/>
	</g>
	<g>
		<path class="st4" d="M1447.2,143.1l-38.2-24.6c-3.5-2.3-4.3-6.7-1.9-9.9c2.5-3.2,7.3-4,10.9-1.7l38.2,24.6
			c3.5,2.3,4.3,6.7,1.9,9.9C1455.5,144.6,1450.7,145.4,1447.2,143.1z"/>
	</g>
	<g>
		<path class="st4" d="M1335.3,234.1c-1.1-3.8,1.4-7.7,5.6-8.6c15.6-3.6,31.6-5.9,47.7-6.8c4.3-0.2,8,2.7,8.2,6.6
			c0.3,3.9-3,7.3-7.3,7.5c-15.1,0.8-30.1,3-44.8,6.4C1340.7,240.2,1336.4,237.9,1335.3,234.1z"/>
	</g>
	<g>
		<path class="st4" d="M1635.4,141.5c-3-2.8-3-7.3,0-10c14.5-13.1,27.6-27.6,38.8-43.1c2.4-3.3,7.2-4.2,10.8-2
			c3.6,2.2,4.6,6.5,2.2,9.8c-11.8,16.3-25.6,31.6-40.8,45.4C1643.4,144.3,1638.4,144.3,1635.4,141.5z"/>
	</g>
	<g>
		<path class="st4" d="M1646.7,210.5c1-3.8,5.2-6.2,9.4-5.2l49.2,10.7c4.2,0.9,6.8,4.7,5.8,8.5c-1,3.8-5.2,6.2-9.4,5.2l-49.2-10.7
			C1648.3,218.2,1645.7,214.4,1646.7,210.5z"/>
	</g>
	<g>
		<path class="st4" d="M1650.4,348.2c-0.6-0.3-1.2-0.7-1.7-1.2c-12.1-11.4-22.9-24-32.1-37.5c-2.3-3.3-1.1-7.7,2.5-9.8
			c3.7-2.1,8.5-1,10.7,2.3c8.6,12.6,18.7,24.4,30,35.1c3,2.8,2.9,7.3-0.2,10C1657.2,349.5,1653.3,349.8,1650.4,348.2z"/>
	</g>
</g>
</svg>
