<?xml version="1.0" encoding="utf-8"?>
<!-- Generator: Adobe Illustrator 24.2.0, SVG Export Plug-In . SVG Version: 6.00 Build 0)  -->
<svg version="1.1" id="Layer_1" xmlns="http://www.w3.org/2000/svg" xmlns:xlink="http://www.w3.org/1999/xlink" x="0px" y="0px"
	 viewBox="0 0 890 768" style="enable-background:new 0 0 890 768;" xml:space="preserve">
<style type="text/css">
	.st0{clip-path:url(#SVGID_2_);}
	.st1{fill:#E1E1E1;}
	.st2{fill:#DBB277;}
	.st3{fill:#C6A06D;stroke:#CC8D42;stroke-width:22.6821;stroke-miterlimit:10;}
	.st4{fill:#AD8F68;}
	.st5{fill:#FFFFFF;}
	.st6{opacity:0.33;fill:url(#SVGID_3_);}
	.st7{opacity:0.33;fill:url(#SVGID_4_);}
	.st8{fill:#FCEEDB;}
	.st9{fill:#FBB77B;}
	.st10{fill:#E6864B;}
	.st11{fill:#DD6843;}
	.st12{fill:#F78460;}
	.st13{fill:#FFD085;}
	.st14{fill:#FEEDC5;}
	.st15{fill:#7EBAE0;}
	.st16{fill:#A2D9FD;}
	.st17{fill:#6CA3EA;}
	.st18{fill:#6D4D0B;}
	.st19{fill:#895454;}
	.st20{fill:#70403E;}
	.st21{fill:#FF912B;}
	.st22{fill:#FF9D5D;}
	.st23{fill:#FFAE73;}
	.st24{fill:#D44B40;}
	.st25{fill:#2A3967;}
	.st26{fill:#0D458E;}
	.st27{fill:#262626;}
	.st28{fill:#A3A6A8;}
	.st29{fill:#0B3563;}
	.st30{fill:#004FAA;}
	.st31{fill:#F1DDCB;}
	.st32{fill:#FFEBD8;}
	.st33{fill:#E67817;}
	.st34{opacity:0.38;fill:#626363;}
	.st35{fill:#4F273D;}
	.st36{fill:#FBD5A2;}
	.st37{fill:#FCFCFB;}
	.st38{fill:none;stroke:#6D4D0B;stroke-width:1.1653;stroke-miterlimit:10;}
	.st39{fill:#C9C9C9;}
	.st40{opacity:0.29;fill:#C6A06D;stroke:#CC8D42;stroke-width:3.629;stroke-miterlimit:10;}
	.st41{opacity:0.32;fill:#FCEEDB;}
	.st42{fill:#4F402F;}
	.st43{opacity:0.43;fill:#FACC85;}
	.st44{font-family:'Alittlesunshine';}
	.st45{font-size:52.258px;}
	.st46{fill:#1E3865;}
	.st47{fill:#F48F4E;}
	.st48{fill:#E8F2FA;}
	.st49{fill:#FC7600;}
	.st50{fill:#10518A;}
	.st51{fill:#004682;}
	.st52{fill:#042444;}
	.st53{fill:#C96A36;}
	.st54{fill:none;stroke:#FFFFFF;stroke-width:0.3824;stroke-miterlimit:10;}
	.st55{fill:none;stroke:#FFFFFF;stroke-width:0.4363;stroke-miterlimit:10;}
	.st56{fill:#E2B983;}
</style>
<g>
	<defs>
		<rect id="SVGID_1_" x="-1" width="891" height="768"/>
	</defs>
	<clipPath id="SVGID_2_">
		<use xlink:href="#SVGID_1_"  style="overflow:visible;"/>
	</clipPath>
	<g class="st0">
		<path class="st1" d="M1123,721.7H-251.6v-646H1123V721.7z"/>
		<rect x="-251.6" y="-174.3" class="st2" width="1374.6" height="1100.6"/>
		<polygon class="st3" points="1075.1,926.3 -454.2,926.3 -382.6,609.6 -122.5,543.8 1075.1,543.8 		"/>
		<g>
			<g>
				<g>
					<path class="st4" d="M803,486.7c0,11.9,9.7,21.5,21.5,21.5c11.9,0,21.5-9.7,21.5-21.5V486h-43V486.7z M844.6,487.5
						c-0.4,10.7-9.2,19.3-20,19.3c-10.8,0-19.6-8.6-20-19.3H844.6z"/>
					<path class="st4" d="M802.9,486.7c0,12,9.7,21.7,21.7,21.7c12,0,21.7-9.7,21.7-21.7v-0.9h-43.4V486.7z M803.2,486.2h42.7v0.6
						c0,11.8-9.6,21.3-21.3,21.3c-11.8,0-21.3-9.6-21.3-21.3V486.2z"/>
					<path class="st4" d="M824.6,507c5.3,0,10.2-2,14-5.7c3.8-3.7,6-8.6,6.2-13.8l0-0.2h-40.4l0,0.2c0.2,5.2,2.4,10.1,6.2,13.8
						C814.3,504.9,819.3,507,824.6,507z M844.4,487.7c-0.5,10.6-9.2,18.9-19.8,18.9c-10.7,0-19.3-8.3-19.8-18.9H844.4z"/>
				</g>
			</g>
			<g>
				<g>
					<path class="st4" d="M827.8,439.3l-30.4,30.4l0.5,0.5c4.1,4.1,9.5,6.3,15.2,6.3c5.7,0,11.2-2.2,15.2-6.3
						c4.1-4.1,6.3-9.5,6.3-15.2c0-5.7-2.2-11.2-6.3-15.2L827.8,439.3z M827.3,469.2c-3.8,3.8-8.8,5.9-14.2,5.9
						c-5.1,0-9.9-1.9-13.6-5.3l28.3-28.3c3.5,3.7,5.3,8.5,5.3,13.6C833.1,460.3,831,465.4,827.3,469.2z"/>
					<path class="st4" d="M827.8,441.1l-0.1,0.1l-28.4,28.4l0.1,0.1c3.7,3.5,8.6,5.4,13.8,5.4c5.4,0,10.5-2.1,14.3-5.9
						c3.8-3.8,5.9-8.9,5.9-14.3c0-5.1-1.9-10-5.4-13.8L827.8,441.1z M827.1,469c-3.7,3.7-8.7,5.8-14,5.8c-5,0-9.7-1.8-13.4-5.2
						l28-28c3.3,3.7,5.2,8.4,5.2,13.4C832.9,460.3,830.9,465.3,827.1,469z"/>
					<path class="st4" d="M827.8,439l-30.7,30.7l0.7,0.7c4.1,4.1,9.6,6.4,15.4,6.4c5.8,0,11.3-2.3,15.4-6.4
						c4.1-4.1,6.4-9.6,6.4-15.4c0-5.8-2.3-11.3-6.4-15.4L827.8,439z M828.2,470.1c-4,4-9.4,6.2-15.1,6.2c-5.7,0-11.1-2.2-15.1-6.2
						l-0.4-0.4l30.2-30.2l0.4,0.4c4,4,6.2,9.4,6.2,15.1C834.4,460.7,832.2,466.1,828.2,470.1z"/>
				</g>
			</g>
			<g>
				<g>
					<path class="st4" d="M764.5,457.8c-4.1,4.1-6.3,9.5-6.3,15.2s2.2,11.2,6.3,15.2c4.1,4.1,9.5,6.3,15.2,6.3
						c5.7,0,11.2-2.2,15.2-6.3l0.5-0.5L765,457.3L764.5,457.8z"/>
				</g>
			</g>
			<g>
				<g>
					<rect x="803" y="486.7" class="st4" width="1.5" height="51.6"/>
					<path class="st4" d="M802.9,538.5h1.9v-52h-1.9V538.5z M803.2,486.9h1.1v51.2h-1.1V486.9z"/>
				</g>
			</g>
			<g>
				<g>
					<rect x="798.2" y="470" class="st4" width="1.5" height="68.4"/>
					<path class="st4" d="M798,538.5h1.9v-68.7H798V538.5z M798.3,470.2h1.1v68h-1.1V470.2z"/>
				</g>
			</g>
			<g>
				<g>
					<rect x="793.1" y="488" class="st4" width="1.5" height="50.2"/>
					<path class="st4" d="M792.9,538.4h1.9v-50.6h-1.9V538.4z M793.3,488.2h1.1V538h-1.1V488.2z"/>
				</g>
			</g>
			<g>
				<g>
					<path class="st5" d="M781.9,557.9c0,5.2,4.2,9.3,9.3,9.3h15.3c5.2,0,9.3-4.2,9.3-9.3v-20.5h-33.9V557.9z"/>
				</g>
			</g>
		</g>
		<linearGradient id="SVGID_3_" gradientUnits="userSpaceOnUse" x1="-69.2394" y1="566.5361" x2="-69.2394" y2="703.9652">
			<stop  offset="0" style="stop-color:#FFFFFF"/>
			<stop  offset="1" style="stop-color:#231F20"/>
		</linearGradient>
		<rect x="-93.7" y="567.2" class="st6" width="49" height="154.5"/>
		<linearGradient id="SVGID_4_" gradientUnits="userSpaceOnUse" x1="757.541" y1="566.5533" x2="757.541" y2="703.9672">
			<stop  offset="0" style="stop-color:#FFFFFF"/>
			<stop  offset="1" style="stop-color:#231F20"/>
		</linearGradient>
		<rect x="733.5" y="567.2" class="st7" width="48" height="154.5"/>
		<g>
			<rect x="555.5" y="257.1" class="st8" width="206.1" height="151.8"/>
			<rect x="310.3" y="257.1" class="st8" width="240.8" height="151.8"/>
			<rect x="99.8" y="257.1" class="st8" width="206.1" height="151.8"/>
			<rect x="305.9" y="257.1" class="st4" width="4.4" height="151.8"/>
			<rect x="551.1" y="257.1" class="st4" width="4.4" height="151.8"/>
			<rect x="99.8" y="408.9" class="st4" width="661.8" height="9.3"/>
		</g>
		<g>
			<g>
				<path class="st9" d="M936.7,563.1h-59.6c-2.1,0-3.8,1.7-3.8,3.8v4c0,2.1,1.7,3.8,3.8,3.8h59.6c2.1,0,3.8-1.7,3.8-3.8v-4
					C940.5,564.8,938.8,563.1,936.7,563.1z"/>
				<path class="st10" d="M994.4,563.1h-76c-2.1,0-3.8,1.7-3.8,3.8v4c0,2.1,1.7,3.8,3.8,3.8h76c2.1,0,3.8-1.7,3.8-3.8v-4
					C998.2,564.8,996.5,563.1,994.4,563.1z"/>
				<rect x="993.3" y="525.5" class="st5" width="5.4" height="120.5"/>
				<rect x="914.6" y="525.5" class="st5" width="5.4" height="120.5"/>
				<rect x="873.4" y="563.1" class="st5" width="5.4" height="82.9"/>
				<path class="st10" d="M986.8,467h-60.3c-6.6,0-11.9,5.3-11.9,11.9v53.5h84.1v-53.5C998.7,472.3,993.4,467,986.8,467z"/>
			</g>
		</g>
		<g>
			<g>
				<g>
					<rect x="-9.2" y="404.7" class="st11" width="28.2" height="43.8"/>
					<rect x="-9.2" y="404.7" class="st12" width="6.7" height="43.8"/>
				</g>
				<g>
					<rect x="2.3" y="404.7" class="st13" width="28.2" height="43.8"/>
					<rect x="2.3" y="404.7" class="st14" width="6.7" height="43.8"/>
				</g>
				<g>
					<rect x="13.9" y="412.9" class="st15" width="28.2" height="35.6"/>
					<rect x="13.9" y="412.9" class="st16" width="6.7" height="35.6"/>
				</g>
			</g>
			<g>
				<g>
					<g>
						<path class="st17" d="M133.6,489.1H66.3c-4.4,0-8-3.6-8-8l0,0h75.2V489.1z"/>
						<g>
							<polygon class="st18" points="97.7,546.8 93.1,546.8 91.8,489.1 98.8,489.1 							"/>
							<polygon class="st18" points="117.4,546.8 73.2,546.8 73.2,542.9 95.7,540.8 117.4,542.9 							"/>
							<path class="st18" d="M68.9,546.2c0-2,1.6-3.6,3.6-3.6c2,0,3.6,1.6,3.6,3.6c0,2-1.6,3.6-3.6,3.6
								C70.6,549.9,68.9,548.2,68.9,546.2z"/>
							<path class="st18" d="M113.1,546.2c0-2,1.6-3.6,3.6-3.6c2,0,3.6,1.6,3.6,3.6c0,2-1.6,3.6-3.6,3.6
								C114.7,549.9,113.1,548.2,113.1,546.2z"/>
							<path class="st18" d="M110.1,492.9H80.5c-2.1,0-3.8-1.7-3.8-3.8l0,0h37.2l0,0C113.9,491.2,112.2,492.9,110.1,492.9z"/>
						</g>
						<path class="st19" d="M64.6,489.1c-3.5,0-6.3-2.8-6.3-6.3v-50.4c0-10,6.5-18.1,14.6-18.1h32.9c8,0,14.6,8.1,14.6,18.1v56.7
							H64.6z"/>
						<path class="st20" d="M65.3,489.1c-1.9,0-3.5-1.5-3.5-3.5v-53.2c0-10,6.5-18.1,14.6-18.1h32.9c8,0,14.6,8.1,14.6,18.1v13.7v43
							H65.3z"/>
						<path class="st21" d="M141.6,489.1H61c-2.2,0-4-1.8-4-4l0,0c0-2.2,1.8-4,4-4h80.5c2.2,0,4,1.8,4,4l0,0
							C145.6,487.3,143.8,489.1,141.6,489.1z"/>
					</g>
				</g>
				<g>
					<path class="st22" d="M113.6,384.1c0,0,5,7.5,7.9,23.2c2.5,13.7,4.7,18.8,8.4,21.6c3.6,2.8,23.9,11.1,23.9,11.1l-1.5,3.6
						c0,0-29.7-4-33-9c-3.3-5-16.1-34.3-15.1-41.1C105.2,386.8,113.6,384.1,113.6,384.1z"/>
					<g>
						<path class="st23" d="M134.1,539.4c-1.9,2.2,1,5.1,4.7,8c3.7,2.9,2,2.8,6.6,7.4c4.6,4.6,7.7,4.6,8.6,4.2c0.8-0.4-1-3.1-2.8-6
							c-0.2-0.4-0.5-0.7-0.7-1.1c-2-3.3-1.8-7.1-2.4-11.1c-0.6-3.8,2.5-12.6,2.5-12.6l-6.1-6.5c0,0-2.6,8-3.9,11.4
							c-0.8,2-2.7,3.4-4.2,4.4C135.6,538.1,134.8,538.6,134.1,539.4z"/>
						<path class="st24" d="M138.9,547.4c3.7,2.9,2,2.8,6.6,7.4c4.6,4.6,7.7,4.6,8.6,4.2c0.8-0.4-1-3.1-2.8-6l-0.1,0
							c0,0-4.6-1.3-8-5.4c-2.8-3.4-4.7-7.8-6.7-10.1c-0.8,0.6-1.7,1.2-2.3,1.9C132.3,541.7,135.2,544.5,138.9,547.4z"/>
					</g>
					<path class="st25" d="M99.7,444.8c0,0,57.8-4.4,68.7,2.5c10.9,6.9-19.6,93.7-19.6,93.7s-3.2-0.9-5.5-2.5
						c-2.1-1.5-4.3-4.2-4.3-4.2s-2.7-29.1,7.7-64.5c1.1-3.9-47,8.4-54.5-4.9c-7.6-13.4-1.3-26.6-1.3-26.6L99.7,444.8z"/>
					<g>
						<path class="st23" d="M164.3,557.3c-0.3,2.9,3.8,3.6,8.4,3.8c4.7,0.2,3.3,1.2,9.7,2.3c6.4,1.2,9-0.6,9.4-1.5
							c0.4-0.8-2.6-2-5.7-3.3c-0.4-0.2-0.8-0.3-1.2-0.5c-3.6-1.6-5.6-4.8-8.4-7.7c-2.6-2.8-5.1-11.8-5.1-11.8l-8.7-1.9
							c0,0,2.4,8.1,3.3,11.6c0.5,2-0.2,4.3-0.9,6C164.7,555.3,164.4,556.3,164.3,557.3z"/>
						<path class="st24" d="M172.7,561.1c4.7,0.2,3.3,1.2,9.7,2.3c6.4,1.2,9-0.6,9.4-1.5c0.4-0.8-2.6-2-5.7-3.3l0,0.1
							c0,0-4.5,1.5-9.7,0.1c-4.2-1.1-8.3-3.7-11.2-4.5c-0.4,0.9-0.7,1.9-0.8,2.9C164,560.2,168,560.9,172.7,561.1z"/>
					</g>
					<path class="st26" d="M88.4,448.4c0,0,51.4,2.4,62,9.7c10.6,7.3,24.9,87.9,24.9,87.9s-1.1,0.8-3.5,1c-2.2,0.2-7.1-1.4-7.1-1.4
						S141,509,139.6,499.9c-1.4-9.1-0.7-17.1-4.7-17.5c-4-0.4-54.4,4-61.4-9.7C66.4,459.1,88.4,448.4,88.4,448.4z"/>
					<path class="st27" d="M111.4,338.1c-2-1.9-4.7-2.7-6.6-3.1c0.6-0.4,1.7-0.3,1.7-0.3c-1.1-0.5-4.1,0-4.1,0
						c-15-10.7-23.9,13.1-25,18.9c-1.1,5.8-3.1,14-10.2,21.2c-18.1,18.4,7.8,39.6,7.8,39.6c0.1,0.1,13-27.4,25.9-31.9
						c3.7-3.3,6.5-10,6.7-10.6c-1.9,5.4-3.6,8.3-4.9,9.8C114.1,375.6,116.6,343.2,111.4,338.1z"/>
					<path class="st23" d="M86.3,375.5c0,0,4.8-0.5,9.6,0c3.2,0.3,6.5,1.3,8.3,2.1c4.5,1.9,4.1,9.9-5.4,8.4
						C89.2,384.6,85.6,377.9,86.3,375.5z"/>
					<path class="st23" d="M103.7,381.4c0.1,0,1.4,6.9-4.9,6.6c-4.1-0.2-12.9-5.1-12.1-8.6c0.4-1.7,3.5-6,4.1-15.8l0.7,0.2l12.5,3.4
						c0,0-0.6,4-0.8,7.7C103,378,103,381,103.7,381.4z"/>
					<path class="st22" d="M104.1,367.1c0,0-0.6,4-0.8,7.7c-7.1-0.7-10.4-7.4-11.7-11.1L104.1,367.1z"/>
					<path class="st27" d="M90.4,361.6c0,0-2.1-6.6-1.8-11.7c0.3-3.6,5.4-16.1,17.8-10.9c0,0,3.7,1.3,6.6,4.6
						c2.3,2.6,5.3,7.8-2.1,17.8l-2.2,3.5L90.4,361.6z"/>
					<path class="st23" d="M104.4,372.9c0,0-16.3-3.9-13.8-14c2.6-10.1,2.2-17.5,12.8-15.4c10.5,2.1,11.6,6.5,11.5,10
						C114.9,357.1,108.7,373.6,104.4,372.9z"/>
					<path class="st27" d="M110.9,345.1c0,0-7.5,10.8-14.8,10.8c-7.3,0-9.8-2.6-9.8-2.6s6.3-2.8,9.3-9.8
						C95.6,343.4,109,338.5,110.9,345.1z"/>
					<path class="st27" d="M109.5,345.7c0,0,2.6,3.5,2.8,6.3c0.1,2.8-0.8,8.2,0.7,8.4c0,0,5.4-7.2,2.8-12.8
						C113.2,341.8,109.5,345.7,109.5,345.7z"/>
					<path class="st28" d="M123,445.7c-1.4,1.6-5.6,2.1-10.1,2.9c-3.6,0.6-7.3,1.3-10,2.9c-6.1,3.6-25.8,15.6-31.6,15
						c-2.2-0.2-1.8-4.5-0.5-10.2c2.1-9,6.6-21.5,6.6-26.9c0-3,1-10,2.3-18c0.1-0.6,0.2-1.3,0.3-2c2.6-15.6,6.2-33.9,6.2-33.9
						s4,8.8,11.9,8.8c7.8,0,6-6.7,6-6.7s7.1,0.8,8.8,2.7c1.7,1.8,6,9.7,6.8,11.8c0,0,0.2,2.7-6.6,4c0,0,1.6,7.4,1.8,12.3
						c0.1,3.6-2.5,15.1-3.2,22.2c-0.3,2.5-0.3,4.5,0.1,5.4c0.5,1.1,2.2,2.3,4.1,3.4C119.9,441.6,124.6,443.8,123,445.7z"/>
					<path class="st23" d="M84.1,381.3c0,0-6-3.6-11.7,3.2c-5.8,6.9,4.1,56,12.6,58.5c9.5,2.8,38,2.7,38,2.7l-1.2-3.5
						c0,0-29.6-9.5-30.8-11.1C89.8,429.6,87.1,382.1,84.1,381.3z"/>
					<g>
						<path class="st29" d="M162.3,428.1l1.2-10.7l-15.2,20c0,0,6.4,3.2,6.7,2.6C155.4,439.3,162.3,428.1,162.3,428.1z"/>
						<polygon class="st30" points="139.5,428.1 125.5,449.5 149.1,449.5 162.3,428.1 						"/>
						<polygon class="st31" points="162.3,428.1 163.4,417.4 155.4,427.3 						"/>
						<polygon class="st31" points="126.2,448.4 125.1,447.6 139.1,426.9 139.5,428.1 						"/>
						<polygon class="st32" points="139.1,426.9 161.3,427.5 162.3,428.1 139.5,428.1 						"/>
					</g>
					<path class="st33" d="M99.1,454.7c0,0-27,19.6-31.5,13.6c-2.3-3.1,8.9-33,8.9-33l6.2-58.3l3.5-1.6l4.4,4.4
						c2.4,2.4,6.3,8.9,6.5,12.3L99.1,454.7z"/>
					<path class="st34" d="M95.6,446.6c0,0-14.8,1.2-18.3-2.3c-1.6-1.6-1.6-6.6-1.6-6.6h19.8V446.6z"/>
					<polygon class="st34" points="91.7,429.5 86.7,429.5 87.4,389.9 89.4,393.8 					"/>
					<path class="st33" d="M129,426.8c1.8,2.3,8.5,2.7,8.5,2.7l-6.6,10.9l-10.5-2.7L108,378.2c0,0,4.8,0.8,5.8,1.9
						C122,389.3,122,417.9,129,426.8z"/>
					<path class="st34" d="M123.9,438.4l-9.8-5.4l0.5-43.1c0,0,0.9,15.7,1.6,19.4C117.6,417.8,123.9,438.4,123.9,438.4z"/>
					<path class="st33" d="M115,408.5c1.4,9.4,10.5,30.7,8.2,37.3c-1.1,3.1-12.8,3.1-12.8,3.1l-6.2-71.5c0,0,7.6,1.5,9.3,3.1
						C115.7,382.7,114,401.6,115,408.5z"/>
					<path class="st34" d="M120.5,447.4c-2.3,0.8-9.7,0.8-9.7,0.8c-1.6-1.6-1.6-6.6-1.6-6.6H129c0,0-3.8,3.5-5.8,4.3
						c-0.3,0.1-0.2,0.4-0.4,0.4C121.3,445.8,121.3,447.1,120.5,447.4z"/>
					<path class="st33" d="M86.3,375.5c0,0-12.2,1.1-15.8,5.1c-3.6,4-2.8,17.4-2.8,17.4s6.8,43.6,11.7,45.4c1,0.4,34.1,5.6,40.8,3.9
						c1.6-0.4,0.8-7,0.8-7c2,0-31.2-10.3-29.1-10.9L86.3,375.5z"/>
					<path class="st23" d="M134.5,445.2c-0.4-0.1-1,0-1.5,0c1.7-0.8,3.4-1.6,3.4-1.6s-0.8-0.8-3.7,0.3c-0.3,0.1-0.7,0.1-1,0.1
						l4.1-1.8c-0.7-0.7-2.7-0.1-4.2,0.4c-1.1,0.4-2.3,0.2-3.2-0.5c0,0,0,0,0,0c0.1,0,0.1,0,0.2,0c2.4-0.4,3-1.7,2.3-1.6
						c-0.7,0.2-4.7,0.4-4.7,0.4c-1.8-0.1-5.4,1.3-5.4,1.3l-0.7,3.3c0,0,8.5,1.5,10,1c0.1,0,0.3-0.1,0.4-0.1l0,0l5.2-0.3
						C135.7,445.9,135.6,445.4,134.5,445.2z"/>
				</g>
				<rect x="-50.6" y="448" class="st9" width="278.7" height="10.6"/>
				<polygon class="st8" points="-41.1,511.9 -11.2,511.9 218.6,511.9 218.6,458.6 -41.1,458.6 				"/>
				<rect x="-41.1" y="458.6" class="st4" width="13.4" height="106.9"/>
				<rect x="205.2" y="458.6" class="st4" width="13.4" height="106.9"/>
			</g>
			<g>
				<path class="st35" d="M36.8,438.5h-4c-1.5,0-2.7,1.2-2.7,2.7v4.1c0,1.5,1.2,2.7,2.7,2.7h4c1.5,0,2.7-1.2,2.7-2.7v-4.1
					C39.5,439.8,38.3,438.5,36.8,438.5z"/>
				<path class="st36" d="M31.4,432.5c-0.1-0.5-0.6-0.8-1.2-0.8H28c-0.6,0-1.1,0.4-1.2,0.8l-1.6,12.8c-0.2,1.5,0.6,2.8,1.7,2.8h4.4
					c1.1,0,1.9-1.3,1.7-2.8L31.4,432.5z"/>
				<rect x="27.5" y="429.7" class="st36" width="3.1" height="3.2"/>
			</g>
			<rect x="37.2" y="441.4" class="st37" width="6.8" height="6.7"/>
		</g>
		<circle class="st38" cx="110.2" cy="357.4" r="3.5"/>
		<circle class="st38" cx="101.6" cy="357.4" r="3.5"/>
		<line class="st38" x1="98.9" y1="355.9" x2="91.1" y2="355.5"/>
		<line class="st38" x1="106.9" y1="357.4" x2="105.1" y2="357.4"/>
		<g>
			<g>
				<g>
					<g>
						<g>
							<g>
								<g>
									<path class="st5" d="M434.9,201.9c-9.1,0-16.5,7.4-16.5,16.5c0,9.1,7.4,16.5,16.5,16.5c9.1,0,16.5-7.4,16.5-16.5
										C451.4,209.3,444,201.9,434.9,201.9z M434.9,233.8c-8.5,0-15.4-6.9-15.4-15.4c0-8.5,6.9-15.4,15.4-15.4
										c8.5,0,15.4,6.9,15.4,15.4C450.3,226.9,443.4,233.8,434.9,233.8z"/>
									<path class="st5" d="M434.9,201.6c-9.3,0-16.8,7.5-16.8,16.8c0,9.3,7.5,16.8,16.8,16.8c9.3,0,16.8-7.5,16.8-16.8
										C451.7,209.1,444.1,201.6,434.9,201.6z M434.9,234.6c-8.9,0-16.2-7.3-16.2-16.2c0-8.9,7.3-16.2,16.2-16.2
										c8.9,0,16.2,7.3,16.2,16.2C451.1,227.3,443.8,234.6,434.9,234.6z"/>
									<path class="st5" d="M434.9,202.7c-8.6,0-15.7,7-15.7,15.7c0,8.6,7,15.7,15.7,15.7c8.6,0,15.7-7,15.7-15.7
										C450.6,209.7,443.5,202.7,434.9,202.7z M434.9,233.5c-8.3,0-15.1-6.8-15.1-15.1c0-8.3,6.8-15.1,15.1-15.1
										c8.3,0,15.1,6.8,15.1,15.1C450,226.7,443.2,233.5,434.9,233.5z"/>
								</g>
							</g>
						</g>
					</g>
				</g>
				<g>
					<g>
						<path class="st5" d="M434.9,210.3c-0.4,0-0.8,0.4-0.8,0.8v7.3c0,0.4,0.4,0.8,0.8,0.8c0.4,0,0.8-0.4,0.8-0.8V211
							C435.7,210.6,435.3,210.3,434.9,210.3z"/>
						<path class="st5" d="M434.9,210c-0.6,0-1.1,0.5-1.1,1.1v7.3c0,0.6,0.5,1.1,1.1,1.1c0.6,0,1.1-0.5,1.1-1.1V211
							C436,210.5,435.5,210,434.9,210z M435.4,218.4c0,0.3-0.2,0.5-0.5,0.5c-0.3,0-0.5-0.2-0.5-0.5V211c0-0.3,0.2-0.5,0.5-0.5
							c0.3,0,0.5,0.2,0.5,0.5V218.4z"/>
					</g>
				</g>
				<g>
					<g>
						<path class="st5" d="M444,211.8c-0.1-0.2-0.4-0.2-0.6-0.1l-9.5,6.8c-0.2,0.1-0.2,0.4-0.1,0.6c0.1,0.2,0.4,0.2,0.6,0.1l9.5-6.8
							C444.1,212.3,444.1,212,444,211.8L444,211.8z"/>
						<path class="st5" d="M443.2,211.5l-9.5,6.8c-0.3,0.2-0.4,0.7-0.2,1c0.1,0.2,0.4,0.3,0.6,0.3c0.2,0,0.3,0,0.4-0.1l9.5-6.8
							c0.3-0.2,0.4-0.7,0.2-1C444,211.4,443.5,211.3,443.2,211.5z M443.7,212.2l-9.5,6.8c0,0-0.1,0-0.1,0c-0.1,0-0.1,0-0.1-0.1
							c-0.1-0.1,0-0.2,0-0.2l9.5-6.8c0,0,0.1,0,0.1,0c0.1,0,0.1,0,0.1,0.1C443.8,212.1,443.8,212.2,443.7,212.2z"/>
					</g>
				</g>
			</g>
			<g>
				<g>
					<path class="st8" d="M305.1,235.2h24.6v-29.5h-24.6V235.2z M307.6,208.2h19.5v24.4h-19.5V208.2z"/>
				</g>
				<g>
					<rect x="337.5" y="205.8" class="st5" width="22" height="29.5"/>
				</g>
				<g>
					<rect x="368.6" y="205.8" class="st4" width="22" height="29.5"/>
				</g>
			</g>
			<g>
				<g>
					<path class="st8" d="M560.7,205.7h-24.6v29.5h24.6V205.7z M558.1,232.6h-19.5v-24.4h19.5V232.6z"/>
				</g>
				<g>
					<rect x="506.2" y="205.8" class="st5" width="22" height="29.5"/>
				</g>
				<g>
					<rect x="475.1" y="205.8" class="st4" width="22" height="29.5"/>
				</g>
			</g>
		</g>
		<g>
			<g>
				<g>
					<polygon class="st5" points="-192.9,110.5 -251.6,81.2 -251.6,418.2 -192.9,418.2 					"/>
				</g>
				<g>
					<polygon class="st1" points="-233.2,418.2 -230.8,418.2 -230.8,91.6 -233.2,90.4 					"/>
				</g>
				<g>
					<polygon class="st1" points="-192.9,193.5 -251.6,172 -251.6,176.3 -192.9,197.4 					"/>
				</g>
			</g>
		</g>
		<g>
			<g>
				<g>
					<polygon class="st5" points="1112.6,75.7 1042.3,110.8 1042.3,197.6 1123,168.7 1123,75.7 					"/>
				</g>
				<g>
					<polygon class="st1" points="1080.3,418.5 1082.7,418.5 1082.7,90.6 1080.3,91.8 					"/>
				</g>
				<g>
					<polygon class="st1" points="1042.3,193.7 1042.3,197.6 1123,168.7 1123,164.3 					"/>
				</g>
			</g>
		</g>
		<g>
			<g>
				<path class="st4" d="M801.7,394.1h64.1V284.5h-64.1V394.1z M805.5,288.3H862v102h-56.4V288.3z"/>
			</g>
			<rect x="813" y="296" class="st4" width="42.7" height="86.7"/>
		</g>
		<g>
			<g>
				<rect x="979.5" y="140.5" class="st39" width="4.2" height="427.3"/>
			</g>
			<g>
				<rect x="-122.2" y="139.9" class="st39" width="4.2" height="427.3"/>
			</g>
		</g>
		<g>
			<polygon class="st39" points="1003.9,575.8 1002.9,579.9 1123,611.2 1123,606.9 			"/>
		</g>
		<line class="st40" x1="197.6" y1="552.2" x2="-200.8" y2="650.2"/>
		<polygon class="st41" points="307.5,551.8 -194,95.2 -251.3,66.5 -251.3,439 -121.9,551.8 		"/>
		<g>
			<g>
				<g>
					<path class="st39" d="M-107.1,486.7c0,11.9,9.7,21.5,21.5,21.5c11.9,0,21.5-9.7,21.5-21.5V486h-43V486.7z M-65.6,487.5
						c-0.4,10.7-9.2,19.3-20,19.3c-10.8,0-19.6-8.6-20-19.3H-65.6z"/>
					<path class="st39" d="M-107.3,486.7c0,12,9.7,21.7,21.7,21.7c12,0,21.7-9.7,21.7-21.7v-0.9h-43.4V486.7z M-106.9,486.2h42.7
						v0.6c0,11.8-9.6,21.3-21.3,21.3c-11.8,0-21.3-9.6-21.3-21.3V486.2z"/>
					<path class="st39" d="M-85.6,507c5.3,0,10.2-2,14-5.7c3.8-3.7,6-8.6,6.2-13.8l0-0.2h-40.4l0,0.2c0.2,5.2,2.4,10.1,6.2,13.8
						C-95.8,504.9-90.9,507-85.6,507z M-65.8,487.7c-0.5,10.6-9.2,18.9-19.8,18.9c-10.7,0-19.3-8.3-19.8-18.9H-65.8z"/>
				</g>
			</g>
			<g>
				<g>
					<path class="st39" d="M-89.3,439.8c-4.1,4.1-6.3,9.5-6.3,15.2c0,5.7,2.2,11.2,6.3,15.2c4.1,4.1,9.5,6.3,15.2,6.3
						c5.7,0,11.2-2.2,15.2-6.3l0.5-0.5l-30.4-30.4L-89.3,439.8z M-60.5,469.7c-3.7,3.5-8.5,5.3-13.6,5.3c-5.4,0-10.4-2.1-14.2-5.9
						c-3.8-3.8-5.9-8.8-5.9-14.2c0-5.1,1.9-9.9,5.3-13.6L-60.5,469.7z"/>
					<path class="st39" d="M-94.3,455c0,5.4,2.1,10.5,5.9,14.3c3.8,3.8,8.9,5.9,14.3,5.9c5.1,0,10-1.9,13.8-5.4l0.1-0.1l-28.4-28.4
						l-0.1-0.1l-0.1,0.1C-92.4,445-94.3,449.9-94.3,455z M-88.8,441.6l28,28c-3.7,3.3-8.4,5.2-13.4,5.2c-5.3,0-10.3-2.1-14-5.8
						c-3.7-3.7-5.8-8.7-5.8-14C-94,450-92.1,445.3-88.8,441.6z"/>
					<path class="st39" d="M-89.5,439.6c-4.1,4.1-6.4,9.6-6.4,15.4c0,5.8,2.3,11.3,6.4,15.4c4.1,4.1,9.6,6.4,15.4,6.4
						c5.8,0,11.3-2.3,15.4-6.4l0.7-0.7L-88.8,439L-89.5,439.6z M-59,470.1c-4,4-9.4,6.2-15.1,6.2c-5.7,0-11.1-2.2-15.1-6.2
						c-4-4-6.2-9.4-6.2-15.1c0-5.7,2.2-11.1,6.2-15.1l0.4-0.4l30.2,30.2L-59,470.1z"/>
				</g>
			</g>
			<g>
				<g>
					<path class="st39" d="M-26,457.3l-30.4,30.4l0.5,0.5c4.1,4.1,9.5,6.3,15.2,6.3c5.7,0,11.2-2.2,15.2-6.3
						c4.1-4.1,6.3-9.5,6.3-15.2s-2.2-11.2-6.3-15.2L-26,457.3z"/>
				</g>
			</g>
			<g>
				<g>
					<rect x="-65.6" y="486.7" class="st39" width="1.5" height="51.6"/>
					<path class="st39" d="M-65.8,538.5h1.9v-52h-1.9V538.5z M-65.4,486.9h1.1v51.2h-1.1V486.9z"/>
				</g>
			</g>
			<g>
				<g>
					<rect x="-60.7" y="470" class="st39" width="1.5" height="68.4"/>
					<path class="st39" d="M-60.9,538.5h1.9v-68.7h-1.9V538.5z M-60.5,470.2h1.1v68h-1.1V470.2z"/>
				</g>
			</g>
			<g>
				<g>
					<rect x="-55.7" y="488" class="st39" width="1.5" height="50.2"/>
					<path class="st39" d="M-55.8,538.4h1.9v-50.6h-1.9V538.4z M-55.5,488.2h1.1V538h-1.1V488.2z"/>
				</g>
			</g>
			<g>
				<g>
					<path class="st5" d="M-76.9,557.9c0,5.2,4.2,9.3,9.3,9.3h15.3c5.2,0,9.3-4.2,9.3-9.3v-20.5h-33.9V557.9z"/>
				</g>
			</g>
		</g>
		<polygon class="st39" points="1042.3,588 1080.3,598.2 1080.3,214.5 1042.3,226.1 		"/>
		<g>
			<polygon class="st5" points="1035.1,576.7 1037.9,576.7 1037.9,220.9 1086.9,202.9 1086.9,592.4 1089.7,592.4 1089.7,198.9 
				1035.1,218.9 			"/>
		</g>
		<g>
			<rect x="1070.4" y="402.6" class="st5" width="2.8" height="15.9"/>
		</g>
		<line class="st40" x1="701.3" y1="552.2" x2="1099.8" y2="650.2"/>
		<line class="st40" x1="73.9" y1="570.3" x2="833.8" y2="570.3"/>
		<line class="st40" x1="550.7" y1="547.5" x2="916.5" y2="721.7"/>
		<line class="st40" x1="73.9" y1="600.8" x2="833.8" y2="600.8"/>
		<line class="st40" x1="0" y1="658.8" x2="890" y2="658.8"/>
		<line class="st40" x1="0" y1="735" x2="890" y2="735"/>
		<g>
			<rect x="685.6" y="513.2" class="st42" width="261.8" height="73.6"/>
			<rect x="685.6" y="513.2" class="st5" width="7.5" height="132.8"/>
			<rect x="685.6" y="513.2" class="st5" width="44.4" height="6.6"/>
			<rect x="946.5" y="513.2" class="st35" width="7.5" height="132.8"/>
			<rect x="700" y="500.1" class="st9" width="321.8" height="13.1"/>
			<rect x="1004.1" y="513.2" class="st35" width="7.5" height="132.8"/>
			<rect x="728.5" y="513.2" class="st42" width="276.6" height="15.6"/>
			<rect x="722.4" y="513.2" class="st5" width="7.5" height="132.8"/>
			<rect x="677.6" y="500.1" class="st10" width="61.2" height="13.1"/>
		</g>
		<g>
			<g>
				<path class="st9" d="M802.4,563.1h-59.6c-2.1,0-3.8,1.7-3.8,3.8v4c0,2.1,1.7,3.8,3.8,3.8h59.6c2.1,0,3.8-1.7,3.8-3.8v-4
					C806.2,564.8,804.5,563.1,802.4,563.1z"/>
				<path class="st10" d="M860.1,563.1h-76c-2.1,0-3.8,1.7-3.8,3.8v4c0,2.1,1.7,3.8,3.8,3.8h76c2.1,0,3.8-1.7,3.8-3.8v-4
					C863.9,564.8,862.2,563.1,860.1,563.1z"/>
				<rect x="859" y="525.5" class="st5" width="5.4" height="120.5"/>
				<rect x="780.3" y="525.5" class="st5" width="5.4" height="120.5"/>
				<rect x="739.1" y="563.1" class="st5" width="5.4" height="82.9"/>
				<path class="st10" d="M852.5,467h-60.3c-6.6,0-11.9,5.3-11.9,11.9v53.5h84.1v-53.5C864.4,472.3,859,467,852.5,467z"/>
			</g>
		</g>
		<g>
			<rect x="758.7" y="561.5" class="st42" width="340.5" height="95.7"/>
			<rect x="758.7" y="561.5" class="st5" width="9.8" height="173.5"/>
			<rect x="758.7" y="561.5" class="st5" width="57.7" height="8.5"/>
			<rect x="1097.9" y="561.5" class="st35" width="9.8" height="173.5"/>
			<rect x="777.5" y="544.5" class="st9" width="418.4" height="17.1"/>
			<rect x="1172.9" y="561.5" class="st35" width="9.8" height="173.5"/>
			<rect x="814.5" y="561.5" class="st42" width="359.7" height="20.3"/>
			<rect x="806.6" y="561.5" class="st5" width="9.8" height="173.5"/>
			<rect x="748.3" y="544.5" class="st10" width="79.6" height="17.1"/>
		</g>
		<g>
			<g>
				<path class="st9" d="M833.1,628h77.4c2.7,0,4.9,2.2,4.9,4.9v5.2c0,2.7-2.2,4.9-4.9,4.9h-77.4c-2.7,0-4.9-2.2-4.9-4.9v-5.2
					C828.2,630.2,830.4,628,833.1,628z"/>
				<path class="st10" d="M886.7,628h98.9c2.7,0,4.9,2.2,4.9,4.9v5.2c0,2.7-2.2,4.9-4.9,4.9h-98.9c-2.7,0-4.9-2.2-4.9-4.9v-5.2
					C881.8,630.2,884,628,886.7,628z"/>
				<rect x="984.1" y="579.1" class="st5" width="7" height="155.9"/>
				<rect x="881.8" y="579.1" class="st5" width="7" height="155.9"/>
				<rect x="828.2" y="628" class="st5" width="7" height="107"/>
				<path class="st10" d="M897.3,503h78.5c8.5,0,15.4,6.9,15.4,15.4V588H881.8v-69.6C881.8,509.9,888.7,503,897.3,503z"/>
			</g>
		</g>
		<circle class="st43" cx="757" cy="286.7" r="5.7"/>
		<text transform="matrix(1 0 0 1 359.3613 340.9209)" class="st44 st45">Welcome</text>
		<line class="st40" x1="307.6" y1="547.5" x2="-58.2" y2="721.7"/>
		<line class="st40" x1="425.2" y1="547.5" x2="424.8" y2="768"/>
		<g>
			<path class="st29" d="M592.1,306.7c0,0-7.3,0.7-11.4,6.9c-2.9,4.3-2.3,14.4-6.2,17.9c-3.9,3.5-3.1,10.4,1.8,13.3
				c4.9,2.9,30.9,4.9,39-2c8.1-6.9-2.8-10.7-2.2-22.3C613.4,315.1,605.8,305.1,592.1,306.7z"/>
			<path class="st22" d="M567.4,419.8c0,0-3.9,4-4.5,5.3c-0.6,1.3-1.4,4.6,1.5,4.8c2.9,0.3,4.1-0.2,4.5-1.6c0.4-1.4,1.2-6.1,1.2-6.1
				L567.4,419.8z"/>
			<path class="st23" d="M581.4,352c0,0-7.6,2.1-9.8,12.1c-2.2,10-0.1,31.3-2,38c-1.9,6.7-4.3,18.9-4.3,18.9s2.7,2.2,5.5,2
				c0,0,14.5-21.3,14.6-27C585.6,390.2,581.4,352,581.4,352z"/>
			<path class="st46" d="M639.2,546c0,0,4.6,4.2,3.7,7.1c-0.9,3-5,4.9-5.6,8.6c-0.6,3.6-2.8,5.6-4.8,5.6c-2,0-9.6,0-9.6,0
				s-1.5-2.5,2.1-3.3c3.6-0.8,4.9-5,4.7-9c-0.2-4,0.3-9.2,0.3-9.2l7.6-1.8L639.2,546z"/>
			<path class="st46" d="M600.5,547.8c0,0,1.6,17.7-0.4,18.7l-25.7-0.1c0,0,0-3,4.1-3.6c4.1-0.7,11.4-3.1,12.6-8.5
				C592.4,549,600.5,547.8,600.5,547.8z"/>
			<path class="st23" d="M618.8,421c-5.3-11.9-8.5-15.3-7.9-18.9c0.5-2.7-1.4-51.1-1.4-51.1c-0.6-0.2-1.9-0.4-2.6-0.5
				c-2.2-0.5-4-2-4.7-4.1c-0.9-2.5-1.6-6.2-1.6-10.9l-0.7,0.1l-11.4,2.3c0,0,0.3,3.6,0.3,7c0,0,0,0.1,0,0.1c0,2.9-1.9,5.5-4.7,6.3
				c-1.4,0.4-2.7,0.8-2.7,0.8s-4.2,11.9-5,24.2c-0.8,12.3,7.6,17.6-0.1,42.1C568.5,443.3,621.7,427.5,618.8,421z"/>
			<path class="st47" d="M588.5,337.9c0,0,0.3,3.6,0.3,7c6.4-0.2,9.7-6,11.1-9.2L588.5,337.9z"/>
			<path class="st23" d="M586.4,341.1c0,0,15.1,0.2,15.1-9.1c0-9.4,2-15.7-7.7-16.2c-9.6-0.6-11.5,3-12.3,6.2
				C580.8,325,582.5,340.8,586.4,341.1z"/>
			<path class="st29" d="M587,315.5c0,0,4.1,11,10.5,12.6c6.3,1.6,9.1-0.1,9.1-0.1s-4.9-3.9-5.9-10.6
				C600.7,317.4,590.1,310.2,587,315.5z"/>
			<path class="st29" d="M588,316.4c0,0-3.1,1.1-4.3,3.4c-1.2,2.2-2.3,5.1-2,8.6c0,0-3.1-7.5,0.4-11.7
				C585.7,312.1,588,316.4,588,316.4z"/>
			<path class="st48" d="M589.7,335.2c0,0-1,1.4-3.1,1.3c-1.7-0.1-2.3-1.5-2.3-1.5S587.3,334.2,589.7,335.2z"/>
			<path class="st5" d="M616.7,372.4c0,0-0.1,7.1-0.4,13.6c-0.3,4.3-0.6,8.3-1.3,9.7c-1.5,3.6-3.3,4.1-3.3,4.1l-13.5,3.3l-4.7,1.2
				l-15-4.5c0,0-6.8-19-4.1-29.7c2.7-10.7,6.9-18.1,6.9-18.1s12.2,11.9,28.1-1L616.7,372.4z"/>
			<path class="st49" d="M579.5,402.7c0,0-7.4,23.1-7.9,30.9c-0.5,7.8,14.2,111.5,14.7,115.1c0.6,3.4,4.8,5.6,4.8,5.6
				s1.9,1.1,4.7,0.4c3.9-1.1,5.1-2.4,5.1-2.4s5.8-73.9,2.2-100.3c-3.6-26.4-3.6-49.2-3.6-49.2H579.5z"/>
			<path class="st21" d="M610.9,402.1c0,0,11.3,15.2,12.3,25.4c1.1,10.2,1.7,46.2,3.9,56.2c2.2,10,10.5,29.2,10.5,60.4
				c0,0-0.9,1.8-3.5,2.7c-0.8,0.3-2,0.6-3.1,0.9c-2.2,0.5-4.4-0.6-5.4-2.6c-5.6-11.2-23.3-47.4-24.2-54.9
				c-0.6-5.3-6.2-40.5-18.5-61.1c-2.9-5,1.8-24.7,1.8-24.7L610.9,402.1z"/>
			<path class="st5" d="M589.4,335.5c0,0-0.3,1.1-3,0.9c0,0-2.3-0.1-2.2-1.4C584.1,335.1,586.4,334.2,589.4,335.5z"/>
			<path class="st46" d="M578.3,399.2c0,0,3,2.4,8.9,2.5c7.1,0.1,24.5-1.8,24.5-1.8s0.8,2.2,0.7,4.5c0,0-21.3,5.4-33.7,0.8
				C578.8,405.1,577.2,402.1,578.3,399.2z"/>
			<g>
				
					<rect x="609.9" y="419.7" transform="matrix(0.9387 -0.3448 0.3448 0.9387 -109.5882 242.5717)" class="st29" width="34.4" height="19.3"/>
				<path class="st50" d="M607.6,426.2c0,0,10.4,6.5,20.4,2.3c10-4.2,11.9-14.2,11.9-14.2L607.6,426.2z"/>
			</g>
			<g>
				<path class="st51" d="M612.4,426.2c-1,0.1-2-0.6-2.1-1.6c-0.1-1,0.6-2,1.6-2.1c1-0.1,2,0.6,2.1,1.6
					C614.1,425.1,613.4,426.1,612.4,426.2z M611.9,423.1c-0.7,0.1-1.2,0.7-1.1,1.4c0.1,0.7,0.7,1.2,1.4,1.1c0.7-0.1,1.2-0.7,1.1-1.4
					C613.3,423.5,612.6,423,611.9,423.1z"/>
			</g>
			<path class="st23" d="M633.4,428c0,0,0,2.7,0.5,4c0.5,1.3,2.1,3.1,2.6,3.1s-0.5-2.7-0.2-2.7c0.3,0.1,1.5,4.6,2.4,4.7
				c0.9,0.1,1.7-5.1,1.3-7.1c-0.5-2-2.5-4.5-2.5-4.5L633.4,428z"/>
			<path class="st23" d="M609.5,351c0,0,8.3,1.1,12.8,10c3.5,6.8,5.8,28.3,8.3,35.1c2.3,6.5,4.7,17.6,6.6,27.6
				c0.1,0.8,0.3,1.9,0.3,1.9l-4,2.4c0.4,0.7-1.3-2.8-1.7-3.7c-6.3-13.9-8.1-20.2-11.8-30.8c-1.4-4-5.9-12.9-7.7-15.9
				c-4.4-7.1-7.8-9.9-5.3-17.9L609.5,351z"/>
			<path class="st22" d="M565.9,421.3c0,0-2.7,1.4-3.4,2.3c-0.7,0.9-1.8,2.1-1.1,2.3c0.7,0.1,2.8-1.4,2.8-1.4L565.9,421.3z"/>
			<path class="st23" d="M562.9,427.1c0,0,2.5-1.8,4-1.2c1.5,0.6,1.7,3.1,1.2,3.6s-4.4,1.1-5.4-0.3
				C561.6,427.9,562.9,427.1,562.9,427.1z"/>
			<path class="st5" d="M584.1,351.2c0,0,10.8,3.6,22.8-0.8c0,0,8.3,0.4,12,4.7c3.7,4.3,8.2,15.7,8.2,15.7s-4.3,9-16.2,9.2
				c-11.9,0.2-36.8-7.6-36.8-7.6s-3.1,1-5.7-0.9c0,0,2.6-12.4,6.5-16C578.7,352.1,584.1,351.2,584.1,351.2z"/>
			<g>
				<path class="st52" d="M611.3,423c-0.1-0.3-6.3-30.4-8.3-47.5c-1.1-9-0.6-15.5,0-19.4c0.7-4.2,2.3-6.1,2.3-6.2l0.7,0.1
					c0,0.1-4.1,8.5-2,25.4c2,17.1,8.2,47.1,8.3,47.4L611.3,423z"/>
			</g>
		</g>
		<line class="st40" x1="368.9" y1="552.9" x2="172.8" y2="765.8"/>
		<line class="st40" x1="488" y1="552.9" x2="685.2" y2="766.8"/>
		<g>
			<g>
				<rect x="263.9" y="499.9" class="st9" width="338.3" height="12.3"/>
				<rect x="274.8" y="512.2" class="st42" width="316.4" height="72.7"/>
				<rect x="584.7" y="512.2" class="st5" width="6.5" height="133.1"/>
				<rect x="274.8" y="512.2" class="st5" width="6.5" height="133.1"/>
				<rect x="274.8" y="512.2" class="st42" width="316.4" height="14.6"/>
			</g>
		</g>
		<g>
			<path class="st10" d="M402.5,563.5h-92c-2.1,0-3.8,1.7-3.8,3.8v3.9c0,2.1,1.7,3.8,3.8,3.8h92c2.1,0,3.8-1.7,3.8-3.8v-3.9
				C406.3,565.2,404.6,563.5,402.5,563.5z"/>
			<rect x="401.4" y="526.2" class="st5" width="5.4" height="119.1"/>
			<rect x="306.8" y="526.2" class="st5" width="5.4" height="119.1"/>
			<path class="st10" d="M395,468h-76.4c-6.5,0-11.8,5.3-11.8,11.8V533h100v-53.2C406.8,473.3,401.5,468,395,468z"/>
		</g>
		<g>
			<path class="st10" d="M548.4,563.5h-92c-2.1,0-3.8,1.7-3.8,3.8v3.9c0,2.1,1.7,3.8,3.8,3.8h92c2.1,0,3.8-1.7,3.8-3.8v-3.9
				C552.1,565.2,550.4,563.5,548.4,563.5z"/>
			<rect x="547.2" y="526.2" class="st5" width="5.4" height="119.1"/>
			<rect x="452.6" y="526.2" class="st5" width="5.4" height="119.1"/>
			<path class="st10" d="M540.8,468h-76.4c-6.5,0-11.8,5.3-11.8,11.8V533h100v-53.2C552.6,473.3,547.3,468,540.8,468z"/>
		</g>
		<g>
			<g>
				<rect x="210.5" y="560" class="st9" width="445.1" height="16.1"/>
				<rect x="224.9" y="576.2" class="st42" width="416.3" height="95.6"/>
				<rect x="632.6" y="576.2" class="st5" width="8.5" height="175.2"/>
				<rect x="224.9" y="576.2" class="st5" width="8.5" height="175.2"/>
				<rect x="224.9" y="576.2" class="st42" width="416.3" height="19.2"/>
			</g>
		</g>
		<g>
			<path class="st53" d="M392.9,643.7h-121c-2.7,0-4.9,2.2-4.9,4.9v5.2c0,2.7,2.2,4.9,4.9,4.9h121c2.7,0,4.9-2.2,4.9-4.9v-5.2
				C397.9,645.9,395.7,643.7,392.9,643.7z"/>
			<rect x="391.5" y="594.6" class="st5" width="7" height="156.8"/>
			<rect x="267" y="594.6" class="st5" width="7" height="156.8"/>
			<path class="st53" d="M383,518H282.5c-8.6,0-15.5,7-15.5,15.5v70h131.5v-70C398.5,525,391.5,518,383,518z"/>
		</g>
		<g>
			<path class="st53" d="M584.8,643.7h-121c-2.7,0-4.9,2.2-4.9,4.9v5.2c0,2.7,2.2,4.9,4.9,4.9h121c2.7,0,4.9-2.2,4.9-4.9v-5.2
				C589.8,645.9,587.5,643.7,584.8,643.7z"/>
			<rect x="583.3" y="594.6" class="st5" width="7" height="156.8"/>
			<rect x="458.8" y="594.6" class="st5" width="7" height="156.8"/>
			<path class="st53" d="M574.8,518H474.4c-8.6,0-15.5,7-15.5,15.5v70h131.5v-70C590.4,525,583.4,518,574.8,518z"/>
		</g>
		<g>
			<rect x="-99.4" y="511.9" class="st42" width="261.2" height="73.4"/>
			<rect x="154.3" y="511.9" class="st5" width="7.5" height="133.1"/>
			<rect x="117.6" y="511.9" class="st5" width="44.3" height="6.6"/>
			<rect x="-106" y="511.9" class="st35" width="7.5" height="133.1"/>
			<rect x="-173.6" y="498.8" class="st9" width="321" height="13.1"/>
			<rect x="-163.5" y="511.9" class="st35" width="7.5" height="133.1"/>
			<rect x="-157" y="511.9" class="st42" width="276" height="15.6"/>
			<rect x="117.6" y="511.9" class="st5" width="7.5" height="133.1"/>
			<rect x="108.7" y="498.8" class="st10" width="61" height="13.1"/>
		</g>
		<g>
			<g>
				<path class="st9" d="M-29.4,562.9h-59.4c-2.1,0-3.8,1.7-3.8,3.8v4c0,2.1,1.7,3.8,3.8,3.8h59.4c2.1,0,3.8-1.7,3.8-3.8v-4
					C-25.6,564.6-27.3,562.9-29.4,562.9z"/>
				<path class="st10" d="M-70.5,562.9h-75.9c-2.1,0-3.8,1.7-3.8,3.8v4c0,2.1,1.7,3.8,3.8,3.8h75.9c2.1,0,3.8-1.7,3.8-3.8v-4
					C-66.7,564.6-68.4,562.9-70.5,562.9z"/>
				<rect x="-150.6" y="525.4" class="st5" width="5.4" height="119.6"/>
				<rect x="-72.1" y="525.4" class="st5" width="5.4" height="119.6"/>
				<rect x="-31" y="562.9" class="st5" width="5.4" height="82.1"/>
				<path class="st10" d="M-78.6,467h-60.2c-6.5,0-11.8,5.3-11.8,11.8v53.4h83.9v-53.4C-66.7,472.3-72,467-78.6,467z"/>
			</g>
		</g>
		<g>
			<g>
				<path class="st9" d="M104.7,562.9H45.2c-2.1,0-3.8,1.7-3.8,3.8v4c0,2.1,1.7,3.8,3.8,3.8h59.4c2.1,0,3.8-1.7,3.8-3.8v-4
					C108.4,564.6,106.7,562.9,104.7,562.9z"/>
				<path class="st10" d="M63.5,562.9h-75.9c-2.1,0-3.8,1.7-3.8,3.8v4c0,2.1,1.7,3.8,3.8,3.8h75.9c2.1,0,3.8-1.7,3.8-3.8v-4
					C67.3,564.6,65.6,562.9,63.5,562.9z"/>
				<rect x="-16.6" y="525.4" class="st5" width="5.4" height="119.6"/>
				<rect x="61.9" y="525.4" class="st5" width="5.4" height="119.6"/>
				<rect x="103.1" y="562.9" class="st5" width="5.4" height="82.1"/>
				<path class="st10" d="M55.5,467H-4.7c-6.5,0-11.8,5.3-11.8,11.8v53.4h83.9v-53.4C67.3,472.3,62,467,55.5,467z"/>
			</g>
		</g>
		<g>
			<rect x="-231" y="577.5" class="st42" width="340.5" height="95.7"/>
			<rect x="99.7" y="577.5" class="st5" width="9.8" height="173.5"/>
			<rect x="51.8" y="577.5" class="st5" width="57.7" height="8.5"/>
			<rect x="-239.6" y="577.5" class="st35" width="9.8" height="173.5"/>
			<rect x="-327.7" y="560.5" class="st9" width="418.4" height="17.1"/>
			<rect x="-314.5" y="577.5" class="st35" width="9.8" height="173.5"/>
			<rect x="-306" y="577.5" class="st42" width="359.7" height="20.3"/>
			<rect x="51.8" y="577.5" class="st5" width="9.8" height="173.5"/>
			<rect x="40.3" y="560.5" class="st10" width="79.6" height="17.1"/>
		</g>
		<g>
			<g>
				<path class="st9" d="M-139.7,644h-77.4c-2.7,0-4.9,2.2-4.9,4.9v5.2c0,2.7,2.2,4.9,4.9,4.9h77.4c2.7,0,4.9-2.2,4.9-4.9v-5.2
					C-134.8,646.2-137,644-139.7,644z"/>
				<path class="st10" d="M-193.3,644h-98.9c-2.7,0-4.9,2.2-4.9,4.9v5.2c0,2.7,2.2,4.9,4.9,4.9h98.9c2.7,0,4.9-2.2,4.9-4.9v-5.2
					C-188.4,646.2-190.6,644-193.3,644z"/>
				<rect x="-297.7" y="595.1" class="st5" width="7" height="155.9"/>
				<rect x="-195.4" y="595.1" class="st5" width="7" height="155.9"/>
				<rect x="-141.8" y="644" class="st5" width="7" height="107"/>
				<path class="st10" d="M-203.8,519h-78.5c-8.5,0-15.4,6.9-15.4,15.4V604h109.3v-69.6C-188.4,525.9-195.3,519-203.8,519z"/>
			</g>
		</g>
		<g>
			<g>
				<path class="st9" d="M35,644h-77.4c-2.7,0-4.9,2.2-4.9,4.9v5.2c0,2.7,2.2,4.9,4.9,4.9H35c2.7,0,4.9-2.2,4.9-4.9v-5.2
					C39.9,646.2,37.7,644,35,644z"/>
				<path class="st10" d="M-18.6,644h-98.9c-2.7,0-4.9,2.2-4.9,4.9v5.2c0,2.7,2.2,4.9,4.9,4.9h98.9c2.7,0,4.9-2.2,4.9-4.9v-5.2
					C-13.7,646.2-15.9,644-18.6,644z"/>
				<rect x="-123" y="595.1" class="st5" width="7" height="155.9"/>
				<rect x="-20.7" y="595.1" class="st5" width="7" height="155.9"/>
				<rect x="32.9" y="644" class="st5" width="7" height="107"/>
				<path class="st10" d="M-29.1,519h-78.5c-8.5,0-15.4,6.9-15.4,15.4V604h109.3v-69.6C-13.7,525.9-20.6,519-29.1,519z"/>
			</g>
		</g>
		
			<image style="overflow:visible;" width="584" height="940" xlink:href="10E1667CC035B04B.png"  transform="matrix(0.8135 0 0 0.8135 889.5852 3.2827)">
		</image>
		<path class="st21" d="M1274.7,595.6H986.2c-7.7,0-14-6.3-14-14v-16.3c0-7.7,6.3-14,14-14h288.5c7.7,0,14,6.3,14,14v16.3
			C1288.7,589.3,1282.4,595.6,1274.7,595.6z"/>
		
			<text transform="matrix(1 0 0 1 1107.5283 578.6865)" class="st5" style="font-family:'MyriadPro-Regular'; font-size:17.8587px;">Log in</text>
		<line class="st54" x1="1260.7" y1="573.4" x2="1276.4" y2="573.4"/>
		<polyline class="st55" points="1271.8,570.9 1276.4,573.4 1271.2,576.4 		"/>
		<path class="st43" d="M1364.7,768l-184.5,0c-7.1-9.2-10.7-18.8-8.2-29.4c7.4-32.6,79.6-77,128.4-94.1c18.5-6.5,44-3.9,65.9,4.8
			L1364.7,768z"/>
		<path class="st43" d="M1364.7,100.6c-41.9,22.6-97.2,41.5-134.2,22.4c-22.7-11.7-77.7-83.1-92.8-123l227,3.3L1364.7,100.6z"/>
		<path class="st43" d="M888.5,306.2c23.3-3.7,38.1-1.8,49.2,15.5c20.8,32.2-1.1,45.2-0.3,84.1c1.2,54.5,26.8,93.5-6.4,119.1
			c-14.9,11.5-28.9,16.9-42.7,18.3L888.5,306.2z"/>
		<circle class="st43" cx="930.3" cy="278.8" r="15.8"/>
		<circle class="st43" cx="1130.8" cy="707.7" r="23.4"/>
		<circle class="st43" cx="1148.5" cy="729.8" r="11.7"/>
		<g>
			<rect x="-2.3" y="108.5" class="st4" width="894" height="4.2"/>
		</g>
		<rect x="-1" y="-6" class="st56" width="892" height="113"/>
	</g>
</g>
</svg>
