<?xml version="1.0" encoding="utf-8"?>
<!-- Generator: Adobe Illustrator 24.2.0, SVG Export Plug-In . SVG Version: 6.00 Build 0)  -->
<svg version="1.1" id="Layer_1" xmlns="http://www.w3.org/2000/svg" xmlns:xlink="http://www.w3.org/1999/xlink" x="0px" y="0px"
	 viewBox="0 0 881 768" style="enable-background:new 0 0 881 768;" xml:space="preserve">
<style type="text/css">
	.st0{fill:#DBB277;}
	.st1{fill:#CC8D42;}
	.st2{fill:#6D4D0B;}
	.st3{fill:#CCAB83;}
	.st4{fill:#AD8F68;}
	.st5{fill:none;stroke:#FFFFFF;stroke-width:0.3824;stroke-miterlimit:10;}
	.st6{fill:none;stroke:#FFFFFF;stroke-width:0.4363;stroke-miterlimit:10;}
	.st7{fill:#DD6843;}
	.st8{fill:#F78460;}
	.st9{fill:#FFD085;}
	.st10{fill:#FEEDC5;}
	.st11{fill:#7EBAE0;}
	.st12{fill:#A2D9FD;}
	.st13{fill:#6CA3EA;}
	.st14{fill:#895454;}
	.st15{fill:#70403E;}
	.st16{fill:#FF912B;}
	.st17{fill:#FF9D5D;}
	.st18{fill:#FFAE73;}
	.st19{fill:#D44B40;}
	.st20{fill:#2A3967;}
	.st21{fill:#0D458E;}
	.st22{fill:#262626;}
	.st23{fill:#A3A6A8;}
	.st24{fill:#0B3563;}
	.st25{fill:#004FAA;}
	.st26{fill:#F1DDCB;}
	.st27{fill:#FFEBD8;}
	.st28{fill:#E67817;}
	.st29{opacity:0.38;fill:#626363;}
	.st30{fill:#FBB77B;}
	.st31{fill:#FCEEDB;}
	.st32{fill:#4F273D;}
	.st33{fill:#FBD5A2;}
	.st34{fill:#FCFCFB;}
	.st35{fill:#FCCE87;}
	.st36{fill:#B0173E;}
	.st37{fill:#E62552;}
	.st38{fill:#F3C8B9;}
	.st39{fill:#F3AE9C;}
	.st40{fill:#3F964F;}
	.st41{fill:#0E6A41;}
	.st42{fill:#DE6280;}
	.st43{fill:#FFFFFF;}
	.st44{fill:#268C5B;}
	.st45{opacity:0.22;fill:#FFFFFF;}
	.st46{fill:#563131;}
	.st47{fill:none;stroke:#6D4D0B;stroke-width:3;stroke-miterlimit:10;}
	.st48{fill:none;}
</style>
<rect x="0.2" y="-1" class="st0" width="880.8" height="769"/>
<rect x="0" y="672" class="st1" width="881" height="24"/>
<g>
	<path class="st2" d="M881.1,446.4H367.3c-13.3,0-24-10.7-24-24V-1v0C343-1,881,0,881,0C887.9,0,881.1,446.4,881.1,446.4z"/>
	<path class="st3" d="M881.1,426.9H362.5c-2.7,0-4.9-2.2-4.9-4.9V-1c0-2.7,523.4,1,523.4,1C883.7,0,881.1,426.9,881.1,426.9z"/>
	<path class="st4" d="M881,103c0,0,2.5-103,0-103L357.6-1v281L881,103z"/>
</g>
<line class="st5" x1="-112.3" y1="572.8" x2="-96.6" y2="572.8"/>
<polyline class="st6" points="-101.2,570.2 -96.6,572.8 -101.8,575.8 "/>
<g>
	<g>
		<g>
			<rect x="207.1" y="379.2" class="st7" width="72.6" height="112.7"/>
			<rect x="207.1" y="379.2" class="st8" width="17.3" height="112.7"/>
		</g>
		<g>
			<rect x="236.8" y="379.2" class="st9" width="72.6" height="112.7"/>
			<rect x="236.8" y="379.2" class="st10" width="17.3" height="112.7"/>
		</g>
		<g>
			<rect x="266.7" y="400.2" class="st11" width="72.6" height="91.7"/>
			<rect x="266.7" y="400.2" class="st12" width="17.3" height="91.7"/>
		</g>
	</g>
	<g>
		<g>
			<g>
				<path class="st13" d="M574.7,596.3H400.7c-10.8,0-19.6-8.8-19.6-19.6v-0.9h193.7V596.3z"/>
				<g>
					<polygon class="st2" points="482.3,745.1 470.6,745.1 467.3,596.3 485.2,596.3 					"/>
					<polygon class="st2" points="533.1,745.1 419.4,745.1 419.4,734.8 477.4,729.6 533.1,734.8 					"/>
					<path class="st2" d="M408.4,743.5c0-5.2,4.2-9.4,9.4-9.4c5.2,0,9.4,4.2,9.4,9.4c0,5.2-4.2,9.4-9.4,9.4
						C412.6,752.8,408.4,748.6,408.4,743.5z"/>
					<path class="st2" d="M522.1,743.5c0-5.2,4.2-9.4,9.4-9.4c5.2,0,9.4,4.2,9.4,9.4c0,5.2-4.2,9.4-9.4,9.4
						C526.3,752.8,522.1,748.6,522.1,743.5z"/>
					<path class="st2" d="M514.3,606.1h-76.1c-5.4,0-9.8-4.4-9.8-9.8v0h95.6v0C524.1,601.7,519.7,606.1,514.3,606.1z"/>
				</g>
				<path class="st14" d="M397.3,596.3c-9,0-16.2-7.3-16.2-16.2V450.5c0-25.7,16.8-46.5,37.5-46.5h84.8c20.7,0,37.5,20.8,37.5,46.5
					v145.9H397.3z"/>
				<path class="st15" d="M399,596.3c-4.9,0-8.9-4-8.9-8.9v-137c0-25.7,16.8-46.5,37.5-46.5h84.8c20.7,0,37.5,20.8,37.5,46.5v35.2
					v110.7H399z"/>
				<path class="st16" d="M595.4,596.3H388c-5.7,0-10.3-4.6-10.3-10.3l0,0c0-5.7,4.6-10.3,10.3-10.3h207.3c5.7,0,10.3,4.6,10.3,10.3
					l0,0C605.7,591.7,601.1,596.3,595.4,596.3z"/>
			</g>
		</g>
		<g>
			<path class="st17" d="M523.4,326.2c0,0,13,19.2,20.4,59.6c6.5,35.4,12.2,48.4,21.5,55.7c9.4,7.3,61.5,28.7,61.5,28.7l-3.9,9.1
				c0,0-76.5-10.4-85.1-23.2c-8.6-12.8-41.3-88.3-38.8-105.7C501.7,333,523.4,326.2,523.4,326.2z"/>
			<g>
				<path class="st18" d="M576.2,726c-4.8,5.7,2.7,13.2,12.2,20.5c9.5,7.4,5.1,7.3,17,19.2c11.8,11.9,19.8,11.9,22.1,10.8
					c2-1-2.5-7.9-7.2-15.5c-0.6-0.9-1.2-1.9-1.8-2.9c-5.2-8.6-4.8-18.3-6.3-28.6c-1.4-9.8,6.5-32.5,6.5-32.5L603,680.3
					c0,0-6.8,20.7-10.1,29.3c-1.9,5-6.8,8.8-10.8,11.5C580.1,722.5,577.9,724,576.2,726z"/>
				<path class="st19" d="M588.4,746.5c9.5,7.4,5.1,7.3,17,19.2c11.8,11.9,19.8,11.9,22.1,10.8c2-1-2.5-7.9-7.2-15.5l-0.2,0
					c0,0-11.8-3.4-20.7-14c-7.3-8.7-12.2-20-17.1-26c-2.1,1.5-4.3,3-6,5C571.4,731.7,578.9,739.2,588.4,746.5z"/>
			</g>
			<path class="st20" d="M487.7,482.5c0,0,148.8-11.2,176.9,6.5c28,17.7-50.5,241.3-50.5,241.3s-8.3-2.3-14.1-6.5
				c-5.3-3.8-11.2-10.9-11.2-10.9s-6.9-74.9,19.8-165.9c2.9-10-120.9,21.7-140.4-12.7c-19.5-34.4-3.4-68.5-3.4-68.5L487.7,482.5z"/>
			<g>
				<path class="st18" d="M653.8,772c-0.7,7.5,9.7,9.3,21.7,9.9c12,0.6,8.4,3.1,24.9,6c16.5,3,23.1-1.5,24.3-3.7
					c1.1-2-6.6-5.1-14.8-8.6c-1-0.4-2.1-0.9-3.1-1.3c-9.2-4-14.3-12.3-21.5-19.9c-6.8-7.2-13.2-30.4-13.2-30.4l-22.4-4.8
					c0,0,6.3,20.9,8.5,29.8c1.3,5.2-0.6,11.1-2.3,15.6C654.9,766.9,654,769.4,653.8,772z"/>
				<path class="st19" d="M675.5,781.9c12,0.6,8.4,3.1,24.9,6c16.5,3,23.1-1.5,24.3-3.7c1.1-2-6.6-5.1-14.8-8.6l-0.1,0.1
					c0,0-11.6,3.9-25,0.3c-10.9-3-21.4-9.5-29-11.6c-0.9,2.4-1.8,4.9-2.1,7.5C653.1,779.5,663.5,781.3,675.5,781.9z"/>
			</g>
			<path class="st21" d="M458.5,491.7c0,0,132.2,6.3,159.5,25c27.3,18.8,64.2,226.3,64.2,226.3s-2.9,2.1-9.1,2.5
				c-5.8,0.4-18.3-3.5-18.3-3.5s-60.9-94.6-64.6-118c-3.6-23.4-1.7-44-12.1-45c-10.3-1-140,10.3-158.2-24.9
				C401.9,519.1,458.5,491.7,458.5,491.7z"/>
			<path class="st22" d="M517.7,207.8c-5.1-4.9-12.1-7.1-17.1-8c1.6-1,4.3-0.8,4.3-0.8c-3-1.2-10.6,0-10.6,0
				c-38.6-27.5-61.5,33.8-64.3,48.7c-2.9,14.9-8.1,36.1-26.3,54.6c-46.6,47.3,20,102,20,102c0.3,0.3,33.4-70.7,66.7-82
				c9.5-8.4,16.6-25.8,17.2-27.2c-4.9,14-9.4,21.4-12.7,25.3C524.7,304.4,531.1,220.8,517.7,207.8z"/>
			<path class="st18" d="M453,304.1c0,0,12.3-1.2,24.6,0c8.4,0.8,16.7,3.4,21.4,5.4c11.7,4.9,10.4,25.5-14,21.7
				C460.5,327.3,451.3,310.2,453,304.1z"/>
			<path class="st18" d="M497.9,319.1c0.1,0.1,3.5,17.7-12.5,17c-10.5-0.5-33.2-13.2-31.2-22.2c0.9-4.3,8.9-15.4,10.5-40.7l1.9,0.5
				l32.2,8.6c0,0-1.4,10.2-2.1,19.9C496.2,310.4,496.1,318.1,497.9,319.1z"/>
			<path class="st17" d="M498.8,282.4c0,0-1.4,10.2-2.1,19.9c-18.2-1.7-26.7-19-30.1-28.5L498.8,282.4z"/>
			<path class="st22" d="M463.6,268.2c0,0-5.5-17-4.5-30.2c0.7-9.4,13.8-41.4,45.9-28c0,0,9.4,3.4,17,11.9c6,6.7,13.7,20-5.4,45.9
				l-5.5,9L463.6,268.2z"/>
			<path class="st18" d="M499.7,297.2c0,0-42.1-10.1-35.4-36.2c6.7-26.1,5.7-45,32.9-39.7c27.1,5.3,29.8,16.6,29.7,25.9
				C526.7,256.5,510.8,299.2,499.7,297.2z"/>
			<path class="st22" d="M516.4,225.6c0,0-19.3,27.7-38.1,27.7c-18.8,0-25.2-6.7-25.2-6.7s16.3-7.3,23.9-25.3
				C477,221.4,511.5,208.8,516.4,225.6z"/>
			<path class="st22" d="M512.9,227.4c0,0,6.8,9,7.2,16.2c0.4,7.2-2.2,21.1,1.9,21.7c0,0,14-18.6,7.3-32.9
				C522.2,217.3,512.9,227.4,512.9,227.4z"/>
			<path class="st23" d="M547.5,484.8c-3.5,4.2-14.4,5.5-26.1,7.4c-9.2,1.5-18.8,3.4-25.7,7.4c-15.6,9.1-66.5,40.1-81.4,38.6
				c-5.8-0.5-4.7-11.6-1.2-26.2c5.5-23.1,17.1-55.3,17.1-69.2c0-7.6,2.5-25.7,5.9-46.3c0.3-1.7,0.6-3.3,0.8-5
				c6.7-40.1,16-87.4,16-87.4s10.3,22.6,30.5,22.6c20.2,0,15.5-17.2,15.5-17.2s18.4,2.2,22.7,6.8c4.4,4.7,15.4,24.9,17.6,30.4
				c0,0,0.4,7-16.9,10.4c0,0,4.2,19.1,4.7,31.8c0.4,9.4-6.4,38.8-8.4,57.1c-0.7,6.5-0.8,11.6,0.3,13.9c1.3,3,5.7,5.9,10.6,8.8
				C539.5,474.3,551.7,479.8,547.5,484.8z"/>
			<path class="st18" d="M447.5,319c0,0-15.3-9.3-30.2,8.4c-14.8,17.7,10.5,144.1,32.5,150.6c24.4,7.2,97.7,6.8,97.7,6.8l-3.1-8.9
				c0,0-76.1-24.5-79.3-28.5C462.1,443.3,455.3,321,447.5,319z"/>
			<g>
				<path class="st24" d="M648.6,439.3l3-27.7l-39.1,51.5c0,0,16.4,8.2,17.3,6.6C630.8,468.2,648.6,439.3,648.6,439.3z"/>
				<polygon class="st25" points="590.1,439.3 554,494.4 614.7,494.4 648.6,439.3 				"/>
				<polygon class="st26" points="648.6,439.3 651.5,411.9 631,437.5 				"/>
				<polygon class="st26" points="555.9,491.6 553.1,489.6 589,436.3 590.1,439.3 				"/>
				<polygon class="st27" points="589,436.3 646.1,437.9 648.6,439.3 590.1,439.3 				"/>
			</g>
			<path class="st28" d="M486,508c0,0-69.4,50.5-81,35c-6-8,23-85,23-85l16-150l9-4l11.2,11.2c6.3,6.3,16.3,22.9,16.8,31.8L486,508z
				"/>
			<path class="st29" d="M477,487c0,0-38,3-47-6c-4.1-4.1-4-17-4-17h51V487z"/>
			<polygon class="st29" points="467,443 454,443 456,341 461,351 			"/>
			<path class="st28" d="M563,436c4.7,6,22,7,22,7l-17,28l-27-7l-32-153c0,0,12.4,2.1,15,5C545.1,339.5,545.1,413.1,563,436z"/>
			<path class="st29" d="M550,466l-25.2-14l1.2-111c0,0,2.4,40.3,4,50C533.6,412.8,550,466,550,466z"/>
			<path class="st28" d="M527,389c3.7,24.3,27,79,21,96c-2.8,8-33,8-33,8l-16-184c0,0,19.6,3.8,24,8
				C528.7,322.4,524.3,371.2,527,389z"/>
			<path class="st29" d="M541,489c-5.9,2.1-25,2-25,2c-4.1-4.1-4-17-4-17h51c0,0-9.8,9.1-15,11c-0.8,0.3-0.5,1.1-1,1
				C543.2,485.1,543.1,488.3,541,489z"/>
			<path class="st28" d="M453,304.1c0,0-31.5,2.8-40.7,13.2c-9.2,10.4-7.3,44.7-7.3,44.7s17.5,112.4,30,117c2.7,1,87.8,14.3,105,10
				c4-1,2-18,2-18c5,0-80.4-26.6-75-28L453,304.1z"/>
			<path class="st18" d="M577.1,483.5c-1.1-0.2-2.5-0.1-3.9,0c4.4-2,8.8-4.2,8.8-4.2s-2-2-9.5,0.7c-0.8,0.3-1.7,0.4-2.5,0.3
				l10.5-4.7c-1.9-1.7-6.9-0.3-10.8,1.1c-2.8,1-5.9,0.6-8.3-1.3c0,0-0.1-0.1-0.1-0.1c0.2,0,0.3,0,0.5-0.1c6.1-0.9,7.7-4.4,6-4
				c-1.7,0.4-12,1.1-12,1.1c-4.6-0.3-13.9,3.3-13.9,3.3L540,484c0,0,21.8,3.8,25.7,2.6c0.3-0.1,0.7-0.2,1.1-0.4l0,0l13.5-0.9
				C580.3,485.3,580,483.9,577.1,483.5z"/>
		</g>
		<rect x="100.6" y="490.6" class="st30" width="717.5" height="27.4"/>
		<polygon class="st31" points="125,655.2 202.1,655.2 793.7,655.2 793.7,517.9 125,517.9 		"/>
		<rect x="125" y="517.9" class="st4" width="34.5" height="275.3"/>
		<rect x="759.2" y="517.9" class="st4" width="34.5" height="275.3"/>
	</g>
	<g>
		<path class="st32" d="M325.7,466.3h-10.3c-3.9,0-7,3.2-7,7v10.5c0,3.9,3.2,7,7,7h10.3c3.9,0,7-3.2,7-7v-10.5
			C332.7,469.4,329.6,466.3,325.7,466.3z"/>
		<path class="st33" d="M311.7,450.6c-0.2-1.2-1.5-2.1-3-2.1h-5.8c-1.5,0-2.8,0.9-3,2.1l-4.2,33.1c-0.5,3.8,1.5,7.2,4.4,7.2h11.4
			c2.9,0,4.9-3.4,4.4-7.2L311.7,450.6z"/>
		<rect x="301.8" y="443.6" class="st33" width="8.1" height="8.3"/>
	</g>
	<rect x="326.7" y="473.8" class="st34" width="17.6" height="17.1"/>
</g>
<g>
	<path class="st35" d="M174,454.6c0-1.2-6.3-2.2-14.2-2.2c-7.8,0-14.2,1-14.2,2.2c0,1.2,6.3,2.2,14.2,2.2
		C167.6,456.8,174,455.8,174,454.6z"/>
	<g>
		<polygon class="st36" points="156,485 163.5,426.7 168.8,427.4 161.3,485.7 		"/>
		<path class="st37" d="M155.6,487.8l0.4-2.8l5.3,0.7l-0.4,2.8c-0.1,1-1.1,1.7-2.1,1.6l-1.7-0.2
			C156.2,489.7,155.4,488.8,155.6,487.8z"/>
		
			<rect x="157.5" y="481.5" transform="matrix(-0.1297 0.9916 -0.9916 -0.1297 659.4594 389.5596)" class="st38" width="2.6" height="5.4"/>
		<path class="st39" d="M155.8,484.9l0-0.1c0-0.1,0.1-0.1,0.2-0.1l5.3,0.7c0.1,0,0.1,0.1,0.1,0.2l0,0.1c0,0.1-0.1,0.1-0.2,0.1
			l-5.3-0.7C155.9,485.1,155.8,485,155.8,484.9z"/>
		<path class="st39" d="M156,483.7l0-0.1c0-0.1,0.1-0.1,0.2-0.1l5.3,0.7c0.1,0,0.1,0.1,0.1,0.2l0,0.1c0,0.1-0.1,0.1-0.2,0.1
			l-5.3-0.7C156,483.9,156,483.8,156,483.7z"/>
		<path class="st39" d="M156.2,482.4l0-0.1c0-0.1,0.1-0.1,0.2-0.1l5.3,0.7c0.1,0,0.1,0.1,0.1,0.2l0,0.1c0,0.1-0.1,0.1-0.2,0.1
			l-5.3-0.7C156.2,482.6,156.1,482.5,156.2,482.4z"/>
		<path class="st38" d="M166.1,427.8c1.5,0.2,2.7,0,2.8-0.4c0,0,0,0,0,0l0,0l0,0c0,0,0-0.1,0-0.1l-0.9-4.5l-0.6-3.2
			c0-0.1-0.2-0.1-0.2,0l-1.4,2.9l-2.1,4.1c0,0,0,0.1-0.1,0.1l0,0h0c0,0,0,0,0,0C163.5,427.1,164.6,427.6,166.1,427.8z"/>
		<path class="st37" d="M166.8,422.8c-0.5-0.1-0.9-0.2-1.2-0.3l1.4-2.9c0-0.1,0.2-0.1,0.2,0l0.6,3.2
			C167.6,422.8,167.2,422.8,166.8,422.8z"/>
	</g>
	<g>
		<polygon class="st40" points="157.6,434.1 161.3,480.3 156,480.7 152.3,434.6 		"/>
		<path class="st37" d="M157.4,431.3l0.2,2.9l-5.4,0.4l-0.2-2.9c-0.1-1,0.7-1.9,1.7-2l1.7-0.1C156.4,429.5,157.3,430.3,157.4,431.3z
			"/>
		
			<rect x="153.8" y="432.8" transform="matrix(-8.315437e-02 -0.9965 0.9965 -8.315437e-02 -266.0363 626.2393)" class="st38" width="2.6" height="5.4"/>
		<path class="st39" d="M157.8,434.1l0,0.1c0,0.1-0.1,0.2-0.1,0.2l-5.3,0.4c-0.1,0-0.2-0.1-0.2-0.1l0-0.1c0-0.1,0.1-0.2,0.1-0.2
			l5.3-0.4C157.7,434,157.8,434.1,157.8,434.1z"/>
		<path class="st39" d="M157.9,435.4l0,0.1c0,0.1-0.1,0.2-0.1,0.2l-5.3,0.4c-0.1,0-0.2-0.1-0.2-0.1l0-0.1c0-0.1,0.1-0.2,0.1-0.2
			l5.3-0.4C157.8,435.2,157.9,435.3,157.9,435.4z"/>
		<path class="st39" d="M158,436.7l0,0.1c0,0.1-0.1,0.2-0.1,0.2l-5.3,0.4c-0.1,0-0.2-0.1-0.2-0.1l0-0.1c0-0.1,0.1-0.2,0.1-0.2
			l5.3-0.4C157.9,436.5,158,436.6,158,436.7z"/>
		<path class="st38" d="M158.6,479.8c-1.5,0.1-2.6,0.5-2.6,0.9c0,0,0,0,0,0h0l0,0c0,0,0,0.1,0,0.1l1.8,4.2l1.3,3
			c0,0.1,0.2,0.1,0.2,0l0.8-3.2l1.1-4.5c0,0,0-0.1,0-0.1l0,0l0,0c0,0,0,0,0,0C161.3,479.9,160.1,479.6,158.6,479.8z"/>
		<path class="st37" d="M158.9,484.8c0.5,0,0.9,0,1.2,0.1l-0.8,3.2c0,0.1-0.2,0.1-0.2,0l-1.3-3C158.1,484.9,158.5,484.8,158.9,484.8
			z"/>
	</g>
	<g>
		<polygon class="st41" points="158.3,485.3 143.9,435.9 149,434.4 163.4,483.8 		"/>
		<path class="st37" d="M159.1,488l-0.8-2.7l5.1-1.5l0.8,2.7c0.3,1-0.3,2-1.2,2.3l-1.6,0.5C160.4,489.6,159.4,489,159.1,488z"/>
		
			<rect x="159.3" y="480.8" transform="matrix(0.2826 0.9592 -0.9592 0.2826 578.973 192.8306)" class="st38" width="2.5" height="5.3"/>
		<path class="st39" d="M158.2,485.3l0-0.1c0-0.1,0-0.2,0.1-0.2l5.1-1.5c0.1,0,0.2,0,0.2,0.1l0,0.1c0,0.1,0,0.2-0.1,0.2l-5.1,1.5
			C158.3,485.5,158.2,485.4,158.2,485.3z"/>
		<path class="st39" d="M157.8,484.2l0-0.1c0-0.1,0-0.2,0.1-0.2l5.1-1.5c0.1,0,0.2,0,0.2,0.1l0,0.1c0,0.1,0,0.2-0.1,0.2l-5.1,1.5
			C158,484.3,157.9,484.3,157.8,484.2z"/>
		<path class="st39" d="M157.5,482.9l0-0.1c0-0.1,0-0.2,0.1-0.2l5.1-1.5c0.1,0,0.2,0,0.2,0.1l0,0.1c0,0.1,0,0.2-0.1,0.2l-5.1,1.5
			C157.6,483.1,157.5,483,157.5,482.9z"/>
		<path class="st38" d="M146.6,435.9c1.4-0.4,2.5-1.1,2.4-1.4c0,0,0,0,0,0l0,0l0,0c0,0,0-0.1-0.1-0.1l-2.6-3.7l-1.9-2.7
			c-0.1-0.1-0.2,0-0.2,0.1l-0.1,3.2l-0.2,4.6c0,0,0,0.1,0,0.1l0,0l0,0c0,0,0,0,0,0C144,436.3,145.2,436.3,146.6,435.9z"/>
		<path class="st40" d="M145.3,431.1c-0.4,0.1-0.9,0.2-1.2,0.2l0.1-3.2c0-0.1,0.1-0.2,0.2-0.1l1.9,2.7
			C146,430.8,145.7,430.9,145.3,431.1z"/>
	</g>
	<g>
		<polygon class="st41" points="174.4,439.2 166.3,479.2 161.1,478.1 169.1,438.1 		"/>
		<path class="st37" d="M174.9,436.4l-0.6,2.8l-5.2-1.1l0.6-2.8c0.2-1,1.2-1.6,2.1-1.4l1.7,0.3C174.5,434.4,175.1,435.4,174.9,436.4
			z"/>
		
			<rect x="170.3" y="437.1" transform="matrix(0.2048 -0.9788 0.9788 0.2048 -293.9998 517.5704)" class="st38" width="2.5" height="5.3"/>
		<path class="st39" d="M174.5,439.3L174.5,439.3c0,0.1-0.1,0.2-0.3,0.2l-5.1-1.1c-0.1,0-0.2-0.1-0.2-0.3l0,0c0-0.1,0.1-0.2,0.3-0.2
			l5.1,1.1C174.4,439,174.5,439.1,174.5,439.3z"/>
		<path class="st39" d="M174.2,440.5L174.2,440.5c0,0.1-0.1,0.2-0.3,0.2l-5.1-1.1c-0.1,0-0.2-0.1-0.2-0.3l0,0c0-0.1,0.1-0.2,0.3-0.2
			l5.1,1.1C174.2,440.2,174.3,440.3,174.2,440.5z"/>
		<path class="st39" d="M174,441.6l0,0.1c0,0.1-0.1,0.1-0.2,0.1l-5.2-1.1c-0.1,0-0.1-0.1-0.1-0.2l0-0.1c0-0.1,0.1-0.1,0.2-0.1
			l5.2,1.1C173.9,441.5,174,441.6,174,441.6z"/>
		<path class="st38" d="M163.9,477.9c-1.4-0.3-2.7-0.2-2.8,0.2c0,0,0,0,0,0l0,0l0,0c0,0,0,0.1,0,0.1l0.5,4.5l0.4,3.2
			c0,0.1,0.2,0.1,0.2,0l1.7-2.8l2.3-3.9c0,0,0.1-0.1,0.1-0.1l0,0l0,0c0,0,0,0,0,0C166.4,478.8,165.3,478.2,163.9,477.9z"/>
		<path class="st40" d="M162.8,482.8c0.4,0.1,0.8,0.2,1.1,0.4l-1.7,2.8c-0.1,0.1-0.2,0.1-0.2,0l-0.4-3.2
			C162,482.7,162.4,482.7,162.8,482.8z"/>
	</g>
	<path class="st28" d="M174,454.6l-0.8,6.8l-0.4,3v0l-2.3,19l-0.3,2.9l-0.6,5h-20.2l-0.5-5l-0.3-2.9l-1.9-18.9l-0.3-3l-0.7-6.9
		c0.2,1.2,6.5,2.2,14.2,2.2C167.5,456.8,173.7,455.8,174,454.6z"/>
	<path class="st42" d="M145.6,454.6L145.6,454.6C145.6,454.6,145.6,454.6,145.6,454.6z"/>
	<path class="st42" d="M174,454.6C174,454.6,174,454.6,174,454.6L174,454.6z"/>
	<path class="st35" d="M170.6,483.4l-0.3,2.9c-2.6,0.5-6.4,0.7-10.6,0.7c-4.3,0-8.2-0.3-10.8-0.8l-0.3-2.9c2.6,0.5,6.6,0.8,11.1,0.8
		C164,484.2,168,483.9,170.6,483.4z"/>
	<path class="st35" d="M173.2,461.4l-0.4,3v0c-2.1,0.8-7.2,1.4-13.2,1.4c-5.8,0-10.8-0.6-13-1.3l-0.3-3c2,0.8,7.2,1.5,13.3,1.5
		C166,463,171.4,462.3,173.2,461.4z"/>
</g>
<rect x="593.5" y="413.8" class="st43" width="65.7" height="13.4"/>
<rect x="698.5" y="413.8" class="st43" width="65.7" height="13.4"/>
<rect x="69.7" y="259.8" class="st11" width="16" height="64.7"/>
<rect x="187.1" y="285.1" transform="matrix(-1.836970e-16 1 -1 -1.836970e-16 510.8823 123.9294)" class="st9" width="12.7" height="64.6"/>
<rect x="195.7" y="272.4" transform="matrix(-1.836970e-16 1 -1 -1.836970e-16 506.7201 102.5872)" class="st8" width="12.7" height="64.6"/>
<rect x="182.3" y="259.9" transform="matrix(-1.836970e-16 1 -1 -1.836970e-16 480.9246 103.5159)" class="st43" width="12.7" height="64.6"/>
<rect x="87.8" y="233.8" class="st43" width="16.3" height="89.8"/>
<rect x="52.8" y="243.7" class="st9" width="15" height="79.9"/>
<polygon class="st8" points="152.6,316.2 139.1,322.8 104.1,251 117.6,244.4 "/>
<rect x="40.8" y="323.1" class="st2" width="258.2" height="7.3"/>
<g>
	<path class="st41" d="M266.5,280.7c-0.2-2.1-0.5-4.3-1.5-6.2c-1.2-2.3-3.3-3.9-5.1-5.8c-3.4-3.4-6.1-7.6-7.6-12.2
		c-1.2-3.5-1.8-7.3-3.5-10.6c-1-2-2.4-3.9-3.6-5.8c-2.8-4.6-4.3-10.1-8-14c-0.7,4.7,0.7,9.7,3.8,13.3c0.9,1.1,2,2,2.7,3.3
		c1.3,2.2,1.2,5,1.3,7.5c0.3,4.8,1.6,9.6,4,13.8c2.5,4.5,6,8.5,7.3,13.5c1,3.7,0.7,7.9,2.8,11.1c0.2,0.3,0.5,0.7,0.5,1.1
		c0,0.2,0,0.5,0,0.7c0,0.3-0.1,0.6-0.1,0.9c-0.5,3-1,6.9,1.6,9.2c1.8,1.6,4.1,1.6,5.4-0.5c1.3-2.1,1.2-5.2,1.1-7.6
		C267.3,288.6,266.9,284.6,266.5,280.7z"/>
	<path class="st44" d="M271.2,278.2c-1-3.5-2.6-6.9-3.4-10.5c-0.8-3.5-0.8-7.1-0.8-10.6c0-3.9,0-7.8,0-11.7c0-2.4,0-4.9-0.4-7.3
		c-0.9-5.2-3.5-9.9-4-15.1c-0.2-2.3,0-4.5-0.2-6.8c-0.1-1.3-0.5-2.6-1.1-3.7c-0.6-1.2-2.4-1.2-3,0.1c-1.3,2.8-2.1,5.9-1.6,8.9
		c0.3,1.8,1.1,3.5,1.7,5.2c2.6,7.8,1.2,16.3,3.2,24.3c0.6,2.4,1.5,4.7,1.6,7.2c0.3,5.9-4.2,11.3-3.8,17.2c0.3,4.8,3.8,8.8,5.3,13.5
		c0.8,2.6,1,5.4,1.9,7.9c0.7,2,2.3,4.4,4.7,3.8c2.3-0.6,1.6-2.5,1.5-4.3C272.6,290.2,272.9,284.2,271.2,278.2z"/>
	<path class="st41" d="M276.5,281.4c-0.1-1.8-0.4-3.7-0.2-5.5c0.2-1.5,0.8-3,1.3-4.5c0.8-2.8,1-5.7,1.2-8.6
		c0.4-5.3,0.7-10.5,1.1-15.8c0.6-8.2,1.1-16.4,2.7-24.4c0.4-2.2,0.9-4.7-0.1-6.7c-0.2-0.4-0.6-0.9-1.1-0.7c-0.3,0.1-0.5,0.5-0.6,0.8
		c-3.3,9.1-4.6,18.9-8.3,27.8c-0.9,2.1-1.9,4.2-2.4,6.5c-0.6,2.7-0.3,5.6-0.2,8.3c0.1,4-0.3,8-1.4,11.9c-0.6,2-1.4,4-1.7,6
		c-0.4,2.6-0.1,5.2,0.2,7.8c0.5,5,0.6,10,0.5,15c-0.1,2.9,2.4,2.9,4,1.1c1.2-1.3,1.1-2.7,1.5-4.2C274.4,291,276.8,287,276.5,281.4z"
		/>
	<path class="st44" d="M261,289.4c-2.2-3.5-6.6-5.5-8-9.5c-0.4-1-0.5-2.1-0.9-3c-1-2.1-3.2-3.4-5.3-4.3c-0.3-0.1-0.6,0.1-0.6,0.4
		l0,0c0,0.5,0.2,1,0.7,1.3c1.7,1.1,2.9,2.8,3.5,4.8c0.7,2.3,0.4,4.8,1.2,7.1c0.7,1.9,2.1,3.4,2.8,5.3c0.6,1.7,0.6,3.6,0.8,5.4
		c0.3,1.8,1.1,3.7,2.8,4.5C263.9,304.2,262.4,291.7,261,289.4z"/>
	<path class="st41" d="M286,288.3c-0.1,1.7,0.2,3.5-0.5,5.1c-0.4,1-1.2,1.8-1.8,2.7c-2.2,3.1-3,7.6-6.4,9.3
		c-0.2,0.1-0.5,0.2-0.7,0.2c-0.3-0.1-0.6-0.4-0.7-0.7c-0.8-1.9,0.1-4.1,0.7-6.2c0.1-0.4,0.2-0.8,0-1.1c-0.2-0.4-0.6-0.5-0.9-0.8
		c-0.6-0.6-0.5-1.5-0.4-2.3c0.3-2,0.7-4,1.2-6c0.3-1.1,0.6-2.2,1.3-3.2c0.7-1.1,1.7-1.8,2.7-2.7c4.2-3.6,7.5-8.4,9.3-13.7
		c0.4-1.1,0.7-2.4,1.6-3.3s2.3-1.4,3.3-0.7c0.7,0.5-2.2,5.1-2.5,5.7c-1,1.6-1,3-1.5,4.7C289.1,279.7,286.3,283.6,286,288.3z"/>
	<path class="st44" d="M282.7,290.2c0.6-1.6,1.3-3.3,1.5-5c0.2-1.9-0.1-3.9,0.3-5.8c0.4-2.5,1.9-4.6,2.6-7c0.5-1.7,0.6-3.5,0.9-5.3
		c0.9-5.1,3.3-10,2.6-15.2c-0.1-1.1-0.7-2.4-1.8-2.6c-1-0.2-1.9,0.7-2.2,1.7c-0.3,1-0.1,2,0,3c0.2,2.8-0.6,5.7-2.2,8
		c-1.6,2.2-3.8,3.9-5.3,6.2c-1.7,2.9-2,6.3-2.9,9.5c-1.8,6.4-6.2,12-7,18.6c-0.3,2.6,0.3,5.8,2.7,6.9
		C279,306.3,281.1,294.3,282.7,290.2z"/>
	<path class="st43" d="M270.5,295.1h-1.1h-14.9c-1.1,0-1.9,1-1.7,2.1l5.9,24.7c0.2,0.8,0.9,1.3,1.7,1.3h9.1h1.1h9.1
		c0.8,0,1.5-0.5,1.7-1.3l5.9-24.7c0.3-1.1-0.6-2.1-1.7-2.1H270.5z"/>
</g>
<rect x="52.8" y="250" class="st43" width="15" height="5.2"/>
<rect x="73.2" y="265.3" class="st12" width="9" height="24.7"/>
<rect x="87.8" y="243.7" class="st7" width="16.3" height="3.9"/>
<rect x="87.8" y="219" class="st7" width="16.3" height="5.1"/>
<g>
	<polygon class="st45" points="706.4,335.7 704,492 553.1,488.4 344,489 645.3,304.8 	"/>
	<path class="st46" d="M704.5,492.5h75.6v0c0-7.5-6.1-13.5-13.5-13.5h-48.5C710.6,479,704.5,485.1,704.5,492.5L704.5,492.5z"/>
	
		<rect x="750.4" y="366.4" transform="matrix(-0.9907 -0.1362 0.1362 -0.9907 1441.3715 946.5308)" class="st15" width="5.4" height="115.1"/>
	
		<rect x="733.4" y="276.5" transform="matrix(-0.7779 0.6283 -0.6283 -0.7779 1518.7391 131.3924)" class="st15" width="5.4" height="115.1"/>
	<path class="st46" d="M754.4,367.7c0.5,3.7,3.9,6.2,7.6,5.7c3.7-0.5,6.2-3.9,5.7-7.6c-0.5-3.7-3.9-6.2-7.6-5.7
		C756.5,360.7,753.9,364.1,754.4,367.7z"/>
	<g>
		<path class="st15" d="M682,287.3c1.4,7,8.1,11.5,15.1,10.1c7-1.4,11.5-8.1,10.1-15.1c-1.4-7-8.1-11.5-15.1-10.1
			C685.2,273.5,680.7,280.3,682,287.3z"/>
		<path class="st15" d="M645.3,304.8l61.1,30.9c0.8-1.6,1.5-3.2,2.1-4.8c7-18.6,1-38.7-14.5-46.5c-15.3-7.7-34.7-0.9-45.7,15.3
			C647.2,301.3,646.2,303,645.3,304.8z"/>
		<path class="st15" d="M645.3,304.8l61.1,30.9c0.8-1.6,1.5-3.2,2.1-4.8l-60.2-31.2C647.2,301.3,646.2,303,645.3,304.8z"/>
	</g>
</g>
<g>
	<path class="st2" d="M220.9,170H117.7c-5.7,0-10.3-4.6-10.3-10.3V60.1c0-5.7,4.6-10.3,10.3-10.3h103.3c5.7,0,10.3,4.6,10.3,10.3
		v99.6C231.3,165.4,226.6,170,220.9,170z"/>
	<path class="st3" d="M216.5,164.8h-94.3c-5.2,0-9.4-4.2-9.4-9.4V64.4c0-5.2,4.2-9.4,9.4-9.4h94.3c5.2,0,9.4,4.2,9.4,9.4v90.9
		C225.9,160.5,221.7,164.8,216.5,164.8z"/>
	<g>
		<g>
			<path class="st2" d="M166.7,66c0-1.4,1.1-2.6,2.6-2.6c1.4,0,2.6,1.1,2.6,2.6c0,1.4-1.1,2.6-2.6,2.6
				C167.9,68.5,166.7,67.4,166.7,66z"/>
			<path class="st2" d="M187.5,69.6c0.7-1.2,2.3-1.7,3.5-1c1.2,0.7,1.7,2.3,1,3.5c-0.7,1.2-2.3,1.7-3.5,1
				C187.2,72.4,186.8,70.8,187.5,69.6z"/>
			<path class="st2" d="M205.2,83.7c1.2-0.8,2.8-0.4,3.5,0.8c0.8,1.2,0.4,2.8-0.8,3.5c-1.2,0.8-2.8,0.4-3.5-0.8
				C203.7,86,204,84.5,205.2,83.7z"/>
			<path class="st2" d="M214,105.5c1.4,0,2.6,1.1,2.6,2.6c0,1.4-1.1,2.6-2.6,2.6c-1.4,0-2.6-1.1-2.6-2.6
				C211.4,106.7,212.6,105.5,214,105.5z"/>
			<path class="st2" d="M209.5,130.8c1,1,1,2.6,0,3.6c-1,1-2.6,1-3.6,0c-1-1-1-2.6,0-3.6C206.9,129.8,208.5,129.8,209.5,130.8z"/>
			<path class="st2" d="M193.4,147c1,1,1,2.6,0,3.6c-1,1-2.6,1-3.6,0c-1-1-1-2.6,0-3.6C190.8,146,192.4,146,193.4,147z"/>
			<path class="st2" d="M166.7,155.3c0-1.4,1.1-2.6,2.6-2.6c1.4,0,2.6,1.1,2.6,2.6c0,1.4-1.1,2.6-2.6,2.6
				C167.9,157.9,166.7,156.7,166.7,155.3z"/>
		</g>
		<g>
			<path class="st2" d="M151.1,69.6c-0.7-1.2-2.3-1.7-3.5-1c-1.2,0.7-1.7,2.3-1,3.5c0.7,1.2,2.3,1.7,3.5,1
				C151.3,72.4,151.8,70.8,151.1,69.6z"/>
			<path class="st2" d="M133.3,83.7c-1.2-0.8-2.8-0.4-3.5,0.8c-0.8,1.2-0.4,2.8,0.8,3.5c1.2,0.8,2.8,0.4,3.5-0.8
				C134.9,86,134.5,84.5,133.3,83.7z"/>
			<path class="st2" d="M124.5,105.5c-1.4,0-2.6,1.1-2.6,2.6c0,1.4,1.1,2.6,2.6,2.6c1.4,0,2.6-1.1,2.6-2.6
				C127.1,106.7,126,105.5,124.5,105.5z"/>
			<path class="st2" d="M129,130.8c-1,1-1,2.6,0,3.6c1,1,2.6,1,3.6,0c1-1,1-2.6,0-3.6C131.7,129.8,130,129.8,129,130.8z"/>
			<path class="st2" d="M145.2,147c-1,1-1,2.6,0,3.6c1,1,2.6,1,3.6,0c1-1,1-2.6,0-3.6C147.8,146,146.2,146,145.2,147z"/>
		</g>
	</g>
	<g>
		<path class="st2" d="M168.6,108.1c0-1.4,1.1-2.6,2.6-2.6c1.4,0,2.6,1.1,2.6,2.6c0,1.4-1.1,2.6-2.6,2.6
			C169.8,110.6,168.6,109.5,168.6,108.1z"/>
		<g>
			<rect x="170.8" y="76" class="st2" width="0.7" height="32.1"/>
		</g>
		<g>
			
				<rect x="168.6" y="100.3" transform="matrix(0.7867 -0.6174 0.6174 0.7867 -24.3113 132.3586)" class="st2" width="21.6" height="2.1"/>
		</g>
	</g>
</g>
<circle class="st47" cx="514.5" cy="257.5" r="9"/>
<circle class="st47" cx="492.5" cy="257.5" r="9"/>
<line class="st47" x1="485.5" y1="253.5" x2="465.5" y2="252.5"/>
<line class="st47" x1="506" y1="257.5" x2="501.5" y2="257.5"/>
<line class="st48" x1="502" y1="253" x2="509" y2="253"/>
</svg>
