<?xml version="1.0" encoding="utf-8"?>
<!-- Generator: Adobe Illustrator 24.2.0, SVG Export Plug-In . SVG Version: 6.00 Build 0)  -->
<svg version="1.1" id="Layer_1" xmlns="http://www.w3.org/2000/svg" xmlns:xlink="http://www.w3.org/1999/xlink" x="0px" y="0px"
	 viewBox="0 0 595.3 595.3" style="enable-background:new 0 0 595.3 595.3;" xml:space="preserve">
<style type="text/css">
	.st0{fill:#EED0AF;}
	.st1{clip-path:url(#SVGID_2_);}
	.st2{fill:#0B2544;}
	.st3{fill:#193762;}
	.st4{fill:#F79B5F;}
	.st5{fill:#F9AC74;}
	.st6{fill:#1D3865;}
	.st7{fill:#F48E4E;}
	.st8{fill:#E8F1F9;}
	.st9{fill:#FFFFFF;}
	.st10{fill:#F37621;}
	.st11{fill:#F68F32;}
	.st12{fill:#0E5189;}
	.st13{fill:#164880;}
</style>
<path class="st0" d="M89.8,587.7h406c17.4,0,31.5-14.1,31.5-31.5c0,0,71-63.1,39-127.7c-84.9-171.5-158.3-95-236.5-173.2
	c-92.9-92.9-184.3,91.1-260.5,112.3C12,383.4-2.7,524.2,89.8,587.7z"/>
<g>
	<defs>
		<path id="SVGID_1_" d="M495,588.7H52.2c-17.4,0-31.5-14.1-31.5-31.5l4.5-525.6C25.1,14.1,39.2,0,56.6,0H495
			c17.4,0,31.5,14.1,31.5,31.5v525.6C526.6,574.5,512.4,588.7,495,588.7z"/>
	</defs>
	<clipPath id="SVGID_2_">
		<use xlink:href="#SVGID_1_"  style="overflow:visible;"/>
	</clipPath>
	<g class="st1">
		<path class="st2" d="M479.1,691H189.9c0,0-54.7-233.4-6-293.6c45.4-56.2,248.6-56.7,299.7-5.5C538.4,446.6,479.1,691,479.1,691z"
			/>
		<path class="st3" d="M282.8,76.7c0,0-50.6,5-79.3,48.1c-19.9,29.9-16.3,100.3-43.3,124.5c-27,24.2-21.5,72,12.6,92.1
			c34.1,20.1,214.8,34.1,271.1-13.6c56.3-47.8-19.5-74.4-15.3-154.8C430.6,135.4,377.8,65.8,282.8,76.7z"/>
		<path class="st4" d="M110.8,862.5c0,0-27.4,27.5-31.5,36.5c-4.1,9.1-10,31.8,10.4,33.6c20.5,1.8,28.7-1.3,31.6-11.1
			c2.9-9.8,8.7-42.4,8.7-42.4L110.8,862.5z"/>
		<path class="st5" d="M208.1,391.8c0,0-52.8,14.5-67.9,83.7c-15.1,69.3-0.7,217.6-13.9,264C113.1,786,96.6,871,96.6,871
			s18.6,15,38.3,14c0,0,100.9-147.8,101.8-187.7C237.6,657.4,208.1,391.8,208.1,391.8z"/>
		<path class="st6" d="M609.7,1740c0,0,31.8,29,25.6,49.6c-6.2,20.6-34.9,34.3-38.7,59.5s-19.4,38.9-33.3,38.9
			c-13.9,0-66.5,0-66.5,0s-10.3-17.7,14.5-23.1c24.8-5.3,34.1-34.9,32.6-62.4c-1.6-27.5,2.3-64.1,2.3-64.1l52.7-12.2L609.7,1740z"/>
		<path class="st6" d="M340.8,1752.3c0,0,11.4,122.8-2.5,129.7l-178.5-0.4c0,0,0-20.6,28.7-25.2c28.7-4.6,79-21.4,87.6-58.7
			C284.5,1760.3,340.8,1752.3,340.8,1752.3z"/>
		<path class="st5" d="M468,871.2c-36.7-82.4-59.2-106-54.9-131.6c3.2-19-9.7-354.8-9.7-354.8c-4.4-1.4-13.1-2.6-17.9-3.6
			c-15.1-3.3-27.5-13.9-32.7-28.5c-6.3-17.5-11.2-43.4-11.1-75.8l-4.7,0.9l-79.1,15.7c0,0,1.8,24.9,1.9,48.4c0,0.2,0,0.4,0,0.6
			c0.1,20.4-13.3,38.3-32.8,44c-10,2.9-18.7,5.3-18.7,5.3s-29.1,82.9-34.6,168.1c-5.5,85.2,52.8,122.2-0.4,292.5
			C118.7,1026.3,488.3,916.7,468,871.2z"/>
		<path class="st7" d="M257.8,293.5c0,0,1.8,24.9,1.9,48.4c44.3-1.3,67.7-41.6,77.3-64L257.8,293.5z"/>
		<path class="st5" d="M243,315.7c0,0,104.7,1.7,104.8-63.5c0.1-65.2,13.6-109-53.2-112.8c-66.9-3.9-79.9,21-85.2,42.8
			C204.1,204,215.8,313.6,243,315.7z"/>
		<path class="st3" d="M246.9,137.8c0,0,28.7,76.5,72.7,87.9c44,11.3,63.1-0.5,63.1-0.5s-33.8-26.8-40.8-73.6
			C341.9,151.6,268.5,101.4,246.9,137.8z"/>
		<path class="st3" d="M254,144c0,0-21.3,7.9-30,23.5c-8.6,15.2-15.9,35.3-14.2,59.9c0,0-21.6-52,2.7-81.5
			C238.2,114.7,254,144,254,144z"/>
		<path class="st8" d="M265.8,275.3c0,0-7.2,9.5-21.7,8.8c-11.6-0.5-16.1-10.7-16.1-10.7S249.4,268.3,265.8,275.3z"/>
		<path class="st9" d="M453.7,533.3c0,0-0.4,49.7-3.1,94.7c-1.8,29.8-4.5,57.6-8.8,67.5c-10.7,24.8-22.9,28.8-22.9,28.8l-93.7,23
			l-33,8.1l-103.9-31c0,0-47.3-132.1-28.3-206.5c19-74.4,48-126,48-126s84.8,83,195.2-7L453.7,533.3z"/>
		<path class="st10" d="M195,744.4c0,0-51.5,160.2-54.8,214.7c-3.3,54.5,98.4,774.7,102.5,799.9c3.9,23.7,33.3,38.8,33.3,38.8
			s13.5,8,32.8,2.5c26.8-7.6,35.3-16.6,35.3-16.6s40.1-513.6,15.3-697.1c-24.8-183.5-25.1-342.1-25.1-342.1H195z"/>
		<path class="st11" d="M413.1,739.6c0,0,78.5,105.3,85.8,176.5c7.3,71.2,11.5,321.3,27.1,390.7c15.6,69.4,72.9,203,72.9,419.5
			c0,0-6,12.4-24.3,19c-5.9,2.1-13.8,4.2-21.4,5.9c-15.2,3.5-30.7-3.9-37.6-17.9c-38.7-78-162.1-329.5-168.4-381.7
			c-4.5-36.9-43.4-281.4-128.4-424.9c-20.4-34.4,12.5-171.4,12.5-171.4L413.1,739.6z"/>
		<path class="st9" d="M263.5,277c0,0-1.8,7.7-20.9,6.5c0,0-16.1-1-15.6-9.4C227,274.1,242.5,268.1,263.5,277z"/>
		<path class="st6" d="M186.8,719.6c0,0,20.7,16.3,61.7,17.2c49,1,170.5-12.5,170.5-12.5s5.4,15.1,5.2,31c0,0-148.4,37.4-234.3,5.5
			C189.9,760.8,178.8,739.9,186.8,719.6z"/>
		<g>
			
				<rect x="406.2" y="862.2" transform="matrix(0.9387 -0.3448 0.3448 0.9387 -288.1587 238.2307)" class="st3" width="238.8" height="133.9"/>
			<path class="st12" d="M390.4,907.5c0,0,72.2,45.1,141.4,16.1c69.2-28.9,82.8-98.5,82.8-98.5L390.4,907.5z"/>
		</g>
		<g>
			<path class="st13" d="M423.4,907.3c-7.1,1-13.7-4-14.6-11c-1-7.1,4-13.7,11-14.6c7.1-1,13.7,4,14.6,11
				C435.4,899.7,430.5,906.3,423.4,907.3z M420.4,885.9c-4.7,0.7-8,5.1-7.4,9.8c0.7,4.7,5.1,8,9.8,7.4c4.7-0.7,8-5.1,7.4-9.8
				C429.5,888.5,425.1,885.2,420.4,885.9z"/>
		</g>
		<path class="st5" d="M569.7,920.1c0,0,0.1,19,3.7,28.1c3.6,9.1,14.4,21.3,18,21.3c3.6,0-3.3-19.1-1.5-18.7
			c1.8,0.4,10.5,31.7,16.8,32.5c6.3,0.8,12-35.1,8.7-49.3c-3.3-14.1-17.5-31-17.5-31L569.7,920.1z"/>
		<path class="st5" d="M403.3,384.8c0,0,57.9,7.9,89.1,69.3c24.1,47.5,40.6,196.8,57.6,243.9c16.3,45,33,122.3,45.5,192
			c1,5.4,2.2,13.1,2.2,13.1l-28.1,17c2.7,5.1-9.3-19.7-12-25.6C513.8,798,501.3,754,475.4,680.3c-9.8-28-41.2-89.9-53.8-110.3
			c-30.5-49.5-54.3-68.5-37.2-124.1L403.3,384.8z"/>
		<path class="st4" d="M100.2,873.5c0,0-19,9.6-23.6,16c-4.5,6.4-12.6,14.8-7.6,15.9c5,1,19.6-9.9,19.6-9.9L100.2,873.5z"/>
		<path class="st5" d="M79.4,913.6c0,0,17.2-12.6,28-8.1c10.7,4.5,11.5,21.4,8.2,24.9c-3.3,3.5-30.3,7.4-37.5-2.1
			C70.8,918.8,79.4,913.6,79.4,913.6z"/>
		<path class="st9" d="M226.8,386.5c0,0,74.7,24.9,158.6-5.3c0,0,57.5,2.5,83.3,32.5c25.8,30,56.8,109.3,56.8,109.3
			s-29.8,62.5-112.7,63.7C330,587.8,157.1,534,157.1,534s-21.9,7-39.8-6.2c0,0,18.2-86.5,45.2-111.1
			C189.5,392.1,226.8,386.5,226.8,386.5z"/>
		<g>
			<path class="st2" d="M390.4,727.3c-0.4-2.1-17.9-53.3-32-172.3c-7.4-62.5-4-107.7,0.2-134.6c4.6-29.4,15.7-42.7,16-43.3h28
				c-0.2,0.6-33.9,59.8-20,177.5c14.1,118.7,35.9,167.6,36.3,169.7L390.4,727.3z"/>
		</g>
		<g>
			<path class="st2" d="M158.2,722.6c-0.4-2.1-4.5-48.2-14.8-167.6c-7.8-90.5,50.7-162.8,51.2-163.2c6.3-5.2,32.2-5.3,32.2-5.3
				c-0.2,0.6-73.1,50.4-59.1,168.1c14.1,118.7,18.6,163,19.1,165.1L158.2,722.6z"/>
		</g>
	</g>
</g>
</svg>
