<?xml version="1.0" encoding="utf-8"?>
<!-- Generator: Adobe Illustrator 24.2.0, SVG Export Plug-In . SVG Version: 6.00 Build 0)  -->
<svg version="1.1" id="Layer_1" xmlns="http://www.w3.org/2000/svg" xmlns:xlink="http://www.w3.org/1999/xlink" x="0px" y="0px"
	 viewBox="0 0 595.3 595.3" style="enable-background:new 0 0 595.3 595.3;" xml:space="preserve">
<style type="text/css">
	.st0{fill:#EED0AF;}
	.st1{clip-path:url(#SVGID_2_);}
	.st2{fill:#F79B5F;}
	.st3{fill:#F9AC74;}
	.st4{fill:#D24B40;}
	.st5{fill:#2A3967;}
	.st6{fill:#1A478B;}
	.st7{fill:#262626;}
	.st8{fill:#A2A5A7;}
	.st9{fill:#E37825;}
	.st10{opacity:0.38;fill:#626363;}
	.st11{fill:#193762;}
	.st12{fill:#1052A3;}
	.st13{fill:#F0DCCA;}
	.st14{fill:#FFEAD8;}
	.st15{fill:none;stroke:#6D4F1F;stroke-width:6.3664;stroke-miterlimit:10;}
</style>
<path class="st0" d="M452.8,584.7H65.7c-16.6,0-30.1-13.5-30.1-30.1c0,0-23.3-93,7.2-154.6c81-163.5,121.4-10.5,311-152.5
	c100.3-75.1,226.4,130.1,84.8,322.1C432.3,578.2,469.4,584.7,452.8,584.7z"/>
<g>
	<defs>
		<path id="SVGID_1_" d="M521.4,583.5H99.2c-16.6,0-30.1-13.5-30.1-30.1l4.2-501c0-16.6,13.5-30.1,30.1-30.1h417.9
			c16.6,0,30.1,13.5,30.1,30.1v501C551.5,570,538,583.5,521.4,583.5z"/>
	</defs>
	<clipPath id="SVGID_2_">
		<use xlink:href="#SVGID_1_"  style="overflow:visible;"/>
	</clipPath>
	<g class="st1">
		<g>
			<g>
				<g>
					<path class="st2" d="M402.1,372.6c0,0,27.6,40.8,43.3,126.5c13.8,75.1,25.8,102.8,45.7,118.2c19.9,15.4,130.6,60.8,130.6,60.8
						l-8.3,19.4c0,0-162.3-22.1-180.5-49.2c-18.2-27.1-87.7-187.4-82.3-224.3C355.9,387,402.1,372.6,402.1,372.6z"/>
					<g>
						<path class="st3" d="M514.1,1221c-10.2,12.2,5.6,27.9,25.9,43.5c20.2,15.6,10.9,15.5,36,40.7c25.1,25.2,42.1,25.3,46.8,22.9
							c4.3-2.2-5.4-16.8-15.3-32.8c-1.3-2-2.5-4-3.8-6.1c-11.1-18.2-10.1-38.8-13.3-60.8c-3-20.8,13.8-69,13.8-69L571,1124
							c0,0-14.3,44-21.3,62.1c-4.1,10.7-14.5,18.6-22.9,24.3C522.3,1213.5,517.7,1216.7,514.1,1221z"/>
						<path class="st4" d="M540,1264.6c20.2,15.6,10.9,15.5,36,40.7c25.1,25.2,42.1,25.3,46.8,22.9c4.3-2.2-5.4-16.8-15.3-32.8
							l-0.4,0.1c0,0-24.9-7.2-43.8-29.7c-15.4-18.4-25.9-42.5-36.4-55.3c-4.5,3.1-9.1,6.3-12.7,10.6
							C503.9,1233.2,519.8,1248.9,540,1264.6z"/>
					</g>
					<path class="st5" d="M326.2,704.3c0,0,315.8-23.8,375.3,13.8c59.5,37.5-107.2,512-107.2,512s-17.6-4.9-29.9-13.7
						c-11.2-8.1-23.7-23.2-23.7-23.2s-14.5-158.9,41.9-352.1c6.2-21.1-256.5,46-298-27c-41.4-73-7.2-145.3-7.2-145.3L326.2,704.3z"
						/>
					<g>
						<path class="st3" d="M678.7,1318.7c-1.5,15.8,20.6,19.7,46.1,21c25.5,1.3,17.8,6.5,52.8,12.8c35,6.3,49-3.2,51.5-8
							c2.3-4.2-14-10.8-31.3-18.2c-2.2-0.9-4.4-1.9-6.5-2.8c-19.5-8.6-30.4-26.1-45.7-42.3c-14.4-15.4-28.1-64.5-28.1-64.5
							l-47.5-10.2c0,0,13.3,44.3,18,63.2c2.7,11.1-1.3,23.5-4.9,33C681.2,1307.8,679.2,1313.1,678.7,1318.7z"/>
						<path class="st4" d="M724.8,1339.6c25.5,1.3,17.8,6.5,52.8,12.8c35,6.3,49-3.2,51.5-8c2.3-4.2-14-10.8-31.3-18.2l-0.3,0.3
							c0,0-24.6,8.4-53,0.6c-23.1-6.3-45.5-20.1-61.5-24.6c-1.9,5.1-3.9,10.4-4.4,16C677.2,1334.5,699.3,1338.4,724.8,1339.6z"/>
					</g>
					<path class="st6" d="M264.4,723.9c0,0,280.6,13.3,338.5,53.1c58,39.8,136.2,480.3,136.2,480.3s-6.1,4.5-19.3,5.4
						c-12.3,0.8-38.9-7.4-38.9-7.4s-129.3-200.8-137.1-250.4c-7.7-49.6-3.7-93.5-25.6-95.5c-21.9-2-297.1,21.8-335.7-52.8
						C144.1,782,264.4,723.9,264.4,723.9z"/>
					<path class="st7" d="M390,121.4c-10.7-10.4-25.6-15-36.3-17.1c3.4-2.1,9-1.8,9-1.8c-6.3-2.6-22.5,0.1-22.5,0.1
						C258.4,44.3,209.8,174.4,203.7,206c-6.1,31.6-17.2,76.7-55.8,115.8C49,422.2,190.4,538.3,190.4,538.3
						c0.6,0.6,70.9-149.9,141.6-174.1c20.3-17.9,35.3-54.8,36.5-57.7c-10.3,29.7-19.9,45.4-27,53.8
						C404.7,326.3,418.4,148.9,390,121.4z"/>
					<path class="st3" d="M252.6,325.6c0,0,26.1-2.5,52.3,0c17.8,1.7,35.3,7.2,45.3,11.4c24.7,10.3,22.1,54.1-29.8,46
						C268.5,374.9,248.9,338.6,252.6,325.6z"/>
					<path class="st3" d="M348,357.6c0.3,0.2,7.4,37.7-26.6,36.2c-22.3-1-70.4-28-66.2-47.1c2-9.1,18.9-32.6,22.3-86.4l4.1,1.1
						l68.3,18.3c0,0-3,21.7-4.4,42.2C344.2,339,344.2,355.5,348,357.6z"/>
					<path class="st2" d="M349.9,279.7c0,0-3,21.7-4.4,42.2c-38.6-3.7-56.7-40.3-63.8-60.5L349.9,279.7z"/>
					<path class="st7" d="M275.2,249.4c0,0-11.7-36.2-9.6-64c1.5-19.9,29.2-87.8,97.4-59.5c0,0,20,7.3,36,25.3
						c12.7,14.3,29.1,42.4-11.4,97.5l-11.8,19.1L275.2,249.4z"/>
					<path class="st3" d="M351.7,311.1c0,0-89.3-21.3-75.2-76.7c14.2-55.4,12.1-95.5,69.8-84.2c57.6,11.3,63.2,35.2,63,54.9
						C409.1,224.7,375.3,315.2,351.7,311.1z"/>
					<path class="st7" d="M387.1,159.2c0,0-41,58.7-80.8,58.8c-39.8,0-53.5-14.1-53.5-14.1s34.5-15.4,50.6-53.6
						C303.5,150.2,376.7,123.6,387.1,159.2z"/>
					<path class="st7" d="M379.7,162.9c0,0,14.5,19.2,15.3,34.4c0.8,15.2-4.6,44.8,4.1,46c0,0,29.7-39.5,15.5-69.7
						C399.5,141.5,379.7,162.9,379.7,162.9z"/>
					<path class="st8" d="M453.2,709.1c-7.4,8.9-30.6,11.6-55.4,15.7c-19.5,3.2-40,7.3-54.5,15.8c-33.1,19.4-141,85-172.7,82
						c-12.3-1.2-10-24.6-2.5-55.7c11.7-49.1,36.2-117.3,36.2-146.9c0-16.2,5.4-54.5,12.6-98.2c0.6-3.5,1.2-7.1,1.8-10.7
						c14.2-85.1,33.9-185.4,33.9-185.4s22,47.9,64.8,47.9c42.8,0,32.8-36.5,32.8-36.5s39.1,4.6,48.3,14.5
						c9.2,9.9,32.6,52.9,37.3,64.6c0,0,0.9,14.9-36,22c0,0,9,40.5,10.1,67.4c0.8,19.9-13.6,82.3-17.7,121.1
						c-1.5,13.7-1.7,24.5,0.6,29.4c2.9,6.3,12.1,12.5,22.6,18.6C436.1,686.8,462,698.5,453.2,709.1z"/>
					<path class="st3" d="M240.9,357.2c0,0-32.6-19.8-64.1,17.7c-31.5,37.5,22.4,305.8,69.1,319.6c51.8,15.3,207.4,14.5,207.4,14.5
						l-6.5-18.9c0,0-161.6-52.1-168.2-60.6C271.9,621.1,257.4,361.5,240.9,357.2z"/>
					<path class="st9" d="M322.7,758.4c0,0-147.3,107.1-171.9,74.3c-12.7-17,48.8-180.4,48.8-180.4l34-318.3l19.1-8.5l23.8,23.8
						c13.3,13.3,34.6,48.6,35.6,67.4L322.7,758.4z"/>
					<path class="st10" d="M303.6,713.8c0,0-80.6,6.4-99.7-12.7c-8.6-8.6-8.5-36.1-8.5-36.1h108.2V713.8z"/>
					<polygon class="st10" points="282.3,620.5 254.8,620.5 259,404 269.6,425.2 					"/>
					<path class="st9" d="M486.1,605.6c10,12.8,46.7,14.9,46.7,14.9l-36.1,59.4L439.4,665l-67.9-324.7c0,0,26.2,4.4,31.8,10.6
						C448,400.8,448.1,556.9,486.1,605.6z"/>
					<path class="st10" d="M458.5,669.3L405,639.6l2.6-235.6c0,0,5.1,85.6,8.5,106.1C423.7,556.3,458.5,669.3,458.5,669.3z"/>
					<path class="st9" d="M409.7,505.9c7.9,51.5,57.3,167.6,44.6,203.7c-6,17-70,17-70,17l-34-390.5c0,0,41.6,8,50.9,17
						C413.2,364.6,403.9,468,409.7,505.9z"/>
					<path class="st10" d="M439.4,718.1c-12.5,4.4-53.1,4.2-53.1,4.2c-8.6-8.6-8.5-36.1-8.5-36.1h108.2c0,0-20.8,19.3-31.8,23.3
						c-1.7,0.6-1,2.4-2.1,2.1C444.1,709.7,443.8,716.5,439.4,718.1z"/>
					<g>
						<path class="st11" d="M538.2,428.4l6.4-58.7l-83,109.4c0,0,34.7,17.3,36.8,14C500.4,489.8,538.2,428.4,538.2,428.4z"/>
						<polygon class="st12" points="414,428.4 337.4,545.5 466.1,545.5 538.2,428.4 						"/>
						<polygon class="st13" points="538.2,428.4 544.2,370.3 500.9,424.6 						"/>
						<polygon class="st13" points="341.3,539.5 335.4,535.3 411.6,422.1 414,428.4 						"/>
						<polygon class="st14" points="411.6,422.1 532.9,425.5 538.2,428.4 414,428.4 						"/>
					</g>
					<path class="st3" d="M451.4,503.1c-2.6,1.9-5.6,4.8-8.2,7.6c5.1-12.9,10-26.1,10-26.1s-8.1-0.3-18.5,20
						c-1.2,2.3-2.8,4.1-4.7,5.6l12.7-30.6c-7.3,0.2-15.1,12.9-20.5,23.7c-3.8,7.7-11.3,12.9-19.8,13.7c-0.1,0-0.3,0-0.4,0
						c0.3-0.4,0.6-0.7,1-1.1c11-14,7.4-24.4,4.6-20.2c-2.8,4.2-22.8,26.1-22.8,26.1c-10.2,8.6-22.5,34.2-22.5,34.2l12.8,21.4
						c0,0,53.2-35.1,58.9-45.2c0.5-0.8,1-1.8,1.5-3l0,0l26.4-28.4C461.7,500.7,458.4,498.1,451.4,503.1z"/>
					<path class="st9" d="M252.6,325.6c0,0-66.9,6-86.3,28c-19.4,22-15.5,94.9-15.5,94.9s35.7,244.1,63.7,248.3
						c121,18,155.3-87.5,168.6-113.4c4-7.8-23.6-38-23.6-38c10.7,0-88.7,78-77.1,75L252.6,325.6z"/>
				</g>
			</g>
		</g>
		<circle class="st15" cx="383.7" cy="220.2" r="19.1"/>
		<circle class="st15" cx="337" cy="220.2" r="19.1"/>
		<line class="st15" x1="321.6" y1="218.3" x2="279.2" y2="216.2"/>
		<line class="st15" x1="365.1" y1="220.2" x2="355.6" y2="220.2"/>
	</g>
</g>
</svg>
